<?xml version="1.0" encoding="utf-8"?>
<!-- Generator: Adobe Illustrator 18.1.1, SVG Export Plug-In . SVG Version: 6.00 Build 0)  -->
<svg version="1.1" id="Layer_1" xmlns="http://www.w3.org/2000/svg" xmlns:xlink="http://www.w3.org/1999/xlink" x="0px" y="0px"
	 viewBox="0 0 82.4 100.8" enable-background="new 0 0 82.4 100.8" xml:space="preserve">
<g>
	<defs>
		<rect id="SVGID_1_" x="0" y="0" width="82.4" height="100.8"/>
	</defs>
	<clipPath id="SVGID_2_">
		<use xlink:href="#SVGID_1_"  overflow="visible"/>
	</clipPath>
	<path clip-path="url(#SVGID_2_)" fill="#41434E" d="M7.7,97.1c0.4,0.4,3.7,0.5,8,1c3.7-0.5,4.4-1.3,6.9-1.1
		c1.1,0.1,6.8,0.8,6.8,0.8s0,1.6,0.5,1.8c2.4,0.7,5.9,1.1,7.2,1.2c3.9,0.3,20.2-4.7,20.2-4.7l0-4.8l8.6-14.4l-0.1-22.1l2.3-1.3
		l1.6-28.2l1.6-1.4l0.3-3.1c0,0,3.9-1.3,4.7-2.7c0.7-1.4,1-2.4,1-2.4l2.4-0.7c0,0,2.5-9.2,2.8-10.4s1.1-3.7-2.7-3.7S39.4,0,39.4,0
		s-1.1,1-1.8,2.5c-0.7,1.6-0.8,2.5-0.8,2.5s-5.4-0.5-12.4,1.4s-9.6,4.1-9.6,4.1L12.4,11c0,0-4.1,1.1-4.8,2s-0.8,1.5-0.8,1.5
		s-1.4,0-2.9,0c-1.2,0-2.4,0.4-2.4,1.2c0,0,0.1,1,1.1,1H5L5,17c0,0-3.6,0.2-3.7,3.4c0,0-0.8-0.1-0.9,1.6c-0.1,1.7,0,3.9,0,4.6
		c0,0.6,1.3,0.4,1.8,0.5C1.7,27.9,1.4,29,1.4,29l1.9,0.1l1.3,2.2c0,0,1.1,24.9,1.2,27.3C5.9,61,6.3,62,6.7,63
		C7.1,64,7.2,96.5,7.7,97.1"/>
	<path clip-path="url(#SVGID_2_)" fill="#2C2E33" d="M6.7,15.3l0.8-1.9c0,0,25.5,0.6,29,0.4c7.4-0.3,16.9-5,16.9-5l0.7,0
		c0,0-8.9,5.1-17.4,5.4l-0.9,1.9L6.7,15.3z"/>
	<path clip-path="url(#SVGID_2_)" fill="#2C2E33" d="M41.2,2c-0.7,0-1.7,3.6-1.7,3.6c-2.3,0-2.6-0.1-4.3,0c-4,0.2-12.8,4.6-12.8,4.6
		l9.5,0.2c0,0,4.2-1.6,8.1-1.6c6.2,0,14,0.1,14,0.1l4.8-2.7c0,0-3.7-0.1-10.9-0.3l-1.6-2l0.3-2.3l-1.5,1l-0.9,3.3l-3-0.1
		c0,0-0.4-2.8,0.2-3.2C41.4,2.3,41.2,2,41.2,2"/>
	<path clip-path="url(#SVGID_2_)" fill="#6C7181" d="M5,16.6h33.7c3.6,0,7.2-0.4,8.4-0.5c1.2-0.1,1.1,1.3,1.1,1.3s0.4-1.2-0.3-1.6
		c-0.7-0.4-4.1-0.4-6.9-0.3c-2.8,0.1-10.2,0.1-10.2,0.1v-0.9L30,15.5H19.8v-0.9L19,15.5H9.2v-1l-0.9,0.9H6.7c0,0,0-1.6,0.8-1.9
		C8.2,13.1,10.7,12,14,12c2,0,27.5,0.1,27.5,0.1l3.1-1l2.9,0l4.1-1.7L49,10.1H22.4c0.5-0.3,1.4-0.5,1.4-0.5h-2.7
		c-1.2,0-3.1,0.6-3.1,0.6l-2,0.1c0,0,1.5-1,3.3-1.8c1.8-0.8,2.9-1,2.9-1h2.4c0,0,0.7-0.5,3-0.9c2.3-0.4,5.9-0.6,10-0.6
		s20,0.2,20,0.2v0.5c-3.2,0.8-4.7,2.3-4.7,2.3h2.3c1.5-0.9,5.9-2.2,5.9-2.2s3.8-0.1,6.7-0.3c2.9-0.2,4.9-0.2,4.9-0.2l3.1-3.3L76.3,3
		l0.3-1.1l-0.8-0.1l-3.3,3.8H57.7l0.6-2.8l1-1.1l-0.8-0.1l-1.1,1.1l-0.5,2.9H44.7l0.6-3l1.2-1.2h-0.8l-1.2,1l-0.7,3.1h-4.7l0-0.6
		c0,0-8.5-0.5-15.4,1.5s-9.6,4.1-9.6,4.1L11.7,11c0,0-4.1,1.1-4.8,2s-0.8,1.5-0.8,1.5s-1.4,0-2.9,0c-1.2,0-2.4,0.4-2.4,1.2
		c0,0-0.1,1,1.1,1H5z"/>
	<path clip-path="url(#SVGID_2_)" fill="#18181B" d="M48,17.7c-0.3-0.8-1.5-0.2-2.6,0.1c-1.2,0.3-15.7,0.3-15.7,0.3v1.8L29,18H18.4
		v1.6l-0.6-1.6h-10v1.3l-0.5-1.2H4.3l1-1.5l-4,0l-0.3-0.4c0,0,42.6,0.2,44.1,0c1.5-0.2,2.1-0.2,2.7,0.1C48.4,16.7,48.4,17.4,48,17.7
		"/>
	<path clip-path="url(#SVGID_2_)" fill="#2C2E33" d="M30.1,27.9l2.8,0l1.2-4.3L2.8,22.5l1.2-0.9c0,0,30.7,0.9,33.9,0.6
		c3.2-0.3,5.5-1.2,5.5-1.2l32.2-10.1l0.3,0.7L47,21.4l0.7,3.7l18.6-0.7l-1.1,1.3l-18.6,1.9c0,0,2.8,1.4,3.2,2.8
		c0.4,1.4-0.5,28.2-0.5,28.2s-8.2,1.2-8.3,1.5c-0.3,0.9-1.6,2.4-2.5,2.8c-0.9,0.4,1.3-33.9-0.8-34.6c-2.1-0.7-7.3,3.5-8,3.7
		C29,32.3,6,30.9,6,30.9s1.5,29.7,0.9,29c-0.1,0.9-0.4,3.7,0.9,5.4c0.7,0.9,1.8,1.1,1.8,1.1s0.2,31,0.8,31c0.3,0,3.2,0.5,3.2,0.5
		s-0.1-2.3-0.3-7.2c-0.4-9.3-0.7-24.9-0.7-24.9l1.8-11.3l6,0.5l0.7,3.8c0,0,1.1,34.9,0.4,38c0.1,0.1,5.3,0.5,7.8,1.1
		c-0.1,3,4.5,2.5,4.5,2.5l-0.6-34.5c0.2,0.4,2.4,0.7,2.4,0.7l4.9-0.2l0.2,33.5L56,96l0.3-33.8l2.4-5.7l6.2-5l2.6-25.7l1.7-6.6
		l8.4-7.4c0,0,0.5-7.8,0.6-8.5c0.1-0.7,1.3-2,1.3-2h-1.4c-0.8,0-1.2,0.3-1.2,0.3l-2.5,6.9l-1.7-2.2c0,0-5.7,0.2-8.7,0.3
		c-3,0.1-3.3,0.2-7.7,1.8c-2.1,0.8-7.6,7-7.6,7l0.2,2.1c0,0-0.1,0.2-1,0.5l-1.5,0.6c-0.6,0.2-1.3,0.5-2.2,0.7
		c-4.3,1.4-6,1.4-9.1,1.5c-3,0.1-29.4-0.5-31.2-0.5s-2.6-0.7-2.6-0.7l-0.9,1.9L0,27l2.1,0.1l1.8-3.8l0.6-0.4l-0.2,5.5l2.6,0h0.4
		l2-5.4l-0.1,5.5l2.4,0.1l2.6-5.5l0,5.5l2.1,0.2l2.7-5.6v5.5l2.4,0.1l2.5-5.4l-0.1,5.4l2.4,0l2.4-5.3l-0.1,5.1L30.1,27.9z"/>
	<path clip-path="url(#SVGID_2_)" fill="#18181B" d="M81.9,1.7c-0.8-0.9-2.1,0.5-2.3,1c-0.2,0.6-0.8,4.8-1,6.5c-0.3,1.7-2,2.5-2,2.5
		s-24.2,7.6-27.7,8.7c-3.5,1-6.4,2.4-6.4,2.4v3.4l-0.4,0.6l-6.9,0.8l-1.3,0.5h-3.8v0.5l-2.5,1.3L2.5,29.1l2,2.3l1.9,3l16,0.8l0,3.6
		l2.1-3.5l3.8,0.1l4.2-1.7l-3.3-0.1L28,30.3l2.3-1.2l0.7,0.8l2.9,0l2.9-1.3l5.8-0.8l4.5-1.3l19.1-1.1L65.5,26L47,27.6
		c0,0,12.2,0.7,12.2,0.7c0,1.4-1.2,30-1.2,30S42.6,61,42.6,61.2c-0.3,1.4-1.7,3.4-1.7,3.4l-0.4,35.4c0,0,0.2,0.1,1.1-0.1
		c0.9-0.1,2.7-0.5,2.7-0.5v-33c0,0,1.2-2.7,1.4-3.4l0.9-0.2l0,36.1l2.2-0.6V65.7l1.6-3.5l0.9-0.2v35.6l2.2-0.5V65.6l1.7-3.9l0.9-0.2
		v34.9l1-0.4l0.1-31.6l3.1-7.4l4-2.1L60.9,58l-2.7,6.8L58,90.1l7.7-13.2l-0.1-22.1l2.3-1.3l1.6-28.2l1.6-1.4l0.3-3.1
		c0,0,3.9-1.3,4.7-2.7c0.7-1.4,1-2.4,1-2.4l2.4-0.7c0,0,2.5-9.2,2.8-10.4C82.4,3.5,82.5,2.4,81.9,1.7"/>
</g>
<polygon fill="#6C7181" points="29.8,27.4 29.6,28 28,28.9 26.8,28.9 28.5,23.6 27.9,23.6 25.9,28.9 22,28.8 23.9,23.4 23.2,23.4 
	21.1,28.7 16.9,28.6 18.9,23.2 18.4,23.2 16,28.6 12.3,28.5 14.2,23.1 13.8,23.1 11.5,28.5 7.6,28.3 9.3,22.9 8.9,22.9 6.8,28.3 
	2.5,28.2 4.5,22.8 3.9,22.8 1.3,29 27.7,29.7 30.2,28.4 30.2,28.1 33.9,27.9 35.3,27.5 42.2,26.7 75.6,16.1 75.6,15.6 42.3,25.9 
	42.3,22.7 38.3,23.5 38.3,26.4 35.3,26.7 33.3,27.3 "/>
<g>
	<defs>
		<rect id="SVGID_3_" x="0" y="0" width="82.4" height="100.8"/>
	</defs>
	<clipPath id="SVGID_4_">
		<use xlink:href="#SVGID_3_"  overflow="visible"/>
	</clipPath>
	<path clip-path="url(#SVGID_4_)" fill="#0F0F0F" d="M76.8,84.2c0.2-0.1,0.3-0.3,0.3-0.6c0-0.2-0.1-0.5-0.2-0.6c0-0.5,0-0.9,0-1.4
		c0.1-0.1,0.2-0.2,0.2-0.3c0-0.2-0.1-0.4-0.2-0.5c0-0.4-0.1-0.8-0.2-1.2c0.1-0.1,0.2-0.2,0.2-0.4c0-0.3-0.2-0.5-0.4-0.6
		c-0.1-0.4-0.3-0.9-0.4-1.3c0.1-0.1,0.1-0.2,0.1-0.3c0-0.3-0.2-0.6-0.6-0.6l0,0c0-0.3-0.2-0.7-0.4-1c0.1-0.1,0.2-0.2,0.2-0.4
		c0-0.3-0.2-0.6-0.6-0.6c0,0-0.4-0.5-0.8-1c0-0.3-0.3-0.8-0.7-0.8c0,0-0.8-1.1-3.7-1.4c-4.2-0.4-5.3,0.7-5.3,0.7
		c-0.3,0-0.6,0.2-0.7,0.4c0,0.2-0.6,0.7-0.8,0.9l-0.4,0c-0.3,0-0.6,0.2-0.7,0.5c0,0.3,0.1,0.5,0.4,0.6c-0.2,0.2-0.4,0.5-0.7,0.7
		l-0.6-0.1c-0.3,0-0.6,0.2-0.6,0.5c0,0.3,0.2,0.5,0.4,0.6c-0.2,0.3-0.4,0.6-0.6,0.9l-0.5,0c-0.3,0-0.6,0.2-0.6,0.5
		c0,0.3,0.2,0.6,0.5,0.6l0.1,0c-0.1,0.3-0.2,0.6-0.3,0.9l-0.1,0c-0.3,0-0.6,0.2-0.6,0.5c0,0.3,0.1,0.5,0.4,0.6
		c-0.1,0.4-0.2,0.7-0.2,1.1l0,0c-0.3,0-0.6,0.3-0.6,0.7c0,0.4,0.2,0.7,0.5,0.8h0c0,0.4,0,0.8,0,1.2c-0.2,0-0.4,0.3-0.5,0.5
		c0,0.3,0.2,0.6,0.5,0.6l0,0c0,0.3,0.1,0.6,0.1,1c-0.3,0-0.6,0.2-0.6,0.5c0,0.3,0.2,0.6,0.5,0.6l0.3,0.1c0,0.4,0.1,0.7,0.3,1.1
		c-0.2,0.1-0.4,0.3-0.4,0.5c0,0.3,0.2,0.6,0.5,0.6l0.4,0c0.2,0.3,0.4,0.6,0.6,0.9C60,90.4,60,90.5,60,90.7c0,0.3,0.2,0.6,0.6,0.6
		l0.6,0.1c0.2,0.2,0.4,0.5,0.6,0.7c-0.1,0.1-0.2,0.2-0.2,0.3c0,0.3,0.2,0.5,0.6,0.5c0,0,1.5,1.4,4.1,1.6c1.8,0.1,3.4-0.1,4-0.7
		c0,0,0.9,0.2,1.2-0.6c0-0.1,0-0.1,0-0.2c0.3-0.2,0.7-0.4,1-0.7l0.4,0c0.3,0,0.6-0.2,0.7-0.5c0-0.1,0-0.3-0.1-0.4
		c0.3-0.3,0.5-0.6,0.8-0.9l0,0c0.3,0,0.6-0.2,0.7-0.5c0-0.1,0-0.2-0.1-0.3c0.2-0.4,0.5-0.8,0.7-1.2c0.3,0,0.5-0.2,0.5-0.5
		c0-0.1,0-0.3-0.1-0.4c0.2-0.4,0.3-0.8,0.4-1.2c0.2-0.1,0.3-0.3,0.3-0.5c0-0.1,0-0.3-0.1-0.4C76.6,85.2,76.7,84.7,76.8,84.2"/>
	<path clip-path="url(#SVGID_4_)" fill="#2C2E33" d="M75.6,83.6c-0.5,5.2-3.7,9.3-7,9c-3.4-0.3-5.7-4.8-5.1-10c0.5-5.2,3.7-9.3,7-9
		C73.8,73.8,76.1,78.3,75.6,83.6"/>
</g>
<polygon fill="#2C2E33" points="71.3,82 70,81.3 68.7,82.6 68.9,84.4 70.4,85 71.6,83.8 "/>
<g>
	<defs>
		<rect id="SVGID_5_" x="0" y="0" width="82.4" height="100.8"/>
	</defs>
	<clipPath id="SVGID_6_">
		<use xlink:href="#SVGID_5_"  overflow="visible"/>
	</clipPath>
	<path clip-path="url(#SVGID_6_)" fill="#2C2E33" d="M70.1,75.2l0.3,5.7l1,0.5l2.5-3c0,0-0.2-1.2-1.6-2.4
		C71.1,74.9,70.1,75.2,70.1,75.2"/>
	<path clip-path="url(#SVGID_6_)" fill="#2C2E33" d="M74.4,79.6l-2.5,2.6l0.2,1.4l2.5,0.6c0,0,0.3-1.1,0.2-2.5
		C74.7,80.5,74.4,79.6,74.4,79.6"/>
	<path clip-path="url(#SVGID_6_)" fill="#2C2E33" d="M71.9,84.4l2.6,1c0,0-0.2,1.4-1.4,3.2c-1.1,1.5-1.8,1.8-1.8,1.8l-0.3-4.9
		L71.9,84.4z"/>
	<path clip-path="url(#SVGID_6_)" fill="#2C2E33" d="M68.9,84.9l1.1,0.5l0.2,5.1c0,0-1.3,0.3-2.4-0.2c-1.4-0.6-1.8-2-1.8-2
		L68.9,84.9z"/>
	<path clip-path="url(#SVGID_6_)" fill="#2C2E33" d="M65,82l3.2,1.1l0.1,1.1l-2.8,3.1c0,0-0.5-1.2-0.6-2.8C64.8,83.4,65,82,65,82"/>
	<path clip-path="url(#SVGID_6_)" fill="#2C2E33" d="M69.4,81l-1,1L65.2,81c0,0,0.5-2.4,1.6-3.8c1.2-1.5,2.2-1.9,2.2-1.9L69.4,81z"
		/>
</g>
<polygon fill="#3E4348" points="71.3,82 70,81.3 68.7,82.6 68.9,84.4 70.4,85 71.6,83.8 "/>
<g>
	<defs>
		<rect id="SVGID_7_" x="0" y="0" width="82.4" height="100.8"/>
	</defs>
	<clipPath id="SVGID_8_">
		<use xlink:href="#SVGID_7_"  overflow="visible"/>
	</clipPath>
	<path clip-path="url(#SVGID_8_)" fill="#3E4348" d="M70.1,75.2l0.3,5.7l1,0.5l2.5-3c0,0-0.2-1.2-1.6-2.4
		C71.1,74.9,70.1,75.2,70.1,75.2"/>
	<path clip-path="url(#SVGID_8_)" fill="#3E4348" d="M74.4,79.6l-2.5,2.6l0.2,1.4l2.5,0.6c0,0,0.3-1.1,0.2-2.5
		C74.7,80.5,74.4,79.6,74.4,79.6"/>
	<path clip-path="url(#SVGID_8_)" fill="#3E4348" d="M71.9,84.4l2.6,1c0,0-0.2,1.4-1.4,3.2c-1.1,1.5-1.8,1.8-1.8,1.8l-0.3-4.9
		L71.9,84.4z"/>
	<path clip-path="url(#SVGID_8_)" fill="#3E4348" d="M68.9,84.9l1.1,0.5l0.2,5.1c0,0-1.3,0.4-2.5-0.1c-1.4-0.6-1.7-2-1.7-2
		L68.9,84.9z"/>
	<path clip-path="url(#SVGID_8_)" fill="#3E4348" d="M65,82l3.2,1.1l0.1,1.1l-2.8,3.1c0,0-0.5-1.2-0.6-2.8C64.8,83.4,65,82,65,82"/>
	<path clip-path="url(#SVGID_8_)" fill="#3E4348" d="M69.3,81.1l-1,1L65.2,81c0,0,0.5-2.4,1.6-3.8c1.2-1.5,2.1-1.8,2.1-1.8
		L69.3,81.1z"/>
</g>
<polygon fill="#0F0F0F" points="70.8,81.8 70,81.3 68.7,82.6 68.9,83.9 70.1,84.4 71,83.4 "/>
<g>
	<defs>
		<rect id="SVGID_9_" x="0" y="0" width="82.4" height="100.8"/>
	</defs>
	<clipPath id="SVGID_10_">
		<use xlink:href="#SVGID_9_"  overflow="visible"/>
	</clipPath>
	<path clip-path="url(#SVGID_10_)" fill="#0F0F0F" d="M70.2,75.9l0.2,5l0.4,0.2l2.3-2.7c0,0-0.1-0.9-1.5-1.9
		C70.6,75.7,70.2,75.9,70.2,75.9"/>
	<path clip-path="url(#SVGID_10_)" fill="#0F0F0F" d="M73.9,80.1l-2,2.1l0.1,0.9l2,0.5c0,0,0.2-0.3,0.2-1.7
		C74.3,80.7,73.9,80.1,73.9,80.1"/>
	<path clip-path="url(#SVGID_10_)" fill="#0F0F0F" d="M71.7,84.5l1.9,1c0,0,0,1-0.9,2.2c-0.8,1-1.5,1.3-1.5,1.3l-0.3-3.7L71.7,84.5z
		"/>
	<path clip-path="url(#SVGID_10_)" fill="#0F0F0F" d="M68.9,84.9l0.7,0.3l0.1,4.2c0,0-1.2,0.7-2.6,0c-1.4-0.7-1.1-1.1-1.1-1.1
		L68.9,84.9z"/>
	<path clip-path="url(#SVGID_10_)" fill="#0F0F0F" d="M65,82l3.2,1.1l0.1,1.1l-2.8,3.1c0,0-0.5-1.2-0.6-2.8C64.8,83.4,65,82,65,82"
		/>
	<path clip-path="url(#SVGID_10_)" fill="#0F0F0F" d="M69.2,81.2l-0.8,0.9L65.2,81c0,0,0.5-2.4,1.6-3.8c1.2-1.5,1.8-1.2,1.8-1.2
		L69.2,81.2z"/>
	<path clip-path="url(#SVGID_10_)" fill="#2C2E33" d="M68.7,71.6c0,0-7.7,0.6-8.3,10.6c-0.5,8.4,3.6,11,3.6,11s-5.1-2.5-4.3-11.3
		C60.8,71.3,68.7,71.6,68.7,71.6"/>
	<path clip-path="url(#SVGID_10_)" fill="#18181B" d="M14.3,54.6c0,0-0.1-2.7,2.6-2.7c1.7,0,4.8,0.4,6.3,0.6
		c3.1,0.4,3.4,2.8,3.9,5.5c0.5,2.7,0.2,3.6,0.6,4.8c0.5,1.2,1.7,2.9,1.7,2.9l0,32.1l-5.1-0.5l0.4-18.5c0,0-1-0.3-2.2-0.7
		c-0.3-0.1-0.9,19.1-1.2,19.1c-0.2-0.1-0.1-19.5-0.3-19.5c-0.7-0.2-1.3-0.4-1.7-0.6c-1.5-0.5-2.9-2.5-2.9-2.5l8.3-0.1l0.1-5
		c0,0-0.4-1-1.5-3.5c-0.5-1.2-0.3-2-0.5-5.6c0-0.4-0.4-0.5-0.6-0.7c0-0.1,0.1,9.5,0,12.5c-0.1,4.2-1,1.8-1,1.7
		c-0.1-0.1-0.4-12.2-0.5-12.4c-0.1-2.3-0.1-5.8-3.1-6.4C15.4,54.5,14.3,54.6,14.3,54.6"/>
</g>
<polygon fill="#18181B" points="57.3,2.8 46.4,2.4 46.3,3.8 47.7,5.3 56.8,5.4 "/>
<polygon fill="#18181B" points="69.9,2.8 59.2,2.6 59.1,3.7 60.4,5.2 69,5.3 "/>
<g>
	<defs>
		<rect id="SVGID_11_" x="0" y="0" width="82.4" height="100.8"/>
	</defs>
	<clipPath id="SVGID_12_">
		<use xlink:href="#SVGID_11_"  overflow="visible"/>
	</clipPath>
	<path clip-path="url(#SVGID_12_)" fill="#6C7181" d="M28.7,72.3c0,0-11.8-0.7-12.3-0.8c-0.5,0-1,0.8-1,1.7c0,0.9,0.4,1.6,0.7,1.7
		c0.4,0.1,12.6,1,12.6,1L28.7,72.3z"/>
	<path clip-path="url(#SVGID_12_)" fill="#6C7181" d="M36.9,28.6l5.8-0.8l-2.1,0.7c0,0,0.4,30,0.3,31.7s-1.9,3.3-2.8,3
		c-0.9-0.3-0.3-33.5-0.3-33.5l-1.1-0.9L36.9,28.6z"/>
</g>
<polygon fill="#41434E" points="34,29.9 30.9,29.9 30.3,29.1 28.1,30.3 29.2,33.6 33.3,33.8 "/>
<g>
	<defs>
		<rect id="SVGID_13_" x="0" y="0" width="82.4" height="100.8"/>
	</defs>
	<clipPath id="SVGID_14_">
		<use xlink:href="#SVGID_13_"  overflow="visible"/>
	</clipPath>
	<path clip-path="url(#SVGID_14_)" fill="#6C7181" d="M38.2,66.7l2.3-0.2l0,33.4c0,0-1.5,0.9-2.5,0.8C37,100.8,38.2,66.7,38.2,66.7"
		/>
	<path clip-path="url(#SVGID_14_)" fill="#6C7181" d="M12.6,65.8l1.8-11.3l-0.9,11.6L14,97.7c0,0,0.9,0.3-0.1,0.3
		C12.8,98,12.6,65.8,12.6,65.8"/>
</g>
</svg>
