<?xml version="1.0" encoding="utf-8"?>
<!-- Generator: Adobe Illustrator 18.1.1, SVG Export Plug-In . SVG Version: 6.00 Build 0)  -->
<svg version="1.1" id="Layer_1" xmlns="http://www.w3.org/2000/svg" xmlns:xlink="http://www.w3.org/1999/xlink" x="0px" y="0px"
	 viewBox="0 0 111.8 152.1" enable-background="new 0 0 111.8 152.1" xml:space="preserve">
<g>
	<defs>
		<rect id="SVGID_1_" x="0" y="0" width="111.8" height="152.1"/>
	</defs>
	<clipPath id="SVGID_2_">
		<use xlink:href="#SVGID_1_"  overflow="visible"/>
	</clipPath>
	<path clip-path="url(#SVGID_2_)" fill="#0F0F0F" d="M111.3,129.1c0.3-0.2,0.5-0.5,0.5-0.9c0-0.4-0.1-0.7-0.3-0.9c0-0.7,0-1.5,0-2.2
		c0.1-0.1,0.2-0.3,0.3-0.5c0-0.3-0.1-0.6-0.4-0.8c-0.1-0.6-0.2-1.3-0.3-1.9c0.2-0.1,0.3-0.3,0.3-0.5c0-0.4-0.2-0.8-0.6-0.9
		c-0.2-0.7-0.4-1.3-0.7-2c0.1-0.1,0.2-0.3,0.2-0.5c0-0.5-0.3-0.9-0.8-1l-0.1,0c-0.1-0.5-0.3-1-0.6-1.5c0.2-0.1,0.3-0.3,0.3-0.5
		c0-0.5-0.3-0.9-0.8-1c0,0-0.6-0.7-1.3-1.6c0-0.4-0.5-1.2-1-1.3c0,0-1.2-1.8-5.7-2.2c-6.5-0.6-8.1,1.1-8.1,1.1c-0.5,0-1,0.2-1,0.6
		c0,0.3-0.9,1.1-1.3,1.3l-0.6-0.1c-0.5,0-1,0.3-1,0.8c0,0.4,0.2,0.8,0.6,0.9c-0.3,0.4-0.7,0.7-1,1.1l-0.9-0.1
		c-0.5,0-0.9,0.3-0.9,0.8c0,0.4,0.2,0.8,0.6,0.9c-0.3,0.5-0.6,1-0.9,1.5l-0.7-0.1c-0.5,0-0.9,0.3-0.9,0.8c0,0.5,0.3,0.9,0.8,1l0.1,0
		c-0.2,0.5-0.4,0.9-0.5,1.4l-0.2,0c-0.5,0-0.9,0.3-0.9,0.8c0,0.4,0.2,0.8,0.6,0.9c-0.1,0.5-0.2,1.1-0.3,1.6l0,0c-0.5,0-0.9,0.4-1,1
		c-0.1,0.6,0.3,1.1,0.8,1.2l0,0c0,0.6-0.1,1.3,0,1.9c-0.4,0.1-0.7,0.4-0.7,0.8c0,0.5,0.3,0.9,0.8,1l0.1,0c0.1,0.5,0.1,1,0.2,1.5
		c-0.5,0-0.8,0.3-0.9,0.8c0,0.5,0.3,0.9,0.8,1l0.5,0.1c0.1,0.6,0.2,1.1,0.4,1.6c-0.3,0.1-0.6,0.4-0.6,0.8c0,0.5,0.3,0.9,0.8,1
		l0.6,0.1c0.2,0.5,0.6,1,0.9,1.4c-0.3,0.1-0.3,0.3-0.3,0.6c0,0.5,0.3,0.9,0.9,1l0.9,0.1c0.3,0.4,0.6,0.7,1,1
		c-0.2,0.1-0.3,0.3-0.3,0.5c0,0.4,0.4,0.8,0.9,0.8c0,0,2.2,2.2,6.2,2.4c2.8,0.2,5.2-0.1,6.1-1c0,0,1.4,0.3,1.9-0.9
		c0-0.1,0-0.2,0-0.2c0.5-0.3,1-0.7,1.5-1l0.6,0.1c0.5,0,1-0.3,1-0.8c0-0.2,0-0.4-0.2-0.6c0.4-0.4,0.8-0.9,1.2-1.4l0,0
		c0.5,0,1-0.3,1-0.8c0-0.2,0-0.4-0.1-0.5c0.4-0.6,0.7-1.2,1.1-1.8c0.4-0.1,0.8-0.4,0.8-0.8c0-0.2,0-0.4-0.2-0.6
		c0.2-0.6,0.5-1.2,0.7-1.8c0.3-0.1,0.5-0.4,0.5-0.7c0-0.2,0-0.4-0.2-0.6C111,130.7,111.2,129.9,111.3,129.1"/>
	<path clip-path="url(#SVGID_2_)" fill="#2C2E33" d="M109.5,128.2c-0.8,8-5.6,14.2-10.7,13.7c-5.1-0.5-8.7-7.3-7.9-15.4
		c0.8-8,5.6-14.2,10.7-13.7C106.7,113.3,110.3,120.2,109.5,128.2"/>
</g>
<polygon fill="#2C2E33" points="102.9,125.8 100.9,124.7 98.9,126.7 99.3,129.5 101.5,130.3 103.3,128.6 "/>
<g>
	<defs>
		<rect id="SVGID_3_" x="0" y="0" width="111.8" height="152.1"/>
	</defs>
	<clipPath id="SVGID_4_">
		<use xlink:href="#SVGID_3_"  overflow="visible"/>
	</clipPath>
	<path clip-path="url(#SVGID_4_)" fill="#2C2E33" d="M101.1,115.4l0.4,8.7l1.6,0.8l3.8-4.6c0,0-0.3-1.8-2.5-3.6
		C102.5,114.9,101.1,115.4,101.1,115.4"/>
	<path clip-path="url(#SVGID_4_)" fill="#2C2E33" d="M107.6,122.1l-3.8,4l0.3,2.1l3.8,1c0,0,0.5-1.7,0.4-3.9
		C108.2,123.5,107.6,122.1,107.6,122.1"/>
	<path clip-path="url(#SVGID_4_)" fill="#2C2E33" d="M103.8,129.4l3.9,1.5c0,0-0.3,2.2-2.1,4.9c-1.6,2.4-2.8,2.7-2.8,2.7l-0.5-7.5
		L103.8,129.4z"/>
	<path clip-path="url(#SVGID_4_)" fill="#2C2E33" d="M99.3,130.3l1.7,0.7l0.4,7.9c0,0-2,0.5-3.7-0.3c-2.2-1-2.8-3.1-2.8-3.1
		L99.3,130.3z"/>
	<path clip-path="url(#SVGID_4_)" fill="#2C2E33" d="M93.2,125.9l4.8,1.7l0.2,1.7L94,134c0,0-0.8-1.8-1-4.4
		C92.9,127.9,93.2,125.9,93.2,125.9"/>
	<path clip-path="url(#SVGID_4_)" fill="#2C2E33" d="M100,124.3l-1.6,1.6l-4.8-1.6c0,0,0.7-3.6,2.5-5.8c1.8-2.2,3.3-2.9,3.3-2.9
		L100,124.3z"/>
</g>
<polygon fill="#3E4348" points="102.9,125.8 100.9,124.7 98.9,126.7 99.3,129.5 101.5,130.3 103.3,128.6 "/>
<g>
	<defs>
		<rect id="SVGID_5_" x="0" y="0" width="111.8" height="152.1"/>
	</defs>
	<clipPath id="SVGID_6_">
		<use xlink:href="#SVGID_5_"  overflow="visible"/>
	</clipPath>
	<path clip-path="url(#SVGID_6_)" fill="#3E4348" d="M101.1,115.4l0.4,8.7l1.6,0.8l3.8-4.6c0,0-0.3-1.8-2.5-3.6
		C102.5,114.9,101.1,115.4,101.1,115.4"/>
	<path clip-path="url(#SVGID_6_)" fill="#3E4348" d="M107.6,122.1l-3.8,4l0.3,2.1l3.8,1c0,0,0.5-1.7,0.4-3.9
		C108.2,123.5,107.6,122.1,107.6,122.1"/>
	<path clip-path="url(#SVGID_6_)" fill="#3E4348" d="M103.8,129.4l3.9,1.5c0,0-0.3,2.2-2.1,4.9c-1.6,2.4-2.8,2.7-2.8,2.7l-0.5-7.5
		L103.8,129.4z"/>
	<path clip-path="url(#SVGID_6_)" fill="#3E4348" d="M99.3,130.3l1.7,0.7l0.3,7.8c0,0-2,0.6-3.8-0.1c-2.2-1-2.7-3.1-2.7-3.1
		L99.3,130.3z"/>
	<path clip-path="url(#SVGID_6_)" fill="#3E4348" d="M93.2,125.9l4.8,1.7l0.2,1.7L94,134c0,0-0.8-1.8-1-4.4
		C92.9,127.9,93.2,125.9,93.2,125.9"/>
	<path clip-path="url(#SVGID_6_)" fill="#3E4348" d="M99.9,124.4l-1.5,1.5l-4.8-1.6c0,0,0.7-3.6,2.5-5.8c1.8-2.2,3.2-2.8,3.2-2.8
		L99.9,124.4z"/>
</g>
<polygon fill="#0F0F0F" points="102.2,125.5 100.9,124.7 98.9,126.7 99.2,128.7 101.1,129.4 102.5,128 "/>
<g>
	<defs>
		<rect id="SVGID_7_" x="0" y="0" width="111.8" height="152.1"/>
	</defs>
	<clipPath id="SVGID_8_">
		<use xlink:href="#SVGID_7_"  overflow="visible"/>
	</clipPath>
	<path clip-path="url(#SVGID_8_)" fill="#0F0F0F" d="M101.2,116.4l0.3,7.6l0.6,0.3l3.5-4.2c0,0-0.2-1.3-2.3-2.9
		C101.8,116.2,101.2,116.4,101.2,116.4"/>
	<path clip-path="url(#SVGID_8_)" fill="#0F0F0F" d="M106.9,122.9l-3.1,3.2l0.2,1.3l3.1,0.8c0,0,0.3-0.4,0.4-2.6
		C107.5,123.7,106.9,122.9,106.9,122.9"/>
	<path clip-path="url(#SVGID_8_)" fill="#0F0F0F" d="M103.5,129.7l2.9,1.5c0,0,0,1.5-1.4,3.4c-1.2,1.6-2.3,2.1-2.3,2.1l-0.4-5.6
		L103.5,129.7z"/>
	<path clip-path="url(#SVGID_8_)" fill="#0F0F0F" d="M99.3,130.3l1.1,0.5l0.1,6.5c0,0-1.9,1-4,0c-2.1-1-1.8-1.7-1.8-1.7L99.3,130.3z
		"/>
	<path clip-path="url(#SVGID_8_)" fill="#0F0F0F" d="M93.2,125.9l4.8,1.7l0.2,1.7L94,134c0,0-0.8-1.8-1-4.4
		C92.9,127.9,93.2,125.9,93.2,125.9"/>
	<path clip-path="url(#SVGID_8_)" fill="#0F0F0F" d="M99.6,124.5l-1.2,1.4l-4.8-1.6c0,0,0.7-3.6,2.5-5.8c1.8-2.2,2.7-1.8,2.7-1.8
		L99.6,124.5z"/>
	<path clip-path="url(#SVGID_8_)" fill="#3E4348" d="M98.9,109.8c0,0-11.8,1-12.8,16.2c-0.8,12.9,5.6,16.9,5.6,16.9
		s-7.8-3.9-6.5-17.2C86.8,109.3,98.9,109.8,98.9,109.8"/>
	<path clip-path="url(#SVGID_8_)" fill="#41434E" d="M5,41c0.3,0.4,6.2,4.4,6.2,4.4s1.6,97.6,2.9,98.7c0.4,0.4,1.9,1,6.2,1.5
		c3.7-0.5,7.7-1.1,10.1-0.8c1.1,0.1,18.5,3,18.5,3s-0.1,2.3,0.5,2.4c4.5,0.9,17.2-0.7,18.5-0.6c3.9,0.3,17.9-4.4,17.9-4.4l1.4-21.3
		l7.7-14.2l4.1-66.9l5.2-5.8l1.4-22.4l3.2-0.1c0,0-0.1-2.9-0.1-3.9S108.1,9,107,9c0,0,0.2-3.7-0.2-4.5s-2-0.5-2-0.5l-3.1,1.1
		L86.9,0.7c0,0-4.6-0.3-9.1-0.3c-4.5,0-27-0.5-36.3-0.4c-9.3,0.1-28,0.9-28,0.9s-1,0.1-1.1,1c0,0-3.7,1.4-4.6,1.5
		C7,3.5,4.5,3.5,4,3.7C3.5,4,3,4.6,3,4.6h2.7v3.7c0,0-2.7,0-3,0.5c-0.2,0.5,0,1,0,1s-2.5-0.4-2.5,1.2c0,1.6-0.2,4.2-0.2,4.2l3.5,0.2
		C3.5,15.6,4.4,40.3,5,41"/>
	<path clip-path="url(#SVGID_8_)" fill="#2C2E33" d="M11.3,2.5l2.4-1.3l60.6-0.4l0.9,0.6L59.7,1.9l-2,1l7.6,2l-0.2,2.5l6.5,0.8
		L49.9,9.6L2.7,9.8c0,0-0.2-1,0.5-1c0.7-0.1,2.5-0.4,2.5-0.4L6.5,4L11.3,2.5z"/>
	<path clip-path="url(#SVGID_8_)" fill="#18181B" d="M5.5,4.4c0,0,58.7-1.5,63.4-0.9c4.7,0.6,8.6,1.6,8.6,1.6l-8.3,0.3
		c0,0-0.8-0.6-2.4-0.6c-1.6,0-3.9,0.8-3.9,0.8l-1.6,2.3l-4.6-0.1V7l-13-0.2l-1.9,1.3l-3.6,0.1V7.4L24,7.3v1L20,8.4l-0.1-0.8L7.5,7.4
		l-1.1,1l-0.8,0V4.6"/>
</g>
<polygon fill="#2C2E33" points="4.3,10.8 0.5,10.8 0.2,11.1 0.4,14.7 63.2,14.7 63.1,10.2 "/>
<g>
	<defs>
		<rect id="SVGID_9_" x="0" y="0" width="111.8" height="152.1"/>
	</defs>
	<clipPath id="SVGID_10_">
		<use xlink:href="#SVGID_9_"  overflow="visible"/>
	</clipPath>
	<path clip-path="url(#SVGID_10_)" fill="#41434E" d="M26.1,145.7l-1.7-111L17.5,31L17,147c0,0,4.9,0.9,5.3,0.8
		C22.6,147.6,26.1,145.7,26.1,145.7"/>
	<path clip-path="url(#SVGID_10_)" fill="#6C7181" d="M71.9,3.1c0,0-4.5-0.3-6.5-0.3s-6.6-0.3-6.6-0.3L59.5,2c0,0-1.9-0.3-4.3-0.1
		C52.7,2.1,12,2.6,12,2.6c0.2-0.5,2.9-1.2,2.9-1.2l60.2-0.9c0,0-22.7-0.6-29.3-0.5S14.5,0.9,13.5,0.9c-1,0-1.7,1.1-1.7,1.1L7.8,3.4
		c0,0-1.8,0.2-3.2,0.3C3.3,3.8,3,4.6,3,4.6s52.4-1.2,56-1.2c3.6,0,12.4,0.4,12.4,0.4l6.1,1.2l23.8,0.5L86.6,1.1L78,1.2L71.9,3.1z"/>
</g>
<polygon fill="#6C7181" points="6.6,5.2 6.5,8.3 8.4,8.3 8.2,7.5 "/>
<polygon fill="#6C7181" points="23.8,5.1 23.7,8.3 25.6,8.3 25.5,7.4 "/>
<polygon fill="#6C7181" points="41.8,4.6 41.7,8.1 44,8.1 43.8,7.2 "/>
<polygon fill="#6C7181" points="60.9,4.2 60.6,7.9 62.8,7.9 62.8,5.7 "/>
<g>
	<defs>
		<rect id="SVGID_11_" x="0" y="0" width="111.8" height="152.1"/>
	</defs>
	<clipPath id="SVGID_12_">
		<use xlink:href="#SVGID_11_"  overflow="visible"/>
	</clipPath>
	<path clip-path="url(#SVGID_12_)" fill="#6C7181" d="M0.5,10.8c0,0,0.1-0.6,1.8-0.7c1.7-0.1,58.8-0.3,61-0.2
		c2.2,0.1,6.3,0.2,6.3,0.2l6.6,0.2l-6.5,0.1l0.1,4.6L63,14.7l-0.2-4.3L5.1,11.1l-0.1,3.6H2.8L3,10.9L0.5,10.8z"/>
	<path clip-path="url(#SVGID_12_)" fill="#2C2E33" d="M14.6,146.8c-1.2-1.1-3.4-101.5-3.4-101.5S5.3,41.4,5,41
		c-0.5-0.7-1.5-25.4-1.5-25.4l55.4,1.2l0.7,26.6l-8.7,2.8l2,105.1l-5.6-0.7l-0.2-3c0,0-17.2-2.6-19.1-2.1c-2.1,0.6-3.9,1.3-3.9,1.3
		L23.8,37.3l-6.4-7.1L17.3,147L14.6,146.8z"/>
	<path clip-path="url(#SVGID_12_)" fill="#18181B" d="M14.1,146.4c-1-1.3-2.9-101.1-2.9-101.1S5.4,42.4,5,41
		c-0.4-1.4-1.5-25.4-1.5-25.4L63,15.1l42.5-0.6l-1.4,22.4l-5.2,5.8l-3.9,67c0,0-5.9,11.2-6.5,15.4c-0.6,4.2-2.8,20-2.8,20l-3.6,1.1
		l2.9-108.5c0,0,4.5-0.2,6.3-1c1.8-0.8,3-2.5,3-4.3c0-1.8,0.8-14.7,0.8-14.7l-21.5-0.5l-0.8-0.8l-1.7,1L58.9,17l-5.8,1.5
		c0,0-47.5-0.4-47.6,0.6c-0.1,1,0.2,18.7,0.7,20.3c0.5,1.6,6.7,3.7,7.3,6.1c0.7,2.4,2.7,101.5,2.7,101.5S14.5,147,14.1,146.4"/>
</g>
<polygon fill="#2C2E33" points="71.2,17.3 72.8,16.3 73.7,17.1 72.6,38 71,38 "/>
<polygon fill="#18181B" points="18.6,30.5 44.6,30.5 46.9,147.4 35.8,146.2 35.7,92 24.4,90.9 20.3,85.2 23.8,85.9 24.3,87.4 
	36,87.7 35.1,37.7 23.8,37.3 "/>
<polygon fill="#1F2224" points="2.7,9.8 66,10 95.1,10.8 66,9.1 "/>
<g>
	<defs>
		<rect id="SVGID_13_" x="0" y="0" width="111.8" height="152.1"/>
	</defs>
	<clipPath id="SVGID_14_">
		<use xlink:href="#SVGID_13_"  overflow="visible"/>
	</clipPath>
	<path clip-path="url(#SVGID_14_)" fill="#6C7181" d="M51.4,151.2L50.9,45.9h22.7l-2.6,103.2c0,0-4.6,2.6-7.7,2.9
		C60.2,152.3,51.4,151.2,51.4,151.2"/>
	<path clip-path="url(#SVGID_14_)" fill="#18181B" d="M73.6,46.1c0,0-5.1-3.2-10.8-3.2s-11.9,3.3-11.9,3.3s2.1,0.7,12.3,0.9
		C73.1,47.2,73.6,46.1,73.6,46.1"/>
	<path clip-path="url(#SVGID_14_)" fill="#6C7181" d="M20.8,82.8l25.7,1.5l0.1,3.2L21,85.7c0,0-1.4-0.7-1.4-1.8
		C19.5,82.9,20.8,82.8,20.8,82.8"/>
</g>
</svg>
