<?xml version="1.0" encoding="utf-8"?>
<!-- Generator: Adobe Illustrator 18.1.1, SVG Export Plug-In . SVG Version: 6.00 Build 0)  -->
<svg version="1.1" id="Layer_1" xmlns="http://www.w3.org/2000/svg" xmlns:xlink="http://www.w3.org/1999/xlink" x="0px" y="0px"
	 viewBox="0 0 135 191.3" enable-background="new 0 0 135 191.3" xml:space="preserve">
<g>
	<defs>
		<rect id="SVGID_1_" x="0" width="135" height="191.3"/>
	</defs>
	<clipPath id="SVGID_2_">
		<use xlink:href="#SVGID_1_"  overflow="visible"/>
	</clipPath>
	<path clip-path="url(#SVGID_2_)" fill="#0F0F0F" d="M134.1,163.9c0.3-0.2,0.5-0.6,0.6-1c0-0.4-0.1-0.8-0.4-1.1c0-0.8,0-1.7,0-2.5
		c0.2-0.2,0.3-0.4,0.3-0.6c0-0.4-0.1-0.7-0.4-0.9c-0.1-0.7-0.2-1.5-0.3-2.2c0.2-0.2,0.3-0.4,0.3-0.6c0-0.5-0.3-0.9-0.7-1.1
		c-0.2-0.8-0.5-1.5-0.8-2.3c0.1-0.2,0.2-0.4,0.3-0.6c0.1-0.6-0.4-1.1-1-1.1l-0.1,0c-0.1-0.6-0.3-1.2-0.7-1.8
		c0.2-0.2,0.3-0.4,0.3-0.6c0.1-0.6-0.4-1.1-1-1.1c0,0-0.6-0.8-1.5-1.8c0-0.5-0.6-1.4-1.2-1.5c0,0-1.4-2-6.6-2.5
		c-7.5-0.7-9.3,1.3-9.3,1.3c-0.6-0.1-1.1,0.3-1.2,0.7c0,0.4-1.1,1.3-1.5,1.5l-0.7-0.1c-0.6-0.1-1.1,0.4-1.2,0.9
		c0,0.5,0.2,0.9,0.7,1.1c-0.4,0.4-0.8,0.8-1.2,1.3l-1.1-0.1c-0.5,0-1,0.4-1.1,0.9c-0.1,0.5,0.3,1,0.7,1.1c-0.4,0.5-0.7,1.1-1,1.7
		l-0.8-0.1c-0.5,0-1,0.4-1.1,0.9c-0.1,0.6,0.3,1.1,0.9,1.1l0.1,0c-0.2,0.5-0.4,1.1-0.6,1.6l-0.2,0c-0.5,0-1,0.4-1.1,0.9
		c-0.1,0.5,0.3,1,0.7,1.1c-0.2,0.6-0.3,1.3-0.4,1.9l0,0c-0.5,0-1,0.5-1.1,1.2s0.3,1.3,0.9,1.4l0,0c0,0.7-0.1,1.5,0,2.2
		c-0.4,0.1-0.8,0.5-0.8,0.9c-0.1,0.6,0.3,1.1,0.9,1.1l0.1,0c0.1,0.6,0.1,1.1,0.2,1.7c-0.5,0-1,0.4-1,0.9c-0.1,0.6,0.3,1.1,0.9,1.1
		l0.5,0.1c0.1,0.6,0.2,1.3,0.5,1.9c-0.4,0.1-0.6,0.5-0.7,0.9c-0.1,0.6,0.3,1.1,0.9,1.1l0.7,0.1c0.3,0.6,0.7,1.1,1,1.7
		c-0.3,0.2-0.3,0.4-0.4,0.7c-0.1,0.6,0.4,1.1,1,1.1l1.1,0.1c0.4,0.4,0.7,0.8,1.1,1.2c-0.2,0.1-0.3,0.3-0.4,0.6c0,0.5,0.4,0.9,1,0.9
		c0,0,2.6,2.5,7.2,2.8c3.2,0.2,6-0.1,7.1-1.2c0,0,1.6,0.3,2.1-1c0-0.1,0-0.2,0-0.3c0.6-0.4,1.2-0.8,1.7-1.2l0.7,0.1
		c0.6,0.1,1.1-0.4,1.2-0.9c0-0.2,0-0.5-0.2-0.7c0.5-0.5,0.9-1,1.4-1.6l0.1,0c0.6,0.1,1.1-0.4,1.2-0.9c0-0.2,0-0.4-0.1-0.6
		c0.4-0.7,0.8-1.4,1.2-2.1c0.5-0.1,0.9-0.4,0.9-0.9c0-0.2-0.1-0.5-0.2-0.7c0.3-0.7,0.5-1.4,0.8-2.1c0.3-0.2,0.6-0.5,0.6-0.8
		c0-0.2,0-0.5-0.2-0.7C133.8,165.8,133.9,164.9,134.1,163.9"/>
	<path clip-path="url(#SVGID_2_)" fill="#2C2E33" d="M132,162.9c-0.9,9.3-6.5,16.4-12.4,15.9c-5.9-0.5-10-8.5-9.1-17.7
		c0.9-9.3,6.5-16.4,12.4-15.9C128.8,145.7,132.9,153.6,132,162.9"/>
</g>
<polygon fill="#2C2E33" points="124.4,160.2 122.1,158.8 119.8,161.2 120.2,164.3 122.8,165.3 124.8,163.3 "/>
<g>
	<defs>
		<rect id="SVGID_3_" x="0" width="135" height="191.3"/>
	</defs>
	<clipPath id="SVGID_4_">
		<use xlink:href="#SVGID_3_"  overflow="visible"/>
	</clipPath>
	<path clip-path="url(#SVGID_4_)" fill="#2C2E33" d="M122.3,148.1l0.5,10l1.8,0.9l4.4-5.4c0,0-0.3-2.1-2.9-4.2
		C124,147.6,122.3,148.1,122.3,148.1"/>
	<path clip-path="url(#SVGID_4_)" fill="#2C2E33" d="M129.9,155.9l-4.4,4.6l0.3,2.4l4.3,1.1c0,0,0.6-1.9,0.4-4.5
		C130.5,157.4,129.9,155.9,129.9,155.9"/>
	<path clip-path="url(#SVGID_4_)" fill="#2C2E33" d="M125.4,164.3l4.5,1.7c0,0-0.3,2.6-2.4,5.6c-1.9,2.7-3.2,3.1-3.2,3.1l-0.6-8.6
		L125.4,164.3z"/>
	<path clip-path="url(#SVGID_4_)" fill="#2C2E33" d="M120.2,165.3l1.9,0.8l0.4,9.1c0,0-2.3,0.6-4.3-0.3c-2.5-1.1-3.2-3.5-3.2-3.5
		L120.2,165.3z"/>
	<path clip-path="url(#SVGID_4_)" fill="#2C2E33" d="M113.2,160.2l5.6,1.9l0.2,2l-4.9,5.5c0,0-1-2.1-1.1-5
		C112.9,162.6,113.2,160.2,113.2,160.2"/>
	<path clip-path="url(#SVGID_4_)" fill="#2C2E33" d="M121,158.4l-1.8,1.8l-5.5-1.9c0,0,0.9-4.2,2.9-6.8c2-2.6,3.8-3.3,3.8-3.3
		L121,158.4z"/>
</g>
<polygon fill="#3E4348" points="124.4,160.2 122.1,158.8 119.8,161.2 120.2,164.3 122.8,165.3 124.8,163.3 "/>
<g>
	<defs>
		<rect id="SVGID_5_" x="0" width="135" height="191.3"/>
	</defs>
	<clipPath id="SVGID_6_">
		<use xlink:href="#SVGID_5_"  overflow="visible"/>
	</clipPath>
	<path clip-path="url(#SVGID_6_)" fill="#3E4348" d="M122.3,148.1l0.5,10l1.8,0.9l4.4-5.4c0,0-0.3-2.1-2.9-4.2
		C124,147.6,122.3,148.1,122.3,148.1"/>
	<path clip-path="url(#SVGID_6_)" fill="#3E4348" d="M129.9,155.9l-4.4,4.6l0.3,2.4l4.3,1.1c0,0,0.6-1.9,0.4-4.5
		C130.5,157.4,129.9,155.9,129.9,155.9"/>
	<path clip-path="url(#SVGID_6_)" fill="#3E4348" d="M125.4,164.3l4.5,1.7c0,0-0.3,2.6-2.4,5.6c-1.9,2.7-3.2,3.1-3.2,3.1l-0.6-8.6
		L125.4,164.3z"/>
	<path clip-path="url(#SVGID_6_)" fill="#3E4348" d="M120.2,165.3l1.9,0.8l0.4,9c0,0-2.4,0.7-4.4-0.2c-2.5-1.1-3.1-3.5-3.1-3.5
		L120.2,165.3z"/>
	<path clip-path="url(#SVGID_6_)" fill="#3E4348" d="M113.2,160.2l5.6,1.9l0.2,2l-4.9,5.5c0,0-1-2.1-1.1-5
		C112.9,162.6,113.2,160.2,113.2,160.2"/>
	<path clip-path="url(#SVGID_6_)" fill="#3E4348" d="M120.9,158.5l-1.7,1.8l-5.5-1.9c0,0,0.9-4.2,2.9-6.8c2-2.6,3.7-3.3,3.7-3.3
		L120.9,158.5z"/>
</g>
<polygon fill="#0F0F0F" points="123.6,159.7 122.1,158.8 119.8,161.2 120.1,163.5 122.3,164.3 123.9,162.6 "/>
<g>
	<defs>
		<rect id="SVGID_7_" x="0" width="135" height="191.3"/>
	</defs>
	<clipPath id="SVGID_8_">
		<use xlink:href="#SVGID_7_"  overflow="visible"/>
	</clipPath>
	<path clip-path="url(#SVGID_8_)" fill="#0F0F0F" d="M122.5,149.3l0.4,8.8l0.7,0.4l4.1-4.8c0,0-0.2-1.6-2.7-3.3
		C123.1,149,122.5,149.3,122.5,149.3"/>
	<path clip-path="url(#SVGID_8_)" fill="#0F0F0F" d="M129,156.8l-3.5,3.7l0.2,1.5l3.5,0.9c0,0,0.4-0.5,0.4-3.1
		C129.7,157.7,129,156.8,129,156.8"/>
	<path clip-path="url(#SVGID_8_)" fill="#0F0F0F" d="M125.1,164.6l3.3,1.7c0,0,0,1.7-1.7,3.9c-1.4,1.8-2.7,2.4-2.7,2.4l-0.5-6.5
		L125.1,164.6z"/>
	<path clip-path="url(#SVGID_8_)" fill="#0F0F0F" d="M120.2,165.3l1.3,0.6l0.2,7.5c0,0-2.2,1.2-4.6,0c-2.5-1.2-2-2-2-2L120.2,165.3z
		"/>
	<path clip-path="url(#SVGID_8_)" fill="#0F0F0F" d="M113.2,160.2l5.6,1.9l0.2,2l-4.9,5.5c0,0-1-2.1-1.1-5
		C112.9,162.6,113.2,160.2,113.2,160.2"/>
	<path clip-path="url(#SVGID_8_)" fill="#0F0F0F" d="M120.6,158.6l-1.4,1.6l-5.5-1.9c0,0,0.9-4.2,2.9-6.8c2-2.6,3.1-2.1,3.1-2.1
		L120.6,158.6z"/>
	<path clip-path="url(#SVGID_8_)" fill="#3E4348" d="M119.7,141.6c0,0-13.7,1.1-14.8,18.7c-0.9,14.9,6.4,19.5,6.4,19.5
		s-9.1-4.5-7.5-19.9C105.7,141.1,119.7,141.6,119.7,141.6"/>
	<path clip-path="url(#SVGID_8_)" fill="#41434E" d="M134.9,22.4l-4,0.2l-1.7,27.5l-6.4,7.2l-5.2,75.3l-8.9,23.6l-1.7,23.9
		c0,0-6.1,5.7-8.4,6.5c-6.9,2.3-16.6,5.1-20.1,4.8c-1.6-0.1-3.5,0.2-9.1-0.8c-0.6-0.1,0-2.9,0-2.9s-31.8-6.1-33.2-6.2
		c-3-0.3-5.6,0.6-9.2,2.2c-5.3-0.6-10.4-1.8-10.9-2.2c-1.5-1.3-2.5-113.1-2.5-113.1s-6-12.5-6.4-13.1c-0.6-0.8-1.3-33.6-1.3-33.6
		l-1.1-0.1l-2-1.8l-2.6-0.1l0-6.8c0,0,0.4-1.2,1.6-1.2c1.2,0,2.4,0,2.4,0l0.2-3c0,0,0.7-0.9,1.6-0.9C6.7,7.8,9,7.7,9,7.7l-0.1-4
		l-3-0.2c0,0,0.8-1,2.7-1.2s7-0.1,9.6,0c2.6,0.2,3.6,0.1,5.4,0.1c1.7,0,16.2-0.6,23.2-0.7c7-0.1,12.8,0.2,17-0.2
		c4.1-0.3,12-1.4,15-1.5c3-0.1,24.3-0.1,25.1,0.6c0.9,0.7,1.4,2.1,1.4,2.1s21.7,3.2,25.6,6.5c3.9,3.2,3.6,4,3.6,4l0.6,0.1
		L134.9,22.4z"/>
	<path clip-path="url(#SVGID_8_)" fill="#2C2E33" d="M83,2.6c0,0,7.8-1.1,10.4-1c2.6,0.1,7.5,1,7.5,1l-0.2,0.6l-1.1-0.1l-0.1,3.2
		L89,6.2l-0.3-3.2L83,2.6z"/>
	<path clip-path="url(#SVGID_8_)" fill="#6C7181" d="M79.6,191.2c4.2-0.6,15.1-4.1,15.1-4.1l2.7-125.3l-27.9-0.1l2.8,128.9
		C72.3,190.7,75.9,191.7,79.6,191.2"/>
</g>
<polygon fill="#272626" points="20.2,181.9 17.4,59.6 8.5,55.3 8.7,54.8 17.9,59.3 17.9,59.4 20.7,181.8 "/>
<g>
	<defs>
		<rect id="SVGID_9_" x="0" width="135" height="191.3"/>
	</defs>
	<clipPath id="SVGID_10_">
		<use xlink:href="#SVGID_9_"  overflow="visible"/>
	</clipPath>
	<path clip-path="url(#SVGID_10_)" fill="#2C2E33" d="M7.4,24.4c0,0,0.4,27.2,1.1,28c0.4,0.5,6.5,9.4,6.5,9.4s2.6,121.5,4.1,122.8
		l12.9,1.3c0,0,1-2,3.5-2s32.6,3.5,32.6,3.5l0.4,2.6l3.8,0.8l0.4-129.1l12.1-4.7L85,21.9l-0.2-4.2l5.2-0.3l0.6-7h6.9
		c2,0,4.3-0.1,4.3-0.1l-1.1-0.7L83.8,9.2l-0.3-3c0,0-11.9,0-21.2,0.3s-36.7,1-38,1S7.6,8,7.6,8L7,11.4L2.3,12c0,0-0.3,0.1-0.6,1.9
		c-0.3,1.7,0.1,5.6,0.1,5.6l3.3,0.4L7.4,24.4z"/>
</g>
<polygon fill="#2C2E33" points="68.3,188.2 62.8,53.9 29.3,52 28.9,178.3 "/>
<g>
	<defs>
		<rect id="SVGID_11_" x="0" width="135" height="191.3"/>
	</defs>
	<clipPath id="SVGID_12_">
		<use xlink:href="#SVGID_11_"  overflow="visible"/>
	</clipPath>
	<path clip-path="url(#SVGID_12_)" fill="#6C7181" d="M34.7,184.2l-1.5-124l-4.8-7.7L26,52.3l0.2,132.8c0,0,5.3,0.9,5.6,0.8
		C32.2,185.9,34.7,184.2,34.7,184.2"/>
	<path clip-path="url(#SVGID_12_)" fill="#18181B" d="M25.8,52.2c0,0,36.9-0.1,39.4,0.7c2.6,0.9,2.7,134.8,2.7,134.8l-15.1-2.2
		l-1.2-62.1c0,0-18.4-1.9-19.7-2.1c-1.3-0.2-4.8-8.7-4.8-8.7l3.6,1.6c0,0-0.1,2.8,2.2,3.1c2.3,0.3,18,1,18,1l-0.6-57.2l-16.9-0.9
		L25.8,52.2z"/>
	<path clip-path="url(#SVGID_12_)" fill="#18181B" d="M97.9,61.5c0,0-6.4-4.1-13.6-4.1c-7.2,0-11.9,4.8-11.9,4.8s-0.4,0.3,12.5,0.5
		C97.2,62.9,97.9,61.5,97.9,61.5"/>
	<path clip-path="url(#SVGID_12_)" fill="#6C7181" d="M28.8,110.5l35.9,2.1l0.2,4.5L29,114.5c0,0-2-0.9-2-2.4
		C27,110.5,28.8,110.5,28.8,110.5"/>
	<path clip-path="url(#SVGID_12_)" fill="#6C7181" d="M95.8,18c2.8,0.1,6.5,0.3,6.5,0.3s-0.4-3.7-0.3-4.6c0.1-0.9,0.9-2.3,0.9-2.3
		s8.1,1.5,10.4,1.8c2.4,0.3,4.8,0.2,7.9,0.3c3.1,0.2,5.3,0.9,5.3,0.9l-1.2-1.9c0,0,0.1-0.7,0-1.6c-0.1-0.9-3.7-2.4-3.7-2.4
		c1.6,0.8,2.9,4.1,2.9,4.1s-7.4-0.3-9.2-0.6c-1.8-0.2-8.1-1.4-8.1-1.4l-4.4-0.6c0,0-3.1-0.3-3.2,0.3c-0.1,0.7,1.5,0.6,1.5,0.6
		l-0.4,6l-4.5-0.2l-0.3-6.5h-4.4l-0.2,7.8L95.8,18z"/>
</g>
<polygon fill="#6C7181" points="103.2,19.7 102.5,39.6 103.3,39.9 103.9,19.7 "/>
<polygon fill="#6C7181" points="119.6,20.9 118.9,39.2 119.7,39.5 120.3,21 "/>
<g>
	<defs>
		<rect id="SVGID_13_" x="0" width="135" height="191.3"/>
	</defs>
	<clipPath id="SVGID_14_">
		<use xlink:href="#SVGID_13_"  overflow="visible"/>
	</clipPath>
	<path clip-path="url(#SVGID_14_)" fill="#18181B" d="M123.1,21.6h-2.9l0-0.6l-2.2,0.5c0,0-6.2-0.1-8.7-0.2
		c-2.5-0.1-5.7-0.5-5.7-0.5l0.2-1.1l-0.7-0.1l-1.8,1c0,0-1.3-0.9-4.4-0.5c-3.1,0.5-11.7,1.6-15.1,2.4c-3.4,0.8-9.8,1.6-9.8,1.6
		l-1.9-0.6L70.1,40l-2.8,1.6l0.4-16.8c0,0-11,0.2-20.8,0.2c-9.8,0-22.2-0.2-22.2-0.2L23.1,40l-2.3,0.9l-0.3-16.3
		c0,0-9.6,0.1-10.6,0.4c-1,0.3-0.6,1.7-0.6,1.7S9.6,53.5,10,54.6c0.4,1.1,9.7,4.1,10.5,9.5c0.8,5.3,2.7,120.9,2.7,120.9
		s-7.3,0-7.3-2.8s-2.2-112.5-4-117c-1.8-4.5-6.1-7.1-6.3-10.6c-0.2-3.5-0.3-32.9-0.3-32.9l-0.7-0.3l-2-1.8c0,0,4.1,0.1,7.2-0.1
		c3.1-0.2,29.5-0.1,37,0c7.5,0.1,26.2-0.6,30-0.8s16-1,20-1s8,0.8,12.2,1.4s13.9,1,13.9,1l11.8,2.2l-4,0.2l-1.7,27.5l-6.3,6.8
		l-5.3,75.7l-8.5,24.5l-1.7,22.5l-7.9,6.3l2-30.4l10.7-25.9l4.8-86.9l6-2.7L123.1,21.6z"/>
</g>
<polygon fill="#6C7181" points="70.1,19.5 69.9,40.3 71.4,39.9 71.7,24.2 70.9,23.2 70.4,23.2 70.3,19.6 "/>
<polygon fill="#6C7181" points="23.3,20.5 22.9,39.9 24.4,39.4 25,25.2 24.2,24.2 23.7,24.2 23.5,20.6 "/>
<g>
	<defs>
		<rect id="SVGID_15_" x="0" width="135" height="191.3"/>
	</defs>
	<clipPath id="SVGID_16_">
		<use xlink:href="#SVGID_15_"  overflow="visible"/>
	</clipPath>
	<path clip-path="url(#SVGID_16_)" fill="#18181B" d="M76.4,3.6c0,0,3.6,0,6.3-0.6c2.7-0.6,6.5-0.9,9.4-1.1c2.9-0.2,8.9,0.7,8.9,0.7
		l4.8,3.4c0,0-0.7-3.6-1.8-4.4c-1.2-0.8-18.6-1.2-22.6-1.1c-4,0.2-3.6,0.7-3.6,0.7L76.4,3.6z"/>
	<path clip-path="url(#SVGID_16_)" fill="#6C7181" d="M83.5,4L83.8,6L73,6l-0.1-1.5c0,0,4.4-4,5.6-4.3C79.5,0.1,92.4,0,94.9,0
		c2.6,0.1,8.6,0.3,9.1,0.8s0.8,1.8,0.8,1.8s-0.7-1.4-2.6-1.5c-1.8-0.1-6-0.3-8.1-0.3c-2,0-15.6,0.2-15.6,0.2L74,4.4l0.4,0.8L83.5,4z
		"/>
	<path clip-path="url(#SVGID_16_)" fill="#6C7181" d="M89.3,5.8c0,0,4.6,0.1,6.7,0.1c2.1,0.1,3.9,0.2,3.9,0.2l-0.1,0.7
		c0,0-4.2-0.4-7.3-0.2c-3.1,0.2-3.5,0.1-3.5,0.1L89.3,5.8z"/>
	<path clip-path="url(#SVGID_16_)" fill="#18181B" d="M0.1,19.6l4.8-0.4c0,0-0.3-6.3-0.1-6.8c0.2-0.5,1.9-1,1.9-1s30.6,0,41.9-0.2
		C59.8,11,83.1,9.7,83.1,9.7s-33,0-38.1,0.3c-5.1,0.3-36,1.2-36,1.2l0.1-3.1c0,0-0.2-0.9,0.6-0.9c0.7,0,11-0.3,11-0.3
		s-3-4.1-3.4-4.3c-0.4-0.2-8.4,0.3-9.1,0.3c-0.7,0-2,0.6-2,0.6l2.7,0.2l0.1,4c0,0-2.8,0.1-3.3,0.1s-1.3,0.7-1.3,1
		c-0.1,0.3-0.2,2.9-0.2,2.9s-2.6,0.1-2.9,0.1c-0.2,0-1,0.4-1.2,1.1C-0.1,13.6,0.1,19.6,0.1,19.6"/>
	<path clip-path="url(#SVGID_16_)" fill="#18181B" d="M104.7,10.2l19.7,2.4c0,0-5.5,0-9.8-0.3C111.3,12.1,104.7,10.2,104.7,10.2"/>
</g>
<polygon fill="#2C2E33" points="101.6,20.3 101.4,39.8 102.7,39.7 103.2,19.7 "/>
<polygon fill="#2C2E33" points="118.1,21.5 117.8,39.2 119.1,39 119.7,20.9 "/>
</svg>
