<?xml version="1.0" encoding="utf-8"?>
<!-- Generator: Adobe Illustrator 18.1.1, SVG Export Plug-In . SVG Version: 6.00 Build 0)  -->
<svg version="1.1" id="Layer_1" xmlns="http://www.w3.org/2000/svg" xmlns:xlink="http://www.w3.org/1999/xlink" x="0px" y="0px"
	 viewBox="0 0 84.6 128.7" enable-background="new 0 0 84.6 128.7" xml:space="preserve">
<g>
	<defs>
		<rect id="SVGID_1_" x="0" y="0" width="84.6" height="128.7"/>
	</defs>
	<clipPath id="SVGID_2_">
		<use xlink:href="#SVGID_1_"  overflow="visible"/>
	</clipPath>
	<path clip-path="url(#SVGID_2_)" fill="#41434E" d="M4.7,19c0,0,3.1,103.4,4.3,104.4c0.4,0.4,0.9,1.3,5.2,1.8
		c2.7-0.6,5.3-2.3,5.8-2.1c1,0.4,10.7,1.4,10.7,1.4s-0.2,1.2,0.4,1.3c4.5,0.9,7.7,1,9,1.1c3.9,0.3,18.6-2.6,18.6-2.6l0.5-7.2l8-13.5
		l5.5-86.2l7.2,0.2l2.8-3.5l0.3-1.1c0,0,2,0.5,1.6-3c-0.2-2-4.6-1.3-4.6-1.3l-3.4-2l-6.8-0.2l-9.4-0.6c0,0-5.3-2.9-6.3-3
		c-0.9-0.1-4.6,0.1-5.4-0.3c-0.8-0.4-1.5-2.2-3.1-2.3C44,0.2,16.1,0,14.7,0s-5,2.5-5,2.5S2.6,2.3,2.9,3.6c0.3,1.3,3.5,1.3,3.5,1.3
		v2.6L2.5,7.6c0,0-0.9,0.5-0.9,1.4v2.2c0,0-1.3,0.5-1.3,1.9c0,1.4-0.2,2.6-0.2,2.6l3.1,0.2c0,0,0.1,2.2,0.1,2.7
		C3.2,19.1,4.7,19,4.7,19"/>
	<path clip-path="url(#SVGID_2_)" fill="#2C2E33" d="M40.1,10.1c-3,0.1-32.1-0.2-33.9-0.2S1.7,9.3,1.7,9.3l-0.1,1.9l-0.9,1.2
		l-0.2,3.1l2.6,0.3l0.3,2.5L4.6,17l1.8-3.8L7,12.7l-0.2,5.5l2.6,0h0.4l2-5.4l-0.1,5.5l2.4,0.1l2.6-5.5l0,5.5l2.1,0.2l2.7-5.6v5.5
		l2.4,0.1l2.5-5.4l-0.1,5.4l2.4,0l2.4-5.3l-0.1,5.1l1.7-0.9l2.8,0l1.2-4.3L5.4,12.4l1.2-1.3c0,0,31.1,0.5,36,0.3c0-0.5,0-1,0-1.5
		C41.8,10,41,10,40.1,10.1"/>
	<polygon clip-path="url(#SVGID_2_)" fill="#6C7181" points="36.4,15.4 30.6,18.8 29.3,18.8 31.1,13.5 30.4,13.4 28.5,18.6 
		24.5,18.6 26.4,13.3 25.8,13.3 23.6,18.6 19.4,18.4 21.5,13.1 20.9,13.1 18.5,18.5 14.8,18.4 16.7,13 16.3,13 14,18.3 10.2,18.2 
		11.8,12.8 11.4,12.8 9.3,18.2 5,18.1 7.1,12.7 6.4,12.6 3.8,18.9 31,19.4 36.5,16.3 79,17.4 79.5,17.1 48.7,16 48.8,12.4 
		43.7,12.3 43.6,15.8 	"/>
	<path clip-path="url(#SVGID_2_)" fill="#2C2E33" d="M41.6,11.3c0,0,0.2-2.2,1-2.3c0.8-0.2,11.1,0.2,11.1,0.2l0.5-0.6l20.6,1.3
		l-5-3.4l6.5,0.3l2.7,2L78,11.3l2-2.2l2.6,0.1l-3.4,3.6L41.6,11.3z"/>
</g>
<polygon fill="#2C2E33" points="48.7,12.5 68.7,13.3 68.6,16 69.5,16.2 69.8,13.4 79.4,13.7 82.1,10.9 82.6,13.4 79.5,17.1 48,15.9 
	"/>
<g>
	<defs>
		<rect id="SVGID_3_" x="0" y="0" width="84.6" height="128.7"/>
	</defs>
	<clipPath id="SVGID_4_">
		<use xlink:href="#SVGID_3_"  overflow="visible"/>
	</clipPath>
	<path clip-path="url(#SVGID_4_)" fill="#2C2E33" d="M5.2,7.8c0,0,34.4,0.4,37.2,0.4c2.8,0,7.3-0.2,8.3-0.2h2.5l0.6,0.1l-0.1-1
		l-1.4-0.7c0,0,0.2-0.6,0-0.6c-0.2,0-1.2-0.1-1.2-0.1l0.1,1.6L35.8,7.6l-0.3-2.9l-29-0.4L6.4,7.5L5.2,7.8z"/>
	<path clip-path="url(#SVGID_4_)" fill="#18181B" d="M6.5,3h31.4l14.4,2.5L53.2,6l-1.9-0.1c0,0-0.8-0.1-1,0l-3.5-0.1
		c0,0-2.2-0.9-4.2-1c-2,0-6.4,0-6.4,0l0,2.5l-0.8,0l0-2.3l-25,0.1L10,7.1L9.4,7L9.2,5.1c0,0-1.8-0.1-2.1,0.3L7,4.3l-0.5,0L6.5,3z"/>
	<path clip-path="url(#SVGID_4_)" fill="#6C7181" d="M44.8,0.8l0.8,2l1.7,0.9l-9.5-1.3l0.1,0.9c0,0,13.9,1.8,14.4,2.3
		c0.5,0.4,0.2,1,0.2,1s1.3,0.4,1.4,0.9c0.1,0.4-0.2,1-0.2,1l21.2,1.3l-5-3.4l-9.9-0.7c0,0-4.9-3.1-5.8-2.9c-0.9,0.1-3.1,0.7-4.7,0
		C47.7,2.2,47.6,0.9,44.8,0.8"/>
</g>
<polygon fill="#6C7181" points="9.8,7.5 10.6,7.4 10.6,5.4 10.2,4.7 9.8,4.7 "/>
<polygon fill="#6C7181" points="35.9,7.4 36.8,7.3 36.8,5.3 36.4,4.6 36,4.6 "/>
<g>
	<defs>
		<rect id="SVGID_5_" x="0" y="0" width="84.6" height="128.7"/>
	</defs>
	<clipPath id="SVGID_6_">
		<use xlink:href="#SVGID_5_"  overflow="visible"/>
	</clipPath>
	<path clip-path="url(#SVGID_6_)" fill="#2C2E33" d="M27,56.1l-5.8-0.1l-1.5,67.1l11.7,1.2l0.4,1.4l5.9,0.6l0.1-106.8l-1.6-0.3
		l-0.3,17.5L32,38.3V26.7L27.4,24L9.6,24.4L9.3,36.1l-4,2.7c0,0,3.1,84.5,3.7,85.6c0.5,1.1,5.4,0.8,5.4,0.8l1.1-75.4l14.1,0.8
		L27,56.1z"/>
</g>
<polygon fill="#2C2E33" points="44.6,17.7 49.8,22.8 48,126 57.8,121.8 57.6,101.1 65.3,93.6 68.4,18.4 "/>
<g>
	<defs>
		<rect id="SVGID_7_" x="0" y="0" width="84.6" height="128.7"/>
	</defs>
	<clipPath id="SVGID_8_">
		<use xlink:href="#SVGID_7_"  overflow="visible"/>
	</clipPath>
	<path clip-path="url(#SVGID_8_)" fill="#18181B" d="M5.3,38.8l4-2.7L9,35.7l-1.4-0.2v-12l-2.1-3.2l4,4l17.7,0.1l4.6,2.2v11.6
		l3.9-1.5l-1.7-0.4l-0.3-12.6L32,20.1l2.6-1.9l1.6,1.1c0,0,4.4-1.2,6.7-1.4c2.3-0.2,14.2,0.4,14.2,0.4l4.8,2.6l-2.4,65.3l-4.2,3
		l-1.2,33.2l-11.2,4.3c0,0-9.6-0.7-10.7-1.1c0,0-0.9-72.1-1.4-73.9c-0.5-1.8-1.7-1.3-3.1-1.3c-1.5,0-12.1-0.5-12.1-0.5l5.8,7.8h4.1
		l-0.5,66.1l5.8,1c0,0-0.2,2.5,0.4,2.7c0.6,0.2,8,1.4,10.2,1.3c5-0.2,17.5-4.3,17.5-4.3s-0.8-16.4,0.6-21.6c1.4-5.2,6-7.6,6-7.6
		l0.2,0.5c0,0-4.9,3.8-6,8.9c-1.1,5.1-0.5,12.3-0.5,12.3l11.1-13.5l5.5-86.2l-38.9-1.3l-6.5,3.5L4.7,19L5.3,38.8z"/>
	<path clip-path="url(#SVGID_8_)" fill="#0F0F0F" d="M79.7,110c0.2-0.1,0.3-0.3,0.3-0.6c0-0.3-0.1-0.5-0.2-0.7c0-0.5,0-1,0-1.5
		c0.1-0.1,0.2-0.2,0.2-0.4c0-0.2-0.1-0.4-0.3-0.6c0-0.5-0.1-0.9-0.2-1.3c0.1-0.1,0.2-0.2,0.2-0.4c0-0.3-0.2-0.6-0.5-0.7
		c-0.1-0.5-0.3-0.9-0.5-1.4c0.1-0.1,0.1-0.2,0.2-0.3c0-0.3-0.2-0.7-0.6-0.7l0,0c0-0.3-0.2-0.7-0.4-1.1c0.1-0.1,0.2-0.2,0.2-0.4
		c0-0.3-0.2-0.7-0.6-0.7c0,0-0.4-0.5-0.9-1.1c0-0.3-0.4-0.9-0.7-0.9c0,0-0.9-1.2-4.1-1.5c-4.6-0.4-5.7,0.8-5.7,0.8
		c-0.4,0-0.7,0.2-0.7,0.4c0,0.2-0.7,0.8-0.9,0.9l-0.4,0c-0.4,0-0.7,0.2-0.7,0.6c0,0.3,0.1,0.5,0.4,0.6c-0.2,0.2-0.5,0.5-0.7,0.8
		l-0.7-0.1c-0.3,0-0.6,0.2-0.7,0.6c0,0.3,0.2,0.6,0.4,0.7c-0.2,0.3-0.4,0.7-0.6,1l-0.5,0c-0.3,0-0.6,0.2-0.7,0.6
		c0,0.3,0.2,0.7,0.5,0.7l0.1,0c-0.1,0.3-0.3,0.7-0.4,1l-0.1,0c-0.3,0-0.6,0.2-0.7,0.6c0,0.3,0.2,0.6,0.4,0.7
		c-0.1,0.4-0.2,0.8-0.2,1.2l0,0c-0.3,0-0.6,0.3-0.7,0.7c0,0.4,0.2,0.8,0.5,0.8h0c0,0.5,0,0.9,0,1.3c-0.3,0-0.5,0.3-0.5,0.6
		c0,0.3,0.2,0.7,0.5,0.7l0.1,0c0,0.4,0.1,0.7,0.2,1c-0.3,0-0.6,0.2-0.6,0.6c0,0.3,0.2,0.7,0.5,0.7l0.3,0.1c0,0.4,0.1,0.8,0.3,1.1
		c-0.2,0.1-0.4,0.3-0.4,0.5c0,0.3,0.2,0.7,0.5,0.7l0.4,0c0.2,0.3,0.4,0.7,0.6,1c-0.2,0.1-0.2,0.2-0.2,0.4c0,0.3,0.2,0.7,0.6,0.7
		l0.6,0.1c0.2,0.3,0.4,0.5,0.7,0.7c-0.1,0.1-0.2,0.2-0.2,0.3c0,0.3,0.2,0.5,0.6,0.6c0,0,1.6,1.5,4.4,1.7c2,0.1,3.7-0.1,4.3-0.7
		c0,0,1,0.2,1.3-0.6c0-0.1,0-0.1,0-0.2c0.4-0.2,0.7-0.5,1.1-0.7l0.4,0c0.4,0,0.7-0.2,0.7-0.6c0-0.1,0-0.3-0.1-0.4
		c0.3-0.3,0.6-0.6,0.8-1l0,0c0.4,0,0.7-0.2,0.7-0.6c0-0.1,0-0.3-0.1-0.4c0.3-0.4,0.5-0.8,0.7-1.3c0.3,0,0.5-0.3,0.6-0.6
		c0-0.2,0-0.3-0.1-0.4c0.2-0.4,0.3-0.8,0.5-1.3c0.2-0.1,0.3-0.3,0.4-0.5c0-0.1,0-0.3-0.1-0.4C79.5,111.2,79.6,110.6,79.7,110"/>
	<path clip-path="url(#SVGID_8_)" fill="#2C2E33" d="M78.4,109.4c-0.6,5.7-4,10-7.6,9.7c-3.6-0.3-6.1-5.2-5.6-10.9
		c0.6-5.7,4-10,7.6-9.7C76.5,98.8,79,103.7,78.4,109.4"/>
</g>
<polygon fill="#2C2E33" points="73.8,107.7 72.3,106.9 71,108.4 71.2,110.3 72.8,110.9 74,109.7 "/>
<g>
	<defs>
		<rect id="SVGID_9_" x="0" y="0" width="84.6" height="128.7"/>
	</defs>
	<clipPath id="SVGID_10_">
		<use xlink:href="#SVGID_9_"  overflow="visible"/>
	</clipPath>
	<path clip-path="url(#SVGID_10_)" fill="#2C2E33" d="M72.5,100.3l0.3,6.1l1.1,0.6l2.7-3.3c0,0-0.2-1.3-1.8-2.6
		C73.5,100,72.5,100.3,72.5,100.3"/>
	<path clip-path="url(#SVGID_10_)" fill="#2C2E33" d="M77.1,105.1l-2.7,2.8l0.2,1.5l2.7,0.7c0,0,0.4-1.2,0.3-2.7
		C77.5,106.1,77.1,105.1,77.1,105.1"/>
	<path clip-path="url(#SVGID_10_)" fill="#2C2E33" d="M74.4,110.3l2.8,1.1c0,0-0.2,1.6-1.5,3.5c-1.2,1.7-2,1.9-2,1.9l-0.4-5.3
		L74.4,110.3z"/>
	<path clip-path="url(#SVGID_10_)" fill="#2C2E33" d="M71.2,110.9l1.2,0.5l0.3,5.6c0,0-1.4,0.3-2.6-0.2c-1.5-0.7-2-2.2-2-2.2
		L71.2,110.9z"/>
	<path clip-path="url(#SVGID_10_)" fill="#2C2E33" d="M66.9,107.7l3.4,1.2l0.1,1.2l-3,3.4c0,0-0.6-1.3-0.7-3.1
		C66.7,109.2,66.9,107.7,66.9,107.7"/>
	<path clip-path="url(#SVGID_10_)" fill="#2C2E33" d="M71.7,106.6l-1.1,1.1l-3.4-1.2c0,0,0.5-2.6,1.8-4.1c1.2-1.6,2.3-2,2.3-2
		L71.7,106.6z"/>
</g>
<polygon fill="#3E4348" points="73.8,107.7 72.3,106.9 71,108.4 71.2,110.3 72.8,110.9 74,109.7 "/>
<g>
	<defs>
		<rect id="SVGID_11_" x="0" y="0" width="84.6" height="128.7"/>
	</defs>
	<clipPath id="SVGID_12_">
		<use xlink:href="#SVGID_11_"  overflow="visible"/>
	</clipPath>
	<path clip-path="url(#SVGID_12_)" fill="#3E4348" d="M72.5,100.3l0.3,6.1l1.1,0.6l2.7-3.3c0,0-0.2-1.3-1.8-2.6
		C73.5,100,72.5,100.3,72.5,100.3"/>
	<path clip-path="url(#SVGID_12_)" fill="#3E4348" d="M77.1,105.1l-2.7,2.8l0.2,1.5l2.7,0.7c0,0,0.4-1.2,0.3-2.7
		C77.5,106.1,77.1,105.1,77.1,105.1"/>
	<path clip-path="url(#SVGID_12_)" fill="#3E4348" d="M74.4,110.3l2.8,1.1c0,0-0.2,1.6-1.5,3.5c-1.2,1.7-2,1.9-2,1.9l-0.4-5.3
		L74.4,110.3z"/>
	<path clip-path="url(#SVGID_12_)" fill="#3E4348" d="M71.2,110.9l1.2,0.5l0.2,5.5c0,0-1.4,0.4-2.7-0.1c-1.5-0.7-1.9-2.2-1.9-2.2
		L71.2,110.9z"/>
	<path clip-path="url(#SVGID_12_)" fill="#3E4348" d="M66.9,107.7l3.4,1.2l0.1,1.2l-3,3.4c0,0-0.6-1.3-0.7-3.1
		C66.7,109.2,66.9,107.7,66.9,107.7"/>
	<path clip-path="url(#SVGID_12_)" fill="#3E4348" d="M71.6,106.7l-1.1,1.1l-3.4-1.2c0,0,0.5-2.6,1.8-4.1c1.2-1.6,2.2-2,2.2-2
		L71.6,106.7z"/>
</g>
<polygon fill="#0F0F0F" points="73.3,107.5 72.3,106.9 71,108.4 71.1,109.7 72.5,110.3 73.5,109.2 "/>
<g>
	<defs>
		<rect id="SVGID_13_" x="0" y="0" width="84.6" height="128.7"/>
	</defs>
	<clipPath id="SVGID_14_">
		<use xlink:href="#SVGID_13_"  overflow="visible"/>
	</clipPath>
	<path clip-path="url(#SVGID_14_)" fill="#0F0F0F" d="M72.6,101.1l0.2,5.4l0.4,0.2l2.5-2.9c0,0-0.1-1-1.7-2
		C73,100.9,72.6,101.1,72.6,101.1"/>
	<path clip-path="url(#SVGID_14_)" fill="#0F0F0F" d="M76.6,105.7l-2.2,2.2l0.1,0.9l2.2,0.6c0,0,0.2-0.3,0.3-1.9
		C77,106.2,76.6,105.7,76.6,105.7"/>
	<path clip-path="url(#SVGID_14_)" fill="#0F0F0F" d="M74.2,110.4l2,1.1c0,0,0,1.1-1,2.4c-0.8,1.1-1.6,1.5-1.6,1.5l-0.3-4
		L74.2,110.4z"/>
	<path clip-path="url(#SVGID_14_)" fill="#0F0F0F" d="M71.2,110.9l0.8,0.3l0.1,4.6c0,0-1.3,0.7-2.8,0c-1.5-0.7-1.2-1.2-1.2-1.2
		L71.2,110.9z"/>
	<path clip-path="url(#SVGID_14_)" fill="#0F0F0F" d="M66.9,107.7l3.4,1.2l0.1,1.2l-3,3.4c0,0-0.6-1.3-0.7-3.1
		C66.7,109.2,66.9,107.7,66.9,107.7"/>
	<path clip-path="url(#SVGID_14_)" fill="#0F0F0F" d="M71.4,106.8l-0.9,1l-3.4-1.2c0,0,0.5-2.6,1.8-4.1c1.2-1.6,1.9-1.3,1.9-1.3
		L71.4,106.8z"/>
	<path clip-path="url(#SVGID_14_)" fill="#3E4348" d="M70.9,96.4c0,0-8.4,0.7-9,11.5c-0.6,9.1,3.9,12,3.9,12s-5.6-2.7-4.6-12.2
		C62.3,96,70.9,96.4,70.9,96.4"/>
	<path clip-path="url(#SVGID_14_)" fill="#18181B" d="M1.7,11.5c0,0,30,0.3,33.6,0.4c3.6,0.1,13,0,17.6,0.1s15.9,0.6,15.9,0.6
		l0.1,3.6l0.5,0.1l0.2-3.6l7.7,0.1v-0.4c0,0-27.7-1.2-31-1.3C43.2,11,2.6,10.8,2.6,10.8L1.7,11.5z"/>
	<path clip-path="url(#SVGID_14_)" fill="#18181B" d="M84.2,10.9c0,0.9-0.4,1.5-0.8,1.5c-0.5,0-0.8-0.7-0.8-1.5
		c0-0.9,0.4-1.5,0.8-1.5C83.8,9.3,84.2,10,84.2,10.9"/>
	<path clip-path="url(#SVGID_14_)" fill="#6C7181" d="M30.9,67.5c0,0-13.2-0.7-13.7-0.8c-0.5,0-1,0.8-1,1.7c0,0.9,0.4,1.6,0.7,1.7
		c0.4,0.1,14,1,14,1L30.9,67.5z"/>
</g>
<polygon fill="#6C7181" points="44.7,18.1 46.4,19.9 45.6,125.5 44.5,126 "/>
</svg>
