<?xml version="1.0" encoding="utf-8"?>
<!-- Generator: Adobe Illustrator 18.1.1, SVG Export Plug-In . SVG Version: 6.00 Build 0)  -->
<svg version="1.1" id="Layer_1" xmlns="http://www.w3.org/2000/svg" xmlns:xlink="http://www.w3.org/1999/xlink" x="0px" y="0px"
	 viewBox="0 0 17 17" enable-background="new 0 0 17 17" xml:space="preserve">
<g>
	<defs>
		<rect id="SVGID_1_" x="0" y="0" width="17" height="17"/>
	</defs>
	<clipPath id="SVGID_2_">
		<use xlink:href="#SVGID_1_"  overflow="visible"/>
	</clipPath>
	<path clip-path="url(#SVGID_2_)" fill="#A7A9AC" d="M13.3,8.4C13.3,8.4,13.3,8.4,13.3,8.4c0,0.2-0.1,0.3-0.2,0.4l-6.6,4.8
		c-0.1,0.1-0.2,0.1-0.3,0.1c-0.1,0-0.3-0.1-0.4-0.2C5.8,13.3,5.8,13,6,12.9l6.1-4.4L6,4C5.8,3.8,5.8,3.6,5.9,3.3s0.4-0.3,0.6-0.1
		L13.1,8C13.2,8.1,13.3,8.3,13.3,8.4C13.3,8.4,13.3,8.4,13.3,8.4 M17,8.5C17,3.8,13.2,0,8.5,0C3.8,0,0,3.8,0,8.5S3.8,17,8.5,17
		C13.2,17,17,13.2,17,8.5"/>
</g>
</svg>
