<?xml version="1.0" encoding="utf-8"?>
<!-- Generator: Adobe Illustrator 18.1.1, SVG Export Plug-In . SVG Version: 6.00 Build 0)  -->
<svg version="1.1" id="Layer_1" xmlns="http://www.w3.org/2000/svg" xmlns:xlink="http://www.w3.org/1999/xlink" x="0px" y="0px"
	 viewBox="0 0 270.7 159.1" enable-background="new 0 0 270.7 159.1" xml:space="preserve">
<g>
	<defs>
		<rect id="SVGID_1_" y="0" width="270.7" height="159.1"/>
	</defs>
	<clipPath id="SVGID_2_">
		<use xlink:href="#SVGID_1_"  overflow="visible"/>
	</clipPath>
	<path clip-path="url(#SVGID_2_)" fill="#BABDBF" d="M20,99.9l-12.5,3.5c0,0,6.2,9.9,6.2,11.2c0,1.2-3.7,2.8-3.7,2.8
		s3.7,3.4,7.4,4.6c3.7,1.2,17.3,2.9,17.3,2.9l5.4,3.1c0,0,11.5-1.9,11.5-0.3s4.9,1.2,4.9,1.2l4.8,2.5c0,0,7.7-1.3,11.1-1
		c3.4,0.3,5.3,3.4,5.3,3.4s8.8-1.2,11.3-0.6c2.5,0.6,4.5-3.1,11-2.8c6.5,0.3,4.2,9.8,10.7,9.2c2.2-0.2,6.7,12.2,8.6,11.3
		c2.6-1.2,34.8,4,37.7,4.2c5.4,0.5,15.9,4.1,15.9,4.1s-2.6-1.6,37.9-5.7l34.4,1.9l5.8-16l15.2-7l-8.3-2.1l5.1-1.9l7.3-6.4l-20-15.9
		l-7.5-23.7L20,99.9z"/>
	<path clip-path="url(#SVGID_2_)" fill="#879499" d="M64.2,125.3c0,0-0.7,1.3-3.6,1.3c-2.8,0.1-3.2-1.3-3.2-1.3l-3-0.5
		c0,0-6.2-0.3-8.5,0c-2.3,0.3-2.6-1.5-2.6-1.5l-3.1-0.3c0,0-2.6-2.5-4.1-2.8s-2.6-0.5-3.4-0.8c-0.8-0.3-1.7-1.3-1.7-1.3
		s-0.8-3-1.8-3.7c-1-0.7-3-3-3-3s-2.3,0.5-2.6,1.3c-0.4,0.8-2.6,2-2.6,2s-3.9-0.8-5.3-1c-1.4-0.2-3.2-1.3-3.2-1.3s-4.9-4.4-6.1-4.6
		c-1.2-0.2-0.3-4.2-0.3-4.2s2.3-4.7,2.7-5.9c0.5-1.3,1.1-2.1,1.1-2.1s-2.9-1.1-3.3-1.3C6.3,94.1,6,93.1,6,93.1s-4.8-6.3-5.2-7.9
		c-0.5-1.6,0.4-6.5,0.7-7.5c0.4-1.1,5.1-4.9,5.9-5.1c0.8-0.2,10-1.1,11.1-1.2c1.1-0.1,1-0.4,1-0.4s0.8-4.5,1.8-5.6
		c1-1.1,3.1-2.9,3.1-2.9s0.5-2.1,1.3-2.7c0.8-0.6,3-2.1,4-2.6c1-0.5,1.6-0.8,1.6-0.8s-0.3-3.5,1.8-4.6c2.1-1.1,8.6-2.1,9.9-2.3
		c1.3-0.3,2.8-1.5,2.8-1.5s2.6-3.5,3.7-4.8s1.6-1.5,2.9-1.9c1.3-0.4,6-0.8,6-0.8s0.5-0.6,1.1-1.8c0.6-1.2,1.3-3.4,2.9-3.9
		c1.6-0.5,3.7-0.2,3.7-0.2l2.5,0.5c0,0,1.4-0.9,0.5-1.8c-0.8-0.9-1.8-2.4-2.2-3.4c-0.4-1-1.4-4-0.3-4.4C68,25.2,77.7,24.9,79,25
		c1.3,0.2,3,0.1,3,0.1s1.6-1.9,2.2-2.3c0.6-0.4,1.3-0.8,1.3-0.8l1.6-2.6c0,0-1.1,0-1.4-0.4c-0.3-0.4,0-1.9,0-1.9s6.7-5.8,9.4-7.8
		c2.7-2,3.3-2.9,4.2-3c0.9-0.1,2.2-1.3,2.2-1.3c1-0.1,2.3-2.2,3.4-2.4c1.1-0.2,5,1.3,6.4,0.7c1.4-0.6,3.6-1.2,3.6-1.2
		s0.1-0.8,0.6-0.9S117,1,117,1s1.6-0.8,2.8-1c1.3-0.2,2.7,0.4,2.7,0.4s0.6,1.4,0.6,2.3s-0.4,2.6,0.5,3.5c0.8,0.9,1.5,3.4,1.6,3.9
		c0.1,0.4,0.3,1.3,0.3,1.3l1.3-1.1c0,0,2.1-3,3.7-3.5c1.6-0.4,2.9,0.1,2.9,0.1s8.6,4.3,9.9,5c1.3,0.7,4.8,3.9,6.5,5.4
		c1.7,1.4,2.9,2.8,2.9,2.8c1.9-0.3,3-0.4,3-0.4s0.3-0.9,1.4-1.3c1.1-0.4,1.6-1.8,2.8-1.7c1.3,0.1,1.8,1.7,1.8,1.7l0.4,1.8
		c0,0,1.1,1.2,2.1,2.6s1.6,4.7,1.6,4.7l0.2,1c0,0,1.4-0.1,3,0.7c1.6,0.8,1.7,2.6,1.9,3c0.2,0.4,0.9,2.7,0.9,2.7l0.7,0.6
		c0,0,2.7-1.1,3.7-1.3s1.7-0.1,2.6,0.4c0.8,0.5,1.6,1.4,1.6,1.4s4.2,1.4,5.2,1.8c1,0.4,0.4,1.9,0.4,1.9s-0.2,4.5-0.2,5.4
		c0,0.9-2.2,2.8-2.2,2.8c1.1-0.1,3.4,1.1,3.1,2.3c-0.3,1.4-3.1,1.1-4.1,1.6c-1.6,0.9-3.3,2.2-4.9,3.3c-3.5,2.3-8.5,4-10.5,7.8
		c-1.7,3.3-1.3,7.4-4.1,10.1c-1.5,1.5-3.8,1.7-5.1,3.2c-1.3,1.5-1.2,2.2-3.5,3.1c-1.9,0.7-4.1,0.9-6,1.8c-2.2,1-4.1,2.8-6.1,4.2
		c-4.7,3.3-9.1,5.6-8.1,12.2c0.3,1.9,2,4-0.7,4.4c-2.8,0.4-3.4-1.4-6.3,0.3c-2,1.1-3.5,2.6-4.7,4.4c-1.4,2.1-2.8,4.2-4.3,6.3
		c-0.7,1-3.4,5.2-4.6,5.4c-1.6,0.3-1.7-2.1-2.6-2.2c-0.2,0-3.5-0.2-3.5-0.2s-2.5,4.5-4.4,4.5c-1.9,0-8.3-0.2-8.3-0.2l-2.5-1.5
		c0,0-4.4,0.2-6.9,0s-5-2.3-5-2.3s-1.5,0.6-3.1,0.8c-1.5,0.2-4.2-1.7-4.2-1.7l-3.3,0.2c0,0-0.6-1.3-0.4-1.9c0.2-0.6,1.9-2.5,1.9-2.5
		s-2.7-0.6-4.4-0.4c-1.7,0.2-8.7-0.6-8.7-0.6s-1,3-2.7,4.5c-1.7,1.5-0.8,2.5-0.8,2.5s5-1.5,6.7-0.6c1.7,0.9,6,3.4,6,4.5
		C67.7,122.6,64.2,125.3,64.2,125.3"/>
	<path clip-path="url(#SVGID_2_)" fill="#717679" d="M86.6,23.1c0,0,2.1-0.5,2.3-1.1c0.2-0.6,0.5-1.3,0.5-1.3l0.6-1.8
		c0,0,0.5,0.4,1.2,0.2c0.8-0.2,1.4-0.8,1.7-1.4c0.4-0.6,2.1-2.3,2.1-2.3v-1.2l1.2-0.7c0,0-0.5,0.7-0.5,1.3c0,0.5-0.1,1.2-0.1,1.2
		s-2.3,2.5-3.2,3.1c-0.9,0.6-1.7,0.7-1.7,0.7l-0.5,1.8c0,0,0.5,0.2,1.6-0.5c1.1-0.7,1.3-1.2,1.7-1.8c0.5-0.6,1.3-0.9,1.3-0.9
		L94.6,19c0,0,0.8-0.4,1.6-0.4c0.8,0,1.9-1,1.9-1c2.3-1.6,3.6-0.1,6.1,0.2c0.7,0.1,2-0.2,2.5-0.7c0.9-0.8,0.2-1.3-0.8-1.9
		c-0.5,1.2-1.9-0.1-1.4-0.9c0.5-0.8,1.4,0.3,2,0.4c0.8,0.3,1.4,0.5,2.1,1c0.4,0.3,0.6,0.7,1.1,0.5c0.3-0.1,0.6-0.8,0.6-1.1
		c-0.3-0.2-0.9-0.4-1-0.8c-0.1-0.3,0.3-1,0.6-0.9c0.3,0,0.9,1.5,0.9,1.9c-1.1,0.3-1.2,1.6,0,1.6c1.3,0.1,3-1.3,4.2-0.6
		c-0.1-0.1,2.1-0.6,2.3-0.6c-0.1-0.6-1.2-0.7-1-1.7c0.1-0.5,1.1,0,1.2,0.2c0.3,0.4-0.1,1,0,1.4c0.4,1.3,3.1,0.9,4,0.2
		c0.7-0.6,3.2-3.7,2.1-4.6c-0.4-0.3-1.3,0.2-1.7,0c-1-0.4,0.4-1.6,1-0.1c0.5,0,1.9,0,2.4,0.2c0.8,0.3,0.3,0.8,0.4,1.6
		c0.1,0.5-0.8,4.1-1.4,4.7c-0.7,0.6-2.9,2.2-3.5,2.4c-0.7,0.1-1.4,1.3-1.4,1.3l-0.5,0.1l1.7,1.6c0,0,2-1.9,3.3-1.9s4.1-0.2,4.7-0.2
		c0.6,0,1.4-0.7,2.3-1.2c0.9-0.4,2.1-0.7,2.5-0.9c0.4-0.2,1.6-1.3,1.6-1.3s1.4-1.4,1.7-1.7S137,15,137,15s-3.2-3.3-3.3-3.8
		c-0.1-0.5-1.4-4-1.4-4s3.5,6.1,4.5,7c1,0.9,2.5,2.5,2.5,2.5l2.4,1.5l6.3,3.6l1,0.9l0.8,1.5l0.5,0.9c0,0,0.7-0.4,1.1-1
		c0.5-0.6,0.9-1.1,1.3-1.1c0.8,0.1,0,1.3,0,1.3s0.9-0.7,1.6-0.7c0.7,0,2.9,1.2,2.9,1.2l1.1,0.3c0,0,0.6-1.4,1-1.8s1.4-1.3,1.7-1.2
		c0.4,0.1,1.2,1.3,1.2,1.3l1-0.9c0,0,1.5,1.5,1.8,2.6c0.3,1.1,0.7,2.9,0.7,2.9l-0.4,1l-2,1.4c0,0-1.3,0.5-1.5,1.2
		c-0.2,0.7-0.7,3.2-1.3,3.9c-0.6,0.7-1.4,1.3-2.2,2.1c-0.8,0.7-0.9,1.6-0.9,1.6l0.2,1c0,0,0.7,0.9,1.5,1.7c0.8,0.8,1.1,2,1.1,2
		s1.4,0.1,1.8,0c0.5-0.1,1.1-0.5,2.6-1.3c1.5-0.7,2.2-0.6,2.9-0.8c0.7-0.2,1.8-1.9,1.8-1.9l-1.7,0.2c0,0,0.3-0.3,1.2-1
		c0.9-0.7,1.8-2.5,1.8-2.5s0.1-0.6-0.6-0.9c-0.7-0.3,0-1,0-1l0.3-1.4l-0.9-0.7c0,0,1.1-1.7,1.1-1.5c0,0.2,1.4,3.7,2,4.2
		c0.6,0.5,0.5,1.8,0.6,2c0.1,0.2,0.2,1.6,0.2,1.6s2.1-1.5,2.6-2.1c0.5-0.7,1.4-0.9,1.7-0.9s4,0.9,4,0.9l-0.3,3.2c0,0-1.1,0-2.3-0.3
		c-1.2-0.3-2.6-0.7-2.6-0.7s0,0.6,0.8,1.2c0.8,0.6,1.7,0.9,1.7,0.9s0.4,0.8,1.1,1.1c0.7,0.3,2.6-1,2.6-1l-0.4-1l1.7-2
		c0,0,1.4-0.8,2.1-0.2c0.7,0.6,0.5,1.3,0.5,2.3c0,1-0.3,4.1-0.3,4.9c-0.1,0.8-1.9,2.9-1.9,2.9s2.9,0.8,3.2,1.6
		c0.2,0.7-4.8,3.2-4.8,3.2l-4.1-3.8c0,0-0.3-1.1-0.7-1.1s0.2-0.7,0.9-1c0.7-0.4,1.8,0.3,1.8,0.3l1.1,1c0,0-0.8-1.3-1.2-1.8
		c-0.4-0.5-1.3-1.3-1.3-1.3s-0.4,0.4-1,0.6c-0.6,0.1-1,0.7-1,0.7l-0.5,1.1l-0.8-0.4l0.1-2c0,0-1.2-0.8-1.8-0.8s-1.2-0.2-1.2-0.2
		s0.3,1,0.8,1.6c0.5,0.6,0.9,1.3,0.9,1.3s-0.4,0.4-1.1,0.4s-2.3-0.2-2.3-0.2s-1.5-0.1-1.8,0.2c-0.3,0.3-2.3,2.2-2.3,2.2
		s0.2,1.3,0.6,1.4c0.5,0.1,2.8,0.8,3.3,1.3c0.5,0.4,1.1,1.2,1.7,1.7c0.6,0.5,1.7,0.7,1.7,0.7l1.8,1.2c0,0-1.1,2.1-1.4,2.1
		c-0.3,0-1.6-0.3-2.7-1c-1.1-0.7-1.6-1.6-1.6-1.6s-0.5,0.9-1.7,0.7c-1.3-0.2-2.2-0.6-2.2-0.6s-1-0.7-1.1-1.2c-0.2-0.4-1.1-1-1.1-1
		s-0.4,0.9-1,1.4c-0.6,0.5-1.2,1.2-1.2,1.2l0.5,1l1.4-0.6l0.5-0.7l0.9,1.1l-1.1,0.7l1.4,0.8c0,0,0.3-1.2,1.3-1.1
		c1,0.1,2.3,0.4,2.3,0.4s2.8,1.3,3.4,1.5c0.6,0.2,0.5,1.7,0.3,1.8c-0.2,0.1-5.5,2.4-5.5,2.4l-1.4-0.4l-1.8-1.7c0,0-1.4,1-1.7,1.5
		c-0.2,0.5-1,2.4-1.2,2.5c-0.2,0.1-0.8,2.3-0.8,2.3s1.1,0.9,1.6,1.3s2.1,1.5,2.1,2.4s-0.3,2.2-0.3,2.2s-5.4,1.7-5.7,1.8
		c-0.3,0.1-1.4-0.9-1.4-0.9l-1.1,0.4l-1.3,1.2v-1.1c0,0-0.6-1.4-0.7-1.8c-0.1-0.4-0.6-1-0.6-1s-1.1,0.3-2.3-0.1
		c-1.2-0.4-1.5-1.9-2.8-1.9c-0.2,0.9-0.9,1.8-0.5,2.8c1.1,0,2.3,0.7,3,1.4c1.2,1.2,0.9,1.3-0.2,2.2c0.5-0.4-1.6-2.8-2-3.1
		c-1.4-0.8-2.7-0.7-4.2-0.5c0.6-0.1-1.1-4.2-1.2-4.6c-0.2-0.5-0.2-1.1-0.5-1.5c-0.4-0.5-1.5-0.4-1.6-1.1c-0.3-0.9,1.2-0.8,1.7-0.6
		c1.3,0.4,2.8,0.7,4.2,0.7c0.5,1,1.4-1.1,1.5-1.6c0.2-1,0.1-1.8-0.5-2.6c-0.9-1.3-2.1-3.2-3.9-3.5c-2.2-0.3-4.6,0.8-6.5,1.7
		c-0.7,0.3-4.6,1.7-4.1,2.8c0.4,1.1,3.3,0.2,4.2,0.9c1.5,1,0.8,3.8-1.1,2.6c-3.2-2.1-7.6-2.6-11.3-3.7c-2.2-0.6-4.8-1.6-7.1-1.4
		c-1.1,0.1-1.9,0.7-2.8,1.2c-1.1,0.5-2.3,0.3-3.5,0.2c-1.9-0.2-5.4,0.1-4.8,2.9c0.1,0.7,0.7,1.1,0.9,1.7c0.3,0.6,0.3,1.1,0.7,1.8
		c0.4,0.8,0.8,1.6,1.4,2.4c1.3,1.9,3.6,2.3,5.7,3.1c1.1,0.4,1.7,0.3,2.9-0.1c0.5-0.2,1.7-0.8,2.3-0.4c0.5,0.4-0.4,2.2-0.4,3
		c0,1,0,0.9,0.8,1.3c0.9,0.4,1.8,0.8,2.6,1.3c1.6,0.9,3.3,1.6,5,2c0.8,0.2,1.8,0.2,2.6,0.3c0.8,0.1,1.6,0.5,2.3,0.4
		c0.4-2.1,0.9-4.1,1.9-6c0.8-1.5,1.7-2.8,2.3-4.4c0.5-1.4,0.1-2.7,0.9-4c0.5-0.7,1.6-2.5,2.5-1.2c0.3,0.4,0.1,1.2,0.2,1.6
		c0.2,0.8,0.5,1.6,0.8,2.3c0.2,0.8,0.3,1.6,0.5,2.4c0.1,0.7,0.5,1.4,0.2,2.1c1,0.1,1.8-0.6,2.9-0.4c1.2,0.2,2.6,0.9,3,2.1
		c0.3,0.8,0.3,1.3,0.9,1.9c0.5,0.5,1.5,1.8,2.1,2c-0.5,0.9-2.5,1.6-3.4,2.2c-1.2,0.7-2.3,1.6-3.5,2.3c-1.7,1.1-3.7,2.1-5.6,3
		c-1.1,0.5-2.1,1.1-3.2,1.7c-0.7,0.4-1.6,1.2-2.3,1.3c-0.3-1.4-1.5-2.8-2.6-3.6c-1.3-1-3.2-1.5-4.7-1.8c-1.9-0.4-3.7-0.9-5.6-1.4
		c-4.2-1.2-8.6-2-13-2.8c-1.2-0.2-5.3-2.1-5.8,0.2c1.7,0.7,3.4,0.5,3.9,2.5c0.3,1.2,0.1,2.6,0.1,3.9c0.1,2.1,0.8,4.6,2.4,5.9
		c2.4,2,5.2,3.2,7.2,5.9c0.6,0.8,1,1.9,1.8,2.5c0.4,0.4,2.2,1.7,2.7,1.8c1.2,0.2,3.8-2.7,4.5-3.7c1.1-1.5,2.4-2.9,3.6-4.3
		c0.9-1,2.3-2.1,3.1-3.3c0.5-0.8,0.3-1.2,1.3-1.5c0.7-0.2,1.5,0.2,2.1,0.3c0.1,1.8,0,3.6,0,5.4c0,2.3,0.2,3.4,1.3,5.3
		c1.2,2-1.6,3-3.1,4c-2.1,1.4-4.7,3.2-7,4c0,0-2.9-3.1-3.3-3.4c-0.9-0.7-2.4-1.7-3.7-1.8c-0.7,0-1.4,0.3-2.1,0.5
		c-1.2,0.4-3.8,0.9-4.5,2c-0.8,1.3,1.4,1.8,2.2,2.4c0.4,0.3,0.8,0.7,1.5,0.9c0.8,0.2,1.4,0.3,2.3,0.4c-0.4,1-1.6,0.3-2.4,0.4
		c-1,0.1-2.3,0.7-3.1,1.3c-2.8,2.5,3.3,1.4,4.1,1.6c-0.1,1.2-1.7,1.9-1.8,3.3c-0.1,1.3,1.7,1.9,1.7,2c0,1-2.2,2.9-2.9,3.6
		c-0.9,1-4.6,3.3-6.1,3c-0.5-0.1-1.7-1.2-2.2-1.5c-1.1-0.8-1.6-1.1-3.1-1.3c-1.2-0.2-2.5-0.3-3.7-0.6c-1.6-0.4-0.9-0.6-1.9-1.5
		c-1.6-1.5-7.9-0.6-10.3-0.5c-2.4,0.1-3.3,2-5.3,2.5c-1.1,0.3-3.2-0.3-4.4-0.3c-1.6-0.1-3.3-0.3-4.9-0.3c-1.3-0.1-2.9,0.5-4.1,0.1
		c-1.6-0.6-2.8-2.1-4.6-2.7c-0.7-0.2-2-1-2.7-0.3c-2,1.9,1.8,2.6,2.3,3.1c2,2.1-1.1,4.3-3.3,4c-1.5-0.2-1.8-1.2-2.8-1.9
		c-0.8-0.5-2-0.4-3-0.4c-2.5,0-4.8-0.1-7.2,0.3c-1,0.1-2.2,0.3-3-0.3c-1.2-0.9-0.6-1.7-2.1-2.1c-1-0.3-1.9-0.2-2.7-1.1
		c-0.9-1-0.9-1.3-2.3-1.6c-1.9-0.4-4.5-0.3-5.5-2.3c-0.9-1.8-1.7-2.7-3.3-4.1c-1.4-1.3-2-2-3.5-0.5c-1.3,1.3-2.2,1.7-4.1,1.6
		c-3.2-0.1-5.8-1-8.4-2.6c-1.7-1.1-3.8-2.6-5.2-4c-1.2-1.2-2.3-4.6,0.1-5.4c1.1-0.4,2.4,0.3,3.4,0.5c1.5,0.3,2.9,0,4.3-0.4
		c1.5-0.4,3.4-0.6,4.7-1.4c0.9-0.5,1.6-1.1,2.5-1.6c1-0.5,2.2-0.8,2.9-1.6c0.7-0.8,0.6-1.7,1.2-2.6c0.7-1.1,3.1-3.6,4.4-3.6
		c1.2-0.1,2.1,1.1,3.3,1c1.3-0.2,1.4-1.3,1.2-2.2c-0.4-1.6-2.3-2.8-3.6-3.7c-2-1.4-3.7-1.8-6.2-1c-3.6,1.2-6.7,3.4-9.4,6
		c-2.2,2.2-7.2,6.1-9.2,2c-0.6-1.2-1.6-2.3-2.3-3.5c-0.8-1.2-3.3-3.6-3.1-5.1c3.5,0.1,6.3,4.4,9.7,1.8c1.2-0.9,2.2-2,3.7-2.2
		c1.6-0.2,3.1,0.3,4.6-0.5c-0.2-0.2-0.4-0.3-0.6-0.4c-0.8-0.6-2.6-0.1-3.3-0.8c-0.5-0.4-0.7-2.4-0.6-2.7c0.3-0.4,1.8-0.9,2.3-1.2
		c1.3-0.7,2.5-1.5,3.6-2.4c1-0.8,2.2-2.4,3.6-2.6c1.4-0.3,2.6,0.9,4,0.9c1.4,0,1.5-0.8,1.5-2c0-1.4,0.3-1.4,1.8-1.7
		c1.2-0.2,2.3-0.1,3.5,0.2c0.8,0.2,2.2,0.3,2.9,0.8c1.6,1.1,3.1,3,1.8,4.8c-1.4,1.9-4.4,2.6-5.2,5c-1.3,3.7,4.7,1.2,6.2,1.3
		c-0.8,0.6-0.8,1.6,0,2.1c-1.1,0.1-4.1,1.7-3.1,3c0.8-0.1,1.5-0.9,1.7-1.7c0.4,0.2,0.9,0.5,1.4,0.6c1.1-1.1,1.3-0.3,2.6-0.2
		c1.6,0.1,1-1.2-0.5-1c0.7-1.2,3-1.9,4.2-2.5c0.8-0.4,1.5-1,2.3-0.6c0.6,0.3,1.2,1.3,1.6,1.7c-1.1,0.9-2.7,1.4-4,1.9
		c-2.3,1-7.2,2.2-8.5,4.4c-0.4,0.7,0.1,0.7-0.6,1.4c-0.3,0.3-0.7,0.5-1.1,0.6c-1,0.4-2,0.7-3.1,1.1c-2.6,1.1-3.7,2.6-4.4,5.3
		c-0.4,1.7-1.1,3.7-1,5.4c0,0.7,0,1.5,0.5,2.1c1.2,1.2,3.6,1.3,5,2.5c0.8,0.7,1.7,1.1,2.8,1.5c1.4,0.6,1.3,0.6,1.4,2.1
		c1.5,0.7,3.3,0.9,4.2,2.4c-0.4,0-0.7,0.3-1.1,0.3c-0.5,1.8,4.2,2.6,5.4,3.4c-1.2,0.1-2.5,0.1-3.7-0.2c-0.9-0.3-1.7-0.9-2.5-1.1
		c1.2,2.5,5.7,3.5,8.2,3.6c0.3-1,0.8-2.3,1.6-3c-0.5-0.9-1.9-1.7-1-2.8c1.3,0.6,2,4.3,3.4,4.4c1.3,0.1,1.5-1.5,1.5-2.2
		c-0.5-4.1-0.4-8-0.4-12.2c0-1.8,0.2-3.2,0.9-4.8c0.5-1.2,0.4-2.6,0.9-3.8c0.2-0.6,0.7-0.9,1-1.4c0.6-1.3,1.4-1.9,1.4-3.4
		c0-0.9-0.6-3,0.2-3.7c0.9-0.9,5.3-0.1,6.4,0.3c1.3,0.5,2.6,1.6,1.8,3.1c-0.7,1.2-2.6,1.4-3.7,1.9c0.1,1.1,2.8,1.5,2.9,3
		c0,0.4-0.6,1-0.5,1.3c0.2,0.9,3.5,3,4.2,3.5c1.4,0.9,1.2,0.9,1.4,2.4c0.2,1.1,0.5,1.7,1.7,1.8c1.9,0.1,4.7-1,5.6-2.7
		c0.1,1.5-0.5,1.6-1.7,2.2c-0.6,0.3-2,0.7-1.7,1.7c0.7,1.9,4-2.9,4.3,0.4c-1.5,0.6-4.7,1.2-4.2,3.5c1.4,0.3,2.7-0.6,4.1-0.4
		c0.1,1,0,1.9,0.8,2.6c1,0.8,1.6,0.5,1.5,2c1.1,0.1,2.8,0.2,3.8-0.3c0-0.5-0.5-1-0.9-1.3c1-0.1,2.1-0.7,3.2-0.3
		c1.6,0.6,0.5,1.6,1.2,2.7c0.5,0.8,2,1.3,2.8,0.8c0.4-0.2,2.1-2.6,2.1-2.8c-0.3-0.8-2.6-0.2-2.5-1.6c1.3,0.2,2.4,0.6,3.9,0.5
		c-0.4-2.3-5.7-2.5-7.3-3.2c0.7-0.7,0.8-1,1.8-1.1c0.7-0.1,1.8,0.4,2.5,0.1c0.8-0.4,0.7-3.5,0.4-4.6c-0.2-0.7-0.8-1.2-1.1-1.9
		c-0.2-0.7-0.1-1.6-0.4-2.3c-0.4-1.2-1.7-3.2-2.8-3.9c-0.3,0.4-0.7,0.8-0.9,1.1c-0.5-0.9-3.3-0.7-4.4-1.1c-1.1-0.4-4.1-1.4-4.6-2.4
		c-0.7-1.5,2.1-1.6,3.1-1.9c1.3-0.3,2.6-1.6,4-1.6c0.2,0.2,0.4,0.5,0.5,0.8c-0.8,2.8,3.4,2.8,3.9,0.2c1.1,0.2,2.6,2,3.2,2.8
		c0.7,0.9,0.7,2.1,1.2,3.2c0.7,1.3,2.6,2.6,2.3,4.2c-0.2,1.4-1.8,0.5-3.2,0.5c0,0.2,0,0.5,0.1,0.7c0,0,0.1-0.1,0.1-0.1
		c0.7,1.5,1,2.9,2,4.4c0.7,1.1,1.8,4.5,3.7,3.7c0,0.8-0.1,1.6,0.2,2.4c0.9,0.3,0.8,1.2,0.7,2c-1.2,0.1-6.3,2.2-4.8,3.6
		c1.7,1.7,3.8-1,5-1.9c2.9-2.3,2.3,2,2.8,1.9c0.9-0.2,1.5-0.9,2.2-1.5c1.2-1,1.1-0.8,0.8-2.1c-0.3-0.9-0.4-1.6,0.6-1.9
		c0.9-0.2,2.1,0,3.1,0c0.9-2.6-1.5-2.6-3.4-2.8c0.7-0.5,3-1.5,2.6-2.7c-0.2-0.4-0.9-0.4-1.3-0.7c-0.3-0.2-0.6-0.7-0.9-1
		c0.3,0.3,3-0.8,3.3-1.1c0.7-0.6,1.4-1.7,1.3-2.6c-0.2-3.1-2.6,0.6-3.5,1.1c-1.8,1-2.5,0.6-3.1,2.9c-0.2,0.6-0.9,2-1.9,1
		c-0.4-0.4,0.1-1.5-0.1-2.1c-0.3-0.9-1.6-2.2-2.7-2.4c-0.1-1.5,1.1-2.8,2.5-2.9c1.6-0.1,2.9,1.2,4.5,0.6c0.4-2.1-3.8-1.3-3.8-3
		c0-0.7,2-1.5,2.3-2.3c0.3-1.1-0.9-1.6-1.2-2.5c-0.2-0.6,0.5-1-0.2-1.3c-1-0.5-2,0.8-2.7,1c-1.2,0.3-2.6-0.6-3.5-1.2
		c0.8-0.4,1.7-0.6,2.5-0.8c0.5-1-0.5-2-1-2.8c-1-1.5-0.6-1.4,0.8-2.4c1.7-1.2,0.5-3.2-1.3-3.4c-2.1-0.3-4.2,2.5-6,3.3
		c-0.8,0.3-1.3,0.5-1.8,1.2c-0.2,0.3-0.7,1.5-1,1.6c-0.4,0.1-0.5-0.3-0.8-0.4c-1.8-0.7-4-0.4-5.9-0.1c-3.2,0.6-6.1,2.2-6.2,5.6
		c-1.6,0-2.2-0.2-3.5-1.2c-1.3-1-3-2.3-3.8-3.7c0.8,0.2,1.6,0.4,2.5,0.3c0-0.3,0.2-0.5,0.1-0.7c0.8-0.4,1.6-0.8,2.4-1.1
		c0.2,1-0.8,2-1.2,2.9c1.1-0.5,2.2-1.1,2.6-2.4c0.4-1.1-0.1-2.1,0-3.2c-0.4,0.2-1.2,1-1.7,1c-0.4,0-1-0.4-1.4-0.4
		c0.9-1.2,1.3-1.4,2.6-1.7c1.1-0.3,1.7-1.1,2.4-2c0.4-0.6,0.8-1.2,1-2c0.1-0.8,0-0.9,0.5-1.4c0.5-0.5,1.2-0.6,1.4-1.4
		c0.1-0.5-0.4-1.3-0.6-1.6c1.1,0,2.8-0.4,3.4-1.4c0.2-0.4,0.3-0.8,0.6-1.2c0.4-0.4,1.3-0.7,1.9-0.7c0.7,0,1.2,0.4,1.7,0.8
		c0.6,0.5,1.1,0.8,1.6,1.4c0.6,0.7,1.1,1.5,1.5,2.3c0.3,0.6,0.6,1.5,1.1,1.9c0.5,0.5,1.4,0.6,2.1,0.7c1.7,0.2,2.8-0.6,3.7-1.7
		c0.3-0.4,0.7-0.6,0.3-0.9c-0.2-0.2-0.7,0-0.9-0.3c-0.7-0.9,0.7-2.1,0.5-3.1c-0.1-0.3-1.2-1.8-1.7-1.2c0.1-0.2,0.3-0.8,0.5-1
		c-0.3-0.3-1-0.7-1.4-0.8c-0.9,0.7-2,0.6-3,0.8c-1.2,0.3-2.3,0.8-3.6,0.9c-1.4,0.1-3-0.2-4.4-0.3c-1.5-0.1-3,0.1-4.4,0
		c0.7-1,1.7-1.4,1.5-2.8c-0.1-0.6-0.3-1.1-0.1-1.7c0.2-0.5,0.8-0.8,1.1-1.2c1.8-2.4-0.8-5.3-3.1-6c0.4,0.1,1.9-1,2.5-1
		c1.1,0,1.9,0.4,2.5,1.5c1.2,2.2,0.1,4.9,0.7,7.2c0.7-0.1,1.7-0.8,2.4-0.5c0.7,0.3,1.1,1.3,1.7,1.7c2.2,1.4,4.2,1.3,6.2-0.2
		c-0.6-0.4-1.6-0.5-2.2-0.9c-0.6-0.5-0.1-1.4-0.7-1.5c-0.9,1-0.9,1-1.8,0.3c-0.7-0.6-1.1-0.6-1.8,0c0.1-0.2,0.1-0.4,0-0.6
		c-0.5-0.8-0.5-0.8,0.1-1.5c0.6-0.8,0.8-1.2,0.8-2.2c0-1.5,1.6-2.9,3-3.5c0.8-0.4,1.7-0.3,2.6-0.4c0.9-0.2,1.9-0.6,2.7-0.9
		c0.8-0.3,2.4-0.5,3-1.2c0.6-0.8-0.3-2.4-0.7-3.3c-0.5,0.3-1.4,0.6-2,0.6c-0.4,0-0.6-0.2-1-0.3c-0.5,0-1.1,0.3-1.6,0.1
		c-0.8-0.3-0.9-0.6-1.8-0.4c-1.5,0.4-3.4,1.7-4.9,1.3c-0.4-0.1-1.6-0.4-1.8-0.7c-0.6-0.7,0.4-1,0.6-1.6c0.2-0.9-0.6-0.7-1.2-0.8
		c-0.6-0.1-1.1-0.2-1.8-0.2c-1.1,0-2.2,0.1-3.3,0.1c-0.9-0.1-1.7-0.4-2.6-0.4c-0.7-0.1-1.7-0.1-2.3,0.1c-1.6,0.7-3.1,3.9-4,5.3
		c-0.6,1-1.4,2-1.9,3c-0.7,1.1-0.8,2.3-2.2,2.6c-1.4,0.2-3.1,0.1-4.1,1.4c-0.7,0.8-0.3,1.8-0.4,2.7c-0.1,1.3-0.9,2.2-1.2,3.4
		c-0.2,1,0.1,1.6,0.4,2.5c0.4,1.2,1.1,3.8,3,3.2c1.1-0.4,0.6-1.2,0.8-2c0.2-0.8,0.6-1,1.3-1.5c1.3-0.8,3-1.6,4-2.8
		c0.7-0.9,0.3-1.3,0.3-2.2c0.1-0.6-0.3-0.3,0.2-0.8c0.4-0.4,1.6-0.4,2.1-0.5c0.6,1.4,1.3,2.8,1.1,4.4c-0.1,0.5-0.2,2-0.4,2.4
		c-0.5,0.8-1.9,0.6-2.8,1.1c-1.7,0.9-1.9,2.4-3.2,3.6c-0.3,0.3-0.6,0.5-1,0.7c-0.7,0.3-0.3,0.2-1,0.1c-2.4-0.1-4.4-1.1-4,2.4
		c0.1,0.9,0.3,1.6,0.9,2.3c0.8,1,2.4,1.7,2.6,3.1c0.1,1.1-0.8,1.3-1,2c-0.2,0.7,0.1,1.5,0.4,2.1c-0.7,0.1-1.4,0.1-2.1,0.1
		c-0.1-1.7-0.7-2.8-2.3-3.4c-0.8-0.3-1.5-0.2-2.3-0.5c-1.1-0.4-1.7-0.9-2.9-1c-0.9-0.1-2.3,0.2-2.7-0.9c-0.2-0.7,0.4-1.2,0.6-1.9
		c0.2-0.9-0.1-1.9-0.4-2.6c-0.5-1.4-1.1-3.1-2-4.4c-1.3-2-2.6-2.5-4.7-3.3c0.1-0.4,0.2-0.9,0.1-1.4c2-0.7,4.7-0.2,6.8-0.1
		c2.4,0.1,5.6,0.9,7.3-0.9c0.6-0.7,1-1.3,1.2-2.1c0.6-3.2,1.9-8.7-2.2-10.3c1.1,0.4,2.4,0,3.4,0.4c0,0.5,0.3,0.8,0.2,1.3
		c2.4,0.3,6.5-1.7,8.1-3.4c1.6-1.7,0-5.1-2.5-4.8c-0.8,0.1-1.1,0.2-1.8,0c-0.6-0.1-1.2-0.2-1.8-0.1c-0.6,0-1.3,0-2,0.1
		c-0.7,0.1-1.1,0.6-1.6,1.1c-1,1-2.5,1.4-3.6,2.3c-1.8,1.5-2.4,3.3-4.4,4.6c-0.9,0.6-0.5,0.8-1.1,1.5c-0.6,0.8-1.5,1.4-2.4,2.1
		c-1.9,1.6-4.2,3.1-5.2,5.5c-1,2.3-2.8,5.6-5.4,6.5c0-1,0.5-1.9,0.8-2.8c0.2-0.9,0.3-1.9,0.4-2.9c0.2-2.5,0.5-8.6-3.6-4.7
		c-0.5,0.4-0.8,1-1.3,1.4c-1,0.8-1.1,0.5-2,0.4c-1-0.1-3.7-0.3-4.6,0.3c-0.5,0.3-0.9,1.1-1.1,1.8c-0.5,2.1,1.5,3.2,2.7,4.7
		c-1,0.7-3.4,0.8-4.6,0.9c-2.3,0.2-5.1,0.2-7.4-0.1c1,0.1,3.8-0.9,3.7-2.1c-0.1-1.3-2.6-0.5-3.5-0.7c0.7-0.6,0.7-1.4,1-2.2
		c1.6,0.3,4.3,1.5,6,0.9c1.3-0.5,1.7-2.2,0.9-3.3c-1-1.2-3.1-1.1-4.5-1.2c0.1-3.4,6.4-4.5,6.7-0.9c1.4,0.1,1.9,0.2,2.5-0.9
		c0.5-0.9,1-2.3,1.6-3.2c1.1-1.7,4.3-1,6-1c2.6,0,5.7,0,8.2-0.5c0.5-0.1,2.1-0.5,2.5-0.7c0.6-0.4,1.3-1.7,1.8-2.3
		c0.3-0.4,0.2-0.9,0.6-1.3c0.4-0.4,1-0.3,1.4-0.7c0.9-1-0.5-1-0.5-1.7c0-0.3,0.9-0.6,1.2-0.7c-0.7-0.2-1.9-0.1-2.7-0.1
		c-1.2,0-2.5,0-3.7,0c-0.4,0-1.4,0.1-1.7-0.4c-0.3-0.4,0.2-0.7,0.5-1c0.7-0.8,1.6-1.7,2.5-2.3c0.8-0.5,1.6-0.3,2.5-0.4
		c1,0,2-0.2,3-0.3c2.3-0.1,4.8,0.1,7-0.1c0.8-0.1,1.4,0.3,2.1-0.2c0.5-0.4,0.7-0.8,0.4-1.3c-0.7-1.3-2.8-2.3-4.1-2.7
		c-0.1-0.5,0.1-0.9,0.1-1.3c0-0.4-0.2-1.1-0.1-1.5c0.2-0.7,1.2-1,1.8-1.2c1-0.3,2.2-0.3,3.2-0.1c1.1,0.3,1.9,0.9,3.1,0.9
		c0.1,1-0.8,1.7-0.9,2.7c1.9-0.6,0.2,1.5-0.2,2c0.7,0.9,2.2,1.4,3.1,2c0.5,0.3,1,0.6,1.5,1c0.8,0.5,0.8,0.3,1.7,0.1
		c1-0.1,3.3-0.3,4,0.2c0.5,0.4,0.6,1,1.3,1.3c0.5,0.2,1.7,0.2,1.5-0.5c-0.5-0.2-1-0.4-1.4-0.7c-0.7-0.5-0.6-0.6-0.1-1.2
		c0.3-0.3,0.7-1,1-1.2c0.4-0.2,1.5,0,1.9,0.1c0.7,0.2,0.8,0.5,1.2,1c0.3,0.4,1,1.2,1.7,1c0.6-0.2,0.5-1.1,1.1-1.3
		c0.1,0,0.5,0.2,0.7,0.2c0.3,0,0.6-0.3,0.8-0.4c-0.4,0-0.9-0.1-1.2-0.4c0.2-0.2,0.6-0.4,0.5-0.7c0.9-0.4,1.7-0.7,2.5-1.4
		c0.8-0.7,1.6-1.5,2.5-2c1.3-0.8,1.7-0.5,2.9,0.1c1.3,0.6,2-0.2,0.4-0.6c1.3-0.2,1.1-1.6,2.5-1.5c0.5,0,1,0.1,1.6,0
		c0.7-0.1,1.2-0.6,1.9-0.8c0.9-0.3,0.9,0.2,0.9,1.1c0,0.7,0,1-0.4,1.6c-0.7,1-1,1.9-1.4,3c-0.5,1.4-2,2.3-2.6,3.6
		c-0.3,0.5-0.4,1.1-0.1,1.6c0.4,0.6,1.4,1.4,2.2,1.4c1.3,0,4.1,0.1,6,0.3c1.9,0.1,3,1.3,3,1.3s-1-0.4-3.1-0.5
		c-2.1-0.1-3.9,0.4-3.9,0.4s0.8,0.9,2.6,1.9c1.8,1,3.8,1.6,4.4,1.6s2.4-0.8,2.4-0.8s2.3,1.8,3.7,2.4c1.4,0.6,2.8,0.4,2.8,0.4
		l-2.3,1.3c1.5,0.6,3.1,0.4,3.1,0.4l1.9-1.5c0,0,0.9,1.5,2.3,1.9c1.4,0.4,2.7,0.8,2.7,0.8s0-0.6,1.4-1.4c1.4-0.8,3.2-2,3.2-2
		s0.1-1.5,0.5-1.5c0.4,0,1.7-1.3,3.2-0.9c1.5,0.4,1.5,1,2.8,0.5c1.3-0.5,2.4-0.9,2.8-1.1s0.1-2.1,2.2-2.6c2.1-0.5,3.8-1,5.3-1.1
		c1.4-0.1,3.3-0.6,3.3-0.6l2.3-3.1c0,0-1.5-0.8-1.7-1.8c-0.1-1-1.4-2.3-1.4-2.3s-2.1-0.6-2.7-1c-0.6-0.4-2.4-1.6-2.4-1.6l0.1-2.1
		c0,0,2.2-0.4,2.8,0.1c0.6,0.5,0.6,1.9,1,1.9c0.4,0,1.9,0.5,1.9,0.5s-0.1,1.6,0.5,2.3c0.6,0.6,1.9-0.8,1.9-0.8s0.8-1.6,0.9-2.5
		c0.1-0.9-1.7-2.6-1.7-2.6s-5.3-3.9-5.6-4.2c-0.4-0.3-1-0.6-1-0.6v3.3c0,0-1.3,1.3-1.7,0.8c-0.4-0.5-1.9-1.6-2.3-1.4
		s1.4,2.1,1.4,2.1l0.3,2.4c0,0-3.6-2.9-4.1-3.6c-0.5-0.8-3.3-2.8-3.3-2.8s-3.5-1.6-4.6-2.3c-1.2-0.6-3.3-2-5.5-1.5
		c-2.2,0.5-7.2,2.3-8.6,2.9c-1.4,0.6-4.4,1.9-4.4,1.9s0.5-1,1.4-2c0.9-1,1.3-2,1.3-2.5c0-0.5,0.6-4.3,0.6-4.3l-0.4-2.9
		c0,0-0.9-1-2.3-0.8c-1.4,0.3-5.1,2.3-5.1,2.3l-5.5,3.6c0,0-0.3,0.4,2.6,0.6c2.8,0.3,4.9,0.6,4.9,0.6l2.2,0.9l-1,2.5l-2.3-1.9
		l-1.5,5.9c0,0-1.7-0.8-2.3-1.4c-0.6-0.6-1.8-1.1-1.8-1.1s-3.8-0.6-5.4-0.5c-1.5,0.1-4.7,1.6-5.1,1.8s-7.8,3.3-10.3,3.1
		c-2.4-0.1-5.1-1.5-5.1-1.5l-1.2-5.2c0,0-1.2,1-2.6,1.3c-1.4,0.3-2.8,0-2.8,0s-0.4,2.3-0.6,3.3c-0.3,1-0.9,1.8-0.9,1.8
		s-2.6-4.2-2.8-5.7c-0.3-1.5-0.4-3-0.4-3s4-0.5,5.9-0.6c1.9-0.1,8-0.4,8-0.4l2.7,0.2L86.6,23.1z"/>
	<path clip-path="url(#SVGID_2_)" fill="#505A5D" d="M75.8,27.3c-0.8,0.4-1.2,1.1-2.2,0.7c0.1-0.3,0.4-0.3,0.8-0.3
		c0-0.8,0.9-0.7,1.3-1.2c0.7-0.7-0.5-0.7-1.1-0.4c0.3,1.1-1,1.3-1.8,0.8c-0.3-0.2-0.6-1-1.2-0.5c-0.4,0.4,0.2,0.8,0.4,1.1
		c-0.4-0.1-0.8-0.3-1.1-0.4c0.3,0.9,2.7,1.7,3.5,1.3c0.4-0.2,0.5-0.7,0.9-0.9c0.4-0.1,1.2,0,1.6,0.2c0.9,0.3,1.3,1.1,2,1.7
		c0.3-0.3,0.7-0.6,1.2-0.8c-0.5,1.8-0.2,3.2,1.5,4.2c0.7,0.4,1.5,0.5,2.3,0.3c1.4-0.4,0.5-0.8,0.4-1.7c0.4,0,1.2,0.2,1.5,0.6
		c0.5,0.6-0.1,0.7-0.1,1.3c0.8-0.5,0.5-2.1,1-2.4c0.8-0.5,0.4,1,0.4,1.3c1.2,0.2,1-1.2,1.7-1.7c1-0.6,1.5-0.2,1.5-1.6
		c-1-0.1-1.7,0.2-2.6,0.4c-0.3-0.5,1-1.5,1.1-2.1c-0.5,0.2-2,0.3-2.2-0.4c0.3-0.2,1.2-0.2,1.3-0.6c0.5-1.2-3.6-0.5-4.2-0.4
		c-0.1,0,0.7-1.5,0.9-1.6c0.6-0.4,1.4-0.6,2.1-0.7c-0.9,0.7-0.2,2.6,0.5,1.1c0.5-1,1.4-1.9,1.9-2.8c0.4-0.6-0.1-1.7,0.2-2.3
		c0.3-0.7,1.1-0.2,1.7-0.4c0.6-0.2,1.2-0.8,1.6-1.1c0.5-0.4,1-0.8,1.5-1.2c0.7-0.6,0.7-0.6,0.9-1.5c0.1-0.5,0.1-0.7,0.8-0.9
		c-0.2,0.3-0.1,0.6-0.1,1c-0.1,0.6-0.1,0.6-0.6,1c-0.8,0.7-1.7,1.3-2.4,2.1c-0.6,0.6-1,1.1-1.7,1.6c-0.7,0.5-0.5,1.1-0.8,1.9
		c2.3-0.3,3.2-2.7,5.2-3.5c0,0.1,0.2,0.2,0.2,0.4c1.8,0.3,3.1-1.9,5-1.7c-0.1,0.5-0.5,1.3-0.9,1.6c-0.5,0.5-1.2,0.8-1.6,1.4
		c-0.4,0.6-0.2,1.2-0.5,1.7c-0.3,0.5-1.4,0.6-1.3,1.3c0.2,0,0.5,0,0.7-0.2c0.3,1-3.4,1.1-3.9,1.7c-0.2,0.2-0.1,0.6-0.4,0.8
		c-0.2,0.2-0.7,0.5-1,0.6c-0.7,0.3-1.5,0.1-2.2,0.2c1.1,1,2.4,0.7,3.6,0.1c0.3-0.1,0.6-0.2,0.9-0.4c0.5-0.3,0.3-0.2,0.5-0.7
		c0.1-0.3-0.2-0.3,0.2-0.6c0.3-0.2,1-0.2,1.3-0.3c0.6-0.2,1.4-0.3,1.9-0.6c0.7-0.4,0.7-0.8,1.2-1.4c0.6-0.6,1.4-1.1,2-1.7
		c0.4-0.4,0.6-0.7,1.1-0.9c1-0.4,2.1-0.6,3.2-0.8c1-0.2,2.5-0.5,2.8-1.7c0.4,0.1,2.1,0.9,1.9-0.2c2.7-0.2,5.5-1.2,8-0.7
		c0.6,0.1,1.1,0.4,1.7,0.5c0.9,0.2,0.9-0.2,1.5-0.7c0.4-0.4,0.8-0.7,1.2-1.1c0.5-0.4,1.1-0.4,1.5-0.8c0.3-0.3,0.3-1,0.5-1.4
		c0.3-0.4,0.7-0.8,1.1-1.1c0,1.5-1.3,2.9-2.4,3.9c-0.6,0.6-1.1,1.5-1.8,2c-0.5,0.3-1.6,0.5-1.8,1.1c-0.1,0.3,0.3,0.5,0.2,0.7
		c0,0.2-0.3,0.4-0.3,0.6c-0.3,0.4-1,0.9-0.9,1.5c0,0.5,0.6,0.6,0.8,1.1c0.1,0.3,0,0.6,0.1,0.9c0.1,0.2,0.3,0.3,0.4,0.5
		c0.5,0.7,0.3,0.6-0.6,0.9c-0.5,0.2-2.6,1-2,1.6c0.3,0.3,1.5,0,1.8-0.1c0.6-0.2,1.6-0.6,1.8-1.1c0-0.2-0.4-0.5-0.1-0.8
		c0.3-0.4,0.4-0.1,0.7-0.1c0.2,0,0.4,0.2,0.6,0.2c0.1,0,0.2-0.2,0.3-0.3c0.4-0.2,0.8-0.3,1.1-0.5c1-0.5,2.1-1.4,3.2-1.7
		c-0.1,1.5-1.7,1.6-2.6,2.4c0.4,0.3,0.7,0.6,0.7,1.1c0.6-0.1,1.3-0.3,2-0.3c0.9,0,1.8,0.1,2.6-0.2c-0.7-0.2-0.6-0.8-0.4-1.3
		c0.8,0.5,1.9,2.4,2.8,2.4c1.2,0,2.4-2,3.2-2.7c0.5-0.5,1.4-1,1.7-1.6c0.3-0.6-0.1-0.3-0.1-0.8c0-0.5,0.5-0.8,0.8-1.2
		c0.4-0.8,0.3-1.8,0.7-2.5c0.5,0.1,1,0.3,1.5,0.5c-0.1,0.5-0.8,0.6-1,1.1c-0.2,0.4,0,0.8-0.1,1.2c-0.2,0.7-0.8,1.4-1,2.1
		c-0.3,0.9-0.5,1-1.5,1.5c-0.7,0.3-1.8,0.7-1.8,1.7c0.9,0.2,1.5,0.8,2.5,0.6c0.4-0.1,1.9-0.6,1.2-1.1c1.4-0.6,2.9-1.1,4.3-1.8
		c0.5-0.2,2.2-1.1,0.8-1.4c0.4,0,1.2,0.2,1.3-0.4c0.3,0.3,2.2,1.2,2.2,0.2c0.4,0.1,1.2,0.5,1.3,1c-1,0.1-1.7,0.6-2.7,0.6
		c-0.5,0-0.5-0.1-1,0.1c-0.2,0.1-0.5,0.3-0.7,0.5c0.6,0.2,0.2,0.8-0.3,0.8c0.2,1.4,2.3,0.8,2.3-0.5c0.3,0.1,0.5,0.2,0.8,0.3
		c0,0.1,0.1,0.2,0.1,0.4c0.4,0.1,0.8-0.1,0.9-0.4c1.5,0.1,2.6-0.4,3.1,1.4c0.3,1.2,1.5,1,2.1,1.9c0.5,0.9-0.3,2.1-0.8,2.8
		c-0.8,1.4,0.4,1,1.3,1.9c0.6-0.4,1.1-1.6,1.9-1.4c-0.4,0.8-1.4,1.3-1.9,2c1.1,0.1,4.3-2.1,4.1-3.3c1.5-0.4,2.4-1.8,3.4-2.8
		c1.1-1.1,1.4-2.2,1.7-3.7c0.4-0.1,0.7-0.2,1.1-0.2c0.1,0.6-0.7,1.9-1,2.5c-0.4,0.8-0.8,1.7-1.5,2.4c-1,1-3.8,2.1-3.5,3.8
		c1.5,0.1,3.8-0.3,4.4-2c0.4-0.1,0.8-0.3,1.2-0.4c0.4-0.1,1-0.1,1.3-0.3c0.2,0.8-1.2,1.4-1.7,2c-0.6,0.7-1.1,1.6-1.6,2.4
		c-0.5,0.7-1,1.4-1.5,2.1c-0.4,0.6-1.2,1.2-1.3,2c-0.3,0-0.5-0.1-0.8-0.2c0-0.2,0-0.5,0-0.7c-0.5-0.1-1.6-0.4-2,0.1
		c-0.2,0.4,0.3,1,0.3,1.4c0.1,0.6,0,1-0.2,1.5c-0.2,0.5-0.5,0.8-0.3,1.4c0.1,0.3,0.7,0.6,0.8,1c0.4,1-0.2,1.4-0.7,2.1
		c1,0.2,1.6-1.4,2.2,0.3c0.3,0.9,0,1.2,1.3,1.1c0-0.2,0.1-0.5,0-0.7c0.3,0,0.5-0.2,0.6-0.4c-0.4-0.3-0.6-0.7-0.5-1.2
		c0.1-0.1,0.3-0.1,0.4-0.1c-0.2,0,0.6,1.8,0.6,1.9c0.2,0.6,0,1.1,0.1,1.7c0.1,0.6,0.6,0.5,0.9,1.1c0.1,0.3,0,1.4,0.8,1.1
		c0.4-0.2,0.7-1.7,1-2.1c1-1,2.8-1.4,3.5-2.6c0.4-0.6,0.3-0.8,0.9-1.2c0.5-0.3,0.8-0.3,0.8-1c-0.2,0-0.5,0-0.7,0.1
		c0.7-0.5,1.5-0.8,2-1.5c0.7,0.6,1.2-1.3,1.4-1.3c-0.8-0.3-2.1-0.1-2.9-0.2c-1.4-0.1-2.7,0.1-4,0.7c0.4-0.3,0.9-0.7,0.8-1.3
		c0.5-0.2,1.1-0.3,1.5-0.7c0.8-0.6,1.4-1.3,2.2-1.8c0.3,0.8-1.3,2-1.5,2.7c0.4,0,0.8-0.1,1-0.4c-0.4,0.9,0.8,0.5,1.1,0.3
		c0.6-0.3,1.3-0.7,1.5-1.4c0.3-0.9,0-1,1-1.3c0.3,0.8,0.9,1.3,1.1,2.1c0.2,0.8,0.1,1.2-0.2,2c-0.2,0.7,0.4,1.2,0,2.1
		c0.1-0.2,1.5,0,1.9-0.6c0.3-0.7-0.2-1.8,0.4-2.3c0.3-0.3,0.8-0.1,1.2-0.4c0.3-0.2,0.5-0.8,0.7-1.1c0.4-0.8,0.4-1,1.3-1.1
		c0.9-0.1,2-0.2,2.9-0.1c0,0.5,0.4,0.7,0.3,1.1c0,0.4-0.7,0.9-0.9,1.2c-0.4-0.8-1.5-1.4-2.3-1.4c-0.1,0.4,0,0.7,0.2,0.9
		c-0.6,0.6-2.1-0.3-2.3,1.1c0.4,0.2,0.8,0.8,1.1,1.2c-0.7-0.8-3-0.4-1.3,0.7c0.7,0.4,2.1,0.8,1.1,1.9c-0.2,0.3-0.8,0.3-1.2,0.3
		c0.3,0.2,0.3,0.5,0.4,0.9c0.6,0,1.1,0.1,1.6,0.2c0.3-1.6,2.2-0.4,3.2-0.8c0.9-0.4,2.2-1.5,2.3-2.4c0.1-1.2-0.6-0.4-1-1
		c-0.4-0.6,1.3-1.3,1.7-1.5c0.5-0.3,1.2-1,1.9-0.4c0.5,0.4,0.6,2.6,0.6,3.2c0.1,0.9-0.1,1.7-0.3,2.5c-0.2,0.7-0.4,1.5-0.9,2.2
		c-0.4,0.6-0.9,1-1.3,1.5c0.7,0.3,1.8,0.5,2.4,1c0.7,0.6,0.3,1.2,0.1,1.8c-1,0.1-2.2-0.4-3.3-0.4c-1.1,0-2.5,0-3.4,0.9
		c-0.4,0.5-0.7,1.3-1.5,1.2c-0.5,0-1.4-0.8-1.8-1.1c-0.7-0.4-0.7-0.6-0.6-1.4c0.3,0,0.6,0,0.9-0.1c0.3-0.1,0.4-0.3,0.6-0.3
		c0.5-0.2,0.8-0.1,1.5,0c-0.1-0.3-0.4-0.7-0.8-0.7c-0.2-1.1,1-1.3,1.8-1.1c0.7,0.2,1.7,0.6,1.3-0.6c-0.4-1-2.6-1.6-3.5-1.1
		c-0.4,0.2-1.1,1.3-1.5,1.3c-0.8,0-0.1-1.1-0.2-1.6c-0.3-1.2-2.3-1.3-3.3-1.4c0,0.6,0.7,1.1,0.8,1.8c0.1,0.4,0.2,0.9,0.2,1.3
		c-0.9,0-1.8-0.4-2.6-0.5c-0.9-0.1-2-0.5-2.7,0.2c-0.6,0.6-4,3.9-2.5,4.5c0.7,0.3,1.5-0.1,2.2,0.1c1.2,0.2,2.5,1.4,3,2.4
		c-0.9-0.1-0.7,0.3-1,0.9c-0.3,0.5-0.4,0.5-1.2,0.4c-0.1-0.5-0.9-0.7-1.3-0.8c0.3-0.5,1.2-0.4,1-1.2c-0.1-0.4-0.5-0.7-0.9-0.8
		c-0.9-0.2-2.1,0.5-1.4,1.4c-0.9,0.3-1,0-1.4-0.5c-0.7-1-0.7-0.2-1,0.5c-0.4,0.8-1.2,1.6-1.8,2.3c0.3,0.8,1,0.3,1.6,0.1
		c0.5-0.2,0.8-0.3,1.2,0.3c-0.3,0.3-0.9,0.5-1.1,0.8c0.5,0.3,1.5,0.4,1.5,1.1c0.6,0.1,0.8-0.9,1.6-0.6c1.1,0.4,0.1,1-0.4,1.2
		c0.3,0.3,0.9,0.5,1.2,0.5c0.4,0,0.4-0.3,0.8-0.2c0.2,0.1,0.5,0.3,0.7,0.4c0.1,0.6-1.6,2.1-2.1,2.4c-0.1,0.1-1.1,0.6-1.2,0.6
		c-0.4,0-0.8-0.8-1.2-1c0.1-1.1,0-1.2-0.9-1.8c-0.9-0.5-0.6-0.9-0.8-1.8c-0.3-0.9-0.8-0.6-1.4-1.2c-0.5-0.5-0.2-1.2-0.3-1.7
		c-0.1-0.7-0.6-1.4-1.1-1.8c-0.3-0.3-1.1-0.9-1.2-1.2c-0.1-0.3,0.2-1.2,0.2-1.5c1.1,0.1,1,1.2,0.7,1.9c0.6-0.3,1.4,0.1,1.9-0.3
		c0.6-0.4,0.6-1.2,1.3-1.6c-0.4-0.2-0.9-0.1-1.2-0.4c-0.2-0.2-0.3-1-0.5-1.3c-0.3-0.4-0.6-0.6-0.9-1c-0.4-0.6-0.9-1.2-1.6-1.5
		c-0.7-0.3-1.8,0-2.2-0.8c-0.8-0.2-0.9,1.1-1.6,0.6c-0.2-0.1,0-0.5-0.5-0.7c-1.1-0.4-2.4,0.6-3,1.5c-0.3,0.5-0.1,0.9,0.4,1
		c-0.6,0.5-0.9,1.1-1.2,1.7c-0.6,1.3-1.1,0.8-2.3,1.2c-1,0.3-2.4,1.3-2.3,2.5c0.2-1.5,1.8,0,2.4,0.2c0.8,0.3,1.4,0.2,2.1-0.3
		c0.5-0.3,1-1.3,1.7-1.1c1.2,0.3-0.1,1-0.6,1.3c-1.1,0.6-1.7,2.4-2.4,3.5c0-1.8-0.9-0.7-2.1-1.1c0.2,0.3,0.3,1.1,0.6,1.3
		c0.2,0.1,1,0.4,1.3,0.5c-0.4,0.4-1.9,1.5-0.6,1.8c-0.4-0.1,0,1.3,0.1,1.5c0.2,0.5,0.6,1.1,1.2,1.1c0.4,0,1.3-0.5,1.2,0.4
		c-0.4,0-1,0.2-1,0.6c0.4,0,1.3-0.2,1.6-0.1c0.3,0.1,0,0.4,0.2,0.6c0.3,0.2,0.6,0.2,0.9,0.3c-0.8,0.6-1.5-0.2-2.2-0.4
		c-1.4-0.5-0.8,0.8,0,1.2c0.9,0.4,2.6,0.8,3.5,0.5c-0.9,0.8-1.8,0.5-2.9,0.3c-1.1-0.2-2.1,0.2-2.9-0.9c0.1,0.2,0.1,0.8,0.2,1.1
		c0.2,0.3,0.5,0.7,0.7,1c0.5,0.7,1.3,1.1,1.7,1.8c-0.4-0.1-0.9,0-0.7,0.4c1,0.5,2.2-1.2,3.1,0.2c-0.2,0.1-0.4,0.3-0.5,0.4
		c1.4,0.5,2.7,0.1,3.3-1.3c0.3-0.8,0.3-2.1,1-2.7c-0.8-0.2-1.2-0.7-0.3-1.1c-0.3-0.1-0.9-0.2-1.2-0.3c-0.6-0.4-0.3-0.3-0.2-0.8
		c0.1-0.3,0.2-0.7,0.2-1c0.1-0.3,0.4-0.6,0.4-0.9c0.1-0.8-0.7-0.9-0.6-1.8c0.2-0.8,1-1.7,1.3-2.5c0,0.4,0.4,0.3,0.5,0.7
		c0.1,0.4-0.3,0.6,0.1,0.8c0.2,0.1,0.9,0,1-0.3c0.1-0.3-0.6-0.7-0.6-1c0.1-0.3,0.8-0.5,1.1-0.5c0.6,0,0.6,0,0.7,0.5
		c0.2,0.8-0.2,1.3,0.3,2.1c0.2,0.3,1.2,1,1.2,1.5c0,0.7-1,0.8-0.7,1.7c0.3,0.8,0.6,0.8,0.2,1.7c-0.3,0.6-0.9,1.1-0.8,1.9
		c0,0.4,0.4,0.8,0.4,1.1c0,0.3-0.6,0.7-0.7,1c0.2,0,0.4,0.1,0.6,0c0.1,1.3-1.1,1.9-1.6,2.9c0.8,0.4,6.7-0.2,4.3,2.3
		c-1,1-4.5,2.9-4.5,0.4c-0.9,0.1-2.5,0.6-2.8,1.6c-0.2,0.6,1.1,2.9,1.3,2.7c-1.5,1.4-3.3,0.7-4.8-0.2c-0.8-0.5-1.4-0.6-1.6-1.4
		c-0.1-0.5,0.1-1.6,0.1-2.1c1.7,0.8,3.1,2,4.3-0.2c0.5-1,1-2.6-0.6-2.8c-0.4-0.1-1.1,0.7-1.1,1.2c-1-1.3-1.4-1.2-2.9-1.3
		c-1.2-0.1-1.8-1.1-2.8-1.5c-0.3,0.8-0.4,1.8-1,2.5c-0.6-0.4-2.7-0.1-3,0.6c-0.2,0.5,0.4,0.7,0.1,1.2c-0.2,0.3-0.6,0.3-0.8,0.5
		c-0.6,0.3-1.1,0.1-1.3,0.9c-0.1,0.5-0.1,0.8-0.4,1.2c-0.2,0.3-0.7,0.5-0.8,0.9c-0.3,0.8,0.5,1.6,0.1,2.6c-0.3,1-0.7,1.7-0.7,2.9
		c1.4,0.1,2,0.2,2-1.3c0-0.2,0.1-0.5,0-0.8c0-0.2-0.5-0.4-0.5-0.6c0-0.5,0.6-0.7,0.8-1.2c0.3-1.1-0.6-2-0.8-2.9c-0.2-1,1-0.8,2-0.7
		c0.6,1.4,1.9,2.7,2.2,4.2c-0.8,0.3-1-1.1-1.7-0.5c-0.5,0.4,0,0.7,0,1.1c0.1,0.6,0.1,0.5,0,1c-0.2,0.8-0.7,1.3,0.5,1.6
		c0.4,1.7-3.2,4.1-4.2,5.1c-1.9,1.9-5.2,3.3-6.3,5.9c-0.5,1.2-0.3,3,0.5,4c0.7,1,2.3,1.7,2.3,3c0,2.5-5.9,1.6-7.3,1.6
		c-1.4-0.1-2.3,0.1-3.6,0.6c-1.6,0.7-2.2,2.4-3.6,3.2c-0.5-0.5-1-1-1.5-1.4c0.5-0.6,1.7-0.8,1.2-1.8c-1.3,0,0.9-1.8,1.2-2.1
		c1.1-1.1,2.4-2.1,3.4-3.4c1.4-1.9,2.6-3.8,4.1-5.7c1-1.2,1.6-2.7,1.1-4.3c-0.4-1.6-1.6-1-3-1.4c-1.5-0.4-2.9-1-4.4-1.6
		c-1.4-0.6-3-1-4.5-1.3c-0.8-0.2-1.7-0.4-2.6-0.6c-1.7-0.5-0.5-0.6-0.7-1.7c-1.4-0.4-2.3-1.6-3.9-1.5c-1.3,0.1-1.7,1.1-2.2,2.1
		c-1.7-0.2-2.8-1-4.4-1.4c-1-0.2-5.7-0.7-5.9,0.9c0,0.2,0.5,0.8,0.6,0.9c0.6,0.6,1.6,0.7,2,1.5c0.4,0.8-0.3,1.2-0.1,2.1
		c0.3,1.1,1.3,2.3,1.3,3.5c-0.6-0.6-1.2-1.5-1.5-2.3c-0.1-0.4,0-0.8-0.3-1.2c-0.3-0.3-0.9-0.2-1.1-0.5c-0.2-0.3,0-1-0.2-1.3
		c-0.2-0.4-0.6-0.6-0.9-0.9c-1.5-1.8-3.6,0-5.4,0.7c-0.9,0.4-1.7,0.9-2.4,1.6c-0.5,0.5-1.2,2.1-2,2.2c-1,0.1-0.3-0.6-1-0.8
		c-0.6-0.2-0.7,0.2-1.3,0.3c-1,0.1-1.8-0.3-2.9-0.3c-1.2,0-2.1,0.7-3.2,1c-1.1,0.3-2.5,0.1-3.3,0.9c-0.4,0.4-0.3,1-0.6,1.4
		c-0.3,0.5-1,0.9-1,1.6c0,0.6,0.6,0.6,1.1,1c0-1,1.1-0.5,1.5-0.4c0.7,0.2,1.1,0.3,1.9,0.1c1.2-0.3,3.4-1,3.1,0.8
		c-1.2,0.6-2.9,0.3-4.2,0.4c-0.2,1,1.8,0.9,2.5,0.9c0.5,0,0.9,0.2,1.4-0.1c0.6-0.3,0.3-0.9,1.2-0.7c0.1,1.5,4.9,0.4,4.7-0.6
		c0.6-0.2,0.9,0.1,1,0.7c1.4,0.1,1.7-0.2,1.5-1.4c-0.1-0.9,0-1.9-0.4-2.8c1-0.2,1.3-0.3,2,0.5c0.7,0.8,0.7,0.6,1.7,0.6
		c1.9,0.1,3.6,1.9,5.6,1c0.8-0.4,1.1-0.8,2.1-0.8c0-0.2,0.1-0.6,0-0.8c0.4-0.1,0.7-0.2,1.1-0.4c0.1,1,1.4,1.6,2,2.2
		c0.5,0.5,0.7,0.8,1.1,1.3c1,1.2,2.2,2.4,3.4,3.4c1.1,1,2.6,1.6,3.6,2.7c0.9,1,0.6,2,1.9,2.8c0.9,0.6,1.9,1.3,3,1.5
		c0.4,1.5-2.5,0.2-3.1,0.2c-0.7,0-3.4,0.4-3.1,1.4c0.6,0.3,1.2,0.4,1.9,0.6c-1.1,0-4.1,1.6-3.3,3c0.6,1,3.5,1.2,1.7,3
		c-0.6,0.6-1.6,0.3-2.1,0.8c-1,1.1,0.7,1.1,0.7,1.8c0.1,1.4-0.9,2.4-0.1,3.8c0.2,0.3,2.8,2.3,3,1.5c-0.3,0.8-0.6,1.6-0.8,2.5
		c-1,0-2.1,0.1-3.1,0c0.8-2.9-4.9-1.5-4.5,0.5c-1.4-0.1-2.4,0.6-3.5,0.3c-1.4-0.3-2.1-0.9-3.7-1c1.1-2.9,4.9-0.5,5.9-3.9
		c0.3-1.1,0.3-2.8,0.9-3.7c0.9-1.3,2.1-0.3,3-1.2c0.4-0.4,0-1.9-0.3-2.3c-0.5-0.6-0.7-0.6-1.6-0.8c0.8-0.4,1.5-0.9,2.1-1.6
		c0.6-0.8,0-2.1,0.6-2.6c0.4,0.1,0.7,0.5,1.1,0.6c0.4,0.1,0.9-0.1,1.2-0.2c0-0.6-0.6-0.8-1-1.2c2.9,0.8,0-2.3-0.1-3
		c-0.2-0.8,0.2-1.1-0.9-1.1c-0.2,0-2,0.4-2,0.3c0-0.4,0-0.8,0-1.2c0.5,0,0.9,0.2,1.3,0.2c-0.2-1.1,0.7-0.7,1.2-0.5
		c0.8,0.3,1.4,0.5,2.3,0.5c0.1-0.5-0.5-1-0.9-1.3c-0.3-0.3-0.2-0.5-0.7-0.7c-0.3-0.1-0.7,0.2-1.1,0.1c-0.4-0.2-0.7-0.9-1.3-1.1
		c-1-0.4-0.6-0.2-1.1-1.1c-0.6-1-3-1.1-3-1.9c0-0.6,1.1-0.9,0.7-1.6c-0.8-1.2-2.8,0.7-3.5,1.1c-0.6,0.4-0.9,0.8-1.2,1.4
		c-0.3,0.6-0.6,1.1-0.9,1.7c-0.1,0.3,0,0.8-0.2,1c-0.2,0.4-0.4,0.4-0.8,0.7c-0.6,0.5-3.1,3.5-0.9,3.5c1,0,1-0.8,1.5-1.4
		c1.1-1.4,2.6-0.7,4-0.3c-0.3,0.2-0.5,0.4-0.6,0.7c0.7-0.1,2.7,1.1,2.4-0.6c1-0.4,1.3-0.1,1.5,0.7c0.3,1.2,0,1.3-1.2,1.2
		c-1.7-0.1-3.3-0.6-3.3,1.7c-0.5,0-1.2,0.1-1.6-0.1c-0.5-0.3-0.8-0.8-1.4-1c-1.1-0.4-2,0.2-3.1,0c-0.8-0.1-2.4-1-1.4-1.9
		c0.8-0.7,1.6-0.1,1.7-1.4c0-0.4-0.2-0.7-0.1-1.1c0.1-0.4,0.6-0.6,0.8-1c0.3-0.6,0.1-1.5,1-1.6c0.1-0.4-0.2-1-0.1-1.3
		c0.2-0.3,1-0.4,1.3-0.6c0.7-0.3,1.5-0.6,1.5-1.5c-0.7,0-1.5-0.1-2.2-0.2c-0.7-0.1-1.3-0.5-1.9-0.6c-0.3,0-0.8-0.1-1,0
		c-0.5,0.2-0.5,0.6-0.8,0.7c-0.5,0.3-1.1,0.4-1.6,0.7c-0.5,0.3-0.7,0.6-1.3,0.6c0.2,0.4,0.5,1.3-0.3,1.2c-0.2,0.8,1,1.4,1.2,2.1
		c-0.6-0.3-1.6-2-2.2-2c-1.8-0.1,0.6,2,1,2.2c0.8,0.4,1.5,0.8,1.8,1.7c0.2,0.8-0.6,1.7-0.1,2.3c0-0.5-0.3-0.9-0.6-1.3
		c-0.2-0.3-0.4-1.1-0.6-1.3c-0.3-0.3-1-0.2-1.2-0.5c-0.2-0.3,0-0.8-0.3-1.2c-0.2-0.2-2.6-1.6-2.6-1.1c0.1,2.2-0.9,4.8-0.5,7.1
		c0.1,0.8,1,0.4,0.4,1.4c-0.5,0.8-1.2-0.1-0.9,1.2c0.5,1.9,2.5,2.7,4.2,3c0.4-0.7-0.2-6.3,2.1-4.7c1,0.7,0.5,2.4,0.7,3.4
		c0.2,1,0.8,1.3,1.3,2.1c0.5,1,0.5,1.8,1.3,2.8c0.5,0.6,1.8,1.2,2,1.9c0.3,1.2-1.2,0.6-2,1.3c-0.9,0.7-0.5,1.8-1.8,2.2
		c-1.1,0.3-2.2-0.4-3.2-0.5c0.2-0.6,0.9-1.1,1-1.7c0.2-0.7,0-1.6,0-2.3c0.7,0,1.6-0.2,2.3,0.2c0.8-3.2-5.2-3-7-3.9
		c-2.6-1.2-5.2-1.1-8.1-0.8c-2.1,0.3-3.6,1-5.4,2c-1.2,0.6-3.5,0.4-4.4,1.2c-0.3,0.3-1,2.1-1.4,2.6c1.2-0.2,3.1-0.4,4.3,0
		c0-2,2.8-1.4,3.6-0.3c-0.7,0.5-1.8,1-2.7,1.2c-0.3,2.3,6,0.9,7.4,1c1.2,2,3.7,1.2,4.9,2.6c-2.7,0.1-6.6,0.5-8.5,2.3
		c-2.1,2-7.1,1.6-9.8,0.2c-2.3-1.2-4.5-2.7-6.9-3.9c-1.2-0.6-2.9-1.6-4.3-1.6c-0.8,0-2.8,0.7-1,1.3c-0.1,1-1,1.9-0.9,2.9
		c1.6,0.4,1.1,1.3,1.9,2.4c0.7,1.1,1.7,1.8,1.9,3.1c-1.3-2.3-5.3-2.1-7.6-1.7c-1.1,0.2-2,0.7-3.2,0.8c-1.4,0.1-2.7,0.2-4.1,0.1
		c-0.7-1.4-0.8-2.1-2.4-2.6c-1.2-0.3-2.8-0.1-3.4-1.5c1.6,0,3.6,0.2,5.3,0.4c1.2,0.1,2,1.4,3.2,1.2c-0.3-2,2-1,3.1-0.9
		c0.2-0.9-0.3-2-0.2-3c1.5-0.2,1.5,1.2,2.3,1.9c1.3,1,1.3-0.2,1.1-1.3c-0.9-4.6,1.6-8.7,0.6-13.2c-0.2-1-0.6-1.6-0.1-2.6
		c0.4-0.7,1.3-1.3,1.5-2.1c0.2-0.8,0-1.8,0.1-2.6c0.1-1.9,0.9-4,1.8-5.6c0.4-0.7,1.6-1.3,1.6-2c0.8,0,1.7-0.1,2.3,0.4
		c-0.3,0.3-0.7,0.6-0.9,1c0.6,0.4,1.5,0.8,1.4,1.6c-2-0.6-2.1-0.2-2.4,1.5c1.2,0.2,3.6,0.5,3.6,2c-0.9,0-1.8-0.1-2.6,0.2
		c-0.6,0.2-2.6,1-2.6,1.7c0,0.5,1.6,1.4,2,2.1c1.2-1.1,1.9-1.4,3.5-0.7c0.1,0.9,0,4.6-0.6,5.2c-1-1.7-1.8-1.5-3.4-1.4
		c-0.1-0.4-0.2-0.9-0.2-1.3c-0.4-0.1-0.8-0.1-1.1,0c-0.1,1.6-0.4,2.9,0.3,4.3c0.6,1.2,0.6,1.2,2,1.2c0.9,0,1.8,0.1,2.7-0.1
		c0.7-0.1,3.5-1.8,3.1,0c1.5-0.2,2.9-1.1,4.5-1c-0.2,0.5-0.7,1-0.8,1.5c1.3,0.1,2.4-0.4,3.5-0.9c0.6-0.2,1.3-0.7,1.9-0.6
		c0.6,0,1.1,0.5,1.8,0.5c1.9,0,3.5-1,5.2-1.6c1.7-0.6,3.2-0.3,4.1-2c0.3-0.5,0.2-1.2,0.3-1.7c0.1-1.2,0.5-2.4,0.6-3.6
		c0.1-0.7,0-1.3-0.5-1.8c-1-1-2.3-1.4-3.6-1.6c-1-0.2-1.9-0.6-2.9-0.9c-0.7-0.2-1.7-0.3-2.3-0.6c-0.7-0.3-0.9-0.9-1.7-1.1
		c-0.8-0.3-1.1-0.4-1.8-0.9c-1.8-1.3-3.7-2.5-5.2-4.1c-0.7-0.8-1.6-1.3-1.5-2.3c0.1-1,1.3-1.4,0.5-2.5c-1.9-0.7-2.8-2-4.8-1.8
		c-1,0.1-2.1,0.2-3,0.8c-1,0.8-0.9,1.2-2.3,1.2c-2.6,0.1-4.6-0.4-7.1,0.9c-1.7,0.8-3.4,1.7-5.1,2.5c-2.1,1-4.7,1.3-6.5,2.9
		c-1.3,1.2-2.9,2.7-4.6,3.5c-1,0.4-2,0.3-3,0.9c-1,0.5-2.3,1.3-2.8,2.2c-0.6,1.1-0.4,2.4-0.9,3.6c-0.9,2.1-3.6,3.4-4.1,5.8
		c-0.4,1.9,1.1,1.1,1.9,1.8c0.7,0.6,1,3,0.9,3.7c-2.3,0-3.3,1.2-4.9,2.6c-0.4-0.2-0.9-0.3-1.4-0.4c0.5-0.9,0.9-2.8,0.6-3.9
		c-0.4-1.5-1.5-1.2-2.9-1.7c0.1,0,0.4-0.2,0.6-0.2c0.2-1.1-1.6-4,0.4-3.6c1.3,0.3,0.7,2.7,1.2,3.9c0.2,0,0.5,0,0.7-0.1
		c0.2-0.9-0.2-2-0.2-3c0-1.4,0-2.2-1.2-3c0.8,0,2.1-0.3,2.3-1.3c0.1-0.9-1-1-0.1-1.9c1.3-1.3,4-0.3,3.9-2.9c0-1-0.6-1.2,0.4-1.9
		c0.4-0.3,1.1-0.2,1.5-0.4c0.8-0.4,0.4-0.2,0.8-0.9c0.5-1,0.3-1.5,1.8-1.3c1.2,0.2,2.2,1.1,3.4,1.4c0.7-1.6,1.3-3-0.1-4.4
		c-0.7-0.7-2.6-1.6-2.8-2.7c-0.3-1.5,2.1-0.4,2.6-1.8c0.5-1.3-1.6-1.1-1.3-2.4c0.1-0.5,1.7-1.4,2-2c0.5-0.8,0.9-1.8,0.8-2.7
		c-0.9-0.2-2.7-0.6-2.4-1.8c-0.7,0-1.4,0-2,0c0.5-0.7,1.3-1.2,1.8-2c0.6,0.2,1.6,1.2,2.1,0.9c0.7-0.4,0-1.2-0.4-1.5
		c0.4-0.6,3.3-0.2,1.9-1.6c-0.6-0.7-2-0.4-2.9-0.4c-2.2,0-4.5-0.2-6.5,0.5c0.8-3.5-3.1-1.9-4.8-4c1.7-0.1,3.6-0.1,5.1,0.8
		c1.1,0.7,1.9,1.4,3.1,1.8c2.7,0.9,5.7,1.7,8.4,1.9c0.7,1.1,1.7,1.8,2.1,3.1c0.4,1.3-0.2,1.4-1.3,2c-1.7,0.9-3,2.1-3.9,3.8
		c-0.8,1.5-2.2,3-1.6,4.8c0.2,0.5,1.7-0.1,2,0c0.8,0.2,0.7,1.1,1.3,1.3c0.4,0.1,1.2-0.6,1.8-0.5c-0.3,0.8-1.2,1-1.4,1.7
		c-0.1,0.5,0.4,1.6,0.7,2.1c1.8-0.5,3.9-1.8,5.8-2.4c0.7-0.2,3.1-0.6,3.5-1.4c0.5-0.9-0.7-1.4-1.4-1.6c0.8-0.3,1.2-1.2,1.8-1.4
		c1.4-0.6,1.5,0.9,2.3,1.1c1.6,0.5,4-2,4.3-3.3c0.6-2.2,0.1-5.3-1-7.4c-1.1-2.1-5.6-1.7-5.3-4.5c2.4-0.3,5,0.1,7.4,0.2
		c1.2,0.1,2.9,0.2,4.1,0c0.8-0.2,1.4-1.1,2.3-0.7c0.2,1.3,1,2.4,1.3,3.6c0.2,0.6-0.1,1.3,0.1,1.9c0.2,0.7,0.9,1.1,1.4,1.6
		c-1.8,0.5-1.9,2.9-1,4.3c0.9,1.3,2.8,2.1,4.2,2.4c0.3,0,0.7-0.6,0.9,0c0.1,0.3-0.6,0.7-0.7,1c-0.2,0.9,0.5,1.4,0.9,2
		c0.5,0.8,1.1,1.9,2.1,2.1c0.3,0.1,3.1-0.3,3-0.8c0.2,0.9-0.3,1.8-0.7,2.6c2.1-0.1,2.5-1.8,2.4-3.6c0-0.4,0.2-1.8-0.1-2.1
		c-0.3-0.4-2,0.6-1.9-0.4c0.5-0.1,1.1-0.3,1.5-0.5c0.8-0.3,1.4-1.1,2.2-1.4c0.1,0.5-0.2,0.6-0.5,0.9c-0.3,0.3-0.3,0.4-0.3,0.8
		c0,0.3-0.1,1.3,0.3,1.3c0.1-0.4-0.1-0.6-0.3-0.9c0.5,0,1.1-0.2,1.3-0.7c0.1-0.3,0-0.4,0.2-0.7c0.1-0.1,0.5-0.2,0.6-0.2
		c0.5-0.3,0.8-0.7,1.2-1.1c0.4-0.5,0.6-1.6,1.3-1.8c0.2,0-0.4,1.2-0.4,1.3c-0.2,0.4-0.1,1-0.3,1.3c-0.5,0.7-2,0.8-2.1,1.8
		c1.3,0.1,3.2-1.5,4.4-1c0.4,0.2,0.4,0.6,0.9,0.8c0.6,0.3,1.3,0,1.9-0.1c0.6-0.1,1.2-0.1,1.8-0.1c2.1,0,3.9-0.8,5.4-2.2
		c0.6-0.5,1.2-0.3,1.7-0.7c0.4-0.3,0.3-0.7,0.9-1c0.5-0.2,0.9,0,1.4,0.1c1.2,0.2,1.7-0.5,2.8-0.7c1.1-0.2,4.5,1,5.2,0.5
		c0.7-0.5-0.4-1.5-1.1-1.8c-0.2-0.1-5.4-1-5.3-1.2c0.2-0.6,0.9-0.7,1.4-0.9c0.4-2.3-3.4,0.7-2.6-1.7c0.2-0.7,0.7-1.1,0.3-2
		c-0.3-0.7-1.1-1.1-1.7-1.4c0.4-0.2,1.1-0.3,1.6-0.1c0.4,0.2,0.8,1,1.2,1c0.4,0,0.6-0.7,1-0.8c0.6-0.1,2.3,0.9,3,1
		c0.7,0.2,2.2,0.7,2.8,0.2c0.6-0.4,0.6-2.6,0.7-3.4c-0.9-0.1-1.2,1.3-1.2,2c-0.4-1.2,0.3-4.8,2.3-3.7c0.3,0.2-0.9,3.8-0.7,4.5
		c0.5,1.7,2.4,1.9,3,3.3c0.3,0.7-0.8,3.7-0.2,4c0.4,0.2,1-0.5,1.2-0.8c0.4-0.8-0.3-1-0.1-1.7c0.1-0.3,0.3-0.7,0.6-0.9
		c0.6,0.6,1.5,0.9,2,1.5c0.2,0.2,0.8,0.9,0.9,1.2c0.3,0.6,0.1,0.7,0.2,1.2c0.3,1.8,4,1.8,5.4,2.8c-0.3-0.6-0.1-1.4-0.2-2.1
		c-0.1-0.7-0.3-1.4-0.6-2.1c-0.2-0.5-0.7-1.7-1.2-2c-0.9-0.6-2.5,0.6-3.5,0.5c0-0.5,0-0.9,0-1.4c1.4,0.3,2.5-0.1,3.8-0.6
		c0.7-0.2,3.4-0.9,2.6,1c-0.3,0.7-0.9,0.4-1,1.2c0,0.5,0.4,1.4,0.5,2c0.3,0.9,0.8,2.6,1.8,2.9c0,0.4-0.2,0.6-0.4,0.9
		c0.6,0.1,0.5,0.6,1,0.9c0.5,0.3,0.9,0.3,1.5,0.2c0-0.4,0-0.9,0-1.3c0.6,0.6,1,1.6,1.6,2.2c0.9,0.8,0.7-0.6,1.8-0.7
		c1.7-0.1,2.2,2.5,3.9,1.9c0-0.3,0-0.7,0.1-1c1.3,0.2,2.1,1.6,3.3,1.8c0.7,0.1,1.9-0.5,2.4-0.9c1.5-1.4,1.8-4.2,2.1-6.1
		c0.1-0.7,0.3-1.5,0.5-2.2c0.3-1.1,0.5-0.4,1.2-1.2c0.8-0.7,0.8-2,1-3c0.1-0.8,1-1.8,0.8-2.5c-0.1-0.4-0.2-0.5-0.3-0.9
		c-0.1-0.4,0-0.6-0.2-1c-0.3-0.9-1-1.5-1.5-2.2c0.9,0,1.5,0.6,2.3,0.8c0.8,0.2,1.5,0,2.4-0.1c2.7-0.3,2.6-2.2,2.1-4.4
		c-0.5-2.1-2.2-3.4-3.8-4.8c-0.4-0.4-1.2-0.6-1.7-0.7c-0.9-0.1-1.3,0.6-2.2,0.5c-0.8-0.1-1.4,0.1-2.2,0.4c-0.5,0.2-1,0.6-1.5,0.7
		c-0.3,0.1-0.5-0.1-0.9,0c-0.8,0.2-3.4,1.3-3.7,2c0.6-0.2,1.2-0.4,1.9-0.4c-1.2,0.8-3.1,1.5-3.3,3.1c-0.8-0.1-1.3-0.5-2-0.8
		c-0.9-0.4-2-0.4-2.9-0.8c-1.4-0.6-3-0.9-4.4-1.5c-0.7-0.3-1.3-0.9-1.9-1.2c-0.7-0.3-1.8-0.2-2.5-0.1c-0.7,0-1,0.3-1.7,0.5
		c-0.6,0.2-1.4,0.2-2,0.2c-1,0.1-2,0.3-3,0.5c-1.7,0.3-4.3,0.4-4.2,2.6c0,0.8,0.3,2.4-1.1,2.3c-0.2-0.7-0.4-1.7-1.1-0.8
		c-0.4,0.5-0.2,1.6-0.4,2.2c-0.2-0.5-0.5-0.9-0.7-1.3c-0.4,0.3-1.4,0.8-1.2,1.4c0.1,0.4,1,0.3,1.1,0.8c0.1,0.4-0.6,1-0.9,1.2
		c-0.5-0.9-1.9-1.2-2.8-0.9c-0.4,0.1-0.7,0.2-0.9,0.5c-0.1,0.1-0.3,1-0.2,1c-2.6,0-4.9,0.8-7.4,1.5c-2.7,0.8-5-0.8-7.6-1.2
		c0.4-0.4,1.1-0.6,1.5-1c0.4-0.4,0.6-1.5,1.2-1.6c0.2,0.4,0.6,0.8,0.9,1.2c-0.8,0.2-0.2,1.5,0.2,1.9c1.8,0.1,3.3,0,5-0.6
		c1-0.3,2.9-0.6,3.8-1.2c0.4-0.3,0.4-0.6,0.9-0.9c0.7-0.5,1.8-0.5,2.6-0.9c0.9-0.4,1.7-0.9,2.3-1.6c0.7-0.6,2.5-1.1,2.4-2.2
		c1-0.6,1.9-0.8,2.1-2.1c0.1-0.9,0-2.3-0.1-3.2c-0.4-2.2-3.7-3.2-5.3-4.2c-0.9-0.6-2-1.1-3-1.2c-0.8-0.1-2,0-2.7-0.6
		c-0.5-0.5-0.8-1.9-1.8-1c-0.2,0.2-0.1,0.3-0.2,0.5c-0.1,0.2-0.1,0.2-0.3,0.3c-0.3,0.1-0.4,0.2-0.6,0.4c-0.2,0.3-0.5,0.4-0.7,0.6
		c-0.7,0.4-1.3,0.7-2.1,0.8c-0.4,0-0.5,0-0.8-0.2c-0.3-0.2-0.9-0.4-0.6-0.8c0.3-0.5,0.9-0.5,0.7-1.2c-0.1-0.3-0.1-0.3-0.3-0.4
		c-0.3-0.1-0.6,0.1-0.9,0.1c-0.2,0-0.5-0.1-0.7-0.1c-0.5-0.1-1.1-0.4-1.6-0.4c-0.3,0-0.5,0.3-0.8,0.4c-0.9,0.4-1.9-0.1-2.8-0.3
		c-1.1-0.3-2.8-0.5-3.9,0c-0.9,0.4-1.7,1.5-2.3,2.2c-1.2,1.4-1.5,3.3-2.7,4.8c-0.5,0.6-1,1.1-1.5,1.7c-0.4,0.5-0.4,1.2-1.1,1.4
		c-1.1,0.4-2.8,0-3.9,0.1c0.8-0.1,0.9-0.5,1.1-1.2c0.2-0.6,0.5-0.8,0.9-1.2c0.4-0.4,0.6-0.5,1.2-0.6c0.6,0,1.2,0.1,1.8-0.2
		c1-0.6,1.9-1.7,2.2-2.9c0.1-0.5,0.2-0.7,0.5-1.1c0.2-0.3,0.5-0.4,0.6-0.7c0.2-0.5,0.2-1.1-0.2-1.6c-1-1.2-3-0.6-4.3-1.4
		c-0.5-0.3-0.8-0.7-1.3-0.8c-0.6-0.1-1,0.3-1.5,0.4c-0.6,0.1-1.2,0-1.8,0c-1.3,0-2.1,1-3,1.8c-0.7,0.6-1.4,1.3-2.1,2
		c-0.6,0.5-1.3,0.9-1.6,1.6c-0.2,0.6-0.4,0.7-0.9,1.1c-0.8,0.7-1.1,1.6-2.1,2.2c-0.7,0.4-1.4,0.7-2,1.2c-0.7,0.6-1.1,1.4-1.7,2
		c-1.1,1-2.9,2.6-4.5,2.6c-1.5,0-3.1-0.1-4.5-0.5c0-0.3,0-0.5,0-0.8c-0.1-0.5-0.3-0.4,0.1-0.8c0.4-0.4,1.1-0.2,1.6-0.1
		c0.7,0.2,1,0.7,1.7,0.6c0.6-0.1,1.1-0.3,1.7-0.4c0.4-0.1,1.6,0.1,1.8-0.4c0.3-0.8-0.9-0.3-1.1-0.2c-0.4,0.1-1.6,0.4-1.8-0.2
		c-0.2-0.5,0.9-0.8,0.6-1.3c-0.5-0.7-1.2,0.3-1.4,0.6c-0.4,0.6-0.9,0.9-1.7,0.7c0.2-0.1,0.7-0.2,0.8-0.5c0-0.5-0.5-0.4-0.7-0.4
		c-0.2,0-0.1,0.3-0.4,0.3c-0.2,0-0.2-0.3-0.5-0.4c-0.1,0-0.6,0-0.7,0.1c-0.2,0.2,0,0.3-0.2,0.5c-0.3,0.4-0.2,0.3-0.7,0.5
		c-1.3,0.4-2.6,1.1-3.5,2.1c-0.5,0.5-0.9,1.1-1.6,1.3c-0.5,0.1-1.2,0-1.8-0.1c-0.6-0.1-1.1-0.3-1.7-0.3c-0.8-0.1-1.5,0.1-2.3,0.2
		c-0.8,0.1-1-0.2-1.7-0.5c-0.8-0.4-1.7-0.3-2.6-0.4c0-0.6-0.1-1.1-0.2-1.7c1.2,0,1.7,1.5,3.1,1.3c0.1-0.6-0.1-1.3-0.6-1.6
		c-0.3-0.2-0.9-0.2-1-0.5c-0.1-0.4,0.2-0.5,0.4-0.5c0.4,0,1.8,0.9,2.1,1.2c0.4,0.5,0.3,1.1,0.4,1.7c1.1,0.2,1.3,0,2.2-0.5
		c0.8-0.4,1.7-0.2,2.6-0.2c0-0.5-0.2-0.8,0.4-0.9c0.5-0.1,1.1,0.2,1.5,0.5c0.5-0.5,1-1,1.7-1.3c0.8-0.4,1.5-0.3,2.3-0.5
		c0.1-0.5-0.9-0.7-1.2-0.9c-0.6-0.3-1.1-0.5-1.7-0.7c-0.7-0.3-1.6-0.3-2.2-0.7c0.6-0.1,1.3,0.1,1.9,0.2c1.4,0.2,2.7-0.2,4-0.2
		c1.2,0,2.4,0.2,3.6,0.4c1.3,0.2,2.6,0.5,3.9,0.7c0.7,0.1,0.7-0.2,1.3-0.5c0.7-0.3,1.3,0,1.9-0.1c0-0.5,0.9-0.8,1.2-1.1
		c0.4-0.4,0.6-0.8,1-1.2c0.6-0.7,1.6-1.3,1.9-2.2c0.3-1.2-0.7-1.6-1.6-2.1c0.2-0.3,0.5-0.6,0.6-0.9c0.1-0.7-0.4-0.6-0.9-0.7
		c0.5-0.8,0.7-1,1.6-0.7c0.7,0.2,1.3,0.3,1.6-0.5c0.4-1,0-2,0.1-3c0.3-0.1,0.6-0.1,0.9-0.1c0,0.8-0.1,1.6,0.3,2.3
		c0.2,0.3,0.5,0.3,0.3,0.8c-0.1,0.3-1,0.6-1.3,0.8c0.4,0.6,1.8,0.6,2.4,0.5c0.9-0.2,0.5-1,0.6-1.8c0.1-0.6,0.4-1.2,0.4-1.8
		c0-0.8-0.5-1.2,0.4-1.6c0.9-0.3,2.5,0,3.1-0.6c1.1-1.2-0.6-2.5-1.6-3c-0.7-0.4-1.7-0.8-1.4-1.7c0.2-0.5,0.8-0.5,1.4-0.2
		c0,0.5,0.1,1,0.7,0.9c0.4-0.1,0.5-0.8,0.7-1.2c0.3-0.5,1.1-1.2,1.1-0.1c0,0.3-0.3,0.5-0.3,0.8c0,0.2,0,0.5,0,0.7
		c0,0.4-0.1,1.1,0.3,1.4c0.2,0.1,0.5,0,0.7,0.1c0.4,0.1,0.2,0,0.5,0.2c0.8,0.6,0.8,1.8,0.7,2.6c-0.4,0-1.8-0.2-2.1,0.1
		c-0.2,0.2,0,1,0,1.2c0,0.8,0.2,1.8,1.3,1.6c0.2-0.7,0.8-0.8,1.5-0.7c0,0.6-0.1,1.3,0.2,1.7c0.4,0.4,1.3,0.7,1.8,0.6
		c0.1-1.1-1-2.2-1.4-3.1c0.6,0,1.6,0.8,1.9,1.4c0.3,0.6-0.3,1.1,0.6,1.4c0.7,0.2,1.1-0.1,1-0.8c-0.1-0.9-1.1-1.2-1.8-1.5
		c0.2-0.6,0.6-1,0.8-1.5c0.3,0.2,1.1,0.9,1.2,1.2c0.1,0.4-0.3,0.8-0.2,1.2c0.7,0.2,1.3,0.6,1.8,1.1c0.2-0.3,0.8-0.5,1.2-0.5
		c0.1,0,1.2,0.1,1.2,0.1c0.4,1,0.7,0.6,1.6,0.5c0.8-0.1,1.2,0.1,1.3,0.8c0.4-0.1,0.8-0.2,1.3-0.3c0.1-0.4,1.3,0.1,1.7-0.3
		c0.6-0.6,0-1.3-0.3-1.8c-0.1-0.2,0-0.4-0.2-0.7c-0.2-0.2-0.5-0.3-0.7-0.5c-0.6-0.4-1.1-0.7-1.8-0.7c-0.1-0.7,0.8-2.6,1.7-2
		c0,0.4,0.6,1.2,0.9,1.4c0.7,0.5,0.9-0.2,1-0.9c0.5,0.2,0,1,0,1.3c-0.2,0.8,0,0.7,0.5,1.2c0.4,0.4,0.8,0.7,1.3,1.1
		c0.5,0.4,0.6,0.6,0.2,1.3c0.3-0.2,0.9-0.7,1.5-0.6c-0.3,1.3,2.4-0.3,2.8-0.5c0-0.1,0-0.3-0.1-0.4c0.8-0.2,1.6-0.5,2.4-0.5
		c0.6,0,1.4,0.2,2,0c0.3-0.1,0.3-0.2,0.5-0.4c0,0,0.1-0.3,0.2-0.4c0,0,0.3-0.1,0.4-0.1c0.7-0.4,1.4-1,2.2-1.2
		c-0.2,0.3-0.4,0.6-0.7,0.9c1.1,0.8,1.1,0.6,2.2-0.4c0,0.7,0.1,2.1-0.5,2.5c-0.5,0.3-0.8,0.1-1.3,0.5c-0.2,0.2-0.5,0.6-0.5,0.9
		c0,0.5,0.2,0.2,0.5,0.6c0.3,0.5,0.3,1.1,0.6,1.5c0.6,0.9,1.5,0.6,2.5,0.5c0.9-0.1,2-0.2,2.9,0c0.4,0.1,0.8,0.2,1.1,0.4
		c0.1,0.1,0.4,0.9,0.3,0.8c-0.5-0.2-1-0.5-1.6-0.5c-1,0-0.7,0.4-0.3,0.9c0.7,0.8,1.2,1.8,2,2.6c0.2,0.2,2.5,1.9,2.3,2
		c0.6-0.5,0.8-0.7,0.5-1.5c-0.2-0.6-0.5-1.1-0.8-1.7c-0.6-1.1-1.6-1.9-2.3-3c0.6,0,1,0.4,1.6,0.5c0,1.7,2.9,2.6,4.4,2.5
		c0.1-0.6-0.2-0.9-0.8-0.8c0.6-0.3,1.5-1.2,2.2-1c0.6,0.2,1.2,1.2,1.5,1.6c0.4,0.5,0.9,1.3,1.6,1.5c0.6,0.2,1.4,0,2,0
		c-0.2,0.4-0.8,0.5-0.9,0.9c1,0.1,1.9-0.1,3,0.2c1,0.3,1.8,0.7,2.8,0.9c0.8,0.2,1.4,0.9,2.2,1c0.6,0.1,1.1-0.3,1.6-0.5
		c0.3-0.1,1.5-0.3,1.6-0.7c0-0.3-0.6-0.4-0.5-0.8c0.2-0.9,2.5-1.2,3.3-1.7c1.3-0.8,1.7-2.6,3.1-3.2c1.4-0.6,2.2,0.7,3.6,0.8
		c1.3,0.1,2.3-0.8,3.3-1.4c0.3-0.2,1.1-0.9,1.4-0.5c0.3,0.5-0.5,1.3-0.5,1.7c1.3,0.4,3-0.1,3.7-1.3c0.4-0.6,1.1-1,1.9-1.4
		c0.4-0.2,0.9-0.4,1.3-0.7c0.4-0.3,0.6-1,0.9-1.2c0.9-0.6,1.7,0.3,2.5-0.9c0.8-1.2,1.2-3.6,0.6-4.9c-0.5-1.1-1.5-1.5-2.5-2.1
		c-0.9-0.6-1.6-2-2.7-2.2c0.6,0.3,1.2,0.3,1.9,0.3c0.4,0,1.4-0.2,1.8,0c0.3,0.3,0,0.5,0.2,0.8c0.2,0.3,0.4,0.2,0.6,0.4
		c0.6,0.4,0.7,0.7,0.9,1.4c0.3,0.1,0.6,0,0.9-0.1c0,0.4-0.2,1.2,0,1.5c0.3,0.6,0.8,0.1,1.4,0.2c-0.4,0.7,0.1,0.7,0.2,1.3
		c0.3-1.3,0.6-2.6,0.4-4c-0.1-0.6-0.3-1.1-0.3-1.8c1-0.4,0.5-1.3,0-1.8c-0.6-0.6-0.9-1.4-1.6-1.9c-0.9-0.7-1.8-1.6-2.6-2.4
		c-0.7-0.6-1.3-1.7-2.1-2.2c-1-0.6-2.2-1.2-2.9,0.1c-0.6-0.4-0.6-0.8-1.2-0.7c-0.2,0-0.7,0.2-0.8,0.3c-0.2,0.4,0.3,0.5,0.1,0.9
		c-0.2,0.4-0.9,0.4-1.2,0.6c0,0,0,0,0,0c0.5-1.4-2.1-1.4-2.5-0.4c0.7-0.6,2.8,0,2.3,1.2c-0.2,0.4-1.4,1-1.7,1
		c-0.7,0.1-0.8-0.4-1.2-0.8c-0.4-0.5-0.7-0.9-1.3-1.1c-0.9-0.4-1-0.5-1.6-1.2c-0.5-0.6-0.8-0.3-1.4-0.7c-0.2-0.1-0.2-0.4-0.4-0.6
		c-0.2-0.2-0.5-0.1-0.7-0.3c-1.1-0.5-2.1-1.8-3.3-2.1c-0.7-0.2-1.5,0.1-2.3,0.1c-0.9,0-1.7,0.1-2.5,0.3c-1.3,0.3-2.5,0.6-3.7,1
		c-1.1,0.4-2.5,1.1-3.7,1.2c-1.2,0.1-4,0.9-4.2,2.3c0.3-0.4,0.2-1,0.5-1.4c0.3-0.5,0.7-0.8,1-1.3c0.3-0.5,0.7-0.8,0.9-1.3
		c0.2-0.5,0.1-0.9,0.1-1.5c1.4-0.2,1.1-2.5,1.3-3.5c0.2-1.3,2.3-1.6,2-3.2c-0.8,0.1-1.1,0.8-1.9,1c-0.9,0.2-1.3-0.3-2.2-0.6
		c-0.8-0.3-1.6-0.4-2.5-0.4c-2.5-0.1-4.8,1.6-6.8,2.8c-2.2,1.3-4.9,2.7-7.4,3.5c0,0.9-1.2,1.1-1.9,1.1c-0.4,0-0.8-0.1-1.2,0.1
		c-0.4,0.2-0.6,0.6-0.9,0.9c-0.6,0.4-1.2,0.5-1.8,0.8c-0.5,0.3-0.8,0.8-1.3,1.1c0.8,0.3-0.2,0.9-0.5,1.1c1,0.1,1.5-0.5,2.2-0.8
		c0.7-0.3,1.4-0.3,2.1-0.4c1.1-0.1,1.3-0.4,2-1.2c0.5-0.5,0.9-1.3,1.7-1.1c-0.2,0.6-1.4,1-0.8,1.8c0.6,0.8,1.6,0.1,2.2-0.1
		c0.5-0.2,1-0.2,0.6,0.5c1.2,0.3,0.5-0.6,0.8-0.9c0.6-0.6,0.9,0.3,1.1,0.5c0.5,0.5,1,1.6,1.9,1.5c0-0.6-0.9-0.9-0.9-1.6
		c0-0.9,1.1-1.1,1.9-1.3c-0.4,0.4-0.8,1.3-0.6,1.9c0.2,0.5,0.7,0.7,1,1.1c0.4-0.5,1.3-0.7,2-0.7c0,1.3-0.7,2.7-0.7,4.1
		c-1.7,0.4-3.9-2.3-5.1-3.3c-0.8-0.7-1.3-0.7-2.4-0.7c-3.4,0-7.6,0.5-9.9,3.3c0.1-0.2,0.7-1,0.6-1.2c-0.2-0.5-0.9,0-1,0.3
		c0.3,0.3,0.4,0.9-0.1,1.1c-0.6,0.3-0.6-0.6-0.7-1c0.1,0.9-0.5,1.1-1.3,1.4c-0.2,0.1-0.8,0.1-0.9,0.3c-0.1,0.1,0,0.8,0.2,0.7
		c-0.6,0.4-1.8,0.4-2.6,0.4c-1,0-2.3,0-3.2-0.4c-1.7-0.8-1.5-2.5-1.6-4.1c-0.9-0.4-1.9-0.9-2.8-1.3c-0.4-0.2-0.9-0.6-1.4-0.4
		c-0.5,0.1-0.7,0.8-1.1,0.9c-0.9,0.4-2.3-0.3-3.1,0.3c-0.5,0.4-0.5,1.2-0.6,1.7c-0.3,1-0.9,3.9-2.2,2.1c-0.7-1-1-2.2-1.4-3.3
		c-0.4-1-1.5-3.1-0.8-4.2c1.1-0.1,2.5,0.6,3.4,1.1c0.1,0.1,0.2,0.1,0.4,0.2"/>
	<path clip-path="url(#SVGID_2_)" fill="#B2BFC4" d="M98.5,46.8c0,0,1.2-1.6,2.7-2.1c1.5-0.5,2.7-0.8,2.7-0.8
		c2.2-0.9,3.2-1.2,3.6-1.2c0.4,0,1.4,0.1,2.3-0.8c0.9-0.9,0.9-2,1.4-2.9c0.4-0.9,1.1-1.5,1.1-1.5s-1.9-1.3-1.5-2.5
		c0.4-1.2,0.7-1.5,2.2-2.1c3.1-1.4,5.4-4.1,9-4.7c2.1-0.4,4.1-1.1,5.9-2.1c-1.4,0.9-2.9,1.6-4.4,2.5c-1.6,0.9-2.5,0.8-4,1.4
		c-2.3,1-4,3.3-5.4,5.6c1.3-0.4,2.6-0.9,4.2-0.8c-0.5,1.1-1.9,1-2.8,1.9c-1.2,1.3-1.4,3.4-2.6,4.8c-1.6,1.9-3.8,3-5.6,4.6
		c6.2,1.5,10.6,6.5,16.5,8.4c1.2,0.4,3.6,0.6,4.6-0.1c0.5-0.4,0.7-1.5,1.2-1.9c0.7-0.6,1.8-1,2.7-1c3.5-0.3,6.1,2.4,8.2-1.4
		c0.1-0.2,0-0.9,0-1.1c2.8-1.6,6.2-1.1,9.1-2.5c1.8-0.9,1.7-1.5,1.6-3.6c-0.1-1.3,0.4-1-0.6-1.9c-0.4-0.4-1.6-0.9-2.2-1.3
		c-3-1.9-5.4-4.4-8.4-6.3c-2.4-1.6-5.3-2.4-7.4-4.3c-1.1-1.1-2.1-2.3-3.5-3c-3.1-1.5-8.1,1.9-11.2,2.5c-1.3,0.3-0.5-0.3-2.7,1.1
		c-2.2,1.3-3.1,2.8-4.9,3.2c-1.8,0.4-2.3,0.5-3.9,1.7c-1.6,1.2-3.2,2.1-3.2,2.1s-0.3,1,0.5,0.8c2.2-0.5,3-0.5,3-0.5
		c-1.1,1.1-2.9,1.2-3.5,1.5c-1.6,0.8-1.2,1.5-2.2,2.9c-0.9,1.5-2.2,2.6-2.2,2.6L98.5,46.8z"/>
	<path clip-path="url(#SVGID_2_)" fill="#B2BFC4" d="M120.3,23.2c0.8-0.6,1.7-1.1,2.6-1.5c1.3-0.5,3.2-0.7,4.5-0.5
		c1.4,0.1,2.2-0.5,2.6-0.8c1.4-0.9,5.7-1.9,6.1-3.9c0.2-0.8-1.2-1.8-1.5-2.5c-0.9-1.8-1.4-3.8-2.4-5.6c1.7-0.1,2.3,2.3,3.1,3.2
		c1.1,1.3,2,2.7,3.2,3.9c1.3,1.2,2.4,1.5,4.1,2c1.6,0.5,3.5,1.5,4.9,2.4c0-1.8-2.7-1.4-2.7-2.8c1,0.1,2.2,1.3,3.2,1.7
		c1.2,0.5,1.9,0,3.1,0.1c0-1.6-4.3-3.5-5.5-4.4c-1.7-1.2-3.3-2.5-5-3.8c-1.9-1.4-3.7-2.2-5.9-3.1C133,7,131.3,6,129.7,6.9
		c-1.2,0.7-2.2,2.3-2.9,3.4c-1.3,2.1-1.6,2.6-1.6,2.6c2.3,3.1-3.2,7.5-6.1,7.9c2,1.9-0.9,2.1-0.7,3.7
		C119,24.1,119.6,23.7,120.3,23.2"/>
	<path clip-path="url(#SVGID_2_)" fill="#B2BFC4" d="M87.9,26.6c0,0,0.9-1.3-0.9-1.3c-1.9,0-3.2,0.5-3.2,0c0-0.5,0.3-1.9,1.4-1.9
		c1.1,0,1.9,0.3,2.7-0.1c0.8-0.4,1.9-1.9,1.9-1.9l0.3-2.3c0,0-0.8-0.4-0.4-1.7c0.4-1.3,1.3-2.6,2.3-3.4c0.9-0.8,2.7-2.1,4.1-3.3
		c1.4-1.2,3.9-4.6,3.9-4.6s4.9-3.6,4.5-3.6s-11.6,8.2-14.9,10.6c-3.2,2.4-4.6,3.2-4.6,3.2s-0.5,1.6,0,2.3c0.5,0.7,1.6,1,1.6,1
		s0,1.3-1.2,1.9c-1.2,0.7-2.7,2-2.7,2l0.4,1.5c0,0,0.8,1.6-0.4,2.1c-1.2,0.5-2.4,1.6-2.4,2c0,0.4-0.3,1.1-0.3,1.1s-1.2-2.2-2.3-2.3
		c-0.6,0-1.4,0-2,0.3c-0.7,0.3-0.3,0.5-0.9,0.9c-0.9,0.6-2.8-0.4-3.6,0.6c-0.7,0.8,2.4,1.3,2.8,1.6c1.1,0.8,0.8,2.2,2.4,2.7
		c2.6,0.8,0.3,1.3-1.2,2.2c-1.9,1.3-3.7,2.4-6,3c-0.1,2.1,1.4,0.6,2.8,0.8c0.3,0.7,0.3,1.2,0.3,2c1.5,0.2,4.6,2.5,6.1,1
		c0.5-0.5,2-1.8,2.4-1.7c2.7,0.4,3.9,0.4,4.3-0.1c0.4-0.5,2.8-0.3,3.5-1.1c0.7-0.8,2.3-1.6,2.3-1.6s-0.8-0.8-2-0.3
		c-1.2,0.5-3,0.9-2.7,0.5c0.3-0.4,0.8-1.9,2.2-2c1.4-0.1,2.6,0,2.6,0s2.8-1.5,2.4-1.5c-0.4,0-2.6,0.4-3.2,0c-1.2-0.8,0.7-2.1,1.5-2
		c2.6,0.3,2.6,0.4,3.5-0.1c0.9-0.5,1.1-1.5,1.1-1.5s0.8-0.1,2.4-0.1s2.3-0.4,2.7-0.4c0.4,0,0.9,1.5,0.9,1.5s-1.4-0.3-2.3,0.9
		c-0.9,1.2-2.6,1.3-2.6,1.3c1.9,0.8,3.1,0.7,5.1-0.4c2-1.1,2.4-3.2,2.4-3.2l-1.8-1.7c0,0-2.7-0.1-4.3-0.1c-1.6,0-3.2,0.3-3.2,0.3
		s-2.2,0.5-3.5,1.6c-1.4,1.1-2,2-3.1,2.3c-1.1,0.3-2.2,0.4-3.2,0.5c-1.1,0.1-4.3-0.1-4.3-0.1l-0.7-0.5c0,0-1.5-1.6-0.7-2.4
		c0.8-0.8,2.3-1.9,2.3-1.9c1.9,1.3,1.8,2.3,2.6,2.3c0.8,0,1.1-2.1,1.1-2.1s-0.5-1.2,0.1-1.9C86.7,26.6,87.9,26.6,87.9,26.6"/>
	<path clip-path="url(#SVGID_2_)" fill="#B2BFC4" d="M56.9,54.7c0,0,0.1-1.3,1.3-2.1c1.2-0.8,2.4-1.3,2.7-1.9
		c0.3-0.5,1.3-1.5,1.3-1.5l2.3-0.4c0,0,1.8,0.2,2.7-0.3c1.4-0.7,3.1,0.8,3.1,0.8l2,0.8l0.9,2c0,0-1.2,1.1-2.2,2.1
		c-0.9,1.1-1.9,1.2-3.1,1.3c-1.2,0.1-2.4,2.4-2.4,2.4l-1.4-0.1L64,55.6c0,0-1.5-0.4-2.7-0.5c-1.2-0.1-2-0.4-2-0.4H56.9z"/>
	<path clip-path="url(#SVGID_2_)" fill="#B2BFC4" d="M45.3,48.5l3.2-0.5c0,0,0.8-2.3,2.6-2.8c1.8-0.5,3.5-1.5,3.5-1.5
		S52.1,43,53,42.5c0.9-0.5,2.7-1.2,3.1-1.2c0.4,0,1.9,0.7,1.9,0.7s0.9,1.1-0.7,1.6c-1.6,0.5-1.4,1.3-1.4,1.3c1.2,0,2,0,3-0.4
		c0.4-0.2,0.9-0.3,1.2-0.7c0.2-0.1,0.7-1.2,0.7-1.2c1.8-0.4-0.2,1.7-0.5,2c1.1-0.5,2.3-0.8,3.5-0.8c0.4-1.2,1.3-0.9,0.4-2.1
		c-0.7-0.9-1.8-1.3-2.4-2.3c-1.9-2.8,2.7-3.9,4.6-4.8c-2.5,0.1-5,0-6.6,2.2c-0.7,0.9-0.1,1.8-0.3,2.7c-0.1,0.8,0,0.8-1.2,1
		c-2.9,0.4-5.8,0.6-8.7,1c0,0-0.7,2.1-1.9,3.2C46.7,45.8,45.3,48.5,45.3,48.5"/>
	<path clip-path="url(#SVGID_2_)" fill="#B2BFC4" d="M33.3,51.9c0,0-0.5,1-0.1,1.4c0.4,0.4,1.2,0.8,1.4,1.1c0.2,0.3,0.7,1.7,0.9,2.1
		c0.2,0.4,0.3,0.8,0.3,0.8s-1.5,1.5-2.1,2.1c-0.6,0.7,0.1,1.3,0.1,1.4c0.1,0.2,0.7,0.9,0.1,1.2c-0.6,0.2-1.2,0.2-1.6,0.3
		c-0.4,0.1-0.4,0.7-1,0.7c-0.6,0.1-1.4-0.5-1.4-0.5s-0.5-1.6-1.2-2.1c-0.7-0.6-1.5-0.9-1.7-0.9s-0.9-0.1-0.9-0.1s3.3-1.8,4.1-2.2
		c0.9-0.4,2.1-0.5,2.1-0.5s-1-0.4-1-1.1c0-0.7,0.6-2.5,0.6-2.5L33.3,51.9z"/>
	<path clip-path="url(#SVGID_2_)" fill="#B2BFC4" d="M2,87.3c0,0,1.7,1.8,2.7,2.7c1,0.9,2.2,2,2.2,2s1.8-0.3,2.1-0.6
		c0.3-0.3,0.9-1.4,1.5-2c0.7-0.6,1.7-1.1,2.5-2.2c1.2-1.6,1.6-3,1.7-5c0.1-2.4,0.5-2.6,2.8-3.3c0.8-0.2,1.3-0.4,1.8-1.1
		c1.9-2.5,4.5-2.9,7.4-3.8c0,0,1.4,0.9,2.3,0.7c0.9-0.3,1.6-1.3,1.6-1.3l-0.9-2c0,0,2.1-0.3,4-0.4c1.9-0.1,3.6,0.7,3.6,0.7l1.6,1.2
		c0,0-0.4-2.3-2.1-2.5c-1.7-0.3-9.1,0.1-10.8,0.3c-1.6,0.2-5.6,0.2-8,0.3c-2.4,0.1-7.3,1.4-8.3,1.4s-3,0-3.5,0.3
		c-0.5,0.3-1.9,1.8-2.7,2.4c-0.8,0.6-2,1.9-2.3,2.1c-0.3,0.2-0.8,3.4-0.8,3.4s-1.3,3.9-0.4,4.7C1.2,86.2,2,87.3,2,87.3"/>
	<path clip-path="url(#SVGID_2_)" fill="#B2BFC4" d="M33.4,86.6c0.2,0,0.8-0.8,1.2-1c0.4-0.2,0.3,0.7,0.8,0.6
		c0.5-0.1,1.1-0.2,1.1-0.6c0.1-0.4-0.1-1.2,0.1-1.3c0.2-0.1,0.2,0,0.9-0.1c0.7-0.1,1.1-0.6,1.8-0.6s1.1,0.2,1.3,0
		c0.2-0.2,0.5-1.1,0.5-1.1s-1,0.2-1.7-0.3c-0.6-0.5,0.1-1.6,0.2-1.7c0.2-0.2,1,0.3,1.3-0.1c0.4-0.3,0.3-0.9,0.3-1.1
		c0-0.2,0.7-0.7,0.9-0.7c0.2,0,0.9,0.1,0.9,0.1c0.2-0.4-0.7-0.4-1-0.7c-0.2-0.3-0.2-0.9-0.1-1.3c0.1-0.3,0.1-1.5,0.5-1.9
		c0.4-0.4,2.1-1.7,2.1-1.7l2-3c0,0-2.8,3.2-4.2,4.2c-1.3,1-1.9,1.6-2.6,1.9c-0.7,0.3-1.1,1.1-2,1.8c-1,0.7-1.4,1.3-2,1.6
		c-0.5,0.3-1.1,1.4-1.6,2c-0.5,0.6-0.6,1.2-0.9,1.7c-0.2,0.5-0.5,1.8-0.5,1.8L33.4,86.6z"/>
	<path clip-path="url(#SVGID_2_)" fill="#B2BFC4" d="M6.5,102.2c0.2-0.2,1-1.4,1.5-2.7c0.6-1.3,0.8-1.6,1-2.2
		c0.2-0.6,0.8-2.2,1.3-2.5c0.4-0.3,0.6,0.1,1-0.4c0.4-0.5,0.6-1,0.6-1l1.1-0.4l0.9-1.4c0,0,1.2-0.1,1.6-0.7c0.4-0.6,0-1.2,0.4-1.7
		c0.4-0.5,1.4-1.7,2.1-2.2c0.6-0.5,1.5-1,1.7-1c0.2,0,2.6-0.1,3-0.2c0.4-0.1,1.3,0.1,2.1,0c0.7-0.1,1.3-0.9,1.7-1.1s2.2-0.1,2.4-0.1
		c0.2,0,0.4,1.3,0.3,1.4c-0.2,0.1-1.3,1.4-1.2,1.7c0.1,0.3,0.7,1.8,0.7,1.8s0.6,1.8,0.3,2.4c-0.3,0.6-1.2,0.8-1.2,0.8
		s-1.2,0.9-1.3,1.4c-0.1,0.5,1.9,0,1.9,0s-0.1,0.8-1.3,1.6c-1.2,0.8-2.4,2.2-2.4,2.2s-2.6,0.7-2.9,1.1c-0.3,0.4,1.2,0.7,1.2,0.7
		s-1.1,1.4-1.3,1.4c-0.2,0-1.6-0.3-1.6-0.3s0.6,0.6-1.3,1.4s-4.8,1.9-5.1,1.9c-0.3,0.1-1.5-0.1-1.5-0.1s1.7-1.6,1-1.6
		c-0.7,0.1-1.5,0.1-1.9,0.3c-0.4,0.3-1.5,1.5-2.2,1.3s-1.7-1.1-1.7-1.1l0.9-1.3L6.5,102.2z"/>
	<path clip-path="url(#SVGID_2_)" fill="#B2BFC4" d="M34.5,110.7c-0.5-0.2-2.2-2-4.6-2.1c-2.4-0.1-2.9-0.6-3.9-0.5
		c-1.1,0.1-2.1-0.9-2.1-0.9s0.3-0.6,0.8-1.8c0.5-1.2,0.3-2,0.3-2s0.1-0.1,1.1-0.9c1-0.8,1.7-1.6,1.7-2c0-0.4,0.3-2.2,0.3-2.2
		s0.5-0.5,1.2-1.4c0.7-0.9,1.3-1.9,2.2-2.5c1.3-0.8,3-1,4.3-1.7c1.4-0.8,1.9-2.2,3-3.2c1.4-1.3,3.4-1.3,5.2-1.8
		c2-0.7,3.6-1.4,5.3-2.7c1.2-0.9,3.1-1.9,4.7-1.8c-0.1,1.5-3,1.7-1.4,3c0.9,0.7,2.5,0.4,3.2,1.2c-1.1,1.2-1.1,2.3-0.4,3.8
		c0.2,0.5,1.1,1.2,0.8,1.9c-0.3,0.6-1.8,0.6-2.3,0.5c-0.6-0.1-1.1-0.6-1.8-0.8c-0.7-0.1-1.6-0.2-2.3-0.3c-1.6-0.1-3.2-0.2-4.9-0.3
		c-0.4-1.1-2.3-1-3-0.1c0.8,0.8,2.2,0.8,3.2,1.1c1.5,0.4,3.2,1.2,4.4,2.3c-2.9-0.6-5.7-1.4-8.6-2.3c-1.3-0.4-3.5-0.7-4.6,0.4
		c-0.5,0.5-0.3,1.3-1.2,1.7c-0.8,0.4-1.9,0.3-2.8,0.2c1-0.2,2.6-0.7,2.9-1.7c-1.1,0.4-1.9,0.5-3,1.1c-0.6,0.3-1.2,0.5-1.6,1.1
		c0,0-0.5,2.8-0.8,2.4c0,0,1.7,2.1,1.7,2.1s-1,2-0.3,2.4c0.7,0.4,2.7,1.4,3.1,1.9c0.4,0.5,0.5,1.9,1.1,2.7c0.6,0.8,1.7,2.2,2.2,2.5
		c0.5,0.4,0,2.3,0,2.3L34.5,110.7z"/>
	<path clip-path="url(#SVGID_2_)" fill="#B2BFC4" d="M29.4,69.2c-1.3-0.6-2.4-1.6-3.9-1.9c-1.6-0.4-5.6,1.3-5-1.6
		c1.1-0.1,6.8-1.1,6.9,0.2c1.4,0.2,0.6-1.3,0.8-2.1c0.8-0.3,4.9-0.4,5.5,0.2c0,0,1,1,0.9,1.3s1.5-1.3,1.8-2.1c0.3-0.8,1.2-1.7,1.5-2
		c0.4-0.3,1-0.9,1.9-1.1c1-0.2,2.2-0.4,2.2-0.4l-0.7,1.6c0,0-0.9-1.4-2.1-0.1c-1.3,1.3-2.4,2.7-2.5,3c-0.5,1.5-2.7,2.2-3.2,3.7
		c-0.2,0.6,0.2,1.3,0.1,1.9c-0.8,0.1-2.8,1.5-2.2-0.1c0.1-0.4,0.9-0.6,1.1-1.1c0.2-0.4,0.1-1.1,0.1-1.5c-0.5,0.2-1.4,0.3-1.8,0.6
		c-0.7,0.6-0.3,1-0.7,1.9C29.9,69.5,29.7,69.4,29.4,69.2"/>
	<path clip-path="url(#SVGID_2_)" fill="#B2BFC4" d="M93.9,27.4c0,0,3.1-1.1,3.8-1.9c0.8-0.8,1.3-0.9,1.3-1.2c0-0.3,0.7-1,1.3-1.4
		c0.6-0.4,2.3-1.4,2.8-1.5c0.5-0.1,2.4-0.8,2.9-1c0.5-0.2,3.1-1.2,3.6-1.4c0.5-0.2,2.9-1.7,3.8-1.4c1,0.3,2.1,0.8,2.1,0.8
		s-0.6-0.1-1.4,0.5c-0.9,0.6-0.8,0.8-1.7,1c-1,0.3-2.2,0.2-2.2,0.2c-1,1.1-0.4,1.1-2.1,1.7c-1.7,0.6-2.4,0.7-3,1
		c-0.6,0.4-0.9,0.9-1.3,1.2c-0.4,0.4,0,0.6-1,0.8c-1,0.3-1.7,0.8-2.1,0.8c-0.4,0.1-1.8,0.1-1.8,0.1L93.9,27.4z"/>
	<path clip-path="url(#SVGID_2_)" fill="#B2BFC4" d="M63.3,74.8c0,0,0.8-0.8-0.1-1.8c-0.9-1-1.5-2.7-1.6-3.7s0.8-2.7,1.2-3.2
		c0.4-0.5,1.3-1.4,1.3-1.4S62,63.8,62.7,63c0.7-0.8,1.1-1.4,1.6-1.6c0.6-0.2,1.2-1,1.4-1c2.2-0.6,3.7-0.5,3.7-0.5l1.3,1.2l1.9,1.1
		c0,0-0.7,0.5-1.9,0.3c-1.3-0.2-1.9-0.8-1.9-0.8L67,61.8L65.1,62l-1,0.9c0,0,0,0.8,0.8,0.8c0.8,0,1.6-0.1,1.6-0.1l-0.2,1.2
		c-1.4,0.7-2.5,1.8-2.8,2.4c-0.3,0.6,0.1,1.7-0.2,1.9c-0.3,0.2-0.8,1-0.8,1s0.9,0.6,1.3,1.6c0.5,1,0.9,2.8,0.9,2.8L63.3,74.8z"/>
	<path clip-path="url(#SVGID_2_)" fill="#B2BFC4" d="M74.4,64.2c0,0,1.3-0.6,1.2-1.3c-0.2-0.8-0.7-1.3-0.2-1.8
		c0.5-0.5,1.1-1.1,1.2-1.1c1.3-1.3,2.4-2.2,4.4-2c-0.1-1,1.4-1.4,2.1-1.9c0.7-0.5,1.3-1.5,2.1-1.8c-0.7,0.8-1.7,1.5-2.1,2.5
		c-0.5,1.1-0.2,1.8-0.2,2.9c-0.1-1.9-5.6-0.1-4.5,1.3l-2,1c0,0,0.4,1.9-0.3,2.5C75.4,65.3,74.4,64.2,74.4,64.2"/>
	<path clip-path="url(#SVGID_2_)" fill="#B2BFC4" d="M66.5,81.5c0,0,2.1-1.4,1.3-2.7c-0.8-1.3,0.5-3,0.5-3l1.7-1.8
		c0,0,1.1-2.3,2.3-2.5c1.3-0.3,3.8-0.9,3.8-0.9s1.1-0.2,3.6-0.1c2.5,0.1,3.5-0.4,3.5-0.4s0.9-0.3,1.4-0.1c0.6,0.2,1.6,0.8,3.2,0.8
		c1.5,0,3.4-1,3.4-1s1.1-0.6,1.8-0.7c0.8-0.1,3.2-0.4,3.5-0.4c0.3,0,1.5,0.7,1.5,0.7s-1.3-0.5-2.5,0.4c-1.3,0.8-2.7,0.8-3,0.8
		c-0.3,0-2.4,0.5-2.7,0.7c-0.3,0.2-2.2,1-2.2,1s-1.2-1.3-2-1c-0.9,0.3-1.3,1.5-1.3,1.5s-0.5,1.1-1.5,1.3c-1.1,0.2-2.5,0.5-2.5,0.5
		l-1.5-0.5c0,0-0.4,0.7-1.7,2.3c-1.3,1.6-2.5,3.2-2.5,3.5c0,0.3-1.3-1-0.6-1.8c0.7-0.8,2.4-3,2.4-3s-1.4,0.1-2.5,0.8
		c-1.1,0.8-2.6,2.3-2.9,2.7c-0.3,0.5-1.3,1.9-1.3,1.9s0-2.2,1.1-3.3c1.1-1.1,2.7-2.6,2.7-2.6l-1.1-0.6c0,0-0.8,1.3-1.9,2.5
		c-1.2,1.1-1.9,1.9-1.9,1.9s0.9,3.5-0.2,4.2C67.2,83,66.5,81.5,66.5,81.5"/>
	<path clip-path="url(#SVGID_2_)" fill="#B2BFC4" d="M42.1,71.9c0,0,1.4-1.9,2.1-3.2c0.7-1.3,1.8-3.1,1.8-3.1s1.2-1.8,1.1-2.4
		c-0.1-0.6,1.3-1,1.3-1c1.2-0.6,1.3-1,2-2c0.8-1.2,2.3-1.8,3.4-2.7c0.7-0.6,1.7-1.5,2.7-1.4c0,0.4,0,0.9,0,1.3
		c1.7,0.1,3,0.2,4.5,1.1c-1.5,0.1-3.2-0.6-4.5-0.4c-1.2,0.2-2.2,1-3.3,1.5c-1.4,0.6-1.2,0.9-2.1,1.9c-0.5,0.5-1.5,0.8-1.7,1.4
		c-0.3,0.9,0.7,1.6,0.5,2.5c-0.2,0.7-1.2,3-1.2,3L42.1,71.9z"/>
	<path clip-path="url(#SVGID_2_)" fill="#B2BFC4" d="M77.5,93.4c0,0-0.8-0.5-0.8-1v-0.6l0.3-1.1c0,0,0.1-1,0.7-1.5
		c0.6-0.5,1.3-0.8,1.3-0.8c1.2-0.8,1.3-1.4,2-1.3c1.7,0.3,3.2-0.2,3.2-0.2s1.2-0.4,1.5-0.3c1.3,0.7,2.3-0.5,2.3-0.5l1.3,1.2l0.6,1.1
		c-0.5,0.4,0.3,0.9,0.9,1.6c0.6,0.7,1.2,0.4,1.2,0.4l0.2,2.6c0,0-0.4-0.2-0.9-0.8c-0.5-0.6-1.1-1-1.1-1c-0.9,0.1-1.8-0.9-1.8-0.9
		l-2-0.7L85,89.8l-1.2-1.1L82,88.9c-1.4-0.3-1.2,0-1.9,0.7c-0.8,0.7-1.9,0.8-1.9,0.8S76.2,92.3,77.5,93.4"/>
	<path clip-path="url(#SVGID_2_)" fill="#B2BFC4" d="M69.7,58.9c0,0,2.1-2.5,3-3.9c0.9-1.4,3.1-5.3,3.1-5.3s1.4-0.4,3-0.1
		c1.5,0.3,3.7,0.4,3.7,0.4l1.6-0.4c1.7,0.8,3.4,0.5,3.4,0.5l-0.4,2c0,0-0.6,1.3-1.1,0.9c-0.5-0.4-1.5-1-1.5-1l-2,0.1
		c0,0,1.1-1.1,0-1.3c-1.1-0.2-5.9-0.3-5.9-0.3s-1.5,3-2.6,4.4C72.9,56.4,69.7,58.9,69.7,58.9"/>
	<path clip-path="url(#SVGID_2_)" fill="#B2BFC4" d="M89,54.9c0,0,1.4-0.2,2.2-0.8c0.8-0.6,0.7-1,0.7-1c1.3-0.3,2.2-1.9,2.2-1.9
		c1.3,0.8,2,0.4,2,0.4l2,0.7c0,0,2-0.2,2.4,0.3s0.4,1.6,0.4,1.6s-0.8,1-1.3,1.1c-0.6,0.1-1.5,0-2.1,0.3c-0.6,0.3-1.2,1.3-1.8,1.5
		c-0.6,0.2-2.7,0.2-2.7,0.2s-1.2,1.5-1.9,2.5s-1.6-0.6-1.6-0.6s2.5-2.4,3.5-2.6c1-0.3,3.4-2,3.4-2l-2.5-0.8c0,0-1,1.3-2.4,1.3
		C89.9,55,89,54.9,89,54.9"/>
	<path clip-path="url(#SVGID_2_)" fill="#B2BFC4" d="M106.3,71.1l0.7-4.2l-0.9-1.1l0.6-0.8c0,0-0.7-0.3-0.9-1.2
		c-0.2-0.9-0.1-2.8-0.1-2.8s2.4-0.7,3.8-1c1.3-0.4,4.3-0.8,4.3-0.8l1.4-0.2l3.4-0.6c0,0,0.8,1.6,3,2.1c2.2,0.5,6.8,1.8,7.7,2
		c0.9,0.2,4,1.4,4.4,1.4c0.4,0,2.2,0.4,2.2,0.4s0.3-1.3,1.3-1.1c1,0.2,2.1,1.2,2.1,1.2l-0.2,1.5c0,0-1.3,2.5-1.3,2.8
		c-0.1,0.4-0.7,2.5-0.7,2.5s-2.9-6.1-3.6-6.2c-0.7-0.1-3.8-0.8-5.9-1.1c-2.1-0.4-7.4-2.8-7.4-2.8s-0.1,0.9-1.5,1.2
		c-1.4,0.3-3.1,0.3-3.1,0.3l-1.4,1.5l-1.7,4.7c0,0-0.4-0.9-0.5-1.8c-0.1-0.9-0.4-2.8-0.4-2.8l0.6-1c0,0-2.4,0.2-2.9,0.1
		c-0.5-0.1-1.3-0.7-1.3-0.7l-1.4,1l1.2,1.6l0.2,2.1l2.4,1.8c-1.9,0.7,4,4.1,4.9,4.4c0.2-1.3,4.2-1,5.3-1c0.1,0.4,0.2,0.7,0.4,1.1
		c-1.3-0.5-2,0.1-3.1,0.6c-2,1-4.8,0.3-6.5-0.9l-1.8-2.5l-0.4-1.7l-1.4-1.2L106.3,71.1z"/>
	<path clip-path="url(#SVGID_2_)" fill="#B2BFC4" d="M131.8,62.2c0,0,1.2-1.4,1.8-2c0.7-0.6,2.3-1.3,2.3-1.3l-0.7-0.5
		c0,0,2.4-0.9,3.3-1.2c0.9-0.3,1.6,0.2,1.6,0.2l1.3-1.1l2,0.9l1.3,1.2c0,0-1.6-0.1-3.3,0.6c-1.6,0.7-3,1.5-3,1.5l-0.8-1.1
		c0,0-1.3,0.7-2.3,1.2c-1,0.6-1.9,1.8-1.9,1.8L131.8,62.2z"/>
	<path clip-path="url(#SVGID_2_)" fill="#B2BFC4" d="M100,79.6c-0.2,0.1-0.5,0.2-0.8,0.4c-1.1,0.5-3.2,0.1-4.1,1
		c1.4-0.1,2.8-0.4,4.2-0.4c1.7,0.1,3.3,1.8,4.6,2.9c0,0,0.9,3.4,1.2,3.9c0.3,0.5,1.1,3.3,1.9,4.2c0.6,0.7,1.3,1.5,2.1,2
		c-0.1-0.6-0.6-1.3-0.5-2c0.7-0.3,1.5-0.5,2.3-0.4c0.4-1.1,1.9-2,2.7-2.7c-0.4-0.2-1.4-0.7-1.1-1.3c0.3-0.7,1.4,0,1.8,0.1
		c0.8,0.2,3.2,0.7,2.9-0.7c1.7-0.3,4.3,0.3,5.9,0.7c-1.4-1-3.4-1.4-5.1-1.5c0.1,0,1.1-0.5,1.4-0.5c0.8-0.1,1.4,0,2.1,0.3
		c1.1,0.3,2.2,0.7,3.4,1c0,0,2.2-0.1,3.5,0.1c1.3,0.3,2.7,1.6,2.7,1.6l0.8,2.1l1-1.3c0,0-1.2-2.6-3.1-3.1c-1.9-0.5-4.2-0.8-4.2-0.8
		s-4-1.6-5.9-1.9c-1.9-0.3-4.7-1.5-4.7-1.5l-2.1,0.5c0,0-0.4-0.5-2.3-0.8c-0.8-0.1-1.8-0.2-2.5-0.5c-0.8-0.3-1.4-1.1-2.3-1.2
		c-1.3-0.3-2.7,0.3-3.9,0C100.7,79.6,100.6,79.4,100,79.6"/>
	<path clip-path="url(#SVGID_2_)" fill="#B2BFC4" d="M57.1,86.4c0,0,0.6-1.4,0.1-2c-0.5-0.6-0.4-1.4-0.4-1.4l2.4,0.5l1.3-1.8
		l2.4-0.5c0,0-1.4,1.5-1,2.1c0.4,0.6,1.3,1.8,1.3,1.8l0.1,1.5c0,0-1.7-0.8-2.4-1.3s-2.4-1.1-2.4-1.1l-0.1,2.3c0,0,1.7,1,2.8,1.3
		c1.2,0.3,3.3,0.8,3.3,0.8l2.2,0.4l0.3,1.5l2.8-0.1c0,0-0.6,2.6-1.3,2.8c-0.6,0.1-3,0.1-3,0.1l-1.9,0.1c0,0,1.9-1.6,1.7-2.3
		c-0.3-0.6-1.4-1.4-1.4-1.4l-4.4-0.5l-2.1,1.3L57.1,86.4z"/>
	<path clip-path="url(#SVGID_2_)" fill="#B2BFC4" d="M72.1,111.4c0,0,1.4-0.1,2.2-1c0.8-0.9,1.9-1.5,1.9-1.5s1.2-1.4,1.5-1.4
		c0.4,0,1.2-0.4,2.4,0.1c1.3,0.5,2.6,0.8,3.2,0.8c0.6,0,3,0.3,3,0.3s1.7,0.8,2.2,1.1c0.5,0.4,2.1,0.5,2.1,0.5l3.1,0.8l1.3,0.4
		l0.6,2.6c0,0-1.5,0.4-2.4-0.1c-0.9-0.5-2.6-1.5-2.6-1.5s-1.2-0.8-2.6,0.1c-1.4,0.9-4.1,1-4.5,1c-0.4,0,1-1.3,2.3-1.8
		c1.3-0.5,1.3-1.1,1.3-1.1l-3.1-0.8l-1.7-0.8l-3.6-0.6c0,0-1,1-1.7,1.5c-0.6,0.5-2.8,1.6-2.8,1.6L72.1,111.4z"/>
	<path clip-path="url(#SVGID_2_)" fill="#B2BFC4" d="M91.7,102l2.1-0.4c0,0,1.4,1.3,2.7,1.4c1.3,0.1,1.8-0.6,1.8-0.6
		s-1.8-1.8-0.8-2.3c1.7-0.8,1.4-2.3,2.4-1.9s1.7,1.1,1.7,1.1l-1.5,2.8l-0.9,0.6c0,0,2.6,0.1,3,0.9s-0.4,1.6-0.4,1.6s-1.2,0.4-3-0.4
		c-1.8-0.8-3.5-1-3.5-1s-0.5,1.5-0.1,1.8c0.4,0.3,1.7,2.1,1.7,2.5c0,0.4,0.5,2.5,0.5,2.5s-2.3-2.5-3-3.1c-0.6-0.6-0.9-2.4-0.9-2.4
		L91.7,102z"/>
	<path clip-path="url(#SVGID_2_)" fill="#B2BFC4" d="M102.5,109.1c0,0-0.3-3.1,0.8-3.6c1-0.5,1.9-0.8,1.9-0.8l1-1.6
		c0,0,1.8-1.4,2.3-1.5c0.5-0.1,2.6-1,2.6-1s0.5,1.4-0.3,2.8c-0.8,1.4-2.8,2.4-2.8,2.4l-2.1,0.9l-1.8,0.6
		C104.2,107.2,105.3,108.9,102.5,109.1"/>
	<path clip-path="url(#SVGID_2_)" fill="#B2BFC4" d="M101.6,113.6c0,0-0.5-1.6,0.4-2.1c0.9-0.5,2.8-1.6,2.8-1.6l4.2,0.9
		c0,0,0.8,2.1,0,2.4c-0.8,0.3-3-0.5-3-0.5s0,1.8-0.5,1.8c-0.5,0-2.8-0.8-2.8-0.8s-0.3,1.3-1.5,2.1c-1.3,0.9-3.5,1-3.5,1
		s-0.6,0.3-1.2,1s-1.9,2-1.9,2s-0.6-1.5,0-2.1c0.6-0.6,2.3-1.8,2.3-1.8l3-0.4L101.6,113.6z"/>
	<path clip-path="url(#SVGID_2_)" fill="#B2BFC4" d="M168.3,46.3c0,0-0.9,1.1-1.9,2.3c-1,1.1-1.7,1.4-1.7,1.4s0,1.3,1,1.5
		c1,0.3,2.2,0,2.2,0c0.5-0.1,2.9,1.6,3.2,1.9c0.3,0.3,0.5,1,0.7,1.4c1,0.4,3.4,0.4,3.4,1.8c0.9-1.7,4.4-1.4,3.3-4.4
		c-1.8,0.2-3.7-1.6-5.5-2c1.1,1.4,3.7,1.7,3.3,3.7c-1,0-2.1,0.7-2.9-0.1c-0.3-0.3-0.3-0.9-0.6-1.3c-0.4-0.4-0.7-0.4-1.2-0.6
		c-1.8-0.9-2.6-1.5-4.8-1.6c0.2-1,0.9-2.3,2-2.6c0.3,0,2.5,0.2,2.6,0.3C171.5,47.9,170,45.4,168.3,46.3"/>
	<path clip-path="url(#SVGID_2_)" fill="#B2BFC4" d="M145.7,29c0,0,0.1,0.8,0,2c-0.1,1.3-0.8,3.9-0.8,3.9l1.8,0.9c0,0,0-1.9,0.4-2.8
		c0.4-0.9,0.9-2.1,0.9-2.1s1.5,1.5,1.9,2.1c0.4,0.6,0.6,1.5,0.1,1.8c-0.5,0.3-1,1.6-0.6,1.6s2.4-0.5,2.4-0.5v-2.3l-1.3-1.5l-2.7-2.5
		L145.7,29z"/>
	<path clip-path="url(#SVGID_2_)" fill="#B2BFC4" d="M149.5,22.9l2.3-2.6c0,0,2.3-0.5,3.1-0.6c0.8-0.1,2.1-1.3,2.1-1.3
		s1.5-1.8,1.9-1.8c0.4,0,1.9,0.3,1.9,0.3l0.3,2.4c0,0-2.2-0.5-2.6,0.4c-0.4,0.9,0.4,2.1,0.4,2.1l-0.8,1.8l-2.4-1c0,0,0.5-1.8-1-1.4
		c-1.5,0.4-2.8,1.4-2.8,1.4l-1.4,2L149.5,22.9z"/>
	<path clip-path="url(#SVGID_2_)" fill="#B2BFC4" d="M161.7,61.7c0.8-0.5,2-1.1,2.1-0.9c1.2,1.4,3.2,2.2,3.5,4.2
		c0.2,1.1-1.2,2.5-2.1,3.1c-0.2-0.9,0-2.3-0.5-3.1c-0.4-0.7-1.5-1.2-2.1-1.8c-1.4,1.2-1.7,2.4-1.8,4.2c-0.6,0.1-1.2,0.2-1.7,0.6
		c0.1-0.6-0.4-1.7-0.1-2.2c0.3-0.5,1.4-0.6,1.8-1.3c0.4-0.8-0.2-1.2,0-2C160.9,62.2,161.3,61.9,161.7,61.7"/>
	<path clip-path="url(#SVGID_2_)" fill="#B2BFC4" d="M172,42.5l1.9-0.3l0.8-3c1.7-0.5,2.7-2.8,2.7-2.8l3.8,0.1
		c-1.8-0.9-4.5-1.3-4.5-1.3s0.5-1.8,0.1-1.5c-0.4,0.3-3,2-4.1,2.1s-0.8,1.8-0.8,1.8S173.2,41.2,172,42.5"/>
	<path clip-path="url(#SVGID_2_)" fill="#B2BFC4" d="M92.2,85.8c0.3,0,2.2,0.4,3.6,0.5c1.3,0.1,2.9-0.2,2.9-0.2l1.6-1.9
		c0,0-1.9,2-1.5,2.4c0.4,0.4,1.3,2.5,1.3,2.5s0.7,1.6-0.2,1.6c-0.9,0-3.1-0.8-3.1-0.8L96,87.8L92.2,85.8z"/>
	<path clip-path="url(#SVGID_2_)" fill="#B2BFC4" d="M51,95c0,0,3.6,0.3,3.8,0.3c0.3,0,1.6-1,1.6-1s-1.1,4.6-1.3,6.3
		c-0.3,1.7-1.1,2.8-1.1,3.2c0,0.4-0.1,3.2-0.1,4.1c0,0.8-0.5,9.2-0.5,10.4c0,1.2-0.2,2.7-0.2,2.7s-1.1-1-1.3-2.5
		c-0.3-1.5,0.4-2.8,0.4-2.8l0.3-2.8c0,0-1.2-3.1-1.2-3.4s1.2-3.2,1.2-3.2l0.2-3.5c0,0-0.9-0.6-0.8-2.1c0.1-1.5,1.6-4,1.6-4L51,95z"
		/>
	<path clip-path="url(#SVGID_2_)" fill="#B2BFC4" d="M150.5,52.8c0,0,0.8-0.4,1.1-1.2c0.3-0.7,0.8-2.1,0.8-2.1s0.1-0.5,0.8-0.7
		c0.7-0.2,1.5-0.5,1.5-0.5s0.8,0,1.1-0.1c0.2-0.1,0.9-0.8,1.4-0.8c0.4,0,1,0.7,1.2,1.1c0.3,0.4,1,1.8,1,1.9c0,0.1-0.3,1.8-0.3,1.8
		l0.7,1c0,0,0.6,1.1,0.7,1.2c0,0.1,0.8,1.3,0.8,1.3s-0.8-0.1-1.2-0.2c-0.4-0.1-0.8-0.7-0.8-0.7l-0.7,0.8c0,0-1.2,0.7-1.4,0.2
		c-0.3-0.6-0.7-1.5-0.7-1.5l-1.2-1.4c0,0,1.2,0.7,2,0.5c0.8-0.2,1.5-0.8,1.4-0.9c0-0.1-0.3-1.5-0.3-1.5l0.3-1.4l-1.4-1.4l-1.9,0.7
		c0,0-0.1,0.8-0.5,1c-0.4,0.2-1.7-0.3-1.8-0.3c-0.2,0-0.2,2.1-0.9,2.8C151.6,52.9,150.5,52.8,150.5,52.8"/>
	<path clip-path="url(#SVGID_2_)" fill="#B2BFC4" d="M161.2,48.9c0,0,0.5,0.8,1,0.1c0.5-0.7,1-2,1.8-2.8c0.8-0.8,1.9-1.5,2.1-1.7
		c0.2-0.2,1.4-1.8,1.4-1.8s-1.8,0.9-2.6,1c-0.8,0.1-1.5-0.1-1.6-0.1s-0.8,0.4-0.8,0.4s-0.7,1.4-1.7,1.7c-1,0.3-1.4,0.4-1.4,0.4
		l0.3,1.1C159.7,47.2,161.4,48.5,161.2,48.9"/>
	<path clip-path="url(#SVGID_2_)" fill="#B2BFC4" d="M155.8,41.2c0,0,1-0.9,1.1-2c0.1-1.1,0.7-2.1,1.7-2.7c1-0.6,2.1-1.8,2.1-2.1
		s1.1-3.6,1.5-3.8c0.4-0.3,1.5-0.3,1.5-0.3s-1.2,1.4-0.9,2c0.3,0.6,1.7,0.1,2.1-0.1c0.4-0.2,0.9,0.2,1.2,0.4
		c0.3,0.3,0.4,3.2,0.4,3.2s-4.1,2.7-5.8,3.4c-1.7,0.7-2.5,1.1-2.5,1.1L155.8,41.2z"/>
	<path clip-path="url(#SVGID_2_)" fill="#B2BFC4" d="M142.9,73.8c0,0,0.6-0.7,0.8-1c0.2-0.4,1.3-0.4,1.3-0.4l1.4-0.6
		c0,0,2,0.1,3,0.7c1,0.6,1.6,1.3,1.6,1.3l-1.3,1c0,0-0.4-1.5-1.7-1.7c-1.3-0.2-3.4,0.6-3.4,0.6L142.9,73.8z"/>
</g>
<polygon fill="#C9614E" points="174.4,44.7 173.2,49.1 177.1,53.1 171.5,53.5 166.6,49.7 161.9,52.1 156,51.5 154,55.5 143.6,61 
	144.8,63.2 141.6,68.3 136.5,69.5 134.6,72.1 135.2,73.2 134.2,73.4 132,72.1 117.4,81.9 114.5,89 118.3,90.9 114.4,91 111.1,89.7 
	98,104.3 100,105.9 96.5,108.4 98,109.6 96.6,109.8 96.1,115.9 109.1,119.8 100.9,122.7 101.2,127.8 108.9,130.5 119.5,128.6 
	122.4,133.1 118.8,142.4 125.3,148.2 135.1,145 139.1,144.3 160.9,150.7 161.4,157.1 174.4,156.6 179.3,155.1 178.3,148.7 
	184.1,148.5 192.2,150.3 197.9,152.9 201.3,149.1 208.6,153.8 215.9,147 230,154.9 234.1,151.9 239.1,143.8 236.2,141.4 
	243.5,133.8 251.6,136.6 256.4,131.4 255.7,126.2 260.7,122.8 263.8,125.9 269.8,122 270.7,117.9 256.5,106.9 261.6,100.4 
	248.7,87.4 248.7,85.2 245.6,83.2 247.6,79.2 248.3,73.9 241.8,72.5 241.2,70.1 234.5,65.5 228.6,67.6 226,63.9 220.2,60.6 
	218.5,57.1 215.5,57.9 212,55.6 202,54.1 194.4,47.5 191.6,49.4 188.4,49.4 182.4,44.3 "/>
<g>
	<defs>
		<rect id="SVGID_3_" y="0" width="270.7" height="159.1"/>
	</defs>
	<clipPath id="SVGID_4_">
		<use xlink:href="#SVGID_3_"  overflow="visible"/>
	</clipPath>
	<path clip-path="url(#SVGID_4_)" fill="#F58764" d="M194.6,47.7c-0.2,0.1-4.2,11.4-4.2,11.4l8.5,7.3l3.8-11.8L194.6,47.7z"/>
</g>
<polygon fill="#F58764" points="205.2,56.6 203.3,63.6 209.8,69 213.5,64 "/>
<g>
	<defs>
		<rect id="SVGID_5_" y="0" width="270.7" height="159.1"/>
	</defs>
	<clipPath id="SVGID_6_">
		<use xlink:href="#SVGID_5_"  overflow="visible"/>
	</clipPath>
	<path clip-path="url(#SVGID_6_)" fill="#F58764" d="M191.7,73.5l8.8-2.1l11.1,19.9l3.8-2.5l5.6,5.7l9.3-8.4l2.1,1.3l6.7-4.1l2.3-3
		l6.2,4.6c0,0-4.9-3.1-5.2-3c-0.2,0.1-6.9,8.4-6.9,8.4l4,3.8l4.1,3.9l4.4-1.4l-8-8l5.2-4c0,0,12,11.2,11.7,11.4
		c-0.3,0.2-4.8,4.1-4.8,4.1l-3.5-3l-6.1,4.1l-0.6-0.9l1.6-1.7l-4.1-3.8l-10.1,7.7l-5-4.7l-5.5,4.9l-8.5-9.5l-2,0.8l4.6,3.3l1.8,3.3
		l-1.5,3.1l-22.3-15.2l-5.8,6.3l7.5-10.3l7.1,3.8l-8.1-13.9l-4,1.7L191.7,73.5z"/>
</g>
<polygon fill="#F58764" points="186.4,57.8 179.6,62.2 174.9,74.4 175.2,75 165.7,81 170.2,86.3 179.8,79.5 176.8,75.3 183,71.4 "/>
<g>
	<defs>
		<rect id="SVGID_7_" y="0" width="270.7" height="159.1"/>
	</defs>
	<clipPath id="SVGID_8_">
		<use xlink:href="#SVGID_7_"  overflow="visible"/>
	</clipPath>
	<path clip-path="url(#SVGID_8_)" fill="#F58764" d="M174.4,44.7c0.4,0,7.4,6.6,7.4,6.6l6.2-2l-5.6-4.9L174.4,44.7z"/>
</g>
<polygon fill="#F58764" points="154.3,88.7 156,85.7 162.7,85.4 161.8,88.5 "/>
<polygon fill="#F58764" points="121.7,103.8 132,100.1 129.1,110.2 118,113.5 "/>
<polygon fill="#F58764" points="108.8,99.5 96.5,108.4 98,109.6 96.6,109.8 96.6,116 104.5,114.9 106.6,109.2 105.1,109.2 
	113.2,103.2 "/>
<polyline fill="#F58764" points="131.4,72.1 127.4,74.9 117.4,81.9 121.9,84.2 127.8,80.1 126.2,79.4 127.4,76.1 133.5,77.7 138,77 
	138,73.5 132,72.1 "/>
<polygon fill="#F58764" points="150.4,79.4 138.6,79.7 139.3,89.3 145.5,89.2 146.6,87.3 149.8,86.9 147.1,83.2 "/>
<polygon fill="#F58764" points="137.2,84.8 130.5,88.3 133.1,95.5 140.1,92.2 138.3,91.6 "/>
<polygon fill="#F58764" points="187.4,95.2 191.6,99.2 182.3,107.9 177.7,103.3 179.8,101.6 165.6,100.3 166.4,96.7 164.5,94.8 
	165.3,90.2 180.6,91.1 180.8,100.1 "/>
<g>
	<defs>
		<rect id="SVGID_9_" y="0" width="270.7" height="159.1"/>
	</defs>
	<clipPath id="SVGID_10_">
		<use xlink:href="#SVGID_9_"  overflow="visible"/>
	</clipPath>
	<path clip-path="url(#SVGID_10_)" fill="#F58764" d="M191,112c0.3,0,18.7-4.4,18.7-4.4l-4.4,9.7l-19.2,3.8L191,112z"/>
</g>
<polygon fill="#F58764" points="195.4,98.2 196.2,100 221.8,110.8 221.1,109.5 "/>
<polygon fill="#F58764" points="232.4,105.7 228.5,130.3 243,132 246,106.8 "/>
<polygon fill="#F58764" points="137.2,129.1 134.9,131 160.9,142.5 161.4,157.1 174.3,156.7 172.2,135.6 161.4,136.5 161.2,140.5 
	152.3,136 150.7,137.2 145.1,134.1 139.8,130.2 "/>
<polygon fill="#F58764" points="166.6,49.6 152.2,58.1 155.9,61.5 170.7,53.3 "/>
<polygon fill="#F58764" points="169.7,56 156.6,62 160.8,65.6 172.6,59 "/>
<g>
	<defs>
		<rect id="SVGID_11_" y="0" width="270.7" height="159.1"/>
	</defs>
	<clipPath id="SVGID_12_">
		<use xlink:href="#SVGID_11_"  overflow="visible"/>
	</clipPath>
	<path clip-path="url(#SVGID_12_)" fill="#F58764" d="M155.8,51.5c-0.1,0.4-1.6,3.9-1.6,3.9l5.3-3.3L155.8,51.5z"/>
</g>
<polygon fill="#F58764" points="148.9,108.4 147.8,113.5 154.9,115.9 154.2,121.3 168.4,124.6 171,113.3 "/>
<polygon fill="#F58764" points="110.9,90.1 109.2,92.6 117.9,96.3 120,93.4 "/>
<polygon fill="#F58764" points="128.5,122.2 134.8,127.1 140.6,127.1 139.5,120.3 "/>
<g>
	<defs>
		<rect id="SVGID_13_" y="0" width="270.7" height="159.1"/>
	</defs>
	<clipPath id="SVGID_14_">
		<use xlink:href="#SVGID_13_"  overflow="visible"/>
	</clipPath>
	<path clip-path="url(#SVGID_14_)" fill="#9F4E3E" d="M174.2,44.2c0.4,0.1,7.2,6.4,7.2,6.4l4.3-1.2l2.7,4l-2.2,4.2l-5.1,3l-0.8-2.2
		l-6.3-0.3l-1.2,0.8l-1.4-1.6l7.4-4.5l-1.9-0.2l-3.9-4L174.2,44.2z"/>
</g>
<polygon fill="#9F4E3E" points="170.8,53.3 160.7,59.7 156,61.7 152.3,58 147.6,63.9 150.5,67 154.2,64.3 155.9,62.2 159.7,65.6 
	156,73.1 153.4,72 154.5,76.1 167.5,68.6 164.5,63.9 160.4,65.6 156.3,62.1 169.5,56.1 "/>
<g>
	<defs>
		<rect id="SVGID_15_" y="0" width="270.7" height="159.1"/>
	</defs>
	<clipPath id="SVGID_16_">
		<use xlink:href="#SVGID_15_"  overflow="visible"/>
	</clipPath>
	<path clip-path="url(#SVGID_16_)" fill="#9F4E3E" d="M170.1,67.6l8.6-4.9c0,0-3.9,11.9-4.1,12c-0.2,0.1-2,1.3-2,1.3l-2.7-1.2
		l3.8-2.1L170.1,67.6z"/>
	<path clip-path="url(#SVGID_16_)" fill="#9F4E3E" d="M207.9,125.4l-5.5-2.1l-9.1,8.9l3.8-5.4l-7-2.9l-4,4.4l-16.9-3.6l3.1-3.6
		l-1.2-2.5l1.9-2.6l-0.1-2.5l-20.7-4.8l9.7,1l-0.1-3.7l-10.5-2.4l2.5-4l9.4,0L161.6,88l0.9-3.1l-6.7,0.3l-1,1.3l-5.3-0.1l-2.6-3.7
		l3.1-2.9l3.2,4.3l15.3-8.7l1.4,1.9l-5,3.7l0.3,4.5l4.4,4.1l0.4-3.9l9.6-6.8l-2.9-4.1l6.1-3.9l4.2,3.7l4.2-6.8l-5.9-5.3l5.4-4l8,7.5
		l4.1-3.2c0,0,7.5,6.4,7,6.5c-0.5,0.1-7,5.7-7,5.7l-2.5-4l-8.3,2.9l-4.1,1.7l4.5,8.4l-1.8,2.2l-9.9-4.8l-5.6,8.9l-10.1-0.5l-0.7,4.6
		l1.9,1.9l-1.2,3.7l14.5,1.2l-1.6,1.8l0.2,1.5l-5.4,4.4l9.6,8.4c0,0,4.5-5,4.8-5.1c0.3-0.1-5.2-4.3-5.2-4.3l9.3-9.4l-4.2-3.7l-2.9,2
		l-0.2-0.7l6.7-8.1c0,0,21.6,14.8,22.2,14.8l1.7-2.9l-2-3.5l-4.3-3l2.2-0.7l8.2,9.5l5.6-4.5l4.7,4.4l10.2-7.6l3.7,3.3l-1.6,2.6
		l4.4,5.8l-13.1-0.7l-1.7,4.2h-4.8l-6.7,5.9l2.1-4.8l-0.6-2.2l-9.4-3.6l-16-6.8l-3.4,5l0.6,1.8l8.4,3.8l-10.3,2.7l-4.9,9.1l19.2-3.8
		c0,0,3.8,4,4.1,4c0.3,0,3.9-6.5,3.9-6.5l5.2,2.2l-9.3,8.1l7,2.7l14.7-12.1l-2.6,14.9l-5.7-3.9l-21.3,22.4l-3.6,3.8l-5.7-1.8
		l20-22.8L207.9,125.4z"/>
	<path clip-path="url(#SVGID_16_)" fill="#9F4E3E" d="M208.2,58.8c0.3,0,2.4,0.2,2.4,0.2l1.2-3.9l3.9,2.2l-2.9,1.8l2.7,5.2l-2.7,0.4
		l0.6-1.1L208.2,58.8z"/>
</g>
<polygon fill="#9F4E3E" points="220.6,60.2 224.1,67.6 234.2,70.5 234.2,64.8 228.6,67.1 225.9,62.8 "/>
<g>
	<defs>
		<rect id="SVGID_17_" y="0" width="270.7" height="159.1"/>
	</defs>
	<clipPath id="SVGID_18_">
		<use xlink:href="#SVGID_17_"  overflow="visible"/>
	</clipPath>
	<path clip-path="url(#SVGID_18_)" fill="#9F4E3E" d="M213.6,65.9c0.3,0.1,13.8,8.8,13.8,8.8l-5.6,3.6l-3.4,4.5l10.7-6.8l3-4.5
		l9.9,6.2l5.1,0.4l-1.6,4.4l-4.6-2.6l-1.8,2.9l-7.1,4.4l-2.6-1.8l-2.2,2.4L215,81.7l-4,7.7l-2.4-3.9l13.2-10.8L213.6,65.9z"/>
</g>
<polygon fill="#9F4E3E" points="242.7,91.3 240.1,93.5 243.7,97.5 247.7,95.9 255.3,105.9 249.8,110.5 255,116 248.7,119.5 
	245,115.4 244.7,121.5 247.1,122.4 248.2,123.9 250.6,123.8 255.5,125.8 255.8,117.2 258.8,122.8 264.6,125.5 263.7,120.9 
	252.7,112.1 262.7,112 256.6,105.7 261.6,99.8 256.3,95.5 252.4,99.5 "/>
<polygon fill="#9F4E3E" points="228.9,128.5 243.5,129.1 250.9,131.2 255.5,126 256.3,130.7 252.1,136.4 249.2,135.6 241.6,144.9 
	224.2,135.5 "/>
<polygon fill="#9F4E3E" points="217.4,143.7 233.8,152 230,155.1 215.5,146.8 "/>
<polygon fill="#9F4E3E" points="192.8,132 186.6,129.4 179.2,140.5 177.2,135.4 178.5,149 191.2,149.9 183.1,143.7 "/>
<polygon fill="#9F4E3E" points="121.9,84.2 128,80.2 132.5,82.1 133.1,76.9 138.1,76.6 138.3,78.2 150.5,78.3 149.9,79.2 138,79.3 
	136.5,82.1 "/>
<g>
	<defs>
		<rect id="SVGID_19_" y="0" width="270.7" height="159.1"/>
	</defs>
	<clipPath id="SVGID_20_">
		<use xlink:href="#SVGID_19_"  overflow="visible"/>
	</clipPath>
	<path clip-path="url(#SVGID_20_)" fill="#9F4E3E" d="M109.4,92.3l8.5,3.9l-4.4,6.5l2.9,3.6l-4.2,3.3l2.9,2.2l2.6-1.6l-0.3,2.7
		l12.4-3.6l3.5,1.9l4.8-9.4l-6-3l1.1-1.9l-0.8-2.3l7.3-2.9c-1.5-0.7-0.2-2.9-0.2-2.9l6.4,0.5l-0.7,2.6l16,1l0.2,1.6l-17-1h-2.3
		l-1.3,3l0.5,6.2l2.3-4.3l7.4,0.3l-0.6,4.7l-1.2-0.3l-1.1,7.5l-4,1.6l10.6,3.6l-0.8,6.9l-11.1-6.5l-2.7,2.7l-8.7,1.4l5.3-4.8
		l-1.9-4.9l-7.6,6.4l1.6,4.3l-6.6,11.8l-2.2-4.8l-11.2,1.5l-1-5.6l12.1-4.3l-16-5.9l2.1-6.2l6.3-4.6l-3.7-4.5L109.4,92.3z"/>
	<path clip-path="url(#SVGID_20_)" fill="#9F4E3E" d="M140.7,127.3h-6l-9.3,21.1l8-4.3l26.2,5.2l-28-12.9l2.7-5.9l3.1-2l12.7,7.8
		l2.1-1.2l8.2,4.8l0.6-3.5l11.1-1.1l-18.2-1.8l4.4-7.1c0,0-6.1-3.3-6.6-3c-0.5,0.3-6.3,9.4-6.3,9.4l-5-3L140.7,127.3z"/>
</g>
<polygon fill="#70372F" points="164.7,64.5 167.5,69.1 155,76.4 154.7,73.5 156.2,74.4 161.2,71.7 "/>
<polygon fill="#70372F" points="170.6,68.6 178.2,64.2 175.2,73.3 171,75.2 173.7,73.3 "/>
<g>
	<defs>
		<rect id="SVGID_21_" y="0" width="270.7" height="159.1"/>
	</defs>
	<clipPath id="SVGID_22_">
		<use xlink:href="#SVGID_21_"  overflow="visible"/>
	</clipPath>
	<path clip-path="url(#SVGID_22_)" fill="#70372F" d="M180.9,59.1l1,1.4l4.4-2.4c0,0,1.4-3,1.2-3S180.9,59.1,180.9,59.1"/>
	<path clip-path="url(#SVGID_22_)" fill="#70372F" d="M180.6,79.4l6.5-4l0.4-0.9l3.6-6.5l3.2,1.8l3.9-2.8l6.7,6.6l-1.9,1.5
		c0,0-2.4-4-2.7-4c-0.2,0-5.8,1.2-5.8,1.2l-3-2.9l-2.1,2.9l1.1,1.5l-2.5,2.1l1.8,4.2l-4.4-2.2l-1.7,1.3l6.3,1.6l2.4,3.6l-2,2.3
		l-10-4.8l-5.3,8.7l-5.2-0.2v-2.6l10.4-6.5L180.6,79.4z"/>
</g>
<polygon fill="#70372F" points="167.6,76.7 153.4,84.7 151.8,86.9 155,86.7 156.4,85.6 163.1,85.4 163.4,86.8 165.2,86.5 161.7,82 
	"/>
<polygon fill="#70372F" points="208.4,59.6 213.3,63.8 211.2,67.1 215.8,64.7 213.3,59.6 212.1,60.9 210.4,59.4 "/>
<g>
	<defs>
		<rect id="SVGID_23_" y="0" width="270.7" height="159.1"/>
	</defs>
	<clipPath id="SVGID_24_">
		<use xlink:href="#SVGID_23_"  overflow="visible"/>
	</clipPath>
	<path clip-path="url(#SVGID_24_)" fill="#70372F" d="M154.7,64.4c-0.3,0.1-6.2,4.2-6.2,4.2l-1.8-3.1l2.4-3.2l-3.7,0.9l0.4,1.8
		l-2.8,1.4l-4.8,6.5l14.5-0.6l-1-2.9L154.7,64.4z"/>
</g>
<polygon fill="#70372F" points="122.7,83.7 128.1,80.2 132.7,82.7 "/>
<polygon fill="#70372F" points="180.9,94.7 184.4,96.6 181.1,100.3 "/>
<g>
	<defs>
		<rect id="SVGID_25_" y="0" width="270.7" height="159.1"/>
	</defs>
	<clipPath id="SVGID_26_">
		<use xlink:href="#SVGID_25_"  overflow="visible"/>
	</clipPath>
	<path clip-path="url(#SVGID_26_)" fill="#70372F" d="M192.5,99.2l1.8,1.6l-1.9,2.8l0.8,2.4c0,0,8.5,3.4,8.2,3.5
		c-0.3,0.1-7.6,1.6-7.6,1.6l-2.8-0.8l-1.9,1l-1.6,1.3l-3-2.9L192.5,99.2z"/>
	<path clip-path="url(#SVGID_26_)" fill="#70372F" d="M165,99.7c-0.1,0.3-0.3,3.8-0.3,3.8l13,1l-5.7,3.5l3.8,4.2l-5.1-0.5l-1.2,1.6
		c-1.1-0.3-1.2-6.1-1.2-6.1h-6.2l-12.5-3.9l14.5,1.7l-0.4-4L165,99.7z"/>
	<path clip-path="url(#SVGID_26_)" fill="#70372F" d="M172.9,117.8l6.6,5.5l3.4-2.9l-6.3-7.1l6.3,4.1l4.3-4.1c0,0,1.6,1.3,1.3,1.4
		c-0.3,0.1-5.8,3.8-5.8,3.8l3.4,4.8l1.6-0.6l-1.1,1.4l-3.7-2.7l-3.7,3.4l4.7,3.1l-3.8-1.3l-2.8,0.3l-0.2-1l-5.5-2.2l0.6-1.5
		l-0.6-2.9L172.9,117.8z"/>
	<path clip-path="url(#SVGID_26_)" fill="#70372F" d="M193.2,124.9l7.1-1.3l9.8-1.8l3.2-6.8c0,0,5.8,1.8,5.5,1.9
		c-0.3,0.1-8.9,8.4-8.9,8.4l6.2,2.7l1.7,3.4l-3.8,3.7l-2.4-1.2l1.2-2l-1.3-4L202,123l-4.7,4L193.2,124.9z"/>
</g>
<polygon fill="#70372F" points="210.7,93.5 217.8,102.2 213.4,105.2 217.1,107.1 221.1,105.2 223.3,107.6 221.5,109.2 223.3,112.4 
	231.9,105.5 230.4,108 231.3,110 226.9,110.3 219.9,115.5 221.8,111.1 221,108.8 212.3,105.3 214.7,100.7 212.7,96.7 208.8,93.9 "/>
<polygon fill="#70372F" points="222.1,74.7 219.7,76.4 221.2,79.1 227.1,74.7 "/>
<polygon fill="#70372F" points="208.4,85.6 218.3,77.5 215.8,82.5 214.6,82.1 212.7,83.1 209.7,88.2 "/>
<polygon fill="#70372F" points="218.6,83.6 229.7,76.5 238.9,82.3 232.5,87.7 230.1,86.2 227.6,88.1 "/>
<g>
	<defs>
		<rect id="SVGID_27_" y="0" width="270.7" height="159.1"/>
	</defs>
	<clipPath id="SVGID_28_">
		<use xlink:href="#SVGID_27_"  overflow="visible"/>
	</clipPath>
	<path clip-path="url(#SVGID_28_)" fill="#70372F" d="M241.5,78.1l5.6,0.3l-1.4,4.5c0,0-4.4-2.7-4.7-2.7
		C240.7,80.2,241.5,78.1,241.5,78.1"/>
</g>
<polygon fill="#70372F" points="222.7,64.8 229,68 228.2,69.4 224,68.2 "/>
<polygon fill="#70372F" points="240.2,94.2 242.8,92.1 247.9,96.4 "/>
<polygon fill="#70372F" points="250.3,98.7 257.3,105.2 255.8,106.8 "/>
<g>
	<defs>
		<rect id="SVGID_29_" y="0" width="270.7" height="159.1"/>
	</defs>
	<clipPath id="SVGID_30_">
		<use xlink:href="#SVGID_29_"  overflow="visible"/>
	</clipPath>
	<path clip-path="url(#SVGID_30_)" fill="#70372F" d="M242.3,100.8c0,0,3.8,5.8,3.3,5.8c-0.4,0-7-0.7-7-0.7l2.7-2.2L242.3,100.8z"/>
	<path clip-path="url(#SVGID_30_)" fill="#70372F" d="M245.2,116c0.1,0.3,3.7,4.7,3.7,4.7l1.8,3.4l-2.9-0.6l-1.2-2.1l-2,0.1
		L245.2,116z"/>
</g>
<polygon fill="#70372F" points="250.6,110.7 255.9,107.3 262,111.9 253,112.3 263.6,121.4 263.9,125.1 260.9,122.9 259,123.6 
	255.3,116.3 "/>
<g>
	<defs>
		<rect id="SVGID_31_" y="0" width="270.7" height="159.1"/>
	</defs>
	<clipPath id="SVGID_32_">
		<use xlink:href="#SVGID_31_"  overflow="visible"/>
	</clipPath>
	<path clip-path="url(#SVGID_32_)" fill="#70372F" d="M231,115.6c-0.4,0.2-4.5,4.4-4.5,4.4l2.1,5.9l-3.1,2.3l3,1.7L231,115.6z"/>
</g>
<polygon fill="#70372F" points="228.3,130 230.2,133.1 242.7,133.3 240.3,136.7 238.9,133.8 234.1,137.5 236.2,141.7 224.1,135.3 
	"/>
<g>
	<defs>
		<rect id="SVGID_33_" y="0" width="270.7" height="159.1"/>
	</defs>
	<clipPath id="SVGID_34_">
		<use xlink:href="#SVGID_33_"  overflow="visible"/>
	</clipPath>
	<path clip-path="url(#SVGID_34_)" fill="#70372F" d="M243.6,128.8c1.1,0.3,7.5,2.2,7.5,2.2l-0.1,5.2l-7.6-2.5L243.6,128.8z"/>
</g>
<polygon fill="#70372F" points="218.3,144.6 223.7,151.5 215.8,147.1 "/>
<g>
	<defs>
		<rect id="SVGID_35_" y="0" width="270.7" height="159.1"/>
	</defs>
	<clipPath id="SVGID_36_">
		<use xlink:href="#SVGID_35_"  overflow="visible"/>
	</clipPath>
	<path clip-path="url(#SVGID_36_)" fill="#70372F" d="M206.9,139.5c0.4,0,2.9,1.1,2.6,1.1c-0.3,0-11.9,11.9-11.9,11.9l-2-1.3
		L206.9,139.5z"/>
</g>
<polygon fill="#70372F" points="187.1,130.4 177.8,142.3 191.2,150.1 183.2,143.7 193.3,132.2 "/>
<g>
	<defs>
		<rect id="SVGID_37_" y="0" width="270.7" height="159.1"/>
	</defs>
	<clipPath id="SVGID_38_">
		<use xlink:href="#SVGID_37_"  overflow="visible"/>
	</clipPath>
	<path clip-path="url(#SVGID_38_)" fill="#70372F" d="M152.9,135c0,0,11.6,1.4,11.2,1.3c-0.4-0.1-2.7,0.5-2.7,0.5l-0.4,3.7l-8.5-4.6
		L152.9,135z"/>
</g>
<polygon fill="#70372F" points="131.8,136.7 125.7,147.2 135.1,144.7 137.3,139.6 "/>
<polygon fill="#70372F" points="132.1,120.7 137.8,116.2 143.1,116.1 140.4,119.8 "/>
<g>
	<defs>
		<rect id="SVGID_39_" y="0" width="270.7" height="159.1"/>
	</defs>
	<clipPath id="SVGID_40_">
		<use xlink:href="#SVGID_39_"  overflow="visible"/>
	</clipPath>
	<path clip-path="url(#SVGID_40_)" fill="#70372F" d="M130.2,89c0,0-3-0.1-3.3-0.1c-0.3,0-5.3,0.8-5.3,0.8l4.9,0.4l1.2,5.2l4.7,2.5
		l-5.3,2.1l-3.4,0.5l1.1,2l6.9-2.6l2.1-2.3L130.2,89z"/>
</g>
<polygon fill="#70372F" points="143.2,92 140.2,91.9 138.1,93.2 135.7,98.8 141.1,99.2 141.3,96.9 142.7,93.8 144.7,94.2 "/>
<polygon fill="#70372F" points="141.2,100.1 138.5,102.5 141.6,102.6 "/>
<g>
	<defs>
		<rect id="SVGID_41_" y="0" width="270.7" height="159.1"/>
	</defs>
	<clipPath id="SVGID_42_">
		<use xlink:href="#SVGID_41_"  overflow="visible"/>
	</clipPath>
	<path clip-path="url(#SVGID_42_)" fill="#70372F" d="M141.8,102.7c0,0,8,0.3,7.8,0.6s-4.2,3.3-4.2,3.3l-2.5-0.2L141.8,102.7z"/>
	<path clip-path="url(#SVGID_42_)" fill="#70372F" d="M117.9,113.5l5.2,2.2c0,0,11.5-3.9,11-3.8c-0.5,0.2-6.1,5.5-6.1,5.5l0.6,4.6
		l-2.1,3.3l-17.4,5.4l-0.8-5.7l12.7-3.6l3.7,1.3l2.4-3l-0.5-2.4l-11.6-4.9l3.7-1.8L117.9,113.5z"/>
</g>
<polygon fill="#70372F" points="118.8,95.8 113,103.2 117.3,100 121.8,100 "/>
<polygon fill="#70372F" points="138.3,103.2 139.8,105.3 141.8,106 143.3,110.7 134.2,111.2 "/>
<polygon fill="#70372F" points="155.1,122.4 158,125.9 169.2,125.4 "/>
</svg>
