<?xml version="1.0" encoding="utf-8"?>
<!-- Generator: Adobe Illustrator 18.1.1, SVG Export Plug-In . SVG Version: 6.00 Build 0)  -->
<svg version="1.1" id="Layer_1" xmlns="http://www.w3.org/2000/svg" xmlns:xlink="http://www.w3.org/1999/xlink" x="0px" y="0px"
	 viewBox="0 0 242.9 127.2" enable-background="new 0 0 242.9 127.2" xml:space="preserve">
<g>
	<defs>
		<rect id="SVGID_1_" x="0" y="0" width="242.9" height="127.2"/>
	</defs>
	<clipPath id="SVGID_2_">
		<use xlink:href="#SVGID_1_"  overflow="visible"/>
	</clipPath>
	<path clip-path="url(#SVGID_2_)" fill="#BABDBF" d="M19.6,99.4l-8.1,0.3c0,0,4.5,3.4,4.5,4.5c0,1.1-3.3,2.5-3.3,2.5
		s3.3,3.1,6.7,4.2c3.3,1.1,20.1,2,20.1,2l12.3-1.4v2.5c0,1.4,7.9,1.4,7.9,1.4l-0.6,5.5c0,0,6.9-2.7,10-2.4c3.1,0.3,4.7,3.1,4.7,3.1
		s5.3,4.8,7.5,5.4c2.2,0.6,26.2-2.5,32-2.3c5.9,0.3,12.1,2.4,17.9,1.8c2-0.2,3.2-1.1,4.9-1.9c2.4-1.1,5-0.3,7.6,0
		c3.5,0.3,13.5-3.1,16.9-3c3.1,0.1,13.3-6,13.3-6l25.8-1l20.7,7.2l20.7-5.2l-11.5-7.3l6.8-3.2l6.6-2.9l-2.2-7l-20.9-12.4L19.6,99.4z
		"/>
	<path clip-path="url(#SVGID_2_)" fill="#C2BF9A" d="M226.1,84.5l-16.8-21.6l10.4,2.9l2-2.4L208,55.9l1.3-1.1l-20.4-12.4l14-2.1
		l-27.1-15.5L173,26l5.3-3.1l3-5l-20.2-6.1l3.9-0.3l0.1-1.5l-10-2.1l9.8-0.7l-0.8-1.5L156,5.5l-0.2-1.1c0,0-9.2-0.6-9-0.6
		c0.1,0,4.6-0.3,4.6-0.3l0-0.9l-39-2.6L94.8,1.3l-0.1,1.1l-15,1.3v1.2h-1v0.8l15.4-0.2v0.6l-1.4,0.1l0.1,0.8L94.3,7l0.1,1l-10.8,2.6
		l-1,1.1L90,18l-13,7.1L50,52.1l0.6,1.3l1.8-0.4l0.6,1l-8.4,6.1l-3.1,2.2l-3.8,3.3L18.4,66L6.7,66.3l-5.1,5.8l0.3,2.2l22,0.9
		l4.2,3.7L1.9,78.8l-1.8,3.5v2.5l17.1-0.1l-2.9,3l6.7-0.1l-0.5,1.1l-5.7,1.3l-0.2,1.6l4.5,0.5l-6,2.3l0.1,1.1l-1.8,0.7l10.9,7.6
		l-0.1,1.8l0.5,3.6l14.7,1.5l12.2-1.3h7.8L54,113l-0.1,1.1l18.4,3.3c0,0,3.5,3.9,5.5,5.5c2,1.5,6,1.9,6,1.9l27.7-3.1
		c0,0,2-2.2,3.7-1.4c1.7,0.9,14.7-4,14.7-4l22.8,2.3l-5.8-7l2.2-0.4l0.6-1.5l3.9-0.3l4.1,2l1,1.3l8.9-2.1l3.9-0.5l11.9,0.3l1.4,0.7
		l4.3-2.2l1.1,0.9l4.3,0.3l2.1-0.8l3.3-0.6l0.8,0.8l7-1.1l1.9,0.5l2.1,0.1l1.3-0.9l2,0.2l0.8-0.7l9.8,1.2c0,0,1.2-0.1,1.5-0.9
		c0.3-0.8,5-1.3,5-1.3l-1.7-3l-0.7-1.8c0,0,0.9-0.1,1.8-0.2s2.9-0.5,2.9-0.5l-0.6-2.3l-4.4-1.4l0.4-1.5l0.8-0.5l0.1-0.9l-1.1-1.3
		l4,1.8l0.3-0.8l1.7,0.7l7.2,2l-6.1-7.8L226.1,84.5z"/>
	<path clip-path="url(#SVGID_2_)" fill="#949176" d="M131.8,15.5l10,1.2l1.6-0.8l8.4,1l3.5,0.4l0.1-0.7l1-0.4l-0.1-0.5l-2.3,0.1
		l-7.5-1.4l-0.1-0.6l-7.8-0.6l22.9-1.2l8.2,2.8l-7.9,2l-4-0.5l20.3,7.1c0,0-6.7,3.3-6.9,3.2c-0.2-0.1-7.5-3.8-7.5-3.8l2.5,0.1
		l0.4-1.3l-11.4-3.7l-2.5,0.1l-9.3,1.5L131.8,15.5z"/>
</g>
<polygon fill="#949176" points="129.9,17 134.7,18.9 142.1,19.8 144,20.5 151.2,21.1 153.7,23 131.6,18.8 "/>
<g>
	<defs>
		<rect id="SVGID_3_" x="0" y="0" width="242.9" height="127.2"/>
	</defs>
	<clipPath id="SVGID_4_">
		<use xlink:href="#SVGID_3_"  overflow="visible"/>
	</clipPath>
	<path clip-path="url(#SVGID_4_)" fill="#949176" d="M164.1,33.6l1.5,3.1l-0.7,1.6l-1.1-0.3l0.1,1.2l-4.9-1.7l-1.3,0.3l-10.3-4.3
		l0.2,1.5l15.8,4.9l-0.7,1.1l5.2,2.4l-3-2.4l3.9-1.4l2.9,0.6l9.3,2.4l6.7,3.5l1.7-1l9.5,6.4l-0.3,1.7l7,5.6l15.1,4.5L208,55.9
		l-8-5.4c0,0-29.4-17.2-29.6-17.2S164.1,33.6,164.1,33.6"/>
	<path clip-path="url(#SVGID_4_)" fill="#949176" d="M153.2,40.6l17.2,5.3l1.1,1l1.8-0.5l1.3,0.6l0.7-0.7c-0.3-0.6,4.9,0.1,4.9,0.1
		l-0.1,1.6l-3.9-0.8V48l4.1,3.6l-0.5,4.2l-4.3-7.4L175,49l4.9,8.6l-9.4-8.9l-12-4.2L153.2,40.6z"/>
</g>
<polygon fill="#949176" points="131.4,39.2 133.9,42.3 127.7,41.7 131.8,47.4 157.7,59.8 158.6,59.1 146.3,52.7 142.4,46.1 
	132.8,39.1 "/>
<polygon fill="#949176" points="155.6,48.4 153.3,50.9 161,54.9 161.7,54.1 "/>
<polygon fill="#949176" points="123.6,39.1 121.8,38.8 124.3,53.4 129,55.4 131.4,51.1 137.7,57.6 137.2,62.5 142.7,67.4 
	140.6,57.5 "/>
<g>
	<defs>
		<rect id="SVGID_5_" x="0" y="0" width="242.9" height="127.2"/>
	</defs>
	<clipPath id="SVGID_6_">
		<use xlink:href="#SVGID_5_"  overflow="visible"/>
	</clipPath>
	<path clip-path="url(#SVGID_6_)" fill="#949176" d="M109.3,58.4l0.1-3.5L93.7,48l-6.5-0.7L84,50.9l-2.8,2.3l-6.7,0.9
		c0,0-0.4-0.7-1.7-0.2L68.7,54l-6.9,3.8l-3.5-1.8L50,61.3l-5.4-1.1l-2.1,2.6l-0.9,2.4l22.1-0.7l21.2-8.8l1.1,3l-12.1,9l20.6,9.2
		l20.9-1.4c0,0-22.3-1.6-22.3-1.6c-0.7-0.1-2.5-2.3-3-2.8c-1-1-3.9-2.8-3.8-4.4c-2.2-0.5-5.4-1.1-7.5-1c1.2,0.1,2.6-0.3,3.8-0.6
		c1.1-0.3,3.5-0.4,4.4-1.2c0.8-0.7,1.4-3.1,1.4-4.2c2.3-0.3,5-1.6,6.7-3.1c0.5,0.4,2,1.3,1.9,2.1c-0.2,1-3.4,2.2-4.1,3
		c-0.7-0.2-1.5-0.1-2.3-0.3c0,0.9,0.5,2.1,0.2,3c-0.3,0.9-1.4,1.3-2.1,1.9c0.8,1.5,2.3,2.3,3.7,3.2l15-9.8l6.7,8.5l-19.3,5.4
		l26.9-5.9c0,0,1.1,0.7,2.8,0.9c1.7,0.2,3.2,0.9,3.2,0.9l1.6-0.2l0.5,1l1.7-0.8l1.7,5.3l-9.7,10.1l16.8-6.3l3.3-7l-12.9-10.2
		l-10.7-3.6l3.9,2.1L109.3,58.4z"/>
	<path clip-path="url(#SVGID_6_)" fill="#949176" d="M74,106.9c3.1-0.5,6.2-1,6.8-1.1l4,1.7l-11.4,1.3l1.5,1.8l1.5,4l3.4,1.3
		l1.2,1.3l11.2,4.9l17.5-1.6l2.4-1.3l-1.3-1.3l-1.6,2.1l-1.5-0.2l0.2-2l-1.2,1.8l-1.3,0.1l-0.2-1.6l-2.7,0.9l-3.9-0.2l-0.4-1
		c0,0-6.1-1-7.5-1.8c-1.4-0.8-0.5-1.7-0.5-1.7l-0.4-0.1c0,0-2.5,0.7-3.8,0.6c-0.7,0-2.1-1.6-3.1-1.8c-0.9-0.2,0.2-1,0.2-1l-0.5-1.4
		l-3.5-1.3l4.5-1.4c0,0,3-0.1,3.7-0.5c0.8-0.5,2-0.9,2-0.9l2.4,1.2c4.5,0.4,5.8-0.5,5.8-0.5l0.5-1l0.9-0.1l-6.4,6.6l4.9,0.8l3.5-2.5
		v3.9l2.4,1.2l2.3-1.6l3.7,0.9l-9.1-11.1l-11.4-1.1l-3.2,1l-1.4-1.1l1.3-5.2c0,0,0.7-0.6,0.7-0.9C86.3,96.8,86,96,86,96l0.3-0.5
		l0.2-1.8l0.6-0.1l3.7,3.4L87.5,93l0.5-0.5l2.7-0.1l-0.4-0.5l-9.5-0.4l-0.5-0.4L78,90.5h-0.7l-0.2-1.2c0,0,1.6,0,2.2,0.2
		c0.6,0.2,1.4,0.5,1.4,0.5l1.1,0.6l3-1.6l-0.3-1l2.3,1.8L87,91l0.8-1.5L86.8,88v-2.5l-1.6-1.4l-7.2-0.5l1.7,1l-8.2,0.5l2.6-2
		l-9.4-0.7l2.1-1.2l3,0.1l1.2-1.4l10.2,0.8l-1.9-1.6L8.9,66l0.9,2.2l-1.5,0.2c0,0,2.2,0.9,2.6,1.2c0.4,0.3,1.4,0.3,1.4,0.3l0.1,1.2
		l-4,0.1l-1.9,1.5l6.3,0.2l4.8,0.8l2.2,0.8l0.4,2l-1.1,2.4l4,2.1l0.5-1.4l6.8,0.5c0,0,3.3,1.7,3.9,2.7l0.2,0.5l2.9-0.5l0,0.3
		l0.7,0.7l2.7-0.6l2.5-0.8l1.4,0.5l4.8-0.4l-0.3,0.6l9.9,0.3l0.1,0.8L48,83.9l-0.9,0.8l0.2,1.1l-2.2,0.4l-2.9-0.4l-0.7-0.7l-1.5-0.7
		l-0.7-0.3l-5.3-0.1c-0.1,0-0.9,0.2-0.9,0.2c-0.1-0.4-1.5-0.4-1.5-0.4l-0.1,0.5l-4.5,0.8l-0.3-0.3L25.9,85v-0.9l-2.9,0.1l-0.7-0.5
		l1.2,1.4l2.1,0.2l1.4,0.8l4.8-0.1L31.5,85l3.9,0.1l0.5,0.8l1.6,1.3l-16.9,0.2l-0.2,1.1l2,0.2l-2.6,1.9l-0.1,0.9l4.9-2.2l2.5-1.3
		l1.5,0.1l0.7,1.1l3.1-0.2l-9,6.2l-0.4,1l-9.2-0.5l4.7,2.2l2.4-0.4l2.4,2.7l22.1-11l-8.5-1h1.8l4.5-0.7L68.1,86c0,0,4-0.1,9-0.9
		c0.6-0.1,1.4,0.5,1.4,0.5l-0.8,0.5l-16.5,1.5c0,0,1.4,0.2,2.2,0.2c0.8,0,4.7-0.5,4.7-0.5l4.9-0.3l-0.9,1l-3.7,0.4L56,89.7l-0.8,0.5
		H53l-0.3-0.7l-3.5-0.9l-3,0.8l6.9,1.7l15.9-1.7l2.8-1v0.8l-0.9,0.8l4.1-1l1.6,1.1l-7.5,1.3l-3.9-0.3l4.8,3c0,0-0.7,6.6-0.7,8.2
		s-1.5,5.5-1.5,5.5l2.1,2l0.9,2.5l-13.5-2.9l-3.3,3.4c0,0,10.8,1.8,13.2,2c0.2,0,4.3-0.1,5.1,0.4c0.9,0.4-1.5,1.3-0.3,2.2
		c2.3,1.9,4.9,4.8,6.8,5.9c2.9,1.7,5.1,1.6,3.8,0c0.8,0.5-5.6-3.6-5.6-3.6l-5.7-8l-0.2-4.8L74,106.9z"/>
	<path clip-path="url(#SVGID_6_)" fill="#949176" d="M61.9,91l-13.1,1.8l2.2,0.7l0.9-0.4l6.5,2L58,96.9l-12.7,4.6
		c-0.3,0.1-0.7-0.1-1,0c-0.4,0.1-0.6,0.3-1,0.4c-1.1,0.3-2.2,0.1-3.3,0.4c-0.6,0.2-5.9,1.2-6,1.6c0,0-0.2,1-0.9,1.1
		c-0.7,0.1-0.5-1.1-0.5-1.1c-1.1,0.5-10,2.1-10,2.1l0.1,3.2c0,0,7.2-3.5,7.4-3.4c0.6,0.8,1.5,1.8,1.8,1.7c0.4-0.2,1.3-1.5,1.3-1.5
		s2-0.4,2.2-0.4c0.2,0.1,1.5-0.6,1.5-0.6s0.2-0.9,0.7-1.1c0.5-0.1,2.4-0.5,2.4-0.5l0.3,0.6l-2,1.1l-1,0.1l-2.1,1
		c-0.3,0.4-1.7,0.9-1.7,0.9l-2.5,0.9c0,0,2.1,0.3,3.3,0.1c1.2-0.2,2.3-1.1,2.3-1.1l1.4-0.1l0.1,1l2.6-0.6l0.1-0.7
		c0,0,1.6-0.2,2.4-0.1c0.8,0.1,3.9-1.5,3.9-1.5l1.8-1.2l-0.6-0.3l1.7-0.2l0.8,0.2l0.6-0.6c0,0,2.4,0.2,2.8-0.1c0.3-0.3,1-1.3,1-1.3
		l-1.4,0.5l-2.8,0.3l-0.9,0.4l-0.6-0.5l-1.4,0.2H46l0.9-1l6.7-1.6L59,104c0,0,1.1-5.1,1.1-5.5c0.1-0.4-2.6-0.7-2.6-0.7l-0.9-0.1
		l3.7-0.4L61.9,91z"/>
</g>
<polygon fill="#949176" points="151.9,60.1 148.4,60.7 166.9,70.1 171.4,69.7 "/>
<polygon fill="#949176" points="94.2,6.1 94.4,5.3 110,5.8 124.1,5.6 124.2,6.8 127.4,9.2 121.2,8.1 121.1,7.3 110.2,6.3 112.1,9 
	113.3,9.1 114.1,8.4 120.2,8.9 110.3,11.2 "/>
<polygon fill="#949176" points="129.4,7.2 147.3,8.5 155,7.9 160.5,9.1 132.3,9.8 132.3,9.1 "/>
<polyline fill="#949176" points="135.9,6.6 152.2,5 152,4.2 156,4.4 156,6.3 138.2,6.8 127.2,6.2 125.8,5.5 135.8,6.5 "/>
<polygon fill="#949176" points="88.7,30.1 86.7,31.8 95.7,37 97,35.6 "/>
<g>
	<defs>
		<rect id="SVGID_7_" x="0" y="0" width="242.9" height="127.2"/>
	</defs>
	<clipPath id="SVGID_8_">
		<use xlink:href="#SVGID_7_"  overflow="visible"/>
	</clipPath>
	<path clip-path="url(#SVGID_8_)" fill="#949176" d="M112.1,15.3c0.1,0,12.3,4.3,12.3,4.3l-4.1,1.2l0.3,0.6l1.9,0.5l-0.7,3.9
		L112.1,15.3z"/>
	<path clip-path="url(#SVGID_8_)" fill="#949176" d="M97.4,10.6l8.6,2.3l-0.8,1l4.6,5.2l-0.4,1.9l3.6,3.5l2.3,1c0,0,1.8,2.8,1.7,2.8
		c-0.2,0-4.9-0.6-4.9-0.6L97.4,10.6z"/>
	<path clip-path="url(#SVGID_8_)" fill="#949176" d="M216.8,105l4.8-0.7l4.8,0.8l3.6-0.4l1.2,1.6c0,0-6.3,1.7-6.6,1.7
		c-0.4,0-14,1-14,1l-3.6-0.6l-6.3,1.1l-2.1-0.8l-3.2,1.3l-4.4,0.2l-5.5-0.6l-3,0.8l-1.8-0.5l-9.3,0.1l-3.9,0.6l-8.8,2.1l-1-1.3
		l-4.1-2l-3.9,0.3l-0.7,1.7l-1.2,0.2l-5.9-6.5l0.9-0.7l4.3,1.9c0,0,0.6-0.7,1.1-0.9c0.5-0.3,2.1-0.8,3-0.9c0.8-0.1,4.2,0.1,4.2,0.1
		l1-0.7l2.7,1.2c0,0,1.7,0.7,2.2,0.9s1.2,1.1,1.2,1.1s1.3-1,2.1-0.9c0.7,0.1,2.4,0.5,2.5,0.5c0.2,0,3.4,1.4,3.4,1.4h0.9l0-0.5l1.5-4
		l1.9-0.6l-0.8-3.7l-3.5-2.8l-16.4-5.2l-3.5-0.8l1.5-4.4l-15.6,5.5l32.5,10.8l-21.8-4.7l-8.3,3.7l-12-14l57-10.2l27.9,9.2l11,3.6
		l7.5,3.9l3.3,6.6l-7,1.4l-15.4-8.6l-6.3,2.7l-7.2-4.9l-2.3-9.7l0.8,2.3l-18.2-2.1l-0.7,1l6.8,1l3.2,2.8l-15.3-2.3l0.4,4.4l25.3,2.5
		c0,0,1,2.1,0.6,2.1s-10.5-1.1-10.5-1.1l-1.9,1.1l-11-2.4l-3.6-1.6l-1.5-4.7l-1.4,1.4l1.4,2.7l-9.5-3l-3.2-3.2l-1.4,0.4l2,2.4
		l-1.8-0.6c0,0-1.1,1.7-1,2.8c0.1,1.1,0.7,1.6,0.7,1.6l1.4,0.8l11.4,3.7l17.3,12l-3.2,0.6l-9.1-2.5l-0.3,1.7l8.5,1.8
		c0,0,15.4-5,15.8-4.9c7.2,1.2,15.6,2.9,15.6,2.9L216.8,105z"/>
</g>
<polygon fill="#5A6255" points="73.8,83.4 53.4,81.6 69.4,81.4 60.6,79 50.3,81 49.3,83 59.2,83.2 58.8,84.2 50.8,85.1 71.6,85.1 
	"/>
<polygon fill="#5A6255" points="85.2,84.1 80.5,84 80.5,84.8 79,84.7 79.8,87 81.2,86.9 83.8,85.8 85,86.7 83.3,87.7 81.8,89.2 
	80.2,88.9 82,87.4 78.5,88.9 81.8,90.6 84.7,88.9 84.3,87.6 86.3,89.2 87,91 90.4,92 87.5,88.1 86.4,85.3 "/>
<g>
	<defs>
		<rect id="SVGID_9_" x="0" y="0" width="242.9" height="127.2"/>
	</defs>
	<clipPath id="SVGID_10_">
		<use xlink:href="#SVGID_9_"  overflow="visible"/>
	</clipPath>
	<path clip-path="url(#SVGID_10_)" fill="#5A6255" d="M57.5,98.2l-3.9-0.4c0,0-1.8,1.1-1.5,1.1c0.3,0,4,1.8,4,1.8L57.5,98.2z"/>
	<path clip-path="url(#SVGID_10_)" fill="#5A6255" d="M99.9,104.4l-11.5-1.1l-2.8,0.8l-2.1-0.6l-2,0.8c0.2,0,0.3-0.1,0.3-0.1
		l0.6-1.7l-0.8-0.9c0,0,0.7-0.7,0.8-0.7c0.1-0.1,0.8-0.1,0.9,0.2c0.1,0.2,0.2,0.3,0.4,0.3s1,0.1,1,0.1l0.8-3.4c0,0,0.6-0.4,0.7-1
		c0.1-0.6-0.2-1.3-0.2-1.3s-0.4,0.5-0.9,0.3c-0.5-0.2-0.5-1.1-0.5-1.1L82,91.7l-0.7,0.1c0,0-0.3,1.3-0.8,1.7
		c-0.4,0.4-0.7,0.3-0.7,0.3s-0.1,0.3-0.5,1.1c-0.4,0.8-0.7,1.3-0.7,1.3s0.2,0.6,0.1,0.7c-0.1,0.1-0.5,0.4-0.5,0.4l-0.6-1.7l0.9-0.3
		l1.9-3.9l-2.8-0.2L76.4,91l0.2-0.8l-4.5,1.2l-4.1,0.3l0.7,0.5l2.9,2.3L71,96.6l1.3,0.4l1.1-4.2c0.2,0,0.6,0,1.1,0
		c0.2,0-1.1,4.2-1.1,4.2s2.7-5.6,2.9-5.6c0.4,0,1.1,0.1,1.1,0.1l-3.7,6.9l-0.8-0.2l-0.6,2.2l1,0.7c0,0-0.4,0.3,0,0.5
		c0.4,0.2,0.9,0.3,0.9,0.3l0.5-0.4c0,0,0.4-0.2,1,0.3c0.5,0.4,1,0.8,1,0.8l0.9,0.4c0,0,0.3-0.2,0.8-0.1c0.4,0.2,1,1.1,1,1.1
		l-2.1-0.2l-0.8,0.5l-0.8,0l-2.3-0.5l-2.3,0.5l0.1-1.3l-0.8,0c0,0,0.2,4.4,0.3,4.4c0.2,0,1,0.1,1,0.1l6.2-0.5l7,0.5l0.8-1l0.7,0.4
		l1.7-0.8l4.5-0.2l0.3,0.9l3.4,0.4l-1-2.1l5.6,0.3L99.9,104.4z"/>
	<path clip-path="url(#SVGID_10_)" fill="#5A6255" d="M36.7,104.6l-2.1,0.7l-0.7,1.3c-1-0.5-2.6,1-2.6,1l-1.8,0.7l-3.4-0.4l1.2-1.2
		l-4.7,2.4l8.2,0.6l0.4-1.3l3.7-0.4l0.7-1.2l1.9-1.6L36.7,104.6z"/>
	<path clip-path="url(#SVGID_10_)" fill="#5A6255" d="M71.2,111.7l1.4,1.9l-0.1,0.6c0,0,0.7,0.8,1,1.3c0.3,0.6,1,2,1,2
		s0.4,0.2,0.8,0.7c0.4,0.5,1,1.6,1,1.6s0.8,0.8,1.7,1.3c0.9,0.5,1.5,1.5,1.9,1.8c0.3,0.3,2.1,1.3,2.1,1.3s-1.1,0.3-2.4-0.4
		c-1.3-0.7-3.9-3.2-3.9-3.2l0-0.7l-1-1.2l-0.9,0.2l-0.7-0.7l0.7-0.7l-1,0.2l0.5-0.8c0,0-2.4-0.6-3.5-0.5s-3-0.1-3-0.1l-4.7-0.8
		c0,0,2.9,0.3,5.3,0.3c2.4,0.1,4.8,0.1,4.8,0.1l0.7-0.3l-0.2-0.3l-0.8-1.6l-0.4-1l-0.6-0.4L71.2,111.7z"/>
	<path clip-path="url(#SVGID_10_)" fill="#5A6255" d="M82.5,111.2c0,0,0.5,1,0.8,1.2c0.3,0.3,0.8,0.3,0.8,0.3s-0.7,0.8-0.6,0.8
		c0.1,0,1.3,0.5,1.3,0.5l0.6-0.6l0.2,1H87l0.3-0.4c0,0,1.9,0.2,2.3,0.1c0.3-0.1,1.1-0.4,0.9-0.3c-0.2,0.1-1,1.1-1,1.1
		s-1.6-0.5-2.1-0.1c-0.5,0.3-0.8,0.7-0.9,0.7c-0.1,0-1.4-0.2-1.4-0.2l0.2-0.9l-0.8,0.6l-1-0.2l0-0.9l-3,0.2l-3.3-3.1L82.5,111.2z"/>
	<path clip-path="url(#SVGID_10_)" fill="#5A6255" d="M37.8,88.6c-0.2,0.1-13.9,6.6-13.9,6.6l-0.2,1.1l17.6-7.2L37.8,88.6z"/>
	<path clip-path="url(#SVGID_10_)" fill="#5A6255" d="M62.5,58.3c0.5,0.4,1,0.9,1,0.9s-0.9,0.6-1.3,0.6c-0.3,0-2.2-0.7-2.2-0.7
		l-1.2,0.5l-2.7,0.1l-6,3.1c0,0,8.2,1.4,7.8,1.4c-0.2,0-16.3,0.8-16.3,0.8l0.8-2.1l2.3-2.6l5.2,1l8.3-5.1c0,0,3.4,1.7,3.5,1.7
		l7.1-3.7c0,0,3.7-0.3,4.1-0.3c0.4,0,0.8-0.1,0.9-0.1c0.1,0,0.8,0.4,0.8,0.4l6.5-0.9l3-2.3l3-3.6c-0.2,0.3,1.1,3.4,1.2,3.9
		c0.4,1.4,0.7,1.9,2,2.6c-2.9,1.1-6.1,1.5-9.1,2.6c-3,1.1-6.2,2-9.2,3.3c-1.2,0.5-3.1,1.9-4,0.6c1.8,0,4-1.6,5.7-2.2
		c2.3-0.9,5.8-1,7.7-2.6c-1-2.3-4.7,0.1-6.4,0.4c-1.1,0.2-2.4-0.1-3.6,0C68.3,56,65.2,56.5,62.5,58.3"/>
	<path clip-path="url(#SVGID_10_)" fill="#5A6255" d="M93.9,52c0,0.1,2.6,6.2,2.6,6.2l-3.2,2.6l-1.1,0.5l-2.4-0.9l-0.1,4.1
		c0,0-2.9,1.5-2.8,1.7c0,0-7.1-1-7.1-1l2.8-3.8l-7.9,5.7c0,0,9.4,4.5,9.4,4.7c0,0.3,7.5,0.8,7.5,0.8l-4.8-4.3l2.7-0.7l-0.3-0.9
		l8-5.2l0.1-1.2l1.4,0.2l8.4-5l-5.5-1.4l-2.4,3.1L96,56.5l0.8-3.9L93.9,52z"/>
	<path clip-path="url(#SVGID_10_)" fill="#5A6255" d="M108.1,59.7l6.5,4.4l13.1-3c0,0-2.2,4-1.9,4c0.3,0,7.9,3.4,7.9,3.4l1.7,0.8
		l5.4,0.4l-5.2-1.9l-0.6-2.9l7.9,6.2l-7.5,0.3l-3.6-2L130,70l-0.5-1.2l-5.2-0.5l-2-0.9l-21.1,4.4l23.3-6.8l-0.7-2.4L112.2,65l-4-5"
		/>
	<path clip-path="url(#SVGID_10_)" fill="#5A6255" d="M170.5,80.5L127.5,88l1.9,2.5l27-7.1l2.8,0.9l14.6-3l3.7,0.2l18.3,2.1l-0.7-2
		l-5.4-1.8l-5.3,0.4c0,0-0.9,0.5-1.9,0.4c-1-0.1-1.1-0.7-1.1-0.7l-2-0.2l-1.8,0.5l-3.7-0.3L170.5,80.5z"/>
</g>
<polygon fill="#5A6255" points="182.1,74.4 189,72.7 190.1,74.8 185.8,75.6 "/>
<g>
	<defs>
		<rect id="SVGID_11_" x="0" y="0" width="242.9" height="127.2"/>
	</defs>
	<clipPath id="SVGID_12_">
		<use xlink:href="#SVGID_11_"  overflow="visible"/>
	</clipPath>
	<path clip-path="url(#SVGID_12_)" fill="#5A6255" d="M191.5,77.1l3.1-0.6L225.7,87l-0.1,1.3c0,0,14,7.6,13.8,7.5
		c-0.2-0.1-5.5-1.5-5.5-1.5l-0.8,0.6l-8.7-3.9l0.4-0.9l8.8,3.9l1.6,0.3l-0.5-0.6l-9.5-4.9l-0.1-1.2L191.5,77.1z"/>
</g>
<polygon fill="#5A6255" points="206,88.6 206.2,90 210.2,90 209.2,89.2 "/>
<polygon fill="#5A6255" points="211.5,94.2 222.1,100.9 210,94.4 "/>
<polygon fill="#5A6255" points="173.4,90.3 187.2,92.1 185.6,93.4 "/>
<polygon fill="#5A6255" points="155.6,89.8 154.2,91.4 170.3,96.7 173.7,99.5 179.5,103.4 178.9,104.4 182.2,106.4 185.1,105.6 
	168.2,93.8 "/>
<polygon fill="#5A6255" points="170.4,33.4 218.7,62.1 205.4,58.7 202.1,55.8 204.6,55.3 188.9,44.7 187.6,45.9 180,39.9 
	179.7,41.8 174.9,37.6 175.3,37.1 170.5,34.6 165.1,36 163.8,33.4 "/>
<polygon fill="#5A6255" points="170.9,36.4 172.3,36.4 174.7,38.3 178.9,41.9 174,39.1 173.9,38.2 "/>
<polygon fill="#5A6255" points="175.6,48.1 179.9,51.2 179.4,55.6 "/>
<g>
	<defs>
		<rect id="SVGID_13_" x="0" y="0" width="242.9" height="127.2"/>
	</defs>
	<clipPath id="SVGID_14_">
		<use xlink:href="#SVGID_13_"  overflow="visible"/>
	</clipPath>
	<path clip-path="url(#SVGID_14_)" fill="#5A6255" d="M164,56.5l7.4,6.3l4.7,4l8.2-1.4c0,0,0.8,1.2,0.3,1.2
		c-0.5,0.1-11.3,2.8-11.3,2.8l-1.6-5.6l-7-3.6L164,56.5z"/>
</g>
<polygon fill="#5A6255" points="131.4,39.2 133.6,42.3 136.1,42.4 140.9,47.4 141.4,51.2 157.7,59.8 158.6,59.1 145.7,53 
	144.8,51.5 142.7,51.5 141.9,46 133,39.3 "/>
<polygon fill="#5A6255" points="124.3,40.1 125.9,42.1 124.5,51.9 128.2,54.3 129.8,46.1 131.8,47.4 130,49 129.3,55.8 124.5,53.7 
	"/>
<polygon fill="#5A6255" points="141.8,16.7 142.7,15.7 155.2,17.3 139.7,18 132.9,15.6 "/>
<polygon fill="#5A6255" points="139.5,13 161.1,11.8 162.1,13 150,13.9 154.4,14.2 156.3,15.6 153.5,15.2 146.6,14.3 "/>
<polygon fill="#5A6255" points="166.7,21.4 175.4,24.1 171.4,26.9 164.4,22.8 166.4,22.4 "/>
<g>
	<defs>
		<rect id="SVGID_15_" x="0" y="0" width="242.9" height="127.2"/>
	</defs>
	<clipPath id="SVGID_16_">
		<use xlink:href="#SVGID_15_"  overflow="visible"/>
	</clipPath>
	<path clip-path="url(#SVGID_16_)" fill="#5A6255" d="M129.4,7.2c0.3,0,2.4,1.4,2.4,1.4s15,0,14.8,0C146.4,8.5,129.4,7.2,129.4,7.2"
		/>
	<path clip-path="url(#SVGID_16_)" fill="#5A6255" d="M105.6,5.8c0.2,0,4.3,0.9,4.3,0.9l0.4-0.5l11.2,1L120,6.1L105.6,5.8z"/>
</g>
<polygon fill="#5A6255" points="112.3,15.7 117.5,18.8 120.3,21.3 123.5,19.5 "/>
<g>
	<defs>
		<rect id="SVGID_17_" x="0" y="0" width="242.9" height="127.2"/>
	</defs>
	<clipPath id="SVGID_18_">
		<use xlink:href="#SVGID_17_"  overflow="visible"/>
	</clipPath>
	<path clip-path="url(#SVGID_18_)" fill="#5A6255" d="M126.1,39.7l1.5,0.3c0,0,1.4,1.8,1.2,1.8c-0.2,0-1-0.1-1-0.1L126.1,39.7z"/>
	<path clip-path="url(#SVGID_18_)" fill="#5A6255" d="M120.8,40.8c-0.1,0.1-1.8,1.6-1.8,1.6s1.9,7.7,1.9,7.6c0-0.1,0.3-7.3,0.3-7.3
		L120.8,40.8z"/>
</g>
<polygon fill="#5A6255" points="147.5,66.1 149.4,64.9 152.5,65.3 156.2,68.3 148,67.7 "/>
<polygon fill="#5A6255" points="151.5,68.8 151.4,70.3 148.5,69.9 148.7,70.9 159.4,70.5 157.7,68.8 "/>
<polygon fill="#5A6255" points="142.7,104.5 147,106.3 148.4,105.3 152.1,104.7 154.8,105 156.7,104.5 162.1,107 164.3,106.2 
	170.8,108.3 170.9,110 167,110.7 165.1,109.4 165.4,108.7 162.5,108.3 156,107 154.2,107.6 156,108.2 157.3,111.1 153.6,109.4 
	149.5,109.9 146.2,108.5 144.4,108 143.5,106.7 144.4,106 142.4,104.9 "/>
<g>
	<defs>
		<rect id="SVGID_19_" x="0" y="0" width="242.9" height="127.2"/>
	</defs>
	<clipPath id="SVGID_20_">
		<use xlink:href="#SVGID_19_"  overflow="visible"/>
	</clipPath>
	<path clip-path="url(#SVGID_20_)" fill="#5A6255" d="M184.9,111.3l-1.5-0.9l0.1-2.1c0,0-6.7-0.3-7-0.8c0,0-3-0.4-3.4,0l-0.7-0.8
		l0.6-1.1l6.3,1c0,0,3.3,0.8,3.6,0.8c0.3,0-0.6-0.9-0.6-0.9l2.9-0.8c0,0,1,0.6,1,0.8c0.1,0.2-0.1,3-0.1,3.4c0,0,0,0,0,0l13.4-6.8
		l13.2,3.5l2.3-0.2c0,0,2.4,0.6,2.5,0.7c0.1,0,2.8,0.1,2.8,0.1l4.6-0.8l1.3,0.9c0,0,4.1-0.7,3.8-0.6c-0.3,0-3.9,2.4-3.9,2.4
		l-10.1-1.5l-1.1-0.5l-16.7-2.7c0,0-2.9,1.3-3,1.4c-0.1,0-1.7,0.8-1.7,0.8l6.8-0.2l2.5,0.3l4.5,0.3l0.1,0.7l-1.9-0.2l-3.8-0.4
		l-2.1,0l-5.8,0.1l-3.4,1.7v0.9l-1.4-0.7L184.9,111.3z"/>
</g>
<polygon fill="#5A6255" points="176.9,82.8 177.6,81.8 195.7,83.7 196.1,84.7 194.6,84.7 195.7,87.4 196.5,86.5 197.4,91.3 
	195.4,88 193.3,87.5 192.3,84.2 "/>
<g>
	<defs>
		<rect id="SVGID_21_" x="0" y="0" width="242.9" height="127.2"/>
	</defs>
	<clipPath id="SVGID_22_">
		<use xlink:href="#SVGID_21_"  overflow="visible"/>
	</clipPath>
	<path clip-path="url(#SVGID_22_)" fill="#5A6255" d="M212.3,86.8c0.1,0.2-0.4,2.4-0.4,2.4l5.4,1.6l4.4-0.1l1.1,2.8l5.4,3.6
		l-4.9-5.7l1.3,0.4l3.9,4l1.4-0.6l-5.6-4.3L212.3,86.8z"/>
	<path clip-path="url(#SVGID_22_)" fill="#E5E0B8" d="M88.1,85.6l-7.5-6.9l-46.2-4.8L1.8,72.4l0.1,1.9l21,1.1l19.6,1.1l-0.3,4.8
		l-1,1.6l-3.2,0.9l-3.6-0.3l-0.5-1.3l-6.3,0.2l-1.9-1l-1.4-0.5l-1-1.4l-0.4,1.6l1.9,0.6l1,0.7l0.3,0.8l-3.4,0l-1.8-1l0,0.6l-1.6,0.3
		l-1.2,0.3L0,82.4l0.1,2.4l21.2,0.2l0.2-2l1.6,1.1l2.8,0.1l0.7-0.6l0.1-1.1l1,1l2.4,0.1l-3.2,0.8c1,0.5,5-0.1,5-0.1l-0.4-0.8
		l2.5-0.1l8.5,0.4l2.6,0.7h-4.2l1.4,1.2l2.9,0.4l1.9-0.5l-0.2-1l-4.2-1.1l0.6-1.6l1.4-5.3l26.5,1.5l-2.2,2.9L83.2,82l0.6,0.5
		l-18.6-1.3l-1.4,1.2L74.2,83l-2.4,2l-30.5,2.6l-6.5,0.7l10.9,1.4l3.7-0.8L44.5,88l24.6-1.8l-16.9,2.7l0.8,1.4l3.1,0l15.1-1.8
		l7.6-2.1l-11.8,1.1l12.1-1.8l1-1.1l-2.1-1l6.7,0.5l1.9,1.8l0.1,2.5l1,1.7l0.6-0.3l-1.1-1.8L88.1,85.6z"/>
	<path clip-path="url(#SVGID_22_)" fill="#FFE3B2" d="M89.3,17.9l-6.7-6.2l1-1.1l13.2-2.8l2.4,2l2.4,1.1l5.5,1.9l-0.3,1.8l3.3,4.1
		l0.4,1.6l2.9,2.6l3.4,1.7l1.6,3l-2.2,1.7l5.6,3.1l4.8,4.4l3.3,0.5l-11-7.9c0,0,3.5-1.8,4-2c0.4-0.2,5.9,3.7,8.4,4.8l10.6,6
		l-4.5-1.3l2.9,6.1l1,0.3l-0.7-5.1l3,1.1l-6.8-5.8l-2.7-1.8c0,0,1.6-0.4,1.8-0.4c0.3,0,40.6,34.5,40.6,34.5l7.1-1.8l-2.8-5.4
		l13.5,7.7l-13.6-9.9l2.1-2.7l23.4,6.2l21.3,26.8l0.4,1.3l-37.5-12.8l-1.6-2.4l-43.9,9.5l-1.7-2.9l1.2-1.1l1.9-0.8l-28.5,1.5
		l3.2,5.6l-12.2,2.6l3.3,4.4l15.2-1.8l23,32.8l-2.5,1.1l-4.5-3.2l-6.4,0.1l-0.9-0.3l-13.6,3.6l-8.7-1.8L80.5,79.5L44.4,82l-3.4-0.6
		L39,82.2l-3.8,0.1l-2.6-1.8l2.3-1.1l-5.6-1.2l-8.4,1.1l-0.5-1.2l-2-0.2v-1.2l1-0.6l3,0.1l-1.2-2l-1.4-0.6h-1.4l1.6-0.8l-2.2-0.6
		L13.8,70l-3.1-2.4l-0.9-0.8l-1.4-0.1l1.4-1.9L42.5,65l23.3-1.7l24,14.2l25.3-2.1l2,1.8l1.1-3.2l31.5-1.1l9.4,4.8l27.9-8l-2.6-4.3
		l-8.4,1.5l-23.9-20.7l0.6,4.2l8,4.7l-2,3.9l-12.8-6l-0.6-1.1L143,52l0-0.1l-0.6-4.3l-0.3-1.2l-9-6.7l-2.4-0.7l1.8,3.7l-3.2-0.4
		l-3.1-4.2l-8.6-1.9l-6.1-9.2l0.5-0.3l4.6,1.1l-2.7-2.8l-1-0.2l-3.8-4.1l0.6-0.9l-5.7-5.9l1-0.3l1.5,0.2l-0.3-0.9L95,9.5l-3.2,3
		l15.4,18.3l-1.5,1.1L93.9,21.5l-5.1,7.3l10.6,7.8v5l18.6,8.7l0.6,2.8l1.1,5l-0.8,0.5l-17.4-7.6l3.6-4.2l-9.3-4.3l2.1-5.3l-11.3-7.6
		l-5.8,6.5l-0.6,0.7l3.2,2.2l-5-0.8l-0.4,1.4l7.2,1.7l3.8-0.9l5.7,1.5l-0.2,0.7l-6.1-1.1L79.7,51l-6,1l-2,1.5l-7.1,0.7l-0.5-0.9
		l6.9-7C71,45.7,71,45,70.7,44.4c-0.9,0.1-1.9,0.4-2.7,0.9c-0.8,0.5-1.5,0.7-2.4,1c-1.1,0.4-2,0.9-3.1,1.4c-1,0.4-11.8,5.8-11.9,5.7
		l-0.6-1l24.7-23L89.3,17.9z"/>
	<path clip-path="url(#SVGID_22_)" fill="#FFE3B2" d="M79.7,3.6l0.1,0.9l27.1,0.4c0,0-4.8-1.3-4.7-1.3c0.1,0-5.8-1.1-5.8-1.1l4.2,0
		l9.8,3l15.1,0l10.2,1L152.2,5L152,4.5L146.3,4l5.2-0.5l0-0.9l-28.5-1.3l-28.1,0l-0.5,1.3L79.7,3.6z"/>
</g>
<polygon fill="#FFE3B2" points="107.3,12.1 107.2,13.8 124.3,19.8 121.9,20.6 120.1,20.7 120.3,21.3 123.6,22.5 126.4,27.3 
	139.4,32 140.5,31.3 133.8,28.9 146,33.3 157.7,37.8 159,37.5 163.8,38.9 163.8,38 159,36.6 159.7,36.2 165,37.7 165.2,36 
	157.9,33.6 184.6,33.1 184.5,31.6 156.7,32.3 155.8,30.2 143.7,25 129.5,20.6 "/>
<g>
	<defs>
		<rect id="SVGID_23_" x="0" y="0" width="242.9" height="127.2"/>
	</defs>
	<clipPath id="SVGID_24_">
		<use xlink:href="#SVGID_23_"  overflow="visible"/>
	</clipPath>
	<path clip-path="url(#SVGID_24_)" fill="#EB9C48" d="M116.3,78l0.2,0.9l2.1,0.1l4.9,5.6l-11.1,3.4l2.7,2l12.2-1.7l29.5,33.3
		l-7.9,1.7c-0.1,0-0.7-0.4-0.8-0.5c-0.6-0.4-0.4-0.6-0.7-1.2c-0.1-0.2-0.3-0.2-0.5-0.4c-0.1-0.1-0.3-0.4-0.4-0.5
		c-0.2-0.1-0.5,0-0.7-0.1c-0.3-0.2-0.7-0.6-0.8-0.9c-0.2-0.6,0.4-0.8-0.3-1.1c-0.4-0.2-0.4,0-0.6-0.4c-0.1-0.1,0.1-0.5,0-0.6
		c-0.2-0.3-1-0.1-1.3,0c-0.2,0.1-0.5,0.1-0.5,0.4c0,0.3,0.3,0.2,0.4,0.5c0.2,0.6-0.5,0.5-1.1,0.4c-0.1-0.4,0.4-0.4,0.4-0.7
		c0-0.2-0.6-0.5-0.8-0.6c-0.6-0.2-1.3,0.7-1.7,0.2c-0.4-0.3,0-0.3,0.1-0.7c0.1-0.5-0.5-0.5-1-0.4c-0.7,0.1-0.8,0.3-1.2,0.8
		c-0.6,0.7-1.6,1.1-2.5,1.4c0,0-12.6,3.4-12.6,3.4l-8.3-1.3L82.4,79.4l12.9-2l-48.2,3.2l-3.4-1.2l-2.1,0.8l-2.6-0.1l0.3-0.7l-2-0.9
		l-1,0.5l-4-0.8l-2.6-1.9l-2.2-0.1l0.8-0.8l-0.8-0.8l-2.2-0.1l-1.3-1.1h-2.1h-1.4l1.6-0.8L20.1,72L16,69.7l-3.1-2.4L12,66.5
		l-1.4-0.1l-0.8-1.7L42.5,65l23.3-1.7l17.5,7.9l10.9,4.9l21.3-1.3l0.8,1.1l0.5-4.1l27.5-0.8l-3.5-13.6l1.9,2.6l3.1,0.2l3.1,10.5
		l23.1-0.8L154.4,76l32.3-6.7l1.3,2.9l-42.3,9.1l-1.3-3.2l8.1-2L116.3,78z"/>
</g>
<polygon fill="#C87837" points="112.7,75.2 115.7,80.4 118.5,79.3 116.4,79.2 116.2,78.3 116.4,76.3 115.4,75 "/>
<polygon fill="#C87837" points="188,72.2 186.7,69.3 172.7,72.3 184.1,71.4 185.8,72.7 "/>
<polygon fill="#C87837" points="164,70.4 171.8,70.1 162.9,73.1 "/>
<polygon fill="#C87837" points="94.1,76.2 95.3,77.5 82.4,79.4 94,94.9 112.7,75.2 "/>
<polygon fill="#C87837" points="148.7,70.9 145.6,60.4 142.6,60.2 140.6,57.5 141.6,60.6 145.7,71 "/>
<g>
	<defs>
		<rect id="SVGID_25_" x="0" y="0" width="242.9" height="127.2"/>
	</defs>
	<clipPath id="SVGID_26_">
		<use xlink:href="#SVGID_25_"  overflow="visible"/>
	</clipPath>
	<path clip-path="url(#SVGID_26_)" fill="#FFE3B2" d="M70.8,110.4c0,0-0.7-7.5-0.5-9c0.2-1.5,0.9-6.9,0.9-6.9l-0.8-1.3l-8.8-2.5
		l-3.1,15L54.9,118c0,0,2-0.4,3.6-1.4c1.6-1.1,4.3-3.2,4.3-3.2L70.8,110.4z"/>
	<path clip-path="url(#SVGID_26_)" fill="#EB9C48" d="M69.6,109.2c0,0-0.2-5.9,0-7.4c0.2-1.5,1-7.1,1-7.1l-0.8-1.3l-8.2-2.7l-3.1,15
		L54.9,118c0,0,1.7-1.2,3.3-2.2c1.6-1.1,4.4-3.5,4.4-3.5L69.6,109.2z"/>
</g>
<polygon fill="#E5E0B8" points="23.4,95.3 13.5,94.5 13.4,95.9 23.3,96.8 "/>
<polygon fill="#E5E0B8" points="19.1,90.5 15,89.9 14.9,91.2 19.1,91.9 "/>
<polygon fill="#E5E0B8" points="21.6,101.9 12.3,95.9 11,96.2 22.2,103.6 22,106.7 22.6,109 22.8,106 32.5,104.2 32.9,102.4 
	23.1,103.1 "/>
<polygon fill="#E5E0B8" points="39.9,103.3 37.2,104 37.2,105.1 38.7,105.1 40.5,104.1 "/>
<g>
	<defs>
		<rect id="SVGID_27_" x="0" y="0" width="242.9" height="127.2"/>
	</defs>
	<clipPath id="SVGID_28_">
		<use xlink:href="#SVGID_27_"  overflow="visible"/>
	</clipPath>
	<path clip-path="url(#SVGID_28_)" fill="#E5E0B8" d="M56.9,95.9c-0.4,0.1-12.7,4.6-12.7,4.6l-2.2,0.3l0.5-1l-8.3,2.5l0.4,1.4
		l3.9-0.9l1.7-0.5l2.2,0.3l1-1.1l2.4,0.2L58,96.9l-1.6,0.1l0.8-0.6L56.9,95.9z"/>
	<path clip-path="url(#SVGID_28_)" fill="#E5E0B8" d="M57.6,108l-7.6-0.3l-12.3,1.4l0.1,1c-0.8,0.1-1-0.8-1-0.8l-6.1-0.8l-0.4,1
		l7,1.2l13.3-1.5l6.8,0.2L57.6,108z"/>
	<path clip-path="url(#SVGID_28_)" fill="#EB9C48" d="M105.7,13.1l-9.1-2.6L95,9.9l-0.5,0.5c1,0.5-0.4,1.1-0.4,1.1l3.2,3.4
		c0,0,5.5,7.7,5.9,7.7c0.4,0,0.6,1,0.6,1l1.1,2.5l9.4,11.6l3.9,0.5l-3.7,0.9l-3.3-3.4l-1.8,2.2l3.1,0.6l0.6,1.2l2-0.1l3,10.6
		l1.1,2.4l1.8,0.9l-1.2,4.6l-17.5-7.5l3.1-3.9l13.2,5.7v-1.4c0,0-0.2-0.1-0.2-0.1c-2.7-1.1-5.5-2.1-8.2-3.2c-2-0.8-4-1.5-6-2.3
		c-0.8-0.3-1.5-0.7-2.3-1c-0.5-0.2-0.8-0.6-1.3-0.8c-0.4-0.2-0.8-0.2-1.1-0.6c-0.2-0.2,0.1-0.4-0.3-0.4c-0.2,0-0.5,0.2-0.6,0.3
		c-0.3-0.3-0.3-0.9-0.7-1.1c-0.4-0.2-1,0.2-1.4,0.3c-0.2-1.2,0.5-2.5,0.9-3.6c0.3-0.8,0.5-1.5,0.8-2.3c-0.6-0.4-1.2-0.8-1.8-1.2
		c0,0-2.1-1.4-1.5-1.6c-0.6,0.1-1.3-0.1-1.8-0.6c-0.5-0.5-0.7-0.7-1.4-1c0-0.6,0.3-1.2-0.4-1.4c-0.5-0.2-1,0.2-1.5,0.1
		c-0.5-0.1-0.8-0.4-1.3-0.7c-1-0.6-1.9-1.3-2.9-1.9c-0.2-0.1-3-1.9-2.9-1.9c0,0-0.5,1-0.5,1l3.3,1.9c-1.4,1.5-2.8,2.9-4.2,4.4
		c-2.1,2.1-4.1,4.7-6.6,6.3c-0.4,0.3-1.3,0.8-1.6,1.2c-0.4,0.6,0.1,0.7-0.9,0.9c-0.5,0.1-1,0.2-1.5,0.4c-0.6,0.3-1.2,0.9-1.8,1.1
		c-0.5,0.2-1.1-0.1-1.7,0.1c-0.9,0.2-1.4,1.1-2.2,1.5c-4.9,2.8-10.3,4.9-15.4,7.3l27.2-27.7l12.6-6.3l3.6,2.5L91,23.6l4.1-1l4.3,3.7
		l-0.2,6.4v2.1l5.8,1.6l2.8,2.9l1-1l-5.3-4.5l3.3-3.1L92.8,15.3l-0.6,0.2l11.8,14L83.7,10.6L97,7.4l3.1,0.5l-1.4,0.5l0.5,0.9h3.8
		v1.4l-2.2-1l-0.2,0.7l6.5,2.3l0.1,0.8l0.2,0.5l-0.5,0.3l4,3.8l-0.7,1.6l-5.6-6.4l1.4,0.3L105.7,13.1z"/>
	<path clip-path="url(#SVGID_28_)" fill="#C87837" d="M84.1,26.4l11.3,4.9l4-4.9l-0.2,6.4v2.1l5.8,1.6l2.8,2.9l1-1l-5.3-4.5l3.3-3.1
		L92.8,15.3l-0.6,0.2l11.8,14L83.7,10.6L97,7.4l3.1,0.5l-1.4,0.5l0.5,0.9h3.8v1.4l-2.2-1l-0.2,0.7l6.5,2.3l0.1,0.8l0.2,0.5l-0.5,0.3
		l4,3.8l-0.7,1.6l-5.6-6.4l1.4,0.3l-0.3-0.5l-9.1-2.6L95,9.9l-0.5,0.5c1,0.5-0.4,1.1-0.4,1.1l3.2,3.4c0,0,5.5,7.7,5.9,7.7
		c0.4,0,0.6,1,0.6,1l1.1,2.5l9.4,11.6l3.9,0.5l-3.7,0.9l-3.3-3.4l-1.8,2.2l3.1,0.6l0.6,1.2l2-0.1l3,10.6l1.1,2.4l1.8,0.9l-0.6,2.4
		l-15-9.1l13.2,5.7v-1.4c0,0-0.2-0.1-0.2-0.1c-2.5-1-6.9-10.8-6.9-10.8l-13.2-2c0,0,0.2-1.3-0.1-1.9c-0.3-0.6-1.1-0.9-1.7-1.3
		c-0.2-0.1-1.9-1.4-1.4-1.6c-0.6,0.1-1.3-0.1-1.8-0.6c-0.5-0.5-0.7-0.7-1.4-1c0-0.6,0.3-1.2-0.4-1.4c-0.5-0.2-1,0.2-1.5,0.1
		c-0.5-0.1-0.8-0.4-1.3-0.7c-1-0.6-1.9-1.3-2.9-1.9c-0.2-0.1-3-1.9-2.9-1.9c0,0-5.6-1.8-5.6-1.8L90,18.6l3.3,2.2L91,23.6L84.1,26.4z
		"/>
</g>
<polygon fill="#EB9C48" points="79.7,3.6 95.9,2.4 104.1,4.1 "/>
<polygon fill="#EB9C48" points="112.4,0 94.9,1.3 130.8,3.8 151.4,2.6 "/>
<polygon fill="#C87837" points="104.6,2.9 110.4,4.8 138.4,4.9 138.3,5.5 131.7,5.5 135.7,5.9 150.6,4.5 145.8,3.7 132.2,4.5 "/>
<g>
	<defs>
		<rect id="SVGID_29_" x="0" y="0" width="242.9" height="127.2"/>
	</defs>
	<clipPath id="SVGID_30_">
		<use xlink:href="#SVGID_29_"  overflow="visible"/>
	</clipPath>
	<path clip-path="url(#SVGID_30_)" fill="#EB9C48" d="M108.7,12.6c0,0,27.3,10.8,29.3,11.9s3.6,0.7,4,1c0.5,0.3,1.7,0.7,1.7,0.7
		s1.7,0.2,2.5,0.8c0.7,0.6,1.7,1.4,1.7,1.4s2.8,0.9,3.6,1c0.9,0.2,4.1,1.4,4.1,1.4l0.9,1.8l27.8-0.6l0.1,1l-12.3,0.3l15.9,9.1
		l15-2.2l-27.2-15.5l-4,1.9l-8.1-4.1l-12.6-1.5l3.2,2.2l1.7,0.7v1l-2.5-0.1l-21-4l-4.7-4.5l-3.9-1.3c0,0-3.9-1.4-4.1-1.3
		c-0.2,0.1-4.8,0.6-4.8,0.6l-4.7-2.2L108.7,12.6z"/>
	<path clip-path="url(#SVGID_30_)" fill="#C87837" d="M108.7,12.6c0,0,21.9,8.5,24,9.5s21.1,3.8,21.6,4.1c0.5,0.3,14.7,0.5,14.7,0.5
		l9.2,0.3l6.4,5.1l0.1,1l-12.3,0.3l4.4,1.8l18.9,1l-19.7-11.4l-4,1.9l-8.1-4.1l-12.6-1.5l3.2,2.2l1.7,0.7v1l-2.5-0.1l-21-4l-4.7-4.5
		l-3.9-1.3c0,0-3.9-1.4-4.1-1.3c-0.2,0.1-4.8,0.6-4.8,0.6l-4.7-2.2L108.7,12.6z"/>
</g>
<polygon fill="#EB9C48" points="120.8,20.7 124.3,19.8 163.8,36.6 153.8,33.5 153,32.4 152,32.1 153.1,34.1 159.4,36 158.3,37.1 "/>
<polygon fill="#EB9C48" points="125.4,23.5 144.5,31.7 125,24.5 "/>
<polygon fill="#EB9C48" points="122.5,27.9 122.5,22.1 123.6,22.5 125,24.5 124.6,25.5 125.5,25.6 126.3,26.9 137.1,31.3 
	140.5,31.3 146.4,33.3 146.8,34.6 144,34.4 143.7,35.1 147,37.1 147.8,39.3 150.9,40.1 173.2,56.1 171.9,57.6 183.6,64.6 176.7,66 
	138.4,33.3 135.3,31 134.3,31.9 136.9,33.3 142,38 122.5,29.4 122.5,28.4 121.9,29.7 128.6,32.7 137.6,38.3 140.2,43.2 141.6,44 
	141.8,45.4 120.8,29.1 "/>
<polygon fill="#C87837" points="122.5,27.9 122.5,22.1 123.6,22.5 125,24.5 124.6,25.5 125.5,25.6 126.3,26.9 137.1,31.3 
	140.5,31.3 146.4,33.3 146.8,34.6 144,34.4 143.7,35.1 147,37.1 147.8,39.3 150.9,40.1 173.2,56.1 171.9,57.6 163.2,52.7 139.2,32 
	135.3,31 134.3,31.9 136.9,33.3 142,38 123.3,26.1 122.5,28.4 121.9,29.7 128.6,32.7 137.6,38.3 140.2,43.2 141.6,44 141.8,45.4 
	120.8,29.1 "/>
<g>
	<defs>
		<rect id="SVGID_31_" x="0" y="0" width="242.9" height="127.2"/>
	</defs>
	<clipPath id="SVGID_32_">
		<use xlink:href="#SVGID_31_"  overflow="visible"/>
	</clipPath>
	<path clip-path="url(#SVGID_32_)" fill="#EB9C48" d="M141.3,38.4l1.7,0.8l-1.5,2.5l8.5,4.3l0.2-0.3l-8-4.5l1.2-1.7l1,0.2l7.5,6.5
		l0.6,4.2c0,0,8.2,4.7,8,4.7c-0.1,0-0.8,1.6-0.8,1.6l-7.7-4.5l-0.3-1.1l-9.1-4.2L141.3,38.4z"/>
	<path clip-path="url(#SVGID_32_)" fill="#C87837" d="M141.3,38.4l1.7,0.8l-1.5,2.5l8.5,4.3l0.2-0.3l-8-4.5l1.2-1.7l1,0.2l7.5,6.5
		l0.6,4.2c0,0,8.2,4.7,8,4.7c-0.1,0-0.8,1.6-0.8,1.6l-7.7-4.5l-0.8-5.1l-9.1-4.5L141.3,38.4z"/>
	<path clip-path="url(#SVGID_32_)" fill="#EB9C48" d="M143.1,48.1l6.3,3.1l-4.5,0c0,0,0.2-1.1-0.4-1.3c-0.6-0.2-0.7-0.5-0.7-0.5
		l-0.2-0.7L143.1,48.1z"/>
</g>
<polyline fill="#EB9C48" points="146,51.8 150,51.9 159.4,57.6 159.2,58.2 158,57.5 157.9,57.9 145.8,51.8 "/>
<polygon fill="#EB9C48" points="109.8,20.3 110.5,20.1 115.8,23.3 120.8,29.1 120.3,29.7 123.9,32.7 127.2,36.6 130.1,37.3 
	131.2,38.5 117.9,35.2 111.9,26.7 118.4,28.4 115,24.8 116.9,25.2 116.1,24.3 113.2,24.1 "/>
<polygon fill="#C87837" points="109.8,20.3 110.5,20.1 115.8,23.3 120.8,29.1 120.3,29.7 123.9,32.7 127.2,36.6 130.1,37.3 
	131.2,38.5 125.2,36.9 116.1,27.8 118.4,28.4 115,24.8 116.9,25.2 116.1,24.3 111.7,22.2 "/>
<polygon fill="#EB9C48" points="127.7,38.4 130.6,39 133,42.1 130.8,42.1 "/>
<polygon fill="#EB9C48" points="125.9,42.1 129.8,46.1 128.7,54.1 124.9,51.4 "/>
<polygon fill="#C87837" points="125.9,42.1 129.8,46.1 129.5,47.9 125.4,46.1 "/>
<g>
	<defs>
		<rect id="SVGID_33_" x="0" y="0" width="242.9" height="127.2"/>
	</defs>
	<clipPath id="SVGID_34_">
		<use xlink:href="#SVGID_33_"  overflow="visible"/>
	</clipPath>
	<path clip-path="url(#SVGID_34_)" fill="#EB9C48" d="M182.8,53.5l-1.4,2.1l13.3,8.9l2.8-7.4l0.6,0.5l-3.8,8.5L182,59.3l5.8,10.2
		c0,0,0.5,0.7,1.1,1.1c0.6,0.4,1.6,0.9,1.6,0.9s0.2,0.8,0.2,1.3c0,0.5,0,1.1,0.3,1.2c0.3,0.2,1.4,0.9,1.4,0.9l34.9,11.9l-18.7-24.2
		l-2.3-3L182.8,53.5z"/>
</g>
<polygon fill="#C87837" points="182.8,53.5 181.4,55.7 197.5,57.2 198.1,57.7 195.7,63.3 216.3,71.8 206.5,59.7 "/>
<g>
	<defs>
		<rect id="SVGID_35_" x="0" y="0" width="242.9" height="127.2"/>
	</defs>
	<clipPath id="SVGID_36_">
		<use xlink:href="#SVGID_35_"  overflow="visible"/>
	</clipPath>
	<path clip-path="url(#SVGID_36_)" fill="#EB9C48" d="M185.4,49.7l13.4,3.8l0.6-1.9l-10.1-6.7l-1.5,1.3l-6.9-3.5
		c0,0-11.4-2.8-11.7-2.8c-0.3,0-3.7,0.7-3.7,0.7l6.2,5.3l3.9-1.1l11.4,2.6L185.4,49.7z"/>
	<path clip-path="url(#SVGID_36_)" fill="#C87837" d="M186.7,47.9l-0.4,0.5l12.6,5l0.6-1.9l-10.1-6.7l-1.5,1.3l-6.9-3.5
		c0,0-11.4-2.8-11.7-2.8c-0.3,0-3.7,0.7-3.7,0.7l2.8,2.4h12.3l9.1,4.6l-0.4,1L186.7,47.9z"/>
	<path clip-path="url(#SVGID_36_)" fill="#EB9C48" d="M170.8,94.9c0,0,8,2.7,13.6,4.2c5.6,1.4,13.7,3.5,13.5,3.7
		c-0.2,0.2-12,7.1-12,7.1s-1.1-0.5-0.7-1.3c0.4-0.8,1-1.9,0.8-2.1c-0.2-0.2-2.6-2.4-3.7-2.8c-1.1-0.5-6.8-5.3-6.8-5.3l-3.4-1.7
		L170.8,94.9z"/>
	<path clip-path="url(#SVGID_36_)" fill="#EB9C48" d="M185,94.3l18.4,5.3l5.7-2.7l0.8,0.2l-4.9,2.9l7.5,1.6l-1.7-3.8
		c0.8,0,2.3,3.9,2.3,3.9l11.6,1.7c0,0-0.8-0.5-2.1-1.1c-1.4-0.7-3-1.5-3-1.5s-0.5,0.6-1.4,0.2c-0.8-0.5-1.5-1.4-1.5-1.4l-1.7-0.8
		l-1.2-0.3c0.8-0.5-3.8-2.5-3.8-2.5l-2.9,1.5l-8.4-3.1l-9.5-1.1l-1.7-0.5L185,94.3z"/>
	<path clip-path="url(#SVGID_36_)" fill="#EB9C48" d="M88,41.4l-8.7,8.8l-4.9,0.7l9.5-9.5l-0.5-0.5L71.6,52.4l-7.5,0.9l6.6-6.2
		l0.2,0.6l7.8-3.5l-0.2-0.5l-7.6,3l-0.1-3l4.3-2l11.4-12.2l1.6,1.3l-1.4,1l1.7,0.9l-8.3,4.2l3.2,2.5l-4.9-1.1l-0.2,0.8l6.9,1.5
		l1.3,1.3l2.6-1.9l7.6-3.5l0,1.6c0,0-1.6,3.9-1.7,3.9c-0.1,0-6-1.3-6.1-1.3S88,41.4,88,41.4"/>
	<path clip-path="url(#SVGID_36_)" fill="#C87837" d="M88,41.4l-3.2,3.3l-1.8-2.2l0.9-0.9l-0.5-0.5L71.6,52.4L70.7,47l0.2,0.6
		l7.8-3.5l-0.2-0.5l2.9-1.1L75,41.7l11.4-12.2l1.6,1.3l-1.4,1l1.7,0.9l-8.3,4.2l3.2,2.5l-4.9-1.1l-0.2,0.8l6.9,1.5l1.3,1.3l2.6-1.9
		l7.6-3.5l0,1.6c0,0-5.4,3.1-5.5,3.1c-0.1,0-2.1-0.5-2.2-0.5S88,41.4,88,41.4"/>
	<path clip-path="url(#SVGID_36_)" fill="#5A6255" d="M91.6,42.2l-3.8,4.5c0,0,0.9,0.1,1.3,0.5c0.3,0.4,0.9,0.7,1.3,0.9
		c0.5,0.2,2.2,0.5,2.2,0.5l2-5.7L91.6,42.2z"/>
	<path clip-path="url(#SVGID_36_)" fill="#E5E0B8" d="M112.5,88.1l0.8,0.6c0,0,1.7,0.4,2.1,0.4c0.4,0,2-0.1,2-0.1l27.6-4.8l24.6-4.6
		l5.2-1.1l18.4-2.6c0,0,1.6,0.6,1.4,0.6s-9.1,1.4-9.1,1.4l39.7,12.5l-0.5,0.9L196,81.6l-12.3-3.6l-26.9,4.7l4,3.4
		c0,0,10.1,3.7,16.2,5.6c0,0-8.5-2.4-10.5-2.8c-1.9-0.4-7.6-2.9-7.6-2.9l0.1,0.8V88l-1,1c0,0,15.1,4.9,19,5.9
		c3.9,1,20.6,7.4,20.6,7.4l-17.8-4.4l-23.9-7.9l-1.5-2.6l1.2-2.4l1.9,0.5l0.9-0.1l-3-2.3l-38.7,6.7L115,90l-2-0.4
		C113.1,89.6,112.7,89,112.5,88.1"/>
	<path clip-path="url(#SVGID_36_)" fill="#E5E0B8" d="M96.5,44.8c-0.3,0.6-0.4,1.2-0.5,1.8c-0.1,0.8-0.3,0.9,0.5,0.9
		c0,0.3,0,0.6,0.2,0.7c0.3,0.2,0.4-0.1,0.7-0.1c0.3,0.1,0.2,0.1,0.4,0.3c0.4,0.3,0.6,0.5,1.1,0.7c0.3,0.1,3,1.3,3.1,1.2
		c0,0-0.5,0.6-0.5,0.6c-0.1,0.1-2.7-1.1-2.9-1.2c-0.8-0.3-1.6-0.6-2.3-1c-0.7-0.4-1.3-0.2-2.1-0.3C95.4,47.9,95.9,46,96.5,44.8"/>
	<path clip-path="url(#SVGID_36_)" fill="#E5E0B8" d="M94.6,42.9c-0.7,2.3-1.8,4.7-1.8,7.1c0.4,0,0.8,0,1.1-0.1
		c0,0.4-0.6,0.8,0.1,1.1c0.3,0.1,1.1,0,1.5,0.1c0.8,0,1.6,0.7,2.3,0.9c0.8,0.3,1.6,0.5,2.4,0.7c1.8,0.5,3.5,1,5.3,1.4
		c2.3,0.6,4.7,1.3,7,1.9c0,0,0.1,0,0.1,0l3.3,1.4l-8.1-1.8l0.2,2.2l9.3,1.3l-0.1,0.8c0,0-3.5-0.9-3.8-0.8c-0.3,0-2.5-0.3-2.5-0.3
		l-0.7,0.2c0,0,2.7,0.3,2.6,0.3s-2.5,0.1-2.5,0.1l1.4,1.9l3.1,2.2l-0.3,0.6l-5.9-4.3l-0.2-0.5l1.5,0.4l0-0.4l-2.2-0.6l-0.2-3.3
		l-15.9-4.3c0,0,0.3-0.8,0.4-1.3c0.1-0.5,0.3-1.1,0.3-1.1L94.6,42.9z"/>
	<path clip-path="url(#SVGID_36_)" fill="#E5E0B8" d="M80.9,36.6c0.1,0,1,0.9,1.5,1.1c0.5,0.2,0.9,0.6,1.5,0.7c0.2,0,0.5-0.1,0.6,0
		c0.2,0.1,0.1,0.3,0.3,0.4c0.9,0.4,1.3,0.3,1.8,1.3c0.9,0.1,2-0.4,2.9-0.7c0.9-0.3,1.8-0.7,2.6-1.1c1.5-0.6,3-1.3,4.5-1.8
		c-0.2,0.1-7.4,3.3-7.4,3.3l-2.8,2.2L85,40.5l-6.7-1.4l0.2-0.8l3.8,0.8l-2-2.3L80.9,36.6z"/>
	<path clip-path="url(#SVGID_36_)" fill="#E5E0B8" d="M74.2,53c0.3,0,1.6,0,2.1,0c0.5,0,3-0.2,3-0.2l1.8-0.2l9.8-10.2l-9.6,10.8
		l-7,0.5L74.2,53z"/>
</g>
<polygon fill="#E5E0B8" points="60.7,51 66,51 66.5,50.6 60.6,50.4 "/>
<g>
	<defs>
		<rect id="SVGID_37_" x="0" y="0" width="242.9" height="127.2"/>
	</defs>
	<clipPath id="SVGID_38_">
		<use xlink:href="#SVGID_37_"  overflow="visible"/>
	</clipPath>
	<path clip-path="url(#SVGID_38_)" fill="#E5E0B8" d="M57.8,56.1l3.6,1.6l7-3.6l-1.1,0L61.6,57l-9.1-3.9l0.5,0.8l4.1,1.8l-2.3,1.6
		c0,0-0.6,0.7-1.1,1.2c-0.6,0.5-3.1,2-3.1,2l-5-0.3l4.9,0.8L57.8,56.1z"/>
	<path clip-path="url(#SVGID_38_)" fill="#E5E0B8" d="M120.7,55.7c0,0,0.4-2.2-0.3-2.6l-1.8-0.5c0,0-3.7-12.7-3-13.1l3.6,10.9
		l2.2,1.6l-0.3-1.8c0,0,0.1-5.2,0.1-6.6c0.1-1.3-0.6-5-0.6-5l-6.2-1c0,0-5.3-7.7-6.4-8.7s-2.6-3.1-2.6-3.1l-1-1.8l-0.6-1.4
		c0,0-4.3-5.2-5.1-5.9s-5-5-5-5l0.8-1.1c0,0-0.3-0.9-0.1-0.9s1.1-0.6,1.1-0.4c0,0.2,0.2,1.1,0.2,1.1l0.6,0.1c0,0,1.1,1.6,1.5,2.5
		s0.8,1.6,0.8,1.6s5,6.9,5,6.9c0.1,0.1,0.8,0.4,0.9,0.6c0.6,0.5,1,1.2,1.5,1.8c0.9,1,1.4,0.9,2.7,0.9c0.1,0.7-0.3,1.3-0.2,2
		c1.4,0.6,1.1,0.8,1.7,2c0.2,0.4,0.6,0.5,0.7,0.9c0.2,0.5-0.1,0.6-0.2,1c-0.1,1,0.8,1.3,1.3,2.1c0.9,1.3,1.8,2.5,2.7,3.9l12.1,2.3
		l0.3,0.7l-3-0.7l3.1,3l0.4-0.7c0,0,1.6,2.5,2.1,3c0.5,0.4,1.5,1.3,1.5,1.3l1.4,1.7l-0.1,1.8l40,19.7l-0.9,0.9l-34.3-17.3
		c0,0,2.2,3,2.9,3.5c0.7,0.5,1.2,0.8,1.2,0.8l0.7,1.2l1.2,1.5l6.2-0.2c0,0,1.3,0.5,1.1,0.5s-3.2,0.4-3.2,0.4l12.7,9.2l-0.4,0.9
		l-14.1-10l-3.2-0.5c0,0-4.4-4.9-4.6-5.2c-0.3-0.4-2.6-3-2.6-3l-3.5-1.9h-1c0,0,1-0.3,0.8-0.6c-0.3-0.4-0.3-0.6-0.3-0.6l0.6-1.3
		l-1.3-0.7l-7-7.6l-1.8-0.3c0,0-0.4,1.9-0.2,3c0.1,1.1,0.1,12.1,0.1,12.1l2.7,3.1l-0.7,0.7l13.6,4.6l-0.6,0.8l-3.6-1.4l9.7,7l-1,0.8
		L130.1,61L120,57.6l0.2-0.9l3.1,1L120.7,55.7z"/>
	<path clip-path="url(#SVGID_38_)" fill="#E5E0B8" d="M99.8,26.4c0,0-0.3,2-0.1,3.5c0.1,1.4,0,3.8,0,3.8c0.7,0.6,4.9,1.8,4.9,1.8
		l-1.1-1.6l2.1,1.2l0.2,1.3l1.9,1.7l1.1,0.3l-1,1l-4.2-3.2l-5.2-2C98.3,34.1,99.1,27.3,99.8,26.4"/>
	<path clip-path="url(#SVGID_38_)" fill="#E5E0B8" d="M92.7,6.1c0,0,3.8,0.2,7,1.3c3.2,1.1,10,3.8,11.4,4.4c1.4,0.6,3.9,1.6,3.9,1.6
		s12.6-0.7,14.5-0.8c1.9-0.1,35.4-1.7,35.4-1.7l-0.1,0.6l-3.2,0.3l-24.9,1.3l9.8,0.5l0.1,0.6l6.9,0.9V16c0,0-21.2-2.4-23-2.5
		c-1.9-0.1-4.7,0.1-4.7,0.1l16.4,2.3l-0.3,0.8L131,15.3l12.8,4.4l22.8,1.8l-0.3,0.7L155.1,21l11.2,1.4c-0.2,0.6-15.1-1.3-15.1-1.3
		l-7.2-0.5l-2.2-0.7L135,19l-5.1-2l2.9,3.1c0,0,10.9,2.6,14,2.8c3.1,0.2,6.6,1.1,6.6,1.1l2.7-0.1c0,0-0.2,1.1-0.4,1.1
		c-0.2,0-2.7-0.1-2.7-0.1l-20.3-4l-4.7-4.5l-3.9-1.3l1.1-0.2l4.9,1.5l5.5,2.1l3.5,0.2c0,0-6.8-2.3-8.1-2.6c-1.3-0.3-1.9-0.8-1.9-0.8
		l-7.5-1.3l-7,0.4l-4.4-2.3l-1.5,0.3l-5.9-2.2V9.1l-4,0.3V8.1C99.6,7.9,97,7.4,97,7.4l-4.1-0.5L92.7,6.1z"/>
	<path clip-path="url(#SVGID_38_)" fill="#E5E0B8" d="M127.8,6.3c0,0,6.3,0.2,10.2,0.6c3.9,0.4,8.8,0.8,8.8,0.8
		c0.1-0.4,4.5-0.3,6.1-0.4c1.5-0.1,4.5-0.1,4.5-0.1l7.2-0.3l0.2,0.4c0,0-14.9,1.2-17.1,1.3l-19.1-1.5L127.8,6.3z"/>
	<path clip-path="url(#SVGID_38_)" fill="#E5E0B8" d="M120.7,8.8c0,0,5.4,1.1,6.3,1.2c0.9,0.1,1.3-0.1,1.3-0.1l-4.2-3l-0.1-1.2
		c0,0,3.8,3,4.5,3.3c0.6,0.4,1,0.5,1,0.5l2.7-0.4v0.7h-1.8l0.7,0.7l-1.3,0.4l-1.2,0.4l-8.5-1.7L120.7,8.8z"/>
</g>
<polyline fill="#E5E0B8" points="113.3,7.1 119.5,7.8 120.7,7.6 121,8.4 119.8,8.6 113.4,7.8 113.6,8.9 112.5,8.8 112.6,7.6 "/>
<polygon fill="#E5E0B8" points="112,15.5 110.9,19.6 122,26.2 122,26.8 117.3,24.1 120.7,28.2 120.4,28.7 115.8,23.3 110.4,19.8 
	111.5,15.2 "/>
<g>
	<defs>
		<rect id="SVGID_39_" x="0" y="0" width="242.9" height="127.2"/>
	</defs>
	<clipPath id="SVGID_40_">
		<use xlink:href="#SVGID_39_"  overflow="visible"/>
	</clipPath>
	<path clip-path="url(#SVGID_40_)" fill="#FFE3B2" d="M164.9,41c0.2-0.1,0.7-0.4,0.7-0.4s1.9,1.2,6.2,5.2l3.7-1.3l14.1,3.1l-0.2,0.8
		l-13.7-2.7l-1.5,0.3l-2.7,0.9l-1.1-1L164.9,41z"/>
</g>
<polygon fill="#E5E0B8" points="170.1,45.6 153.3,40.6 182.6,61.6 183.8,64.2 182.2,64.1 172.1,57.9 173.2,56.6 182.5,63.1 
	182.4,62.2 150.6,40.2 147.1,39.4 147,37.1 143.7,35.1 144.3,34.2 146.8,35.9 146.4,33 147.4,33.5 148.5,38.2 168.7,44.5 "/>
<g>
	<defs>
		<rect id="SVGID_41_" x="0" y="0" width="242.9" height="127.2"/>
	</defs>
	<clipPath id="SVGID_42_">
		<use xlink:href="#SVGID_41_"  overflow="visible"/>
	</clipPath>
	<path clip-path="url(#SVGID_42_)" fill="#E5E0B8" d="M111.8,119.6l1.7,1.9l-29.1,3.2l-1.5-0.2v-0.9c0,0-4.7-2.2-5.8-3.7
		c-1.1-1.5-5.6-8.1-5.6-8.1l0.1-4.5c0,0,0.5,3.5,2.3,6c1.9,2.5,3.8,5.7,5.6,6.9c1.8,1.2,2.6,2.3,2.6,2.3l1,0.5l0.9,0.1
		c0.6-0.5,3.9-0.5,8.2-0.8c3.4-0.2,12.9-1.2,16.9-1.8l-1.5-0.6l-0.1-1.6l-1.3,1.4c-1,0-1.1-1.6-1.1-1.6l-2.7,0.9l-4.2,0l-0.1-1.1
		l-7.4-1.6l-1.1-1.4l1-1.1l-3.2,0.2l-0.6,0.7l-1-0.3l-0.2-1l-0.6,0.6l-1.3-0.5l0.6-0.8l-1-0.6l-0.5-1.4l-3.5-1.3l2.1-0.5l1.9,1
		l0.3,1.7l1.7-0.4l-0.7,1.9l1.4-0.3l1-0.9l-0.4,1.9l5.7-1.2l-0.8,2.1l1.7,1.3l5.2,0.8l2.1-2.7l-0.8,3.7l3.1,0.3l4.1-1.9l-0.4,2.1
		l2.2-1.6l0.1,2.4l1.9-2l0.7,1l-1.7,1.5L111.8,119.6z"/>
</g>
<polygon fill="#E5E0B8" points="128.2,80.2 122.5,79.8 120.2,80.6 123.6,84.6 "/>
<g>
	<defs>
		<rect id="SVGID_43_" x="0" y="0" width="242.9" height="127.2"/>
	</defs>
	<clipPath id="SVGID_44_">
		<use xlink:href="#SVGID_43_"  overflow="visible"/>
	</clipPath>
	<path clip-path="url(#SVGID_44_)" fill="#E5E0B8" d="M138.3,101.6l8.7,3.6c0,0,1.1-0.9,1.6-1c0.5-0.1,2.3-1,2.3-1l4,1.1l1.5-1.3
		c0,0,0.5,0.5,1.7,0.6c1.2,0.1,2.4-0.1,2.4-0.1s1.2,0.4,1.7,0.8c0.5,0.5,1.9,1.6,1.9,1.6l1.6,0.4l2.6,0.7l1.8,0.5l2.1-3.5l-27.8-9.2
		l0.1-0.8l28,9.4l1.2-0.4c0,0-0.1-2.5,0-2.4c0.1,0.2,1.2,2.5,0.8,2.8c-0.4,0.2-1.9,0.6-1.9,0.6l-1.8,4.8l-6.7-2.3l-1.9,0.8l-5.4-2.5
		l-1.7,0.3l-3.9,0.1l-2.8,0.7l-1.3,1l-4.3-1.9L138.3,101.6z"/>
</g>
<polygon fill="#E5E0B8" points="87.3,68.3 93.1,73.8 113.9,75.1 97.2,72.8 113,68.6 112.8,67.9 93.8,72.9 88.2,68 "/>
<polygon fill="#E5E0B8" points="89.8,67.7 92.9,69.1 108.2,61.2 108.6,61.8 93.1,70 89,68 "/>
<polygon fill="#E5E0B8" points="86.6,96 85.2,98.5 84.3,102.5 85.6,104.1 88.2,102.7 99.9,104.4 89.4,100.6 95,101.1 87.7,98.5 "/>
<polygon fill="#E5E0B8" points="85.5,57.3 86.1,59.3 74,67.1 "/>
<g>
	<defs>
		<rect id="SVGID_45_" x="0" y="0" width="242.9" height="127.2"/>
	</defs>
	<clipPath id="SVGID_46_">
		<use xlink:href="#SVGID_45_"  overflow="visible"/>
	</clipPath>
	<path clip-path="url(#SVGID_46_)" fill="#E5E0B8" d="M176.3,47.3l-0.1,1l6.2,5l23,6.1c-0.2-0.5-22.1-6.9-22.1-6.9l-0.1-0.8
		l-1.6-0.4c0.1-0.7-1.5-0.9-1.5-0.9l-1-1.2L176.3,47.3z"/>
</g>
</svg>
