<?xml version="1.0" encoding="utf-8"?>
<!-- Generator: Adobe Illustrator 18.1.1, SVG Export Plug-In . SVG Version: 6.00 Build 0)  -->
<svg version="1.1" id="Layer_1" xmlns="http://www.w3.org/2000/svg" xmlns:xlink="http://www.w3.org/1999/xlink" x="0px" y="0px"
	 viewBox="0 0 238.9 153.2" enable-background="new 0 0 238.9 153.2" xml:space="preserve">
<g>
	<defs>
		<rect id="SVGID_1_" width="238.9" height="153.2"/>
	</defs>
	<clipPath id="SVGID_2_">
		<use xlink:href="#SVGID_1_"  overflow="visible"/>
	</clipPath>
	<path clip-path="url(#SVGID_2_)" fill="#BABDBF" d="M13.7,121.1l-9.4,1l9.9,6.1l-7.1,1.5l10.6,5.1l11,1l-1.2,4.1l19.4,1.5l3.8-6
		l1.6-0.8l7.4,9.8l73.7-2.9l24.4,11.6l33.2-5.5l-14.7-7.1l33.9,10.5c0,0,24.3-7.6,27.1-8.8l-20.8-6.4l0.2-2.2c0,0,7.5-1.4,9.1-1.7
		c1.7-0.3-0.6-1.9-0.6-1.9l13.7-5l-3.7-0.4l-20.5-5.5L13.7,121.1z"/>
	<path clip-path="url(#SVGID_2_)" fill="#466A81" d="M221.9,122.3l0.5-26.5c0,0-1.9-10.3-5.6-12c-3.7-1.7-6.3-0.7-6.3-0.7
		s1.1-2,0.4-3c-0.7-0.9-3-4.1-4.6-4.6c-1.7-0.6-6.4,0.3-6.4,0.3l-14.4-22.4c0,0,1.7-2.4,0-4.2c-1.7-1.8-5.4-3.3-5.4-3.3
		s2.1-4.4,1.5-6.2c-0.6-1.8-2.4-2.4-2.4-2.4c1.2-1.5,0-4,0-4l-4.2-1c0,0,0.1-1,1.4-1.5c1.2-0.6,1.8-2.2,0.7-3.9
		c-1.1-1.7-3.2,0.1-3.2,0.1s0.8-1.8,0.7-3.2c-0.1-1.4-3.2-0.1-5.3-0.4c-2.1-0.3-4.2-0.1-4.2-0.1s-0.1-2.2-3.3-3.6s-5.8,1.1-5.8,1.1
		s-3.6-1.1-5-1.1s-2.4,1-2.4,1s-2.4-0.4-3.7-0.3c-1.4,0.1-3.5,1.8-3.5,1.8s-4.4-5.7-5.1-6.5c-0.7-0.8-1.5-0.4-1.5-0.4l-2.4,1.7
		c0,0-1.5,0.6-2.6,0.7c-1.1,0.1-3.5,1.1-3.6,1.8c-0.1,0.7-2.9,2.6-2.9,2.6s-5.3-4.8-6.1-5.4c-0.8-0.6-2.7,1.4-2.7,1.4l-14.1-7.9
		l-2.6-0.6c0,0,0.6-1-0.3-1.5c-0.8-0.6-2-1.7-2-1.7S92.9,6.4,92.8,6c-0.2-0.4,3-2.2,1-1.9c-1.9,0.3-9.1,1-9.1,1l-2.5,2.6l-1.4-0.5
		l0.1-1.4c0,0-0.3-0.9-3.3-0.8c-3,0.1-2.3,4.1-2.3,4.1l-8.7,1v-1c0,0,1.5-0.7,1.5-1.4c0-0.6-1.7-6.6-2.2-7.2
		c-0.5-0.6-5.8-0.4-7.8-0.3c-2.3,0.2-3,3.5-2.9,4.7c0.1,1.9,0.2,2.9,0.8,3.4c0.7,0.6,0.5,2.4,0.5,2.4l-1.9,0.9c0,0-0.8-1-1.7-1.3
		c-0.9-0.3-1.4,0.8-1.4,0.8l-2.7-0.5l-11.5,3.6l0.5,1.1c0,0,1.1,0.7,1.1,1.3c0,0.6,3,1.7,3,1.7l0.5,1.2c0,0-0.7,0.7-1.3,0.9
		c-1.8,0.6-3,4.4-3,4.4s-1-1.7-1.5-2.4c-0.5-0.6-1.1-1.1-3.6-1.3s-8.7-0.5-11.5-0.1c-2.8,0.4-1.7,2-1.7,2l10.6,19l-17.4,68
		c0,0,1.9,14.9,4.7,17.2c2.8,2.2,10.5,1.7,10.5,1.7l5,3.9l22.5-3.2c0,0,5.8,1.5,8,1.6c2.2,0.1,16.3-0.1,16.3-0.1l3.9,1.4l16.5,2.2
		c0,0,22.8-4.1,26.1-4.9c3.3-0.8,31.6-6.9,31.6-6.9l25.9,8.7L221.9,122.3z"/>
	<path clip-path="url(#SVGID_2_)" fill="#37586C" d="M82.6,30.2l1.2,0.8c0,0-2.1,3.9-2.4,5.3s3.6,3,3.6,3l5.8-2.4l-1.4-4L87,31.8
		l6.1-3.6l5.8,1.7c1.7-1.8,2.9-2.7,5.3-2.9c3.3-0.3,6.5,0.8,9.8,1c1.4,0.1,3,0.2,4.4,0c0.6-0.1,1.2-0.3,1.8-0.2
		c0.7,2.4,2.8,4.2,4.3,6.1c-1.1,1.1-2.7,1.7-4.1,2.2c-0.2,1.3,0.5,1,1.4,0.7c0.9-0.3,1.1-0.5,1.9,0c0.8,0.5,2,1.8,2,2.7
		c-1.8,0-3.7,0.3-5.5,0.3c-1.3,0.1-1.6,0.1-2.2,1.3c1.6-0.4,3.1-0.5,4.6-0.6c0.9-0.1,2.4-0.5,3.2-0.3c1.5,0.4,1.3,3,1.7,4.1
		c0.4,0.1,0.9,0,1.3-0.1c0-0.5,0.1-1.1,0-1.6c-0.1-0.5-0.8-1.1-0.6-1.6c0.3-0.8,2.9-1,3.6-1.3c-0.2,1.6-1.4,2.4-0.2,3.9
		c1,1.2,1.6,1.6,2.7,2.6c1.6,1.5,3.3,3.3,4.9,4.8c0,0,2.6-0.9,3.8-0.5c1.2,0.5,8.1-11.2,8.1-11.2l-5.7-6c0,0,3.9-0.8,7.1-1.2
		c3.3-0.3,6.9,1,6.9,1l-0.3,2.2c0,0-6.4-2.8-5.8-0.3c0.6,2.5,2.5,6.9,2.5,6.9l3.9,7.2l6.2-1.9l3.7-5.3c0,0-5-1.1-5.3-3.6
		c-0.3-2.5,3.6-2.2,3.6-2.2l4.7,1.1l5-1.1l-2.8,4.7l1.7,7.2l8.3,2l-6.1,30.4c0,0,6.1,5,8.9,4.7c2.8-0.3,8-2.2,8.9-2.2
		c0.8,0,3,1.7,5.3,2.8c2.2,1.1,4.9,3.1,4.9,3.1l9.7,3.7l-1.9,16.4c0,0-35.7,5.1-46.5,8.2c-10.8,3-30.2,5.8-30.2,5.8
		s-21.6,6.6-25.5,8c-3.9,1.4-11.9,3.6-11.9,3.6l-17.7-5.3c0,0-28-9.7-32.7-13.6c-4.7-3.9-10.5-18-10.5-18L41.9,65
		c0,0-21.8-38.3-22.9-40.7c-0.6-1.2,0.8-2.5,0.8-2.5l0.5,1.6l6.3,11.2l6.2,0l-3-6.6l2.3,0.1l3.4,6.4h4.9l-5.6-11.9l1,0.2l6.4,11.7
		l7.1,3.5l10.9,3l-3.2,1.5L50,45.6c0,0,12.3-2.9,14.2-3.5c1.9-0.6,12.4-3.4,12.4-3.4s-9.4-0.5-8.3-3l-1.6-2.5l-2.5-8
		c0-4.6,0-4.1,5.2-5.2c-0.7-2.8,1.5-7.8,4.3-6.2c2,1.1,1.8,6.3,4.4,5.7c-0.2-1.5-0.6-3,1.4-3c0.8,0.9,1,2.1,0.9,3.2
		c2.1,0.2,4.6-3.1,6.2-4.1c1.9-1.1,3.1,0.9,3.1,0.9l7.3,5.6l-7.5,5.1l-9.5,0.7L82.6,30.2z"/>
	<path clip-path="url(#SVGID_2_)" fill="#274152" d="M21.5,23.3c0,0-0.3-0.8,1.3-1.1c1.6-0.3,9.3-0.4,11.3-0.1
		c2,0.3,2.3,1.5,2.3,1.5S35,22.8,30.8,23c-1.4,0.1-5.3,0.2-5.3,0.2l2,3.9l4.2-0.1l-1.5-3l0.8-0.2l1.6,3.1h4l-0.2,0.6L33,27.6l3,6.3
		l-0.6,0L32,27.7l-4.1,0.1l3.1,6.4l-0.7,0l-3.2-6.4l-3.5,0.2l-0.6-0.8l3.6-0.1l-1.9-3.9L21.5,23.3z"/>
	<path clip-path="url(#SVGID_2_)" fill="#274152" d="M56,8.2c0.3,0,2.9-0.1,3.6-0.2C60.4,7.9,61,8.4,62,8.5c0.9,0.1,2.5,0,2.5,0
		s1.3-0.9,1.5-1.6c0.2-0.6-1.4-6.6-1.4-6.6s0.9-1,1.7,0.9c0.6,1.4,1.9,6.1,1.9,6.5c0,0.8-1.6,1.3-1.6,1.3l0.1,1.1L62,10.6
		c0,0,0.2-1.3-0.5-1.4c-0.7-0.1-2,0-2,0l-1,1.8l-1.8,0c0,0,0.2-1.8-0.1-2.1C56.2,8.6,56,8.2,56,8.2"/>
	<path clip-path="url(#SVGID_2_)" fill="#274152" d="M37.5,14.7l13.7,4.1l9.2-4.9c0,0,0.8,0.8-0.1,1.3c-0.8,0.5-7.3,4-7.3,4l1.1,0.6
		l5.9-3.4c0,0-0.3,1.3,0.6,1.4c0.8,0.1,1.7,0.1,1.7,0.1s-3,4.6-3.2,4.6s-0.7-0.6-0.7-0.6s0.8-2,0.3-2.1c-0.6-0.1-1.1,0.8-1.1,0.8
		l-1.1,2.2c-1.1-0.3-1.2-2.1-1.6-2.1s-1.6,0.3-1.6,0.3l0.6,1.8l-1.4-1.1l-0.9,0.6l0.8,1.8c0,0-1.7,0.7-3,1.1
		c-1.3,0.4-1.9,0.6-2.1,0.2l-0.2-0.5l-1,0.3L46,26.4l-2.2-0.9l7-3.8c0,0,3.4-1.3,2.8-1.7c-0.6-0.4-2.6-0.3-2.6-0.3l-3.3,1.5
		c0,0,1-1.4,0.4-1.6c-0.6-0.2-2.2-0.6-2.2-0.6l0.7-0.7c0,0-1.2-1.2-2.3-0.9c-1.1,0.3-2.5,1.2-2.5,1.2L38.7,17L38.5,16l-0.8-0.6
		L37.5,14.7z"/>
	<path clip-path="url(#SVGID_2_)" fill="#274152" d="M43.9,34.9l-2.4-4.2c0,0,1.7,2.7,4.4,0.6c1.1-0.8,3.9-1.5,3.9-1.5
		s3-0.8,3.7-0.4s0.7,1.8,0.7,1.8l4.6,3c0,0-7.4,0.6-8.1,1.2c-0.6,0.6-3.6,6.9-3.6,6.9L43.9,34.9z"/>
	<path clip-path="url(#SVGID_2_)" fill="#274152" d="M62.6,34.8l0.3-10.2l6.4-0.3L69,33l1.6,1.9c0,0-3,2.5-3.6,2.8
		C66.3,38,62.6,34.8,62.6,34.8"/>
	<path clip-path="url(#SVGID_2_)" fill="#274152" d="M70.1,24.9c0,0,1.8-2.5,2.6-2.3c0.7,0.2,2.3,1.8,2.3,1.8s1.4,0.6,1.8,0.4
		c0.5-0.3,0.3-1.4,0.3-1.4h1.7l0.3,1.2l6.6,0.3l-0.3,1L78,25.5l-0.2,1.1l-2.6-0.1L75,27.5c0,0-1.5,0.1-2.8,1.4
		c-1.3,1.3-0.8,2.2-0.8,2.2h-1.6L70.1,24.9z"/>
	<path clip-path="url(#SVGID_2_)" fill="#274152" d="M80.5,10.1L93,8.9l1.8-3.4c0,0,3.1,2.5,3.4,2.9c0.3,0.5-1.2,1.8-1.2,1.8
		l-8.4,5.2c0,0-1.3-1-1.8-0.8c-0.5,0.2-5.5,5.6-5.5,5.6l-0.3-1.9c0,0,2.4-2.9,2.8-3.6c0.4-0.7,0.2-2.5,0.2-2.5l-3.5,0.4L80.5,10.1z"
		/>
</g>
<polygon fill="#274152" points="100.6,12.9 100.7,14.6 103.5,16.5 105,16.7 100.2,20.2 97.9,19 100.8,16 95.4,17.7 "/>
<g>
	<defs>
		<rect id="SVGID_3_" width="238.9" height="153.2"/>
	</defs>
	<clipPath id="SVGID_4_">
		<use xlink:href="#SVGID_3_"  overflow="visible"/>
	</clipPath>
	<path clip-path="url(#SVGID_4_)" fill="#274152" d="M111.5,22.4l3-2.3c0,0,1.6-2.2,2.1-2.1c0.6,0.1,7,6.1,7,6.1l-3.8,3.3v0.7l6-4
		c0,0,1.6-1.3,2.3-0.5c0.7,0.8,5.6,6.9,5.6,6.9l-6.1,4.4l-1.6-1.9l5.6-3.3l-0.8-1l-5.2,3.3l-0.5-0.6l4.9-3.1c0,0-0.1-0.6-0.6-0.5
		c-0.5,0.2-3.6,2.3-3.6,2.3l-0.4-0.6l3.6-2.5l-0.8-0.8l-3.9,2.9l-0.6-0.6l4.1-2.8c0,0-0.6-1.5-1.2-1.3c-0.6,0.2-5.4,3.8-5.4,3.8
		l8.4,11.9l-1.1,0.3l-5.3-7.6l-0.7,2.4l-4.2-7.9l-10,1.6l-5-1.9L111.5,22.4z"/>
	<path clip-path="url(#SVGID_4_)" fill="#274152" d="M92.3,19.9l4.4,2.4l-0.6,0.9l2.3-0.1l2.8,1.8L99.5,27c0,0-1.1,0-2.5,0.1
		c-1.4,0.1-2,0.2-2,0.2l2.2,1.1l-1.5,0.3c0,0-2-1.3-3.6-1.3c-1.6,0-3.5-0.1-3.5-0.1l1-1.4c0,0,1,0.1,2.3-0.4c1.3-0.6,2.8-2,2.9-2.7
		C94.8,22.1,92.3,19.9,92.3,19.9"/>
</g>
<polygon fill="#274152" points="134.8,29.7 128.9,22.6 135.4,16.8 140.9,23.5 140.1,23.7 135.3,17.7 129.9,22.5 133.8,27.1 
	138.2,23 138.9,23.8 134.5,27.7 135.5,29.2 "/>
<g>
	<defs>
		<rect id="SVGID_5_" width="238.9" height="153.2"/>
	</defs>
	<clipPath id="SVGID_6_">
		<use xlink:href="#SVGID_5_"  overflow="visible"/>
	</clipPath>
	<path clip-path="url(#SVGID_6_)" fill="#274152" d="M128.6,35.4l5.4-4l1,3l1.3-0.9c0,0-1.3-2-0.7-2.6c0.6-0.6,6-5.7,6-5.7
		s0.8,0.5,0.7,1.1c-0.1,0.6-3,2.4-3,2.4l0.3,1.8c-1.1,0.1-0.9-1.5-0.9-1.5l-1,0.6l0.2,3.4c0,0-1.3,0.8-2.6,2
		c-1.4,1.2-3.3,5.1-3.3,5.1L128.6,35.4z"/>
	<path clip-path="url(#SVGID_6_)" fill="#274152" d="M144.2,31.1c0.1,0.2,3.7,4.1,3.7,4.1s1-2,2.1-2.2c1.1-0.1,2.8-0.9,2.8-0.9
		l3.3,0.1l-1.6-1.9c0,0,2-0.3,2.6-0.7c0.6-0.4,0.8-1.2,0.8-1.2l-1.7,0.3c0,0,0,0.6-1.2,0.8c-1.2,0.2-6-0.6-6-0.6l-0.3,1l3.6,0.1
		c0,0-0.7,0.8-1.8,1c-1.1,0.2-2.7,0.7-2.7,0.7l-0.8,0.5l-1.9-1.7L144.2,31.1z"/>
	<path clip-path="url(#SVGID_6_)" fill="#274152" d="M132.1,42.2c0,0,3.6-4,4.3-3.5c0.7,0.6,7.8,8.4,7.8,8.4s-2,2.2-2.6,2.5
		c-0.6,0.3-1.3-0.6-1.3-0.6l2.2-2.1l-1.2-1.4l-2.3,2l-0.9-0.8l2.6-1.9l-1-0.8l-2.6,1.7l-1-0.8l2.8-1.8l-1.1-1.1l-2.7,1.7l-1.2-1
		l2.8-2l-1-1c0,0-3.1,2.2-3,2.7c0.1,0.5,6,5.7,6,5.7h-1C137.9,48.2,132.3,42.7,132.1,42.2"/>
</g>
<polygon fill="#274152" points="142.8,32.5 141.7,34 142.9,35.1 144.1,33.7 "/>
<polygon fill="#274152" points="144.8,34.2 143.7,35.7 144.9,36.8 146.1,35.5 "/>
<g>
	<defs>
		<rect id="SVGID_7_" width="238.9" height="153.2"/>
	</defs>
	<clipPath id="SVGID_8_">
		<use xlink:href="#SVGID_7_"  overflow="visible"/>
	</clipPath>
	<path clip-path="url(#SVGID_8_)" fill="#274152" d="M144.9,44.8l3.3-4.4l0.8,0.9c0,0-1.3,2.5-2.2,3.7l-0.9,1.2L144.9,44.8z"/>
</g>
<polygon fill="#274152" points="133.9,45.7 137.7,49.1 135.4,51.9 133.3,49.2 "/>
<g>
	<defs>
		<rect id="SVGID_9_" width="238.9" height="153.2"/>
	</defs>
	<clipPath id="SVGID_10_">
		<use xlink:href="#SVGID_9_"  overflow="visible"/>
	</clipPath>
	<path clip-path="url(#SVGID_10_)" fill="#274152" d="M135.9,54c0,0,3.4-3.7,4.8-3.4s1.9,0.5,1.8,2.2c-0.2,1.8-0.9,3.1-0.9,3.1
		L135.9,54z"/>
	<path clip-path="url(#SVGID_10_)" fill="#274152" d="M143.1,50.4l1.6,1.8l3.4-0.5c0,0,0.1-3.1,0.6-3.8c0.6-0.6,1.7-1.6,1.7-1.6
		l-0.2-0.6c-1.1,0.1-1.4-2.3-1.4-2.3S145,49.5,143.1,50.4"/>
	<path clip-path="url(#SVGID_10_)" fill="#274152" d="M156.5,33.3l5.4-0.1c0,0,0.6,2.2-0.3,2.9s-1.9,1-1.9,1s-0.7-2.1-2.1-2.5
		c-1.4-0.4-3.6-0.4-3.6-0.4L156.5,33.3z"/>
	<path clip-path="url(#SVGID_10_)" fill="#274152" d="M162,27.8l2.6,1.8v1.8l1.5-1.4l0.1,1.9l-1.8,0.7l-1.1-1.5
		c-1.4,0.6-1.1,1.5-1.1,1.5l-3.3-0.6c0,0,2.5-1.1,3.2-1.8C162.8,29.6,162,27.8,162,27.8"/>
	<path clip-path="url(#SVGID_10_)" fill="#274152" d="M170.1,49l3.2-4.8c0,0,0.2,1.1,0.7,2.9c0.5,1.7,1.8-3.1,1.8-3.1
		s2.7,6.2,1.3,6.9c-1.4,0.7-5.9,2.6-5.9,2.6L170.1,49z"/>
	<path clip-path="url(#SVGID_10_)" fill="#274152" d="M166,36c0,0,1.1,1.7,2.9,2.2c1.8,0.6,5.5-0.1,5.5-0.1s2.6,0.3,3.3-0.8
		c0.7-1.1,0.8-3.5,0.8-3.5l-2.8,0.3c0,0-0.8,1.9-1.8,2.2C173.1,36.5,166,36,166,36"/>
	<path clip-path="url(#SVGID_10_)" fill="#274152" d="M164.1,36.4c0,0,1.2,1.9,2.9,2.4c1.7,0.4,3.2,1.5,3.2,1.5l1.8,1.7
		c0,0-2.6,2.6-3.1,3.7l-0.6,1.1l-2.2,0.6c0,0-1,1.4-2.8,2.6c-1.8,1.2-4.4,0.3-4.4,0.3s0.3-1.8,2.6-2.4c2.4-0.6,3.5-0.8,3.5-0.8
		l-0.6-1.7c0,0,2.4-1.7,2.1-3.3c-0.3-1.7-4.7-1.9-4.7-1.9l-1.7-1.9C160.1,38.2,164,38,164.1,36.4"/>
	<path clip-path="url(#SVGID_10_)" fill="#274152" d="M126.3,44l2.2,0.7l0.1,1.5h1.9l-0.8-1.9c0,0,1.9-0.3,2.4,0.7
		c0.4,1,0.7,3.5,0.3,4c-0.4,0.6-1.8,0.6-1.8,0.6l-2.8-1.5L126.3,44z"/>
	<path clip-path="url(#SVGID_10_)" fill="#274152" d="M149.6,57.6c0,0-0.6-3.2,0.1-2.8c0.7,0.4,1.8,1.2,1.8,1.2l-0.7-1.7
		c0,0,2.6-2.5,3.7-2.4c1.1,0.1,1.9,1.4,1.9,1.4s-0.7,1.5-1.8,1.8c-1.1,0.3-2.4,0.7-2.4,0.7s1,1.1,1.2,2.2c0.3,1.1,0,2.2,0,2.2
		L149.6,57.6z"/>
	<path clip-path="url(#SVGID_10_)" fill="#274152" d="M153.4,35.1l4.3,9c0,0-1.1-0.8-2.8-1.2c-1.7-0.4-5.1-0.7-5.1-0.7
		s0.6-1.4,1.8-1.4c1.2,0,2.5,0.6,2.5,0.6l2.8,1.1C156.9,42.5,151.4,36.4,153.4,35.1"/>
	<path clip-path="url(#SVGID_10_)" fill="#274152" d="M155.5,22.7c0,0,3.5,0.3,4,0.7c0.6,0.4,0.3-0.8,0.3-0.8l-2.9-1.5
		c0,0,1.8-1.4,3.9-0.8c2.1,0.6,3.5,2.4,3.5,2.4l0.1,1.8l-3.5,0.6l-3.1,0.6c0,0-0.5-1.8-1.5-1.8c-1,0-7.5,2.5-7.5,2.5L155.5,22.7z"/>
</g>
<polygon fill="#274152" points="146.8,35.9 145.4,37.3 146.7,38.4 147.9,36.9 "/>
<g>
	<defs>
		<rect id="SVGID_11_" width="238.9" height="153.2"/>
	</defs>
	<clipPath id="SVGID_12_">
		<use xlink:href="#SVGID_11_"  overflow="visible"/>
	</clipPath>
	<path clip-path="url(#SVGID_12_)" fill="#274152" d="M200.9,76.8c0,0,4.1-1,4.9-0.8c0.8,0.2,0.5,1.8,0.5,1.8l0.3,2.1l1.6,0.6
		c0,0-0.8-2.4-0.1-2.4c0.7,0,2.8,2.7,2.8,2.7s-0.5,0.8-1.6,1.2c-1.1,0.4-3.9,0.2-3.9,0.2s-2.3,1-1.1,1.6c1.2,0.6,4.8,0.5,4.8,0.5
		s1,1.1,0.3,2.1c-0.7,1-3.9,0.9-3.9,0.9s-4.4-3.2-5-3.7C200.1,83,200.9,76.8,200.9,76.8"/>
</g>
<polygon fill="#274152" points="210.7,87.1 207,88.9 216.4,92.4 219.3,90.5 "/>
<g>
	<defs>
		<rect id="SVGID_13_" width="238.9" height="153.2"/>
	</defs>
	<clipPath id="SVGID_14_">
		<use xlink:href="#SVGID_13_"  overflow="visible"/>
	</clipPath>
	<path clip-path="url(#SVGID_14_)" fill="#274152" d="M210.3,83.4l8.8,3.1c0,0-1.8-2.9-4.8-3.3C213.3,83.1,210.3,83.4,210.3,83.4"/>
</g>
<polygon fill="#4F8394" points="216.4,92.4 219.1,90.5 219.1,99.3 216.3,97.1 "/>
<g>
	<defs>
		<rect id="SVGID_15_" width="238.9" height="153.2"/>
	</defs>
	<clipPath id="SVGID_16_">
		<use xlink:href="#SVGID_15_"  overflow="visible"/>
	</clipPath>
	<path clip-path="url(#SVGID_16_)" fill="#274152" d="M80.1,62l6.2-6.2l4.6,5c5.8-1.7-0.5-26,2-24.3c2.5,1.7,8-7.8,8-7.8l20.7,27.1
		l6.6,0.8l2.5,2.9l-11.9,8c0,0-1.6,2,1.3,3.3c2.9,1.2,14.6-10.1,14.6-10.1s5.5,20.4,4.3,20.8c-1.2,0.4-13.7,36.1-13.7,36.1l-31.1-10
		l-0.4-19.9l8.3,10.4l1.7-4.6c0,0-7.1-6.6-9.5-7.9c-2.5-1.2-12.9-11.2-12.9-11.2L80.1,62z"/>
	<path clip-path="url(#SVGID_16_)" fill="#4F8394" d="M37.6,14.4c0,0,12.8,3.9,13.5,4c0.8,0.1,9.2-4.6,9.2-4.6l-11.6-3.1L37.6,14.4z
		"/>
</g>
<polygon fill="#4F8394" points="62.9,10.4 63.2,17.7 67,17.2 66.5,12.7 64.1,12.6 63.9,11.6 74.8,10.5 75.9,16 75.5,9.1 "/>
<g>
	<defs>
		<rect id="SVGID_17_" width="238.9" height="153.2"/>
	</defs>
	<clipPath id="SVGID_18_">
		<use xlink:href="#SVGID_17_"  overflow="visible"/>
	</clipPath>
	<path clip-path="url(#SVGID_18_)" fill="#4F8394" d="M42.5,19.7c0,0-0.3,2.3,0.1,3c0.4,0.7,0.7,1.2,0.7,1.2l7.6-3.7
		c0,0,0.7,0.7,0.2,1.3c-0.6,0.6-7.2,4.2-7.2,4.2l1,2l-3.5,3l-3.7-6.4C37.7,24.2,40.7,19.2,42.5,19.7"/>
	<path clip-path="url(#SVGID_18_)" fill="#4F8394" d="M49,38.5c0,0,3.5-5.6,4.5-5.5c1,0.1,10.2,2.9,10.2,2.9L60,41.2
		C60,41.2,50.2,39.3,49,38.5"/>
	<path clip-path="url(#SVGID_18_)" fill="#4F8394" d="M59.7,32.9c-0.3-0.1-0.4-0.3-0.9-0.7c-0.8-0.7-1.8-1.3-0.5-2
		c0.4-0.2,2.1-0.3,2.3-0.8c0.2-0.7-0.6-0.8-1-0.8c-0.7,0.1-1.8,1.2-2.3,1c-0.2,0-0.7-1.1-0.7-1.2c0.2-0.5,2.1-1.2,2.5-1.4
		c0.7-0.4,2.4-0.9,2.7-1.6c0.2-0.4,0-1.1,0.1-1.6c-0.8,0.8-2.1,1.3-3.1,1.8c-0.6,0.3-1.3,0.6-1.7,1.1c-0.2,0.2-0.4,0.7-0.6,0.9
		c-0.3,0.2-1.2,0.5-1.6,0.2c-0.7-0.4-0.4-1.7-0.6-2.3c-0.2-0.4-0.5-0.8-0.7-1.1c-0.5-0.8-1-1.7-1.6-2.5c0,0,0.4-0.5,1.1,0.4
		c0.7,0.8,1.9,2.7,1.9,2.7s1.6-0.5,2.7-1.3c1.1-0.7,2.2-1.7,2.2-1.7s1.4-3.5,2.4-3.6c1-0.1,2,0.3,2.3,1c0.3,0.7,1.1,4.9,1.1,4.9
		l-2.4,0.1c0,0-0.8,8.6-0.8,8.6c0,0-1.8-0.1-1.9-0.1C60.1,33.1,59.9,33,59.7,32.9"/>
	<path clip-path="url(#SVGID_18_)" fill="#4F8394" d="M76.8,33c-0.4,0.1-0.8,0.1-1.3,0.1c0-0.9-0.7-2.2-0.5-3.1c0.3-1,2.5-1,3.3-1.4
		c-0.5-0.3-1-0.4-1.6-0.3c-0.8,0.1-2.5,0.1-2.8,0.8c-0.3,0.7-0.1,2.6,0.1,3.4c-0.4,0-0.7,0-1.1-0.1c-0.1-0.5-0.1-1.1-0.1-1.6
		c-1.3-0.2-0.2,1.5-1.4,1.2c-0.7-0.2-1-0.6-1.8-0.6c0-0.2,0-0.4,0-0.7c0-0.1,1.2-0.1,1.3-0.2c0.5-0.2,0.6-0.5,0.8-1
		c0.4-1,1.3-2,2.4-2.1c1.4-0.1,14.1-0.4,14.1-0.4l0.1,1.2c-1.9,0.1-3.9,0.3-5.8,0.6c-1.3,0.2-4.8-0.1-5.1,1.6
		c-0.2,0.9,0.4,1.6,0.4,2.4C77.6,32.9,77.2,32.9,76.8,33"/>
	<path clip-path="url(#SVGID_18_)" fill="#4F8394" d="M83.1,24.5c-0.4,0-3.2-2.2-2.6-3.7c0.6-1.5,6.6-6.2,6.6-6.2s1.2,0.1,1.6,0.9
		c0.4,0.8-2.2,0.5-2.2,0.5s-4.3,3.5-4.7,4.6c-0.4,1.1,1,2.4,1,2.4l3.7,1.6L83.1,24.5z"/>
	<path clip-path="url(#SVGID_18_)" fill="#4F8394" d="M88.7,17.7l1.2-1.2c1.4,0.6,2.1,0.9,2.1,0.9l7-6.1l-1.8-0.7
		c0.7-0.8,3.3-0.4,3.3-0.4l14.4,7.6l-1,1.8l-6-3.5l-0.6,0.6l6,3.6l-5.2,3.6l-7.1-3.3l6.5-4.9l-7-3.4l-6.9,5.8l12.6,6.7l-1.8,0.9
		L88.7,17.7z"/>
</g>
<polygon fill="#4F8394" points="84.7,5.1 80.3,10.1 93.1,9.1 97.3,3.7 "/>
<g>
	<defs>
		<rect id="SVGID_19_" width="238.9" height="153.2"/>
	</defs>
	<clipPath id="SVGID_20_">
		<use xlink:href="#SVGID_19_"  overflow="visible"/>
	</clipPath>
	<path clip-path="url(#SVGID_20_)" fill="#4F8394" d="M49.4,45.8c0.4-0.1,13.6-3.7,13.6-3.7s0.7-1.4,2.1-1.7
		c1.4-0.3,3.2-0.7,3.2-0.7l6.6-3.6l2.6,2.9c0,0-2.1,0.7-2.9,0.4c-1.8-0.6-5.4,1.8-7.3,2.5c-1.9,0.7-3.7,0.8-3.7,0.8l-14.1,3.7V45.8z
		"/>
	<path clip-path="url(#SVGID_20_)" fill="#4F8394" d="M81.2,37.6l0.6-4.3c2.2-1.2,2.1-2.4,2.1-2.4l1.8,0.3l10.2-6.8
		c0,0,0.7,0.8-0.6,1.7C94.1,27,87,31.8,87,31.8s0.4,1.1,1.1,1.2c0.7,0.1,2.1,0.1,2.2,1c0.1,0.8,0.6,2.9,0.6,2.9L81.2,37.6z"/>
	<path clip-path="url(#SVGID_20_)" fill="#4F8394" d="M64.9,31.8l4.8,4.3c0,0,2.9-1.8,3.9-1.8c1,0,1.2,0.8,1.2,0.8l-8,4.3l-1-0.4
		l2.2-1.7c0,0-3.6-2.9-4-3.7C63.6,32.8,64.9,31.8,64.9,31.8"/>
	<path clip-path="url(#SVGID_20_)" fill="#4F8394" d="M148.6,53.4c0,0,0.6-4.8,1-5.5c0.4-0.7,4.7-3.2,4.7-3.2l4.7,2.1l0.8,2.5
		l-1.7,0.4l-0.8,3.7c0,0-2.2-2.5-3.4-2.2c-0.8,0.2-2,1-3.2,1.9c-0.6,0.5,0.5,2.7,0.5,2.7L148.6,53.4z"/>
	<path clip-path="url(#SVGID_20_)" fill="#4F8394" d="M159.8,54c0,0,6-4.4,7.3-4.3c1.4,0.1,2.5,1.7,2.5,1.7s0.1-3.3,0.6-2.9
		c0.4,0.4,1,5,1,5L159.8,54z"/>
	<path clip-path="url(#SVGID_20_)" fill="#4F8394" d="M168.9,54.6l15.4-4.1c0,0-8.2-2.3-6.8-2.8c1.4-0.6,2.4-2,2.4-2
		s3.1,0.9,5.5,2.4c2.4,1.5,0.9,3.1,0.6,3.9c-0.3,0.8-1.4,3.1-1.4,3.1L168.9,54.6z"/>
	<path clip-path="url(#SVGID_20_)" fill="#4F8394" d="M165.1,35.1c0,0,1-1.1,1.7-2.1s-0.6-3-0.6-3s1.4-2.2,3.5-2.6
		c2.1-0.4,4,0.4,4,0.4l1.9-0.6c0,0,0.4,1.9-0.7,2.6c-1.1,0.7-2.1,1-2.1,1l1.1,1.2l1.5,1.2l-1,2.1L165.1,35.1z"/>
	<path clip-path="url(#SVGID_20_)" fill="#4F8394" d="M150.4,27.8c-0.4,0.1-1.5-1.5-1.5-1.5s6.9-2.4,7.3-2.4c0.4,0,1.7,1.7,1.7,1.7
		c-1.2,1.8-2.2,0.1-2.2,0.1l0.8,2.2L150.4,27.8z"/>
	<path clip-path="url(#SVGID_20_)" fill="#4F8394" d="M141.5,30.5c-1.1,0.4-6.6,4.6-7,5.2s-2.8,4.9-2.8,4.9l5.5-3.7
		c0,0,1.5-2.5,2.7-3.7c1.4-1.4,1.6-1.9,2.8-1.6c1.2,0.3,6.8,6.9,6.8,6.9h0.8l-6.5-7.2C144,31.3,142.6,30.2,141.5,30.5"/>
	<path clip-path="url(#SVGID_20_)" fill="#4F8394" d="M123,21.7l1.8-0.7l3-3c0,0,3.7-0.8,4.2-1c0.5-0.2,2.9-1.3,2.9-1.3l0.7,0.6
		l-6.6,6.1l-7.2,4.4l3.1-3.4L123,21.7z"/>
	<path clip-path="url(#SVGID_20_)" fill="#4F8394" d="M143.2,20.9c0,0,2.5-0.9,3.4-1c0.9-0.1,2.2,0.7,2.2,0.7l-1.6,3l-2.9,0.6
		l2.7,4.1l-1.9,0.7c0,0-2.2-4.2-2.8-4.4c-0.6-0.1-1.8,0.5-1.8,0.5l-4.5,2.9l5.6-5.9L143.2,20.9z"/>
	<path clip-path="url(#SVGID_20_)" fill="#37586C" d="M0.7,121.2c0,0-1.3-2.7-0.5-3.5c0.8-0.8,2.2-1.8,2.2-1.8s0.5-3.3,1.7-3.9
		c1.2-0.6,1.8-0.6,1.8-0.6s1.5-2.3,2.4-2.7c0.9-0.4,1.6-0.1,1.6-0.1s1.7-1.9,2.6-2c0.9-0.1,2,0.4,2,0.4l0.7,1c0,0,0.6,0.7,1,1.3
		c0.3,0.6,6.1,0.3,6.1,0.3s-0.4-3-0.2-3.4c0.2-0.4,1.4-1.6,1.4-1.6s4.4,0.2,5.1,0.7c0.6,0.5,1.6,1.9,1.6,1.9l-2.9,1.6l0.5,21.6
		c0,0-8.7,0.6-13.4,0.9S3.2,129,0.7,121.2"/>
	<path clip-path="url(#SVGID_20_)" fill="#274152" d="M2.3,122c0,0,1.4,0.4,3.1,0.8c1.6,0.4,8,2.6,8.9,2.4c0.9-0.2,0.9-1.4,1.4-1.7
		c0.5-0.3,3.1-0.6,3.1-0.6l-0.6-0.6l-1.4-0.4l0.3-1.4c0,0,1.4,0.2,2-0.2c0.6-0.4,1.3-1.2,1.3-1.2L18,118l5.9,2.4l-2.9-2.7l-0.6-1.6
		c0,0-4.7-1-5.1-1.3c-0.3-0.2-2.7-0.1-2.7-0.1l-1.8-1c0,0-0.8-2.9-0.2-2.7c0.6,0.2,1.1,1.8,1.1,1.8l1.6-0.2l0.2,0.7l2.2-2.6l6.3-0.4
		l0.8,8.5c0,0,1.3,0.1,1.3-0.2c0-0.2-1.3-2.1-1.2-2.7c0.1-0.6,0-4.2,0-4.2l-0.8-5.9c0,0,1.6-1.7,1.7-1.3c0.1,0.4,6-0.2,6-0.2
		l3.7,5.1l-4.6,7.9l-3.9,0.7l3.4,0.2l0.3,1.4l-3.5-0.2c0,0-0.1,0.5,0,0.7c0.1,0.2,3.3,0.5,3.3,0.5s0.6,0.9-0.1,2.6
		c-0.6,1.7-3.2,4.6-4.2,5c-1,0.4-2.7,0.8-3.3,1.1c-0.6,0.3-0.6,0.8-0.4,0.7c0.2-0.1,3.2-0.6,3.8-0.9c0.6-0.3,4.7-2.4,4.7-2.4
		s1.9,2.8,1.9,3.6c0,0.8-3.7,0.8-5,1.4c-1.3,0.6-12,0.3-14-0.3c-2-0.6-8.8-2.4-10.1-7.8l7.3,5.6c0,0-8.4-7.6-8.4-8.4
		c0-0.9-0.1-1.9-0.1-1.9S1.5,121.7,2.3,122"/>
	<path clip-path="url(#SVGID_20_)" fill="#4F8394" d="M7.6,111.4c0,0-0.7,1.9-0.2,2.2c0.5,0.2,1.2,0.5,1.2,0.5l-1.6,0.3
		c0,0,2.2,1.3,2.7,1.4c0.4,0.2,1.6,2.5,1.6,2.5l2.2-0.3c0,0-1.1-2.5-0.6-2.2c0.5,0.2,1.6,1.4,1.6,1.4l1.8-0.4l-0.1-1l2.7,1.5
		c0,0-1.1,0.7-2.1,0.9s-2.2,0.7-2.2,0.7l0.8,1.2l1.6-0.8c0,0-1.1,1.8-2.1,1.4c-1-0.3-3.5-1.2-3.5-1.2l0.6,1l3.9,0.6
		c0,0-1.5,1.4-3.1,0.8c-1.5-0.6-5.3-3.8-5.3-3.8l1.4,0.4l-2.5-2.1c0,0-1.5,0.1-2.2-0.5c-0.6-0.6-0.5-2.7-0.2-3.3
		c0.3-0.6,2.2-0.9,2.2-0.9l1-1.6L7.6,111.4z"/>
	<path clip-path="url(#SVGID_20_)" fill="#466A81" d="M2.1,118.1c0,0,0.8,1,1.6,1.2c0.8,0.3,5.5,1.9,5.5,1.9l2.4,1.6l2.8,0.4
		c0,0,0.3,1-0.4,0.6s-4.1-1.3-4.1-1.3l-2.2-1.1l0.9,1.6c0,0,4,0.6,4.5,1c0.4,0.5,0.9,1,1.1,0.7c0.2-0.3,0.7-1.1,1.5-1.3
		c0.8-0.3,2-0.9,2-0.9l-2-0.8c0,0-2.9,0.7-3.6,0.2c-0.7-0.5-5-3.9-5-3.9S4.4,117,3.9,117c-0.5,0-0.8,0.2-0.8,0.2l3,2.1
		c0,0-1.6-0.1-2-0.4C3.7,118.5,2.1,118.1,2.1,118.1"/>
	<path clip-path="url(#SVGID_20_)" fill="#9F6729" d="M13.1,87.5l2-45.2l-1.5-3.9c0,0-0.3-2.5,1.3-3c1.6-0.6,30.9-1,30.9-1
		s0.7,0.3,1.4,1.9c0.7,1.6,1.6,5.8,1.6,5.8s0.2,1.3-0.4,1.3l-4.9,59.9L13.1,87.5z"/>
	<path clip-path="url(#SVGID_20_)" fill="#34140F" d="M15.6,42.6c0,0-1.2-3.7-1.1-4.7s0.8-1.6,2.5-1.6c1.6-0.1,22-0.8,24.6-0.7
		c2.6,0.1,4.3,0.2,4.7,0.7c0.4,0.5,2,6.3,2,6.3l-0.4,0.7L15.6,42.6z"/>
</g>
<polygon fill="#522313" points="13.8,87.1 15.5,42.3 17.1,42.2 14.8,87 "/>
<polygon fill="#C77D32" points="17.1,42.2 22.8,42.3 22.5,46.2 23.6,46.2 21.4,86.1 15.2,86.7 "/>
<polygon fill="#825A39" points="24.5,47 45,46.3 41.6,90.8 21.9,92.2 "/>
<polygon fill="#522313" points="23.3,42.5 45.5,42.1 45.5,45.5 23.1,45.9 "/>
<polygon fill="#745339" points="45.5,39.7 45.5,47.5 46.6,47.3 46.5,39.7 "/>
<polygon fill="#C77D32" points="46.5,39.7 47.9,43.1 47.5,47.1 46.3,47.2 "/>
<polygon fill="#825A39" points="29.3,106.3 32.5,48.8 31,48.7 31,47.3 66.7,46.7 66.8,49.5 66.1,49.8 63.8,112.7 "/>
<polygon fill="#9C835E" points="31.5,72.4 33.3,49.6 63.5,49 64,47.9 32.4,48.3 30.4,73.6 "/>
<polygon fill="#D5AC81" points="33.7,60.2 63.8,60.2 64.3,55.9 65.2,55.9 64.9,64.6 64,64.5 63.2,61.7 33.3,61.7 "/>
<polygon fill="#38211A" points="61.4,52.2 63.7,57.8 63.9,56.2 65,55.9 63.7,52.3 "/>
<polygon fill="#7E4B21" points="33.8,63.4 33.3,61.7 63.4,61.8 63.4,63.5 "/>
<polygon fill="#7E4B21" points="33.9,49.5 63.3,49.3 63.1,50.5 61.1,50.7 61.4,52.2 35.2,52.6 "/>
<polygon fill="#D5AC81" points="32.2,71.2 33.5,56.2 33.9,59 33.3,70.9 "/>
<polygon fill="#D5AC81" points="31.7,51.7 33.6,51.7 33.4,53.2 31.5,53.2 "/>
<polygon fill="#38211A" points="33.4,53.2 35.4,58.3 33.8,58.2 33.4,56.8 32.7,56.8 31.5,53.2 "/>
<polygon fill="#66411A" points="33.5,105.1 27.3,108.2 28.1,132.4 29.6,133.5 29.6,135.7 45.7,136.9 55.6,133.1 54.1,106 "/>
<polygon fill="#9F6729" points="27.7,112.3 27.8,132.4 28.9,132.6 28.9,135.9 45.7,136.9 45.3,134.1 30.2,133.2 29.9,131.6 
	45.2,132.5 45,110.5 32.9,109.8 "/>
<polygon fill="#522313" points="50.7,106.8 50.8,130.9 45.9,133.1 45.9,134.1 50.8,132.2 50.8,134.8 61.6,131.8 53.8,106.4 "/>
<g>
	<defs>
		<rect id="SVGID_21_" width="238.9" height="153.2"/>
	</defs>
	<clipPath id="SVGID_22_">
		<use xlink:href="#SVGID_21_"  overflow="visible"/>
	</clipPath>
	<path clip-path="url(#SVGID_22_)" fill="#BF9C4F" d="M6.5,90.4l3,18.1l0.4,0c0,0,2.3-2.1,3.1-2.1c0.8,0,3.4,1.5,3.4,1.5l2.3,0.1
		l3.8,2.1l-0.4-3.9L19,87L6.5,90.4z"/>
	<path clip-path="url(#SVGID_22_)" fill="#875F29" d="M19,87l8.3,0.6l0.8,14.3l-0.6,2.7l-3.8,0l-1.3,1.2l0.7,4c0,0-4.6,0.2-6.6-1
		c-1.9-1.2-3.4-2.1-3.4-2.1l7.7-6.7L19,87z"/>
</g>
<polygon fill="#3C2613" points="27.2,87.6 30.4,101.4 27,104.3 23.1,104.2 20.6,87 19,87 6.5,90.4 5.5,90.3 5.2,89.5 19.5,85.1 
	27.7,86.7 "/>
<polygon fill="#838082" points="51.4,77.6 43.5,80.4 43.8,81.6 51.2,78.8 "/>
<polygon fill="#9F6729" points="88.3,68 93.4,59.2 90,56.4 86.9,58.6 81.7,67.2 "/>
<polygon fill="#372A21" points="65.5,64.8 94.5,66 94.5,67.3 95.9,67.3 95.5,81.7 64,80.5 "/>
<g>
	<defs>
		<rect id="SVGID_23_" width="238.9" height="153.2"/>
	</defs>
	<clipPath id="SVGID_24_">
		<use xlink:href="#SVGID_23_"  overflow="visible"/>
	</clipPath>
	<path clip-path="url(#SVGID_24_)" fill="#43535D" d="M54.3,81.6l0.8-16.1c0,0,1.7-1,3.4-1.3c1.8-0.3,7.3,0.3,8.7,1.6l-0.8,14.4
		l-9.3,0.3L54.3,81.6z"/>
</g>
<polygon fill="#3A4348" points="55.4,66 57.5,65.5 56.9,79.6 54.6,79.9 "/>
<polygon fill="#3A4348" points="62.3,64.9 61.7,78.6 62.8,78.7 63.6,65 "/>
<polygon fill="#909CB0" points="68.5,65.9 93.7,67 93.8,67.6 95.3,67.6 94.9,80.6 67.8,79.5 "/>
<polygon fill="#875F29" points="45.7,98.9 46.5,80.8 59.4,80.1 59.7,79.2 61.4,79.3 59.9,97.3 "/>
<polygon fill="#CBBD9E" points="60.6,79.3 95.7,79.9 95.3,98.1 60,98.3 "/>
<polygon fill="#F7F4D2" points="61.2,79.7 62.2,79.7 61.6,95.4 61.1,95.6 60.8,95.2 "/>
<polygon fill="#F7F4D2" points="94.8,81.8 94.2,95.5 94.7,95.9 95.1,95.7 95.5,81.7 "/>
<polygon fill="#8C7055" points="66.1,87.8 69.9,87.9 69.9,87.2 66.2,87.1 "/>
<polygon fill="#8C7055" points="66.2,89.7 70,89.8 70,89.1 66.3,89 "/>
<polygon fill="#8C7055" points="66.1,91.6 69.9,91.7 69.9,91 66.1,90.9 "/>
<polygon fill="#8C7055" points="66.2,93.5 70,93.6 70,92.9 66.2,92.8 "/>
<polygon fill="#8C7055" points="71.5,88 75.2,88 75.2,87.4 71.5,87.2 "/>
<polygon fill="#8C7055" points="71.5,89.8 75.3,89.9 75.3,89.2 71.6,89.1 "/>
<polygon fill="#8C7055" points="71.4,91.8 75.2,91.8 75.2,91.2 71.5,91 "/>
<polygon fill="#8C7055" points="71.5,93.7 75.3,93.7 75.3,93.1 71.5,92.9 "/>
<polygon fill="#8C7055" points="81.3,88.5 85.1,88.6 85.1,87.9 81.4,87.8 "/>
<polygon fill="#8C7055" points="81.4,90.4 85.2,90.4 85.2,89.8 81.5,89.7 "/>
<polygon fill="#8C7055" points="81.3,92.3 85.1,92.4 85.1,91.7 81.3,91.6 "/>
<polygon fill="#8C7055" points="81.4,94.2 85.2,94.3 85.2,93.6 81.4,93.5 "/>
<polygon fill="#8C7055" points="86.5,88.6 90.3,88.7 90.3,88 86.5,87.9 "/>
<polygon fill="#8C7055" points="86.6,90.5 90.4,90.5 90.4,89.9 86.6,89.8 "/>
<polygon fill="#8C7055" points="86.4,92.4 90.2,92.5 90.2,91.8 86.5,91.7 "/>
<polygon fill="#8C7055" points="86.5,94.3 90.3,94.4 90.3,93.7 86.6,93.6 "/>
<polygon fill="#D5AC81" points="31,47.3 31,48.2 64.2,48.1 66.7,46.7 "/>
<polygon fill="#D5AC81" points="61.2,50.4 61.4,52.5 63.6,52.5 63.7,50.4 "/>
<polygon fill="#9F6729" points="74.7,46.5 80.6,39.7 91.2,37.3 94.8,31.9 96.1,32.3 100.9,26 102,25.6 95,37.7 100,42.4 91.4,46.3 
	83.1,44.8 79.3,45.9 78.3,47.3 74.8,48.1 75.1,46.9 "/>
<polygon fill="#522313" points="75.8,45.9 83.2,43.6 83,45 75.5,46.8 75.1,46.6 "/>
<polygon fill="#522313" points="79.3,41.1 89.7,39 90.7,39.5 96.3,32.1 94.9,31.8 91.2,37.3 80.6,39.7 "/>
<polygon fill="#522313" points="93.2,38.3 101.9,25.5 102.5,26 95.1,37.7 99.9,42.1 98.4,42.3 "/>
<g>
	<defs>
		<rect id="SVGID_25_" width="238.9" height="153.2"/>
	</defs>
	<clipPath id="SVGID_26_">
		<use xlink:href="#SVGID_25_"  overflow="visible"/>
	</clipPath>
	<path clip-path="url(#SVGID_26_)" fill="#BD9775" d="M63.2,46.3c0,0,3.8-5,4.5-4.9c0.7,0.1,10.6,0.8,10.6,0.8s4.2,5.3,4.5,6.2
		c0.3,0.9-1.2,6.8-1.2,6.8s-9.8-0.5-11.9-2C67.7,51.6,63.2,46.3,63.2,46.3"/>
</g>
<polygon fill="#9D7D5F" points="74,48.2 72,51.9 81.8,52.8 82.5,48.7 "/>
<polygon fill="#CAA771" points="67.3,53.1 70.4,53.6 69.9,65.2 66.4,64.7 "/>
<polygon fill="#9D7D5F" points="74.4,54.1 82.9,54.1 82.6,65.5 73.8,65.1 "/>
<g>
	<defs>
		<rect id="SVGID_27_" width="238.9" height="153.2"/>
	</defs>
	<clipPath id="SVGID_28_">
		<use xlink:href="#SVGID_27_"  overflow="visible"/>
	</clipPath>
	<path clip-path="url(#SVGID_28_)" fill="#C77D32" d="M74.2,54.2c0,0-7-0.7-7.4-0.8c-0.4-0.1-1.2-1.4,0.8-1.2c2,0.2,6.7,0.9,6.7,0.9
		l9.2,0.1c0,0,7.6,1,7.6,1.3c0,0.4-5.1,0.4-5.1,0.4L82.8,54L74.2,54.2z"/>
	<path clip-path="url(#SVGID_28_)" fill="#82624B" d="M68.4,42.2c0,0,5.5,4.5,5.3,5.8c-0.1,0.4-2.6,4-2.6,4l-6.3-6.7
		C64.8,45.3,67.5,41.6,68.4,42.2"/>
</g>
<polygon fill="#8C7055" points="73.1,42.4 75.2,45.5 77.1,45.5 75,42.5 "/>
<polygon fill="#8C7055" points="76.5,43.6 78,45.9 78.6,45.7 77.2,43.6 "/>
<polygon fill="#8C7055" points="77.4,42.7 79.6,45.5 80.2,45.4 78,42.7 "/>
<g>
	<defs>
		<rect id="SVGID_29_" width="238.9" height="153.2"/>
	</defs>
	<clipPath id="SVGID_30_">
		<use xlink:href="#SVGID_29_"  overflow="visible"/>
	</clipPath>
	<path clip-path="url(#SVGID_30_)" fill="#274152" d="M106.5,47.2c0,0,8.7-3.4,10.8-2.6c2.1,0.8,4.4,5.4,5.4,7.8s1.2,3.2,0.9,4.6
		s-11,3-11,3L106.5,47.2z"/>
	<path clip-path="url(#SVGID_30_)" fill="#434E4B" d="M79.4,52.6l5-13.1c0,0,4-1.1,5-1c1,0.1,7.1,4.4,7.1,4.4l-1.6,6.9
		c0,0,9.7-6.1,10.4-5.7c0.7,0.4,6.2,10,6.2,10l0.3,3.1l-13.6,6.7l-5.7-5.9l-4,0.4L79.4,52.6z"/>
	<path clip-path="url(#SVGID_30_)" fill="#697674" d="M89,40l6.8,4.2l-4.7,12.2L84,51.9C84,51.9,86.6,44,89,40"/>
	<path clip-path="url(#SVGID_30_)" fill="#242926" d="M111.2,43.7c0,0-16.2,7.6-16.9,8.1c-0.7,0.5-1.8,1.7-1.4,2.7s4.1,8.2,4.7,8.2
		c0.6,0,12.5-7.1,12.5-7.1l0.6,1l-13.2,6.9c0,0-2.8-2.8-4.2-4.9c-1.4-2.1-3-5.6-2.4-6.1c0.6-0.5,15.8-9.2,15.8-9.2L111.2,43.7z"/>
	<path clip-path="url(#SVGID_30_)" fill="#2A2E2E" d="M79.9,52.5l0.4-0.1l4.3-10.3l-3.9,10.2l0.6-0.2l4.5-10.6l-3.9,10.4l0.6-0.2
		l4.2-10.6l0.8-0.9L83,51.7L93.3,58l-4.7,0.3C88.6,58.3,80.5,53.1,79.9,52.5"/>
	<path clip-path="url(#SVGID_30_)" fill="#587D50" d="M114.1,58.1c0,0-14.6,2.7-17.3,3.1c-2.8,0.4-3.6,3.7-3.6,3.7s3,9.5,3.8,11.9
		c0.8,2.4,1.4,4.1,2.2,4.1c0.8,0,21.4-5.7,22.3-6.7C122.4,73.2,114.1,58.1,114.1,58.1"/>
	<path clip-path="url(#SVGID_30_)" fill="#6C9461" d="M94,64.5L99.3,80l1.7-2.4l-5.2-15.9C95.8,61.7,94,63.6,94,64.5"/>
	<path clip-path="url(#SVGID_30_)" fill="#416A3C" d="M99.2,81c0,0-0.9-2.1,0-2.9c0.9-0.8,21.2-7.5,21.2-7.5l1.4,4.1L99.2,81z"/>
</g>
<polygon fill="#522313" points="114.5,54.9 96.3,58.2 96.4,61.3 94.7,61.8 94.4,58.6 93.9,58.3 93.4,55.8 115.7,51.4 116,46.5 
	117.9,46.1 125.2,65.6 124.3,72.6 102.7,77.3 102.2,86.9 100.4,88 100.7,77.6 100.1,77.4 99.3,75.5 122.6,70.3 123,66.3 117.6,52.4 
	117.7,54.5 "/>
<polygon fill="#9F6729" points="93.8,55.8 94.2,57.3 111.7,54.1 115.6,51.5 "/>
<polygon fill="#9F6729" points="116.1,46.5 123.6,65.7 124.9,65.4 117.8,46.1 "/>
<polygon fill="#9F6729" points="100,75.3 100.7,76.7 122.9,72.1 118.7,71.3 "/>
<g>
	<defs>
		<rect id="SVGID_31_" width="238.9" height="153.2"/>
	</defs>
	<clipPath id="SVGID_32_">
		<use xlink:href="#SVGID_31_"  overflow="visible"/>
	</clipPath>
	<path clip-path="url(#SVGID_32_)" fill="#416A3C" d="M120.2,70.5c0,0-3.5-0.8-4.5-3.7c-1-3-2.8-7.2-2.8-7.7
		c-0.1-0.5,0.9-5.7,2.3-6.2c1.4-0.5,2.5-0.7,2.5-0.7l3.2,8.1c0,0-0.6,1-1,1.2c-0.4,0.2-1.2,1.3-1.2,1.3S121.2,69.6,120.2,70.5"/>
	<path clip-path="url(#SVGID_32_)" fill="#6C9461" d="M115.5,53.3l2.7,7.4l2.8-0.6l-3.2-7.9C117.9,52.2,115.5,52.4,115.5,53.3"/>
	<path clip-path="url(#SVGID_32_)" fill="#5F7450" d="M118.7,62.3c0,0-0.7-0.3-0.8,0.4c-0.1,0.8-0.5,4.7-0.5,5.2
		c0,0.5,2.4,2.2,2.8,2.6c0.5,0.3,0.1-2.4,0-3.1S118.7,62.3,118.7,62.3"/>
	<path clip-path="url(#SVGID_32_)" fill="#2F4B29" d="M121.4,60.3c0,0-4,0.6-4.2,1.4c-0.2,0.8-0.9,4.4-1,5.2c-0.1,0.8,0.3,1.6,0.6,2
		s3.4,1.7,3.4,1.7s-0.3-0.6-0.4-0.8c-0.1-0.2-2.4-1.9-2.4-1.9l0.6-5.5C117.9,62.3,121.4,61.3,121.4,60.3"/>
</g>
<polygon fill="#B2DBF5" points="100.3,134.7 91.3,97.1 117.1,96.2 128.8,132.7 "/>
<polygon fill="#418AA1" points="101.4,133 93.3,98.4 116.3,97.8 127.7,131.1 "/>
<polygon fill="#B2DBF5" points="99.3,124.2 93.3,98.4 101.3,98.2 95.5,107.5 96.4,111.2 103,98.1 105.5,98.1 97.2,114.6 98,118.1 
	107.8,98.1 112.1,97.9 "/>
<g>
	<defs>
		<rect id="SVGID_33_" width="238.9" height="153.2"/>
	</defs>
	<clipPath id="SVGID_34_">
		<use xlink:href="#SVGID_33_"  overflow="visible"/>
	</clipPath>
	<path clip-path="url(#SVGID_34_)" fill="#909CB0" d="M122.6,105.8c0,0-14.6,8.3-14.6,9c0,0.6,0.3,2.3,1.4,3.7
		c1.1,1.4,6.1,7.8,6.8,9.2c0.7,1.5,2.5,5,2.9,5.4c0.5,0.4,5.3-3,5.3-3L122.6,105.8z"/>
	<path clip-path="url(#SVGID_34_)" fill="#43535D" d="M123.9,128.1c0,0-1.7,2.5-3.7,2.1c-0.5-0.1-2.2-3.3-3.8-5.8
		c-1.6-2.5-4.5-6.1-5.5-7.1c-1-1-1.1-1.8-0.5-2.5c0.6-0.6,11.7-6.6,11.7-6.6L123.9,128.1z"/>
	<path clip-path="url(#SVGID_34_)" fill="#3A4348" d="M122.7,107.8c0,0-8.2,4.5-8.3,5c-0.2,0.4-0.4,1.1-0.4,1.1s-2.2,1.6-2.8,1.4
		c-0.6-0.2-0.7,0.5-0.7,0.5l0.1,0.7c0,0,3.6-0.5,4-0.3c0.4,0.2,2.6,0.3,4,0.8c1.4,0.6,2.7,1.5,2.7,1.8c0,0.3-1.2,0.8-1.2,0.8
		s-0.2,0.3,0.4,1.3c0.7,1,1.5,1.4,1.5,1.4s0.4,1.7,0.4,2.9c-0.1,1.2,2.2,2.2,2.2,2.2L122.7,107.8z"/>
	<path clip-path="url(#SVGID_34_)" fill="#37586C" d="M118.9,135.1c0,0-4.4,0.9-5.8,1c0,0-2,1.3-3.8,1.1c-1.8-0.2-3.9-1-3.8-2.4
		c0-0.6,1.2-1,1.2-1l1.5,0c0,0,0.9-1.4,2.7-1.3c1.8,0.1,6-0.2,7,0.7c-0.1,0.4,0.5,0.4,0.8,0.7C119,134.4,118.9,135.1,118.9,135.1"/>
	<path clip-path="url(#SVGID_34_)" fill="#274152" d="M105.5,134.8c0-0.4,0.5-0.8,1.2-1c0.7-0.1,1.4,0,1.4,0s0.5-0.6,0.8-0.5
		c0.1,0,1.8,1.7,1.8,1.7s-2.8-1.5-2.4-0.7c0.6,1.2,1.9,1.1,3.1,1.2c0.5,0.1,1.7,0.5,1.7,0.5s-1.2,1-2.5,1c-1.3,0,0.6-0.6-0.6-1.1
		c-1.2-0.6-3.4-0.1-3,0.7C107,136.6,105.5,135.9,105.5,134.8"/>
	<path clip-path="url(#SVGID_34_)" fill="#466A81" d="M108.8,133.3c0,0,0.6-0.8,1.6-0.7c1,0.1,0.5,0.3,1.3,0.5
		c0.8,0.2,3.7,0.1,3.7,0.1s2.7-0.3,2.6,0.2c-0.1,0.6-2.5,0.3-2.5,0.3s-2.3-0.1-3.3-0.1s-1.8-1.1-1.7-0.6c0.1,0.5,1.4,1.9,1.9,2.1
		c0.5,0.2,2.1,0,2.1,0s-0.4,0.6-1.6,0.6C111.6,135.8,108.8,133.7,108.8,133.3"/>
</g>
<polygon fill="#9F6729" points="101.4,87.2 131.7,68.4 132.9,69.9 117.5,80.1 122.6,87.5 121.1,90.5 115.6,81.5 102.8,89.2 "/>
<polygon fill="#522313" points="112.9,107.1 122.2,101.3 121.7,104.4 114,108.3 "/>
<g>
	<defs>
		<rect id="SVGID_35_" width="238.9" height="153.2"/>
	</defs>
	<clipPath id="SVGID_36_">
		<use xlink:href="#SVGID_35_"  overflow="visible"/>
	</clipPath>
	<path clip-path="url(#SVGID_36_)" fill="#34140F" d="M99.5,86.2c0,0,1.1-1.7,1.7-0.8c0.6,0.8,13.5,22.6,13.5,22.6l3-1.6l-13.6-23.6
		c0,0,1.1-1.4,1.8-0.4c0.6,1,13.7,22.6,13.7,22.6l2.4-1.5l-0.7-8.3c0,0-8.7-15.6-9.3-16.6c-0.6-1,1-2,1.8-0.4c0.7,1.7,7.3,11,7.3,11
		l1.3,16.7l-8.1,4.9L99.5,86.2z"/>
</g>
<polygon fill="#34140F" points="114.8,79.4 114.8,78 136.3,63.9 137.8,65.7 "/>
<g>
	<defs>
		<rect id="SVGID_37_" width="238.9" height="153.2"/>
	</defs>
	<clipPath id="SVGID_38_">
		<use xlink:href="#SVGID_37_"  overflow="visible"/>
	</clipPath>
	<path clip-path="url(#SVGID_38_)" fill="#9F6729" d="M134.6,64.8l-7.3-7.9l-7.6,6.9l-0.9-1l0-1c0,0,10.2-9.6,10.6-9.8
		c0.5-0.3,2.2,0.5,1.5,1.5c-0.7,1-1.7,1.7-1.7,1.7l7.5,8.6L134.6,64.8z"/>
	<path clip-path="url(#SVGID_38_)" fill="#522313" d="M119.7,63.8l-0.2-0.9c0,0,9.2-8.9,9.8-9.4c0.8-0.7,1.3-0.5,1.4-0.9
		c0.1-0.3,0.4,0.3,0.1,0.8c-0.3,0.5-1.7,1.7-1.7,1.7l-0.4,0l-1.2,1.2l7.3,8.2l-0.3,0.4l-7.3-7.9L119.7,63.8z"/>
</g>
<polygon fill="#66411A" points="128.2,49.5 158.2,63 158.3,69.6 143.8,71 129,55.5 "/>
<polygon fill="#9F6729" points="129,49 158.2,62.2 158.2,63.9 128.1,49.6 "/>
<g>
	<defs>
		<rect id="SVGID_39_" width="238.9" height="153.2"/>
	</defs>
	<clipPath id="SVGID_40_">
		<use xlink:href="#SVGID_39_"  overflow="visible"/>
	</clipPath>
	<path clip-path="url(#SVGID_40_)" fill="#BF9978" d="M132.7,59.8c0,0,9.1-3,9.5-3c0.4,0,2.8,0,3.9,0.8c1.1,0.8,1.7,2.3,1.7,2.3
		l2,11.1l-9.9,2.8l-5-1.2L132.7,59.8z"/>
</g>
<polygon fill="#82624B" points="132.7,59.9 138.7,62.4 140.1,74 134.7,72.3 "/>
<polygon fill="#9D7D5F" points="138.7,62.4 147.7,59.9 149.7,71.5 139.9,72.7 "/>
<g>
	<defs>
		<rect id="SVGID_41_" width="238.9" height="153.2"/>
	</defs>
	<clipPath id="SVGID_42_">
		<use xlink:href="#SVGID_41_"  overflow="visible"/>
	</clipPath>
	<path clip-path="url(#SVGID_42_)" fill="#9F6729" d="M101.7,26.2l13.4-2.8l0.5,0.1l0,0.9l-7.5,2.1l3.7,0.4l13.1-1.9l0.2,1.3
		l-8.7,3.2l0.5,12.4l9.8-0.4v1l-10.3,1.8c0,0-8.1,3.8-11.7,4.5c-3.6,0.6-7.6,0.2-8.5-0.4c-0.8-0.6-2-2.3-1.8-3.3
		c0.1-0.6,7-3.2,7-3.2l3.5,0.5l-5.2,2c0,0,3.3,0.6,4.2,2l7-2.6l3.1-0.9l1.8-0.8l-0.4-12.4l-1.7,0.6l0.2,12.4l-3,0.8l-0.2-14.3
		l-9.3-1.2L101.7,26.2z"/>
</g>
<polygon fill="#522313" points="102.9,41.8 98.2,43.7 99.6,44.3 104.7,42.2 "/>
<g>
	<defs>
		<rect id="SVGID_43_" width="238.9" height="153.2"/>
	</defs>
	<clipPath id="SVGID_44_">
		<use xlink:href="#SVGID_43_"  overflow="visible"/>
	</clipPath>
	<path clip-path="url(#SVGID_44_)" fill="#587D50" d="M101.3,27.8c0,0,9.1,0.9,9.4,1.5c0.3,0.6,0.8,14.3,0.8,14.3s-3.5,0.4-4.6,0
		c-1.1-0.4-6.1-1.7-6.6-2.6C99.9,40.2,99.3,28.8,101.3,27.8"/>
	<path clip-path="url(#SVGID_44_)" fill="#416A3C" d="M110.7,29.3c0,0-3.4,2.2-3.4,4.1c0,1.9-0.3,8.9,0.2,9.6c0.5,0.6,4,0.2,4,0.2
		L110.7,29.3z"/>
</g>
<polygon fill="#82624B" points="27.5,93.9 27.2,104.2 32.8,109.8 52,108 51.8,96.9 32.9,98.1 "/>
<polygon fill="#9D7D5F" points="32.9,98.1 33,101.5 52.6,100.1 52.6,97.1 "/>
<polygon fill="#9D7D5F" points="33.1,103 33,106.2 52.5,104.6 52.6,101.3 "/>
<polygon fill="#9D7D5F" points="33.2,106.6 33.1,109.6 52.5,108.1 52.5,105.1 "/>
<polygon fill="#372A21" points="27.3,98.3 32.6,102.5 33,101.5 35.6,101.3 35.6,102.2 42.3,101.5 44.3,100.6 50.2,100.2 50.2,101.5 
	33.9,102.9 34.2,101.9 33.4,101.9 33.4,103 33.1,103 33,105.9 51.8,104.3 51.8,104.9 33.2,106.6 27.2,101.5 27.2,100.8 31.8,104.3 
	32.4,103.4 27.3,99.2 "/>
<polygon fill="#C4AC95" points="52.4,96.6 50.3,86.9 32.9,92.8 33.2,97.5 "/>
<polygon fill="#DBBA94" points="32.2,87 27.7,89.1 32.6,93 50.5,86.9 49.7,86.3 36.8,89.3 "/>
<polygon fill="#957E74" points="27.7,89.1 28.5,94.1 33.2,97.4 32.8,92.8 "/>
<g>
	<defs>
		<rect id="SVGID_45_" width="238.9" height="153.2"/>
	</defs>
	<clipPath id="SVGID_46_">
		<use xlink:href="#SVGID_45_"  overflow="visible"/>
	</clipPath>
	<path clip-path="url(#SVGID_46_)" fill="#372A21" d="M48.7,94.1c0,0.6-0.5,1-1.1,1c-0.6,0-1.1-0.5-1.1-1s0.5-1,1.1-1
		C48.2,93.1,48.7,93.5,48.7,94.1"/>
</g>
<polygon fill="#F2E5B5" points="222.3,98.7 210.5,96.2 202.7,103.5 215.2,106.8 "/>
<g>
	<defs>
		<rect id="SVGID_47_" width="238.9" height="153.2"/>
	</defs>
	<clipPath id="SVGID_48_">
		<use xlink:href="#SVGID_47_"  overflow="visible"/>
	</clipPath>
	<path clip-path="url(#SVGID_48_)" fill="#F7F4D2" d="M136.2,136.4l-12-4.1l-4-55.4l-3.4,0l0-1.4l2.5-0.4l11.1-0.8l0.4-1.2l18.8-3
		l8.7-1.5l-0.1-10l-0.6-0.1l-0.6-2.7l21.4-2.5l22.7,1.8l0.2,2.1l-1.5,0.3l0.1,31c0,0,1.9,0.1,2.4,1c0,0,2.8-0.4,3.3,0
		c0.6,0.4,4.7,4.8,4.7,4.8s2.4,3.1,2.2,3.5l11.1,1.2l7.9,13.6l-10.5,5.3l-12.5-3.2l-0.8-1.4l-3,1.2c0,0,0.1,2.4-0.8,3
		c-1,0.7-3.9-0.3-3.9-0.3v10l-21.1,3.9l-14.9-4.5l0.4,6.2L136.2,136.4z"/>
	<path clip-path="url(#SVGID_48_)" fill="#E4D9BB" d="M179.5,115l19.4-3l-0.2-13.1l-15.3,2.1l1.9,6.3c0,0-0.5,2.1-0.6,1.8
		c-0.1-0.3-1.3-5.8-1.3-5.8l0.6,7.5l-4.6,0.8L179.5,115z"/>
	<path clip-path="url(#SVGID_48_)" fill="#DBDCD9" d="M199.9,87.5l2.5,1.6c0,0,0.8-2.2,3.5,0.2c2.7,2.4,4.8,5.5,4.8,5.5l2.5,2.9
		l-5.4,15.3l-3.2,1.4c0,0-0.1,3.8-2.6,3.6c-2.6-0.1-2.1-0.9-2.1-0.9L199.9,87.5z"/>
	<path clip-path="url(#SVGID_48_)" fill="#ACACAC" d="M200,118.1c0,0,2.7,0.4,4-0.7c0.9-0.7,0.4-2.9,0.7-3c0.6-0.4,4.3-1.5,4.3-1.5
		l-5.8-8.3L200,118.1z"/>
</g>
<polygon fill="#CBBD9E" points="120.2,76.9 131.7,77.6 136,136.4 124.2,132.3 "/>
<polygon fill="#CBBD9E" points="159.9,58 177.1,59.4 178.4,131.1 164,126.6 160.2,74.9 161.7,74.8 161.6,73.8 158.6,73.3 
	158.6,71.8 161.7,71.5 161.8,69.4 158.3,68.6 158.1,57.7 "/>
<polygon fill="#B0997D" points="167.7,127.2 163.9,125.7 160.2,75.1 "/>
<g>
	<defs>
		<rect id="SVGID_49_" width="238.9" height="153.2"/>
	</defs>
	<clipPath id="SVGID_50_">
		<use xlink:href="#SVGID_49_"  overflow="visible"/>
	</clipPath>
	<path clip-path="url(#SVGID_50_)" fill="#8C7055" d="M180.7,71.4c0,0-0.3-2.8-0.2-4.7c0.1-1.4,0.4-1.9,0.8-2
		c1-0.2,14.2-1.5,14.2-1.5s1.2-0.2,1.2,2.4c0,2.6,0,4.1,0,4.1L180.7,71.4z"/>
</g>
<polygon fill="#CBBD9E" points="179.5,114.9 181.8,114.7 181.8,113 183.3,112.8 183.3,114.4 195,112.6 195,110.9 196.6,110.6 
	196.6,112.3 199,112 198.7,125.7 180,129.5 "/>
<polygon fill="#CBBD9E" points="137.9,123.5 160.1,120.4 161.2,132 138.7,134.8 "/>
<g>
	<defs>
		<rect id="SVGID_51_" width="238.9" height="153.2"/>
	</defs>
	<clipPath id="SVGID_52_">
		<use xlink:href="#SVGID_51_"  overflow="visible"/>
	</clipPath>
	<path clip-path="url(#SVGID_52_)" fill="#CBBD9E" d="M135.4,80.2l21.7-1.7l1,11.8l-6.9,0.6c0,0,0.5,4.1,0,4.9
		c-0.5,0.8-2.1,1.1-2.1,1.1l-1.7-0.1c0,0-0.5-1.1,0.3-1.1c0.8,0,2,0.2,2.2-0.2c0.3-0.4-0.1-4.4-0.1-4.4l-8.5,0.7l0.3,7.5l0.6,0.4
		v1.4l-1.8,0.1l-0.3-1.6l0.6-0.3l-0.5-7.4l-4.1,0.2L135.4,80.2z"/>
</g>
<polygon fill="#8C7055" points="136.3,92.1 140.4,91.9 140,90.3 136.1,90 135.8,87.8 146.4,88.9 149.9,81.5 157.1,78.5 135.4,80.2 
	"/>
<polygon fill="#274152" points="145.8,80.9 146.4,88.9 143.5,89.1 143.7,89.8 149.5,89.6 149.8,91 141.4,91.8 140.8,89.6 
	136.1,89.2 135.6,81.4 "/>
<polygon fill="#957E74" points="203.4,104.7 215.2,106.8 220.9,117.3 208.5,114.6 "/>
<polygon fill="#C4AC95" points="223.7,98.9 215.2,106.8 220.7,117 231.7,112.9 "/>
<polygon fill="#DBBA94" points="223.7,98.9 215.2,106.8 203.2,104.7 212.4,96.6 "/>
<g>
	<defs>
		<rect id="SVGID_53_" width="238.9" height="153.2"/>
	</defs>
	<clipPath id="SVGID_54_">
		<use xlink:href="#SVGID_53_"  overflow="visible"/>
	</clipPath>
	<path clip-path="url(#SVGID_54_)" fill="#FAF7F5" d="M199.9,95.1c0,0,2.4,2.4,3.3,2.8c0.8,0.4,5.9-1.1,5.9-1.1s1-0.6,1.1-1.4
		c0.1-0.8-4.9-5.9-4.9-5.9s-0.6-0.8-1.8-0.5c-0.3,0.1-0.7,1.2-0.7,1.2l4.1,5c0,0-2,0.6-2.7,0c-0.6-0.6-3.6-3.7-3.6-3.7l0-0.5
		c0,0,0.3,0.5,1.2-0.2c0.8-0.7,0.1-1.3-0.7-2c-0.8-0.7-1.1-0.3-1.1-0.3L199.9,95.1z"/>
	<path clip-path="url(#SVGID_54_)" fill="#274152" d="M199.9,118.1h2.1l1.4,1.3l0.3,1.6l3.2,0.5c0,0,0.4-0.4,0.6-0.1
		c0.2,0.3,0.9,1.2,1.1,2.3c0.1,1.2,0,2,0,2l-3.8,0.7l-4.8,0.9L199.9,118.1z"/>
</g>
<polygon fill="#9D7D5F" points="207.7,113.2 205.4,114.4 208.5,125.9 222.8,130.5 234.6,126.6 233.3,112.6 230.9,111.6 231.6,112.7 
	220.1,117.1 208.8,114.8 "/>
<polygon fill="#82624B" points="207.8,113.1 205.2,114.2 206.6,125.6 222.6,130.5 220.6,117.4 208.7,114.6 "/>
<g>
	<defs>
		<rect id="SVGID_55_" width="238.9" height="153.2"/>
	</defs>
	<clipPath id="SVGID_56_">
		<use xlink:href="#SVGID_55_"  overflow="visible"/>
	</clipPath>
	<path clip-path="url(#SVGID_56_)" fill="#372A21" d="M217.5,121.4c0.1,0.6-0.1,1.1-0.5,1.2c-0.4,0.1-0.8-0.4-0.9-1
		c-0.1-0.6,0.1-1.1,0.5-1.2C217,120.3,217.4,120.8,217.5,121.4"/>
	<path clip-path="url(#SVGID_56_)" fill="#372A21" d="M209.5,120c0.1,0.4,0.1,0.7-0.1,0.8c-0.2,0.1-0.4-0.2-0.5-0.6
		c-0.1-0.4-0.1-0.7,0.1-0.8C209.1,119.3,209.4,119.6,209.5,120"/>
	<path clip-path="url(#SVGID_56_)" fill="#372A21" d="M226.3,124.7c0,0.5-0.4,0.9-1,0.9c-0.6,0-1-0.4-1-0.9c0-0.5,0.4-0.9,1-0.9
		C225.8,123.7,226.3,124.2,226.3,124.7"/>
	<path clip-path="url(#SVGID_56_)" fill="#372A21" d="M226.6,119.6c0.2,0.6,1.4,0.2,2.9-0.3c1.5-0.5,2.2-0.5,1.9-1.6
		c-0.3-1.1-1.4-0.3-2.7,0.1C227,118.4,226.3,118.7,226.6,119.6"/>
</g>
<polygon fill="#B0997D" points="196.9,112.4 190.8,121.2 198.5,123 198.4,125.1 180,128.9 179.5,114.9 "/>
<g>
	<defs>
		<rect id="SVGID_57_" width="238.9" height="153.2"/>
	</defs>
	<clipPath id="SVGID_58_">
		<use xlink:href="#SVGID_57_"  overflow="visible"/>
	</clipPath>
	<path clip-path="url(#SVGID_58_)" fill="#8C7055" d="M179.9,123.3l11-2l-2.4,1.1l8.5,1.7l-10.1,2.1c0,0,0.2-1-0.8-1.3
		c-1-0.3-2.5,0.1-2.5,0.1l0.2,1.9l-3.9,0.8L179.9,123.3z"/>
</g>
<polygon fill="#B0997D" points="187.2,59.4 187.2,60.8 191.7,60.3 191.7,58.9 "/>
<polygon fill="#B0997D" points="187.2,61.8 187.2,63.2 191.7,62.6 191.7,61.3 "/>
<polygon fill="#B0997D" points="157,55.6 179.7,56.9 179.6,59.6 158.7,57.9 158.1,58.5 157.1,58.4 "/>
<polygon fill="#CBBD9E" points="179.6,56.9 201.1,55.1 201.3,57.2 179.6,59.6 "/>
<polygon fill="#B0997D" points="138.5,131.6 158.3,128.9 161.1,130.8 160.1,120.4 137.9,123.5 "/>
<polygon fill="#8C7055" points="138.4,131.5 157,128.7 159.9,120.4 161.1,130.8 154.6,130.1 153.2,130.3 156.2,131.6 138.6,133.8 
	"/>
<polygon fill="#A38C6F" points="131.1,73.1 137.6,73.1 158.6,72.1 158.6,73.2 133.9,75.9 134.1,78 116.8,77 116.8,75.5 124.5,76 
	127.5,75.5 129.9,75.6 130.9,75.4 "/>
<polygon fill="#C2A378" points="137.9,72.9 161.8,69.3 161.8,71.6 138.1,75.6 "/>
<polygon fill="#F2E5B5" points="134,75.9 158.9,73.2 161.9,73.7 161.8,74.9 134.1,78 "/>
<polygon fill="#372A21" points="28.2,77.3 43.2,71 51.5,74 55.1,82.6 37.1,90.8 29.3,83.7 "/>
<polygon fill="#9D7D5F" points="34,80.9 35.1,84 53,77.1 51.9,73.8 "/>
<polygon fill="#9D7D5F" points="35.3,85 53.7,77.8 54.5,80.3 36,87.2 "/>
<polygon fill="#9D7D5F" points="36.3,87.6 37.1,90.8 55.5,84 54.6,81.2 "/>
<polygon fill="#CAA771" points="28.2,77.6 34,80.9 51.5,74 50.4,73.6 34,80.2 29.2,77.2 "/>
<polygon fill="#82624B" points="28.2,77.6 34,80.9 35.1,84 37.6,83 37.8,83.6 35.1,84.6 29.6,81.3 35.4,85.3 36.9,90.4 29.6,84.9 
	"/>
<g>
	<defs>
		<rect id="SVGID_59_" width="238.9" height="153.2"/>
	</defs>
	<clipPath id="SVGID_60_">
		<use xlink:href="#SVGID_59_"  overflow="visible"/>
	</clipPath>
	<path clip-path="url(#SVGID_60_)" fill="#82624B" d="M43.2,71c0,0,1.5,0.9,1.6,1.7c0.1,0.8,0.8,2.6,0.8,2.6l3.9-1.6L43.2,71z"/>
	<path clip-path="url(#SVGID_60_)" fill="#C4AC95" d="M30.6,75.8l5.1,3.1l8.6-3.6l0.4-3.2c0,0-1.9-3.2-2.7-4
		c-0.8-0.8-2.5-1.3-2.5-1.3l-8.7,4.6c0,0-0.8,1.7-0.9,2C29.6,73.9,30.6,75.8,30.6,75.8"/>
	<path clip-path="url(#SVGID_60_)" fill="#957E74" d="M31,72.4l8-4.7c0,0,1.3-0.2,1.4,0.4c0.1,0.6,0.9,2.4,0.8,2.9
		c-0.1,0.5-1.5,2.9-2.6,2.8c-1.1-0.1-2.1-0.5-2.1-0.5s-1.6,1.2-2,1C34.1,74.1,31,72.4,31,72.4"/>
</g>
<polygon fill="#372A21" points="207.8,113.1 205.2,114.2 220.7,118 233.3,112.6 230.9,111.5 231.5,112.7 220.5,116.9 208.8,114.4 
	"/>
<polygon fill="#8C7055" points="124.2,131.6 123.2,132.2 123.2,133.7 135.4,138.3 165.2,134.1 164.9,132.7 164.4,132.3 135.7,136 
	"/>
<polygon fill="#8C7055" points="163.9,126.1 178.4,131.1 199.9,126.7 200.7,127.8 200.6,128.6 177.7,132.7 164,127.8 "/>
<g>
	<defs>
		<rect id="SVGID_61_" width="238.9" height="153.2"/>
	</defs>
	<clipPath id="SVGID_62_">
		<use xlink:href="#SVGID_61_"  overflow="visible"/>
	</clipPath>
	<path clip-path="url(#SVGID_62_)" fill="#522313" d="M95.6,48c0,0,3.6,1,8-0.3c2.7-0.8,12.1-4.6,12.1-4.6l10.5-1.1l0.3,0.4
		l-10.2,1.8c0,0-8.9,3.8-10.9,4.4C103.5,49.1,96.5,49.9,95.6,48"/>
</g>
<polygon fill="#522313" points="114.4,29.9 115.3,29.6 115.7,42 114.8,41.8 "/>
<polygon fill="#522313" points="115.6,23.6 105.5,26.2 108,26.6 115.5,24.4 "/>
<polygon fill="#C77D32" points="101.7,26.2 112,28 124.8,25 123,25.1 111.6,27.1 105.5,26.2 115.7,23.5 114.7,23.4 "/>
<g>
	<defs>
		<rect id="SVGID_63_" width="238.9" height="153.2"/>
	</defs>
	<clipPath id="SVGID_64_">
		<use xlink:href="#SVGID_63_"  overflow="visible"/>
	</clipPath>
	<path clip-path="url(#SVGID_64_)" fill="#C77D32" d="M97.2,43.3c0,0-2.8,0.9-3,1.7C94,45.7,94,47.7,96,48.2c2,0.5,7.1,0,8.9-1.1
		c0,0-0.9-1.3-3-2.2C99.7,44,97.2,43.3,97.2,43.3"/>
</g>
<polygon fill="#C77D32" points="91.8,58.7 88,65.9 82.9,65.7 86.9,58.6 87.6,59.5 "/>
<polygon fill="#372A21" points="28.6,94.1 27.2,94 32.7,98.3 52.6,97.3 52.2,96.3 33.2,97.4 "/>
<polygon fill="#BA3563" points="54.1,99.4 61.1,96.1 65.3,96.3 65.6,97.9 86.1,98.1 89,96.6 92.9,96.9 94.5,126.1 89.4,131.6 
	87.7,131.7 87.6,133.3 61.8,133.7 61.3,130.8 60.2,131.7 56,131.5 55.4,129 54.3,128.8 "/>
<polygon fill="#9A265D" points="61,96.3 61.2,124.9 56.3,130.8 56.3,128.7 54.4,128.7 53.9,99.3 "/>
<polygon fill="#E5C294" points="61.7,97.8 61.9,125 64.6,125 64.4,97.9 "/>
<polygon fill="#E5C294" points="89.9,97.9 91.1,125.3 93.9,125.5 92.3,98.1 "/>
<polygon fill="#7D194E" points="57.2,131.1 62.1,126 64.8,126 60,131.3 60.5,131.2 63.1,128.6 63,132.7 87.3,132.4 87.3,133 
	61.8,133.7 61.3,130.8 60,131.9 "/>
<polygon fill="#7D194E" points="87.8,131.4 88,129.4 91,126.1 93.9,126.3 89.2,131.4 "/>
<polygon fill="#7D194E" points="53.9,98.9 54.3,128.7 57.4,128.6 57.3,106.8 57.2,100.2 61,96.5 "/>
<g>
	<defs>
		<rect id="SVGID_65_" width="238.9" height="153.2"/>
	</defs>
	<clipPath id="SVGID_66_">
		<use xlink:href="#SVGID_65_"  overflow="visible"/>
	</clipPath>
	<path clip-path="url(#SVGID_66_)" fill="#798173" d="M64.2,99.8c0,0.7-0.5,1.2-1.1,1.2s-1.1-0.5-1.1-1.2c0-0.6,0.5-1.2,1.1-1.2
		S64.2,99.2,64.2,99.8"/>
	<path clip-path="url(#SVGID_66_)" fill="#ACB6A7" d="M64.2,99.4c0,0.4-0.3,0.8-0.8,0.8c-0.4,0-0.8-0.4-0.8-0.8s0.3-0.8,0.8-0.8
		C63.8,98.7,64.2,99,64.2,99.4"/>
	<path clip-path="url(#SVGID_66_)" fill="#798173" d="M92.6,100.3c0,0.7-0.5,1.2-1.1,1.2c-0.6,0-1.1-0.5-1.1-1.2
		c0-0.6,0.5-1.2,1.1-1.2C92.1,99.1,92.6,99.6,92.6,100.3"/>
	<path clip-path="url(#SVGID_66_)" fill="#ACB6A7" d="M92.6,99.9c0,0.4-0.3,0.8-0.8,0.8c-0.4,0-0.8-0.4-0.8-0.8
		c0-0.4,0.3-0.8,0.8-0.8C92.3,99.1,92.6,99.5,92.6,99.9"/>
	<path clip-path="url(#SVGID_66_)" fill="#798173" d="M93.9,123.7c0,0.6-0.5,1.2-1.1,1.2c-0.6,0-1.1-0.5-1.1-1.2
		c0-0.7,0.5-1.2,1.1-1.2C93.4,122.5,93.9,123.1,93.9,123.7"/>
	<path clip-path="url(#SVGID_66_)" fill="#ACB6A7" d="M93.9,123.3c0,0.4-0.3,0.8-0.8,0.8c-0.4,0-0.8-0.4-0.8-0.8s0.3-0.8,0.8-0.8
		C93.5,122.5,93.9,122.9,93.9,123.3"/>
	<path clip-path="url(#SVGID_66_)" fill="#798173" d="M64.4,123.6c0,0.7-0.5,1.2-1.1,1.2s-1.1-0.5-1.1-1.2c0-0.6,0.5-1.2,1.1-1.2
		S64.4,122.9,64.4,123.6"/>
	<path clip-path="url(#SVGID_66_)" fill="#ACB6A7" d="M64.4,123.2c0,0.4-0.3,0.8-0.8,0.8c-0.4,0-0.8-0.4-0.8-0.8
		c0-0.4,0.3-0.8,0.8-0.8C64,122.4,64.4,122.8,64.4,123.2"/>
</g>
<polygon fill="#E5C294" points="65.8,99.8 66,104.6 85.6,104.8 85.3,100.1 "/>
<polygon fill="#F5E0AD" points="65.2,107.2 85.8,107.2 86.5,131 63.7,131.3 63.8,128.1 65.4,126.3 "/>
<polygon fill="#E5C294" points="66,108.8 85.1,109 85.3,129.7 65.1,129.8 "/>
<polygon fill="#B89C78" points="66.1,108.7 85.2,109 85.1,128.9 84.2,109.8 "/>
<polygon fill="#9A265D" points="89.1,96.8 90.6,125.5 87.7,128.7 86.5,98 "/>
</svg>
