<?xml version="1.0" encoding="utf-8"?>
<!-- Generator: Adobe Illustrator 18.1.1, SVG Export Plug-In . SVG Version: 6.00 Build 0)  -->
<svg version="1.1" id="Layer_1" xmlns="http://www.w3.org/2000/svg" xmlns:xlink="http://www.w3.org/1999/xlink" x="0px" y="0px"
	 viewBox="0 0 62.4 95" enable-background="new 0 0 62.4 95" xml:space="preserve">
<g>
	<defs>
		<rect id="SVGID_1_" x="0" y="0" width="62.4" height="95"/>
	</defs>
	<clipPath id="SVGID_2_">
		<use xlink:href="#SVGID_1_"  overflow="visible"/>
	</clipPath>
	<path clip-path="url(#SVGID_2_)" fill="#41434E" d="M3.5,14.1c0,0,2.3,76.3,3.2,77.1c0.3,0.3,0.6,1,3.8,1.3c2-0.4,3.9-1.7,4.3-1.6
		c0.8,0.3,7.9,1,7.9,1s-0.1,0.9,0.3,1c3.4,0.7,5.7,0.7,6.6,0.8c2.9,0.2,13.7-1.9,13.7-1.9l0.4-5.3l5.9-10l4-63.6l5.3,0.1l2-2.6
		l0.2-0.8c0,0,1.4,0.4,1.2-2.2c-0.1-1.5-3.4-1-3.4-1l-2.5-1.4l-5-0.2l-7-0.5c0,0-3.9-2.1-4.6-2.2c-0.7-0.1-3.4,0.1-4-0.2
		s-1.1-1.6-2.3-1.7C32.5,0.2,11.9,0,10.8,0C9.8,0,7.1,1.8,7.1,1.8s-5.2-0.2-5,0.8c0.2,1,2.6,1,2.6,1v1.9L1.8,5.6
		c0,0-0.7,0.4-0.7,1.1v1.6c0,0-1,0.4-1,1.4c0,1.1-0.2,1.9-0.2,1.9l2.3,0.2c0,0,0.1,1.6,0.1,2C2.3,14.1,3.5,14.1,3.5,14.1"/>
	<path clip-path="url(#SVGID_2_)" fill="#2C2E33" d="M29.6,7.4C27.4,7.5,6,7.3,4.6,7.3c-1.4,0-3.3-0.4-3.3-0.4L1.2,8.3L0.5,9.2
		l-0.1,2.3l1.9,0.2l0.2,1.8l0.9-1l1.3-2.8l0.4-0.3L5,13.5l1.9,0h0.3l1.5-4l0,4.1l1.8,0.1l1.9-4.1l0,4.1l1.6,0.1l2-4.1v4.1l1.8,0.1
		l1.9-4l-0.1,4l1.8,0l1.7-3.9l-0.1,3.8l1.3-0.6l2.1,0L27,9.8L4,9.2l0.8-0.9c0,0,22.9,0.4,26.5,0.2c0-0.4,0-0.7,0-1.1
		C30.8,7.4,30.3,7.4,29.6,7.4"/>
	<polygon clip-path="url(#SVGID_2_)" fill="#6C7181" points="26.9,11.4 22.6,13.9 21.6,13.9 22.9,9.9 22.5,9.9 21.1,13.7 18.1,13.7 
		19.5,9.8 19,9.8 17.4,13.7 14.3,13.6 15.8,9.6 15.4,9.6 13.7,13.6 10.9,13.5 12.3,9.6 12,9.6 10.3,13.5 7.5,13.4 8.7,9.4 8.4,9.4 
		6.9,13.4 3.7,13.4 5.2,9.3 4.7,9.3 2.8,14 22.9,14.3 26.9,12.1 58.3,12.9 58.7,12.6 35.9,11.8 36,9.1 32.2,9.1 32.2,11.6 	"/>
	<path clip-path="url(#SVGID_2_)" fill="#2C2E33" d="M30.7,8.3c0,0,0.1-1.6,0.8-1.7c0.6-0.1,8.2,0.1,8.2,0.1L40,6.3l15.2,0.9
		l-3.7-2.5L56.4,5l2,1.5l-0.8,1.9L59,6.7l1.9,0.1l-2.5,2.6L30.7,8.3z"/>
</g>
<polygon fill="#2C2E33" points="35.9,9.3 50.7,9.8 50.6,11.8 51.3,12 51.5,9.9 58.6,10.1 60.6,8.1 60.9,9.9 58.7,12.6 35.4,11.7 "/>
<g>
	<defs>
		<rect id="SVGID_3_" x="0" y="0" width="62.4" height="95"/>
	</defs>
	<clipPath id="SVGID_4_">
		<use xlink:href="#SVGID_3_"  overflow="visible"/>
	</clipPath>
	<path clip-path="url(#SVGID_4_)" fill="#2C2E33" d="M3.9,5.8c0,0,25.4,0.3,27.4,0.3c2.1,0,5.4-0.2,6.1-0.2h1.9l0.4,0l-0.1-0.7
		l-1.1-0.5c0,0,0.1-0.5,0-0.5c-0.1,0-0.9-0.1-0.9-0.1l0.1,1.1L26.4,5.6l-0.2-2.2L4.8,3.1L4.7,5.5L3.9,5.8z"/>
	<path clip-path="url(#SVGID_4_)" fill="#18181B" d="M4.8,2.2H28l10.6,1.9l0.7,0.4l-1.4-0.1c0,0-0.6-0.1-0.7,0l-2.6-0.1
		c0,0-1.6-0.7-3.1-0.7c-1.5,0-4.7,0-4.7,0l0,1.9l-0.6,0l0-1.7L7.8,3.8L7.4,5.2l-0.5,0L6.8,3.8c0,0-1.3-0.1-1.6,0.2L5.2,3.2l-0.4,0
		L4.8,2.2z"/>
	<path clip-path="url(#SVGID_4_)" fill="#6C7181" d="M33.1,0.6l0.6,1.5l1.2,0.6l-7-1l0.1,0.6c0,0,10.2,1.3,10.6,1.7
		c0.4,0.3,0.1,0.8,0.1,0.8s1,0.3,1,0.6c0.1,0.3-0.1,0.8-0.1,0.8l15.6,1l-3.7-2.5l-7.3-0.5c0,0-3.6-2.3-4.3-2.2
		c-0.7,0.1-2.3,0.5-3.5,0C35.2,1.6,35.1,0.7,33.1,0.6"/>
</g>
<polygon fill="#6C7181" points="7.2,5.5 7.9,5.5 7.8,4 7.5,3.5 7.3,3.5 "/>
<polygon fill="#6C7181" points="26.5,5.4 27.2,5.4 27.1,3.9 26.9,3.4 26.6,3.4 "/>
<g>
	<defs>
		<rect id="SVGID_5_" x="0" y="0" width="62.4" height="95"/>
	</defs>
	<clipPath id="SVGID_6_">
		<use xlink:href="#SVGID_5_"  overflow="visible"/>
	</clipPath>
	<path clip-path="url(#SVGID_6_)" fill="#2C2E33" d="M19.9,41.4l-4.3,0l-1.1,49.5l8.7,0.9l0.3,1.1l4.3,0.4l0-78.9l-1.2-0.2
		l-0.2,12.9l-2.9,1.1v-8.6l-3.4-2L7.1,18l-0.2,8.6l-2.9,2c0,0,2.3,62.4,2.7,63.2c0.4,0.8,4,0.6,4,0.6l0.8-55.6l10.4,0.6L19.9,41.4z"
		/>
</g>
<polygon fill="#2C2E33" points="32.9,13.1 36.8,16.8 35.4,93 42.6,89.9 42.5,74.6 48.2,69.1 50.5,13.6 "/>
<g>
	<defs>
		<rect id="SVGID_7_" x="0" y="0" width="62.4" height="95"/>
	</defs>
	<clipPath id="SVGID_8_">
		<use xlink:href="#SVGID_7_"  overflow="visible"/>
	</clipPath>
	<path clip-path="url(#SVGID_8_)" fill="#18181B" d="M3.9,28.6l2.9-2l-0.2-0.2l-1-0.1v-8.8l-1.5-2.3l3,2.9l13.1,0l3.4,1.7v8.6
		l2.9-1.1l-1.3-0.3L25,17.5l-1.4-2.7l2-1.4l1.2,0.8c0,0,3.2-0.9,4.9-1c1.7-0.1,10.5,0.3,10.5,0.3l3.5,1.9l-1.7,48.2l-3.1,2.2
		l-0.9,24.5l-8.3,3.2c0,0-7.1-0.5-7.9-0.8c0,0-0.7-53.2-1.1-54.5c-0.4-1.3-1.2-1-2.3-1c-1.1,0-8.9-0.4-8.9-0.4l4.3,5.7h3.1
		l-0.4,48.8l4.3,0.7c0,0-0.1,1.8,0.3,2c0.4,0.1,5.9,1,7.5,1c3.7-0.1,12.9-3.2,12.9-3.2s-0.6-12.1,0.4-15.9c1.1-3.9,4.4-5.6,4.4-5.6
		l0.2,0.4c0,0-3.6,2.8-4.4,6.6c-0.8,3.8-0.4,9.1-0.4,9.1l8.2-10l4-63.6l-28.7-0.9l-4.8,2.6L3.5,14.1L3.9,28.6z"/>
	<path clip-path="url(#SVGID_8_)" fill="#0F0F0F" d="M58.8,81.2c0.1-0.1,0.2-0.3,0.3-0.5c0-0.2,0-0.4-0.2-0.5c0-0.4,0-0.8,0-1.1
		C59,79.1,59,79,59,78.9c0-0.2-0.1-0.3-0.2-0.4c0-0.3-0.1-0.7-0.2-1c0.1-0.1,0.1-0.2,0.1-0.3c0-0.2-0.1-0.4-0.3-0.5
		c-0.1-0.4-0.2-0.7-0.4-1c0.1-0.1,0.1-0.2,0.1-0.3c0-0.3-0.2-0.5-0.4-0.5l0,0c0-0.3-0.1-0.5-0.3-0.8c0.1-0.1,0.1-0.2,0.1-0.3
		c0-0.3-0.2-0.5-0.4-0.5c0,0-0.3-0.4-0.7-0.8c0-0.2-0.3-0.7-0.5-0.7c0,0-0.6-0.9-3-1.1c-3.4-0.3-4.2,0.6-4.2,0.6
		c-0.3,0-0.5,0.1-0.5,0.3c0,0.2-0.5,0.6-0.7,0.7l-0.3,0c-0.3,0-0.5,0.2-0.5,0.4c0,0.2,0.1,0.4,0.3,0.5c-0.2,0.2-0.4,0.4-0.5,0.6
		l-0.5,0c-0.2,0-0.5,0.2-0.5,0.4c0,0.2,0.1,0.4,0.3,0.5c-0.2,0.2-0.3,0.5-0.5,0.8l-0.4,0c-0.2,0-0.5,0.2-0.5,0.4
		c0,0.3,0.2,0.5,0.4,0.5l0,0c-0.1,0.2-0.2,0.5-0.3,0.7l-0.1,0c-0.2,0-0.5,0.2-0.5,0.4c0,0.2,0.1,0.4,0.3,0.5
		c-0.1,0.3-0.1,0.6-0.2,0.9l0,0c-0.2,0-0.5,0.2-0.5,0.5c0,0.3,0.1,0.6,0.4,0.6l0,0c0,0.3,0,0.7,0,1c-0.2,0-0.4,0.2-0.4,0.4
		c0,0.3,0.2,0.5,0.4,0.5l0,0c0,0.3,0.1,0.5,0.1,0.8c-0.2,0-0.4,0.2-0.5,0.4c0,0.3,0.2,0.5,0.4,0.5l0.2,0c0,0.3,0.1,0.6,0.2,0.8
		c-0.2,0.1-0.3,0.2-0.3,0.4c0,0.3,0.2,0.5,0.4,0.5l0.3,0c0.1,0.3,0.3,0.5,0.5,0.7c-0.1,0.1-0.2,0.2-0.2,0.3c0,0.3,0.2,0.5,0.4,0.5
		l0.5,0c0.2,0.2,0.3,0.4,0.5,0.5c-0.1,0.1-0.2,0.1-0.2,0.2c0,0.2,0.2,0.4,0.5,0.4c0,0,1.2,1.1,3.3,1.3c1.4,0.1,2.7-0.1,3.2-0.5
		c0,0,0.7,0.2,1-0.4c0,0,0-0.1,0-0.1c0.3-0.2,0.5-0.3,0.8-0.5l0.3,0c0.3,0,0.5-0.2,0.5-0.4c0-0.1,0-0.2-0.1-0.3
		c0.2-0.2,0.4-0.5,0.6-0.7l0,0c0.3,0,0.5-0.2,0.5-0.4c0-0.1,0-0.2-0.1-0.3c0.2-0.3,0.4-0.6,0.6-0.9c0.2,0,0.4-0.2,0.4-0.4
		c0-0.1,0-0.2-0.1-0.3c0.1-0.3,0.2-0.6,0.3-1c0.1-0.1,0.3-0.2,0.3-0.4c0-0.1,0-0.2-0.1-0.3C58.7,82,58.8,81.6,58.8,81.2"/>
	<path clip-path="url(#SVGID_8_)" fill="#2C2E33" d="M57.9,80.7c-0.4,4.2-2.9,7.4-5.6,7.2c-2.7-0.2-4.5-3.8-4.1-8
		c0.4-4.2,2.9-7.4,5.6-7.2C56.4,73,58.3,76.6,57.9,80.7"/>
</g>
<polygon fill="#2C2E33" points="54.5,79.5 53.4,78.9 52.4,80 52.6,81.4 53.7,81.9 54.6,80.9 "/>
<g>
	<defs>
		<rect id="SVGID_9_" x="0" y="0" width="62.4" height="95"/>
	</defs>
	<clipPath id="SVGID_10_">
		<use xlink:href="#SVGID_9_"  overflow="visible"/>
	</clipPath>
	<path clip-path="url(#SVGID_10_)" fill="#2C2E33" d="M53.5,74l0.2,4.5l0.8,0.4l2-2.4c0,0-0.1-0.9-1.3-1.9
		C54.3,73.8,53.5,74,53.5,74"/>
	<path clip-path="url(#SVGID_10_)" fill="#2C2E33" d="M56.9,77.6l-2,2.1l0.1,1.1l2,0.5c0,0,0.3-0.9,0.2-2
		C57.2,78.3,56.9,77.6,56.9,77.6"/>
	<path clip-path="url(#SVGID_10_)" fill="#2C2E33" d="M54.9,81.4l2.1,0.8c0,0-0.1,1.2-1.1,2.5c-0.9,1.2-1.5,1.4-1.5,1.4l-0.3-3.9
		L54.9,81.4z"/>
	<path clip-path="url(#SVGID_10_)" fill="#2C2E33" d="M52.5,81.9l0.9,0.4l0.2,4.1c0,0-1,0.3-1.9-0.1c-1.1-0.5-1.5-1.6-1.5-1.6
		L52.5,81.9z"/>
	<path clip-path="url(#SVGID_10_)" fill="#2C2E33" d="M49.4,79.5l2.5,0.9l0.1,0.9l-2.2,2.5c0,0-0.4-1-0.5-2.3
		C49.2,80.6,49.4,79.5,49.4,79.5"/>
	<path clip-path="url(#SVGID_10_)" fill="#2C2E33" d="M52.9,78.7l-0.8,0.8l-2.5-0.9c0,0,0.4-1.9,1.3-3.1c0.9-1.2,1.7-1.5,1.7-1.5
		L52.9,78.7z"/>
</g>
<polygon fill="#3E4348" points="54.5,79.5 53.4,78.9 52.4,80 52.6,81.4 53.7,81.9 54.6,80.9 "/>
<g>
	<defs>
		<rect id="SVGID_11_" x="0" y="0" width="62.4" height="95"/>
	</defs>
	<clipPath id="SVGID_12_">
		<use xlink:href="#SVGID_11_"  overflow="visible"/>
	</clipPath>
	<path clip-path="url(#SVGID_12_)" fill="#3E4348" d="M53.5,74l0.2,4.5l0.8,0.4l2-2.4c0,0-0.1-0.9-1.3-1.9
		C54.3,73.8,53.5,74,53.5,74"/>
	<path clip-path="url(#SVGID_12_)" fill="#3E4348" d="M56.9,77.6l-2,2.1l0.1,1.1l2,0.5c0,0,0.3-0.9,0.2-2
		C57.2,78.3,56.9,77.6,56.9,77.6"/>
	<path clip-path="url(#SVGID_12_)" fill="#3E4348" d="M54.9,81.4l2.1,0.8c0,0-0.1,1.2-1.1,2.5c-0.9,1.2-1.5,1.4-1.5,1.4l-0.3-3.9
		L54.9,81.4z"/>
	<path clip-path="url(#SVGID_12_)" fill="#3E4348" d="M52.5,81.9l0.9,0.4l0.2,4.1c0,0-1.1,0.3-2-0.1c-1.1-0.5-1.4-1.6-1.4-1.6
		L52.5,81.9z"/>
	<path clip-path="url(#SVGID_12_)" fill="#3E4348" d="M49.4,79.5l2.5,0.9l0.1,0.9l-2.2,2.5c0,0-0.4-1-0.5-2.3
		C49.2,80.6,49.4,79.5,49.4,79.5"/>
	<path clip-path="url(#SVGID_12_)" fill="#3E4348" d="M52.9,78.8l-0.8,0.8l-2.5-0.9c0,0,0.4-1.9,1.3-3.1c0.9-1.2,1.7-1.5,1.7-1.5
		L52.9,78.8z"/>
</g>
<polygon fill="#0F0F0F" points="54.1,79.3 53.4,78.9 52.4,80 52.5,81 53.5,81.4 54.2,80.6 "/>
<g>
	<defs>
		<rect id="SVGID_13_" x="0" y="0" width="62.4" height="95"/>
	</defs>
	<clipPath id="SVGID_14_">
		<use xlink:href="#SVGID_13_"  overflow="visible"/>
	</clipPath>
	<path clip-path="url(#SVGID_14_)" fill="#0F0F0F" d="M53.6,74.6l0.2,4l0.3,0.2l1.9-2.2c0,0-0.1-0.7-1.2-1.5
		C53.9,74.5,53.6,74.6,53.6,74.6"/>
	<path clip-path="url(#SVGID_14_)" fill="#0F0F0F" d="M56.5,78l-1.6,1.7l0.1,0.7l1.6,0.4c0,0,0.2-0.2,0.2-1.4
		C56.8,78.4,56.5,78,56.5,78"/>
	<path clip-path="url(#SVGID_14_)" fill="#0F0F0F" d="M54.8,81.5l1.5,0.8c0,0,0,0.8-0.7,1.8c-0.6,0.8-1.2,1.1-1.2,1.1l-0.2-2.9
		L54.8,81.5z"/>
	<path clip-path="url(#SVGID_14_)" fill="#0F0F0F" d="M52.5,81.9l0.6,0.2l0.1,3.4c0,0-1,0.5-2.1,0c-1.1-0.5-0.9-0.9-0.9-0.9
		L52.5,81.9z"/>
	<path clip-path="url(#SVGID_14_)" fill="#0F0F0F" d="M49.4,79.5l2.5,0.9l0.1,0.9l-2.2,2.5c0,0-0.4-1-0.5-2.3
		C49.2,80.6,49.4,79.5,49.4,79.5"/>
	<path clip-path="url(#SVGID_14_)" fill="#0F0F0F" d="M52.7,78.8l-0.7,0.7l-2.5-0.9c0,0,0.4-1.9,1.3-3.1c0.9-1.2,1.4-1,1.4-1
		L52.7,78.8z"/>
	<path clip-path="url(#SVGID_14_)" fill="#3E4348" d="M52.3,71.1c0,0-6.2,0.5-6.7,8.5c-0.4,6.7,2.9,8.8,2.9,8.8s-4.1-2-3.4-9
		C46,70.9,52.3,71.1,52.3,71.1"/>
	<path clip-path="url(#SVGID_14_)" fill="#18181B" d="M1.3,8.5c0,0,22.1,0.2,24.8,0.3c2.7,0.1,9.6,0,13,0.1
		C42.5,9,50.8,9.3,50.8,9.3l0.1,2.6l0.4,0.1l0.2-2.6l5.7,0.1V9.1c0,0-20.5-0.9-22.9-0.9C31.9,8.1,1.9,8,1.9,8L1.3,8.5z"/>
	<path clip-path="url(#SVGID_14_)" fill="#18181B" d="M62.1,8c0,0.6-0.3,1.1-0.6,1.1S60.9,8.7,60.9,8c0-0.6,0.3-1.1,0.6-1.1
		S62.1,7.4,62.1,8"/>
	<path clip-path="url(#SVGID_14_)" fill="#6C7181" d="M22.8,49.8c0,0-9.8-0.5-10.1-0.6c-0.4,0-0.7,0.6-0.7,1.2
		c0,0.6,0.3,1.2,0.5,1.2c0.3,0.1,10.3,0.7,10.3,0.7L22.8,49.8z"/>
</g>
<polygon fill="#6C7181" points="33,13.3 34.3,14.7 33.6,92.6 32.8,93 "/>
</svg>
