<?xml version="1.0" encoding="utf-8"?>
<!-- Generator: Adobe Illustrator 18.1.1, SVG Export Plug-In . SVG Version: 6.00 Build 0)  -->
<svg version="1.1" id="Layer_1" xmlns="http://www.w3.org/2000/svg" xmlns:xlink="http://www.w3.org/1999/xlink" x="0px" y="0px"
	 viewBox="0 0 171.6 62" enable-background="new 0 0 171.6 62" xml:space="preserve">
<g>
	<defs>
		<rect id="SVGID_1_" y="0" width="171.6" height="62"/>
	</defs>
	<clipPath id="SVGID_2_">
		<use xlink:href="#SVGID_1_"  overflow="visible"/>
	</clipPath>
	<path clip-path="url(#SVGID_2_)" fill="#54BAEA" d="M12.4,43.9c0,1.1-0.6,2-1.4,2c-0.1,0-2.9,0.5-3,0.5c-0.7-0.2-1.2-1-1.2-1.9
		c0-1,0.2-2,0.9-2.1c0.1,0,3.2-0.3,3.3-0.3C11.8,41.9,12.4,42.8,12.4,43.9"/>
	<path clip-path="url(#SVGID_2_)" fill="#224161" d="M12.4,43.5c0.1,1.3-0.6,2.3-1.4,2.3c-0.1,0-3.1,0.6-3.2,0.5
		c-0.7-0.2-1.2-1.1-1.2-2.3c0-1.2,1.1,1.7,1.9,1.6c0.1,0,1.7-0.3,2.7-0.5C12.1,45,12.2,44.5,12.4,43.5"/>
	<path clip-path="url(#SVGID_2_)" fill="#3F55A3" d="M9.4,44.3c0,1.2-0.6,2.1-1.4,2.1s-1.4-0.9-1.4-2.1c0-1.2,0.6-2.1,1.4-2.1
		S9.4,43.1,9.4,44.3"/>
	<path clip-path="url(#SVGID_2_)" fill="#224161" d="M9,44.5c0,0.1-0.1,0.2-0.1,0.2s-0.1-0.1-0.1-0.2s0.1-0.2,0.1-0.2S9,44.4,9,44.5
		"/>
	<path clip-path="url(#SVGID_2_)" fill="#4B5D5F" d="M7.6,45.2c0,0.1-0.1,0.2-0.1,0.2s-0.1-0.1-0.1-0.2c0-0.1,0.1-0.2,0.1-0.2
		S7.6,45.1,7.6,45.2"/>
	<path clip-path="url(#SVGID_2_)" fill="#4280BF" d="M15.2,42.1l-5.6,0.7l-1.1-0.1l0.1,2.8l-0.3,0l-1.9-0.2l-0.1-2.9L4,42.1l0-1.3
		l-0.4,0v-0.5l-0.3-0.1l0-2.7l-0.9,0c0,0-0.1,0.2-0.1,0.4c0,0.2-0.5,0.1-0.5-0.1c0-0.2,0-0.3,0-0.3l-0.3,0l0-0.3l0.1,0l0-0.6
		l0.2-0.1v-0.8l-0.3-0.2c0,0-0.1-1,0-0.9c0.3,0,1.7,0,1.7,0l-0.4-8.6l-0.9,0c0,0-0.1,0.2-0.1,0.4c0,0.2-0.5,0.1-0.5-0.1
		c0-0.2,0-0.3,0-0.3l-0.3,0l0-0.3l0.1,0l0-0.6L1,24.6v-0.8l-0.3-0.2c0,0-0.1-1,0-0.9c0.3,0,1.8-0.1,1.8-0.1l-0.3-7.9l-1.1,0
		C1,14.7,1,14.8,1,15c0,0.2-0.5,0.1-0.5-0.1c0-0.2,0-0.3,0-0.3l-0.3,0l0-0.3l0.1,0l0-0.6l0.2-0.1v-0.8L0,12.4c0,0-0.1-1,0-0.9
		c0.3,0,1.8-0.1,1.8-0.1l0-7.7L146.4,0l22.4,1.9l0.2,3.7l-3.8,0.4l-0.1,6l2,2c0,0-0.2,0,0.2,0c0.4,0.1,0.3,0.9,0.1,0.9
		s-2.4,0.1-2.4,0.1l-0.1,5.4l2,2c0,0-0.2,0,0.2,0c0.4,0.1,0.3,0.9,0.1,0.9s-2.5,0.7-2.5,0.7l-0.1,5l2,2c0,0-0.2,0,0.2,0
		c0.4,0.1,0.3,0.9,0.1,0.9s-2.4,0.1-2.4,0.1l-0.6,1.3l-1.2,0.2l0.1,14.1l1.8,0.2l0,1.6l1.4,0.2v-1.2l0.4-0.3c0,0,2.2,0.3,3,0.5
		c0.7,0.2,2.1,1.3,1.9,2.9c-0.2,1.6-1.9,3.8-5,3.5c-3.1-0.3-4.5-0.4-4.5-0.4s1.2,1.4,0.9,3.6c-0.3,2.2-2.2,3.6-4.5,3.6
		c-2,0-137.6-18-137.6-18l-0.5-1.2L15.2,42.1z"/>
</g>
<polygon fill="#54BAEA" points="146.4,5.4 168.9,5.7 168.8,2.1 146.3,0.4 "/>
<polygon fill="#54BAEA" points="153.9,6.1 155.5,6.1 154.9,52.1 153.3,53 "/>
<polygon fill="#54BAEA" points="161.9,6.3 163.2,6.3 163,48.1 161.4,48.7 "/>
<g>
	<defs>
		<rect id="SVGID_3_" y="0" width="171.6" height="62"/>
	</defs>
	<clipPath id="SVGID_4_">
		<use xlink:href="#SVGID_3_"  overflow="visible"/>
	</clipPath>
	<path clip-path="url(#SVGID_4_)" fill="#54BAEA" d="M163.4,7.7l-0.1,24.2l0.6,0l0.4-0.8l0-2.2l0.5,0.6l0-5.4c0,0,2.4-0.6,2.6-0.7
		c0.4-0.2-0.1-0.7-0.1-0.7l-3,0.6l0-0.7l0.2-0.1l0-2.5l0.5,0.5l0.1-5.4l2.5-0.1c0,0,0.2-0.7-0.1-0.7c-0.4,0-2.8,0.1-2.8,0.1l0.1-2.7
		l0.5,0.4l-0.1-4.4L163.4,7.7z"/>
</g>
<polygon fill="#54BAEA" points="155.7,7.7 155.4,35.9 159,34.4 159.3,7.8 "/>
<polygon fill="#54BAEA" points="145.3,8.1 144.3,7.4 144.2,39.7 150.7,37.5 151.4,8.2 "/>
<polygon fill="#54BAEA" points="155.3,47.7 158.1,47.9 159,48.5 161.5,48.8 163.2,48.1 163.2,47.9 164.6,48 163.2,49.4 155.2,48.7 
	"/>
<polygon fill="#54BAEA" points="155.3,52.2 157.4,52.5 155,53.8 140.5,52.2 135.5,55.1 14.5,40.5 9.7,41.3 7.8,40.8 11.4,40 
	125.9,53.2 141.2,46.5 141.8,46.6 140.2,51.3 149.7,52.3 150.3,52.9 153.4,53.3 "/>
<polygon fill="#54BAEA" points="1.8,23.1 5.2,23.2 5.3,25.2 1.8,25 "/>
<polygon fill="#54BAEA" points="1.3,12 4.7,12.1 4.8,14.1 1.3,13.9 "/>
<polygon fill="#54BAEA" points="2.4,35 5.7,35.3 5.8,37.3 2.4,37 "/>
<polygon fill="#3F55A3" points="140.5,51.2 147.6,44.3 150.7,38 150.5,52.6 149.6,52.1 "/>
<polygon fill="#3F55A3" points="155.4,39 159.1,35.2 158.6,48 158.1,47.9 155.1,47.4 "/>
<g>
	<defs>
		<rect id="SVGID_5_" y="0" width="171.6" height="62"/>
	</defs>
	<clipPath id="SVGID_6_">
		<use xlink:href="#SVGID_5_"  overflow="visible"/>
	</clipPath>
	<path clip-path="url(#SVGID_6_)" fill="#3F55A3" d="M166.3,48.6l3.1,0.5c0,0,1.7,1.1,1.8,1.9c0.1,0.8-1.6,3.7-3,4
		c-1.4,0.3-6.1-0.2-6.1-0.2l-0.9-1.4l-3.6-0.3l-0.1-0.6l-2.2-0.5v-1.1l5.9,0.5l2.8,1.7l4,0.1L168,52l-1.2-1.9l-0.5-0.4V48.6z"/>
	<path clip-path="url(#SVGID_6_)" fill="#3F55A3" d="M157.5,53.5l3.4,0.2c0,0,1.3,1.6,1.6,3.1c0.3,1.6-1.4,5.2-3.7,5.1
		c-2.3-0.1-25.5-3.2-25.5-3.2l1.7-1.2l5.1-2.3l0.1,1.2l14.5,1.4l2.3-1.6L157.5,53.5z"/>
</g>
<polygon fill="#3F55A3" points="143.2,39.5 8.7,30.4 11.7,39.5 41.3,43 42.5,40.4 46,40.3 45.5,43.4 126,52.7 "/>
<polygon fill="#3F55A3" points="6,7.1 7.7,7.8 8.6,40.5 7.2,40.6 "/>
<polygon fill="#224161" points="8.2,30.1 8.9,40.3 11.5,39.7 "/>
<polygon fill="#224161" points="5.7,6.8 146.3,5.7 167.9,5.6 165.3,6.1 165.1,7.6 163.4,7.7 163.2,6.3 161.9,6.3 159.3,7.8 
	155.7,7.7 155.5,6.1 153.9,6.1 150.9,8 145.3,8.1 144.4,7.2 7.7,7.8 "/>
<polygon fill="#224161" points="127.1,52.5 144.1,40 150.7,37.5 147.5,43.9 144.4,44.8 "/>
<polygon fill="#224161" points="155.6,36 159.1,34.8 155.4,38.6 "/>
<polygon fill="#224161" points="134.7,57.4 132.9,58.7 20.9,44 20.4,42.8 "/>
<polygon fill="#224161" points="155.2,50.9 161.3,51.4 163.9,53.3 167.7,53.7 166,54.2 161.9,54.1 161.3,53.1 157.8,52.9 
	157.4,52.1 155.2,52 "/>
</svg>
